<svg xmlns="http://www.w3.org/2000/svg" width="778" font-family="ui-monospace,'JetBrains Mono','SF Mono',Menlo,Consolas,monospace" viewBox="0 0 778 152"><rect width="778" height="152" fill="#0d1117" stroke="#30363d" rx="10"/><text x="18" y="24" fill="#c9d1d9" font-size="13"><tspan fill="#39d353" font-weight="700">7,193</tspan> contributions in 2026 · ytd</text><text x="623" y="23" fill="#8b949e" font-size="9" text-anchor="end">less</text><rect width="8" height="8" x="631" y="14" fill="#161b22" rx="2"/><rect width="8" height="8" x="642" y="14" fill="#0a3a26" rx="2"/><rect width="8" height="8" x="653" y="14" fill="#0e5230" rx="2"/><rect width="8" height="8" x="664" y="14" fill="#15703c" rx="2"/><rect width="8" height="8" x="675" y="14" fill="#229246" rx="2"/><rect width="8" height="8" x="686" y="14" fill="#39d353" rx="2"/><rect width="8" height="8" x="697" y="14" fill="#5ce96f" rx="2"/><rect width="8" height="8" x="708" y="14" fill="#97fce4" rx="2"/><rect width="8" height="8" x="719" y="14" fill="#eafffa" rx="2"/><text x="760" y="23" fill="#8b949e" font-size="9" text-anchor="end">more</text><rect width="11" height="11" x="18" y="96" fill="#229246" rx="2.5"/><rect width="11" height="11" x="18" y="110" fill="#229246" rx="2.5"/><rect width="11" height="11" x="18" y="124" fill="#161b22" rx="2.5"/><rect width="11" height="11" x="32" y="40" fill="#161b22" rx="2.5"/><rect width="11" height="11" x="32" y="54" fill="#15703c" rx="2.5"/><rect width="11" height="11" x="32" y="68" fill="#39d353" rx="2.5"/><rect width="11" height="11" x="32" y="82" fill="#0a3a26" rx="2.5"/><rect width="11" height="11" x="32" y="96" fill="#0a3a26" rx="2.5"/><rect width="11" height="11" x="32" y="110" fill="#161b22" rx="2.5"/><rect width="11" height="11" x="32" y="124" fill="#161b22" rx="2.5"/><rect width="11" height="11" x="46" y="40" fill="#0a3a26" rx="2.5"/><rect width="11" height="11" x="46" y="54" fill="#5ce96f" rx="2.5"/><rect width="11" height="11" x="46" y="68" fill="#15703c" rx="2.5"/><rect width="11" height="11" x="46" y="82" fill="#0e5230" rx="2.5"/><rect width="11" height="11" x="46" y="96" fill="#15703c" rx="2.5"/><rect width="11" height="11" x="46" y="110" fill="#0e5230" rx="2.5"/><rect width="11" height="11" x="46" y="124" fill="#0e5230" rx="2.5"/><rect width="11" height="11" x="60" y="40" fill="#0a3a26" rx="2.5"/><rect width="11" height="11" x="60" y="54" fill="#5ce96f" rx="2.5"/><rect width="11" height="11" x="60" y="68" fill="#97fce4" rx="2.5"/><rect width="11" height="11" x="60" y="82" fill="#229246" rx="2.5"/><rect width="11" height="11" x="60" y="96" fill="#0e5230" rx="2.5"/><rect width="11" height="11" x="60" y="110" fill="#15703c" rx="2.5"/><rect width="11" height="11" x="60" y="124" fill="#161b22" rx="2.5"/><rect width="11" height="11" x="74" y="40" fill="#161b22" rx="2.5"/><rect width="11" height="11" x="74" y="54" fill="#39d353" rx="2.5"/><rect width="11" height="11" x="74" y="68" fill="#39d353" rx="2.5"/><rect width="11" height="11" x="74" y="82" fill="#229246" rx="2.5"/><rect width="11" height="11" x="74" y="96" fill="#5ce96f" rx="2.5"/><rect width="11" height="11" x="74" y="110" fill="#39d353" rx="2.5"/><rect width="11" height="11" x="74" y="124" fill="#161b22" rx="2.5"/><rect width="11" height="11" x="88" y="40" fill="#161b22" rx="2.5"/><rect width="11" height="11" x="88" y="54" fill="#0a3a26" rx="2.5"/><rect width="11" height="11" x="88" y="68" fill="#229246" rx="2.5"/><rect width="11" height="11" x="88" y="82" fill="#161b22" rx="2.5"/><rect width="11" height="11" x="88" y="96" fill="#0a3a26" rx="2.5"/><rect width="11" height="11" x="88" y="110" fill="#0e5230" rx="2.5"/><rect width="11" height="11" x="88" y="124" fill="#0e5230" rx="2.5"/><rect width="11" height="11" x="102" y="40" fill="#0e5230" rx="2.5"/><rect width="11" height="11" x="102" y="54" fill="#229246" rx="2.5"/><rect width="11" height="11" x="102" y="68" fill="#5ce96f" rx="2.5"/><rect width="11" height="11" x="102" y="82" fill="#15703c" rx="2.5"/><rect width="11" height="11" x="102" y="96" fill="#161b22" rx="2.5"/><rect width="11" height="11" x="102" y="110" fill="#161b22" rx="2.5"/><rect width="11" height="11" x="102" y="124" fill="#161b22" rx="2.5"/><rect width="11" height="11" x="116" y="40" fill="#161b22" rx="2.5"/><rect width="11" height="11" x="116" y="54" fill="#161b22" rx="2.5"/><rect width="11" height="11" x="116" y="68" fill="#15703c" rx="2.5"/><rect width="11" height="11" x="116" y="82" fill="#0e5230" rx="2.5"/><rect width="11" height="11" x="116" y="96" fill="#0e5230" rx="2.5"/><rect width="11" height="11" x="116" y="110" fill="#0a3a26" rx="2.5"/><rect width="11" height="11" x="116" y="124" fill="#5ce96f" rx="2.5"/><rect width="11" height="11" x="130" y="40" fill="#0a3a26" rx="2.5"/><rect width="11" height="11" x="130" y="54" fill="#161b22" rx="2.5"/><rect width="11" height="11" x="130" y="68" fill="#15703c" rx="2.5"/><rect width="11" height="11" x="130" y="82" fill="#0a3a26" rx="2.5"/><rect width="11" height="11" x="130" y="96" fill="#0a3a26" rx="2.5"/><rect width="11" height="11" x="130" y="110" fill="#161b22" rx="2.5"/><rect width="11" height="11" x="130" y="124" fill="#161b22" rx="2.5"/><rect width="11" height="11" x="144" y="40" fill="#0e5230" rx="2.5"/><rect width="11" height="11" x="144" y="54" fill="#229246" rx="2.5"/><rect width="11" height="11" x="144" y="68" fill="#161b22" rx="2.5"/><rect width="11" height="11" x="144" y="82" fill="#5ce96f" rx="2.5"/><rect width="11" height="11" x="144" y="96" fill="#97fce4" rx="2.5"/><rect width="11" height="11" x="144" y="110" fill="#97fce4" rx="2.5"/><rect width="11" height="11" x="144" y="124" fill="#0a3a26" rx="2.5"/><rect width="11" height="11" x="158" y="40" fill="#39d353" rx="2.5"/><rect width="11" height="11" x="158" y="54" fill="#0e5230" rx="2.5"/><rect width="11" height="11" x="158" y="68" fill="#0e5230" rx="2.5"/><rect width="11" height="11" x="158" y="82" fill="#15703c" rx="2.5"/><rect width="11" height="11" x="158" y="96" fill="#39d353" rx="2.5"/><rect width="11" height="11" x="158" y="110" fill="#97fce4" rx="2.5"/><rect width="11" height="11" x="158" y="124" fill="#229246" rx="2.5"/><rect width="11" height="11" x="172" y="40" fill="#39d353" rx="2.5"/><rect width="11" height="11" x="172" y="54" fill="#5ce96f" rx="2.5"/><rect width="11" height="11" x="172" y="68" fill="#229246" rx="2.5"/><rect width="11" height="11" x="172" y="82" fill="#5ce96f" rx="2.5"/><rect width="11" height="11" x="172" y="96" fill="#229246" rx="2.5"/><rect width="11" height="11" x="172" y="110" fill="#39d353" rx="2.5"/><rect width="11" height="11" x="172" y="124" fill="#5ce96f" rx="2.5"/><rect width="11" height="11" x="186" y="40" fill="#0e5230" rx="2.5"/><rect width="11" height="11" x="186" y="54" fill="#39d353" rx="2.5"/><rect width="11" height="11" x="186" y="68" fill="#39d353" rx="2.5"/><rect width="11" height="11" x="186" y="82" fill="#229246" rx="2.5"/><rect width="11" height="11" x="186" y="96" fill="#0a3a26" rx="2.5"/><rect width="11" height="11" x="186" y="110" fill="#161b22" rx="2.5"/><rect width="11" height="11" x="186" y="124" fill="#161b22" rx="2.5"/><rect width="11" height="11" x="200" y="40" fill="#161b22" rx="2.5"/><rect width="11" height="11" x="200" y="54" fill="#97fce4" rx="2.5"/><rect width="11" height="11" x="200" y="68" fill="#97fce4" rx="2.5"/><rect width="11" height="11" x="200" y="82" fill="#5ce96f" rx="2.5"/><rect width="11" height="11" x="200" y="96" fill="#5ce96f" rx="2.5"/><rect width="11" height="11" x="200" y="110" fill="#229246" rx="2.5"/><rect width="11" height="11" x="200" y="124" fill="#229246" rx="2.5"/><rect width="11" height="11" x="214" y="40" fill="#0e5230" rx="2.5"/><rect width="11" height="11" x="214" y="54" fill="#15703c" rx="2.5"/><rect width="11" height="11" x="214" y="68" fill="#161b22" rx="2.5"/><rect width="11" height="11" x="214" y="82" fill="#229246" rx="2.5"/><rect width="11" height="11" x="214" y="96" fill="#15703c" rx="2.5"/><rect width="11" height="11" x="214" y="110" fill="#229246" rx="2.5"/><rect width="11" height="11" x="214" y="124" fill="#5ce96f" rx="2.5"/><rect width="11" height="11" x="228" y="40" fill="#eafffa" rx="2.5"/><rect width="11" height="11" x="228" y="54" fill="#97fce4" rx="2.5"/><rect width="11" height="11" x="228" y="68" fill="#39d353" rx="2.5"/><rect width="11" height="11" x="228" y="82" fill="#229246" rx="2.5"/><rect width="11" height="11" x="228" y="96" fill="#161b22" rx="2.5"/><rect width="11" height="11" x="228" y="110" fill="#5ce96f" rx="2.5"/><rect width="11" height="11" x="228" y="124" fill="#161b22" rx="2.5"/><rect width="11" height="11" x="242" y="40" fill="#161b22" rx="2.5"/><rect width="11" height="11" x="242" y="54" fill="#39d353" rx="2.5"/><rect width="11" height="11" x="242" y="68" fill="#0a3a26" rx="2.5"/><rect width="11" height="11" x="242" y="82" fill="#229246" rx="2.5"/><rect width="11" height="11" x="242" y="96" fill="#161b22" rx="2.5"/><rect width="11" height="11" x="242" y="110" fill="#15703c" rx="2.5"/><rect width="11" height="11" x="242" y="124" fill="#15703c" rx="2.5"/><rect width="11" height="11" x="256" y="40" fill="#0a3a26" rx="2.5"/><rect width="11" height="11" x="256" y="54" fill="#229246" rx="2.5"/><rect width="11" height="11" x="256" y="68" fill="#39d353" rx="2.5"/><rect width="11" height="11" x="256" y="82" fill="#0e5230" rx="2.5"/><rect width="11" height="11" x="256" y="96" fill="#15703c" rx="2.5"/><rect width="11" height="11" x="256" y="110" fill="#161b22" rx="2.5"/><rect width="11" height="11" x="256" y="124" fill="#15703c" rx="2.5"/><rect width="11" height="11" x="270" y="40" fill="#161b22" rx="2.5"/><rect width="11" height="11" x="270" y="54" fill="#161b22" rx="2.5"/><rect width="11" height="11" x="270" y="68" fill="#15703c" rx="2.5"/><rect width="11" height="11" x="270" y="82" fill="#15703c" rx="2.5"/><rect width="11" height="11" x="270" y="96" fill="#0a3a26" rx="2.5"/><rect width="11" height="11" x="270" y="110" fill="#161b22" rx="2.5"/><rect width="11" height="11" x="270" y="124" fill="#0a3a26" rx="2.5"/><rect width="11" height="11" x="284" y="40" fill="#161b22" rx="2.5"/><rect width="11" height="11" x="284" y="54" fill="#161b22" rx="2.5"/><rect width="11" height="11" x="284" y="68" fill="#5ce96f" rx="2.5"/><rect width="11" height="11" x="284" y="82" fill="#39d353" rx="2.5"/><rect width="11" height="11" x="284" y="96" fill="#0a3a26" rx="2.5"/><rect width="11" height="11" x="284" y="110" fill="#229246" rx="2.5"/><rect width="11" height="11" x="284" y="124" fill="#161b22" rx="2.5"/><rect width="11" height="11" x="298" y="40" fill="#161b22" rx="2.5"/><rect width="11" height="11" x="298" y="54" fill="#5ce96f" rx="2.5"/><rect width="11" height="11" x="298" y="68" fill="#39d353" rx="2.5"/><rect width="11" height="11" x="298" y="82" fill="#229246" rx="2.5"/><rect width="11" height="11" x="298" y="96" fill="#0a3a26" rx="2.5"/><rect width="11" height="11" x="298" y="110" fill="#5ce96f" rx="2.5"/><rect width="11" height="11" x="298" y="124" fill="#97fce4" rx="2.5"/><rect width="11" height="11" x="312" y="40" fill="#97fce4" rx="2.5"/><rect width="11" height="11" x="312" y="54" fill="#39d353" rx="2.5"/><rect width="11" height="11" x="312" y="68" fill="#15703c" rx="2.5"/><rect width="11" height="11" x="312" y="82" fill="#0a3a26" rx="2.5"/><rect width="11" height="11" x="312" y="96" fill="#39d353" rx="2.5"/><rect width="11" height="11" x="312" y="110" fill="#97fce4" rx="2.5"/><rect width="11" height="11" x="312" y="124" fill="#0e5230" rx="2.5"/><rect width="11" height="11" x="326" y="40" fill="#161b22" rx="2.5"/><rect width="11" height="11" x="326" y="54" fill="#161b22" rx="2.5"/><rect width="11" height="11" x="326" y="68" fill="#15703c" rx="2.5"/><rect width="11" height="11" x="326" y="82" fill="#15703c" rx="2.5"/><rect width="11" height="11" x="326" y="96" fill="#39d353" rx="2.5"/><rect width="11" height="11" x="326" y="110" fill="#0a3a26" rx="2.5"/><rect width="11" height="11" x="326" y="124" fill="#0e5230" rx="2.5"/><rect width="11" height="11" x="340" y="40" fill="#0a3a26" rx="2.5"/><rect width="11" height="11" x="340" y="54" fill="#229246" rx="2.5"/><rect width="11" height="11" x="340" y="68" fill="#39d353" rx="2.5"/><rect width="11" height="11" x="340" y="82" fill="#5ce96f" rx="2.5"/><rect width="11" height="11" x="340" y="96" fill="#5ce96f" rx="2.5"/><rect width="11" height="11" x="340" y="110" fill="#97fce4" rx="2.5"/><rect width="11" height="11" x="340" y="124" fill="#0e5230" rx="2.5"/><rect width="11" height="11" x="354" y="40" fill="#161b22" rx="2.5"/><rect width="11" height="11" x="354" y="54" fill="#15703c" rx="2.5"/><rect width="11" height="11" x="354" y="68" fill="#39d353" rx="2.5"/><rect width="11" height="11" x="354" y="82" fill="#0a3a26" rx="2.5"/><rect width="11" height="11" x="354" y="96" fill="#39d353" rx="2.5"/><rect width="11" height="11" x="354" y="110" fill="#39d353" rx="2.5"/><rect width="11" height="11" x="354" y="124" fill="#97fce4" rx="2.5"/><rect width="11" height="11" x="368" y="40" fill="#eafffa" rx="2.5"/><rect width="11" height="11" x="368" y="54" fill="#eafffa" rx="2.5"/><rect width="11" height="11" x="368" y="68" fill="#15703c" rx="2.5"/><rect width="11" height="11" x="368" y="82" fill="#97fce4" rx="2.5"/><rect width="11" height="11" x="368" y="96" fill="#229246" rx="2.5"/><rect width="11" height="11" x="368" y="110" fill="#39d353" rx="2.5"/><rect width="11" height="11" x="368" y="124" fill="#eafffa" rx="2.5"/><rect width="11" height="11" x="382" y="40" fill="#eafffa" rx="2.5"/><rect width="11" height="11" x="382" y="54" fill="#97fce4" rx="2.5"/><rect width="11" height="11" x="382" y="68" fill="#eafffa" rx="2.5"/><rect width="11" height="11" x="382" y="82" fill="#eafffa" rx="2.5"/><rect width="11" height="11" x="382" y="96" fill="#0a3a26" rx="2.5"/><rect width="11" height="11" x="382" y="110" fill="#161b22" opacity=".45" rx="2.5"/><rect width="11" height="11" x="382" y="124" fill="#161b22" opacity=".45" rx="2.5"/><rect width="11" height="11" x="396" y="40" fill="#161b22" opacity=".45" rx="2.5"/><rect width="11" height="11" x="396" y="54" fill="#161b22" opacity=".45" rx="2.5"/><rect width="11" height="11" x="396" y="68" fill="#161b22" opacity=".45" rx="2.5"/><rect width="11" height="11" x="396" y="82" fill="#161b22" opacity=".45" rx="2.5"/><rect width="11" height="11" x="396" y="96" fill="#161b22" opacity=".45" rx="2.5"/><rect width="11" height="11" x="396" y="110" fill="#161b22" opacity=".45" rx="2.5"/><rect width="11" height="11" x="396" y="124" fill="#161b22" opacity=".45" rx="2.5"/><rect width="11" height="11" x="410" y="40" fill="#161b22" opacity=".45" rx="2.5"/><rect width="11" height="11" x="410" y="54" fill="#161b22" opacity=".45" rx="2.5"/><rect width="11" height="11" x="410" y="68" fill="#161b22" opacity=".45" rx="2.5"/><rect width="11" height="11" x="410" y="82" fill="#161b22" opacity=".45" rx="2.5"/><rect width="11" height="11" x="410" y="96" fill="#161b22" opacity=".45" rx="2.5"/><rect width="11" height="11" x="410" y="110" fill="#161b22" opacity=".45" rx="2.5"/><rect width="11" height="11" x="410" y="124" fill="#161b22" opacity=".45" rx="2.5"/><rect width="11" height="11" x="424" y="40" fill="#161b22" opacity=".45" rx="2.5"/><rect width="11" height="11" x="424" y="54" fill="#161b22" opacity=".45" rx="2.5"/><rect width="11" height="11" x="424" y="68" fill="#161b22" opacity=".45" rx="2.5"/><rect width="11" height="11" x="424" y="82" fill="#161b22" opacity=".45" rx="2.5"/><rect width="11" height="11" x="424" y="96" fill="#161b22" opacity=".45" rx="2.5"/><rect width="11" height="11" x="424" y="110" fill="#161b22" opacity=".45" rx="2.5"/><rect width="11" height="11" x="424" y="124" fill="#161b22" opacity=".45" rx="2.5"/><rect width="11" height="11" x="438" y="40" fill="#161b22" opacity=".45" rx="2.5"/><rect width="11" height="11" x="438" y="54" fill="#161b22" opacity=".45" rx="2.5"/><rect width="11" height="11" x="438" y="68" fill="#161b22" opacity=".45" rx="2.5"/><rect width="11" height="11" x="438" y="82" fill="#161b22" opacity=".45" rx="2.5"/><rect width="11" height="11" x="438" y="96" fill="#161b22" opacity=".45" rx="2.5"/><rect width="11" height="11" x="438" y="110" fill="#161b22" opacity=".45" rx="2.5"/><rect width="11" height="11" x="438" y="124" fill="#161b22" opacity=".45" rx="2.5"/><rect width="11" height="11" x="452" y="40" fill="#161b22" opacity=".45" rx="2.5"/><rect width="11" height="11" x="452" y="54" fill="#161b22" opacity=".45" rx="2.5"/><rect width="11" height="11" x="452" y="68" fill="#161b22" opacity=".45" rx="2.5"/><rect width="11" height="11" x="452" y="82" fill="#161b22" opacity=".45" rx="2.5"/><rect width="11" height="11" x="452" y="96" fill="#161b22" opacity=".45" rx="2.5"/><rect width="11" height="11" x="452" y="110" fill="#161b22" opacity=".45" rx="2.5"/><rect width="11" height="11" x="452" y="124" fill="#161b22" opacity=".45" rx="2.5"/><rect width="11" height="11" x="466" y="40" fill="#161b22" opacity=".45" rx="2.5"/><rect width="11" height="11" x="466" y="54" fill="#161b22" opacity=".45" rx="2.5"/><rect width="11" height="11" x="466" y="68" fill="#161b22" opacity=".45" rx="2.5"/><rect width="11" height="11" x="466" y="82" fill="#161b22" opacity=".45" rx="2.5"/><rect width="11" height="11" x="466" y="96" fill="#161b22" opacity=".45" rx="2.5"/><rect width="11" height="11" x="466" y="110" fill="#161b22" opacity=".45" rx="2.5"/><rect width="11" height="11" x="466" y="124" fill="#161b22" opacity=".45" rx="2.5"/><rect width="11" height="11" x="480" y="40" fill="#161b22" opacity=".45" rx="2.5"/><rect width="11" height="11" x="480" y="54" fill="#161b22" opacity=".45" rx="2.5"/><rect width="11" height="11" x="480" y="68" fill="#161b22" opacity=".45" rx="2.5"/><rect width="11" height="11" x="480" y="82" fill="#161b22" opacity=".45" rx="2.5"/><rect width="11" height="11" x="480" y="96" fill="#161b22" opacity=".45" rx="2.5"/><rect width="11" height="11" x="480" y="110" fill="#161b22" opacity=".45" rx="2.5"/><rect width="11" height="11" x="480" y="124" fill="#161b22" opacity=".45" rx="2.5"/><rect width="11" height="11" x="494" y="40" fill="#161b22" opacity=".45" rx="2.5"/><rect width="11" height="11" x="494" y="54" fill="#161b22" opacity=".45" rx="2.5"/><rect width="11" height="11" x="494" y="68" fill="#161b22" opacity=".45" rx="2.5"/><rect width="11" height="11" x="494" y="82" fill="#161b22" opacity=".45" rx="2.5"/><rect width="11" height="11" x="494" y="96" fill="#161b22" opacity=".45" rx="2.5"/><rect width="11" height="11" x="494" y="110" fill="#161b22" opacity=".45" rx="2.5"/><rect width="11" height="11" x="494" y="124" fill="#161b22" opacity=".45" rx="2.5"/><rect width="11" height="11" x="508" y="40" fill="#161b22" opacity=".45" rx="2.5"/><rect width="11" height="11" x="508" y="54" fill="#161b22" opacity=".45" rx="2.5"/><rect width="11" height="11" x="508" y="68" fill="#161b22" opacity=".45" rx="2.5"/><rect width="11" height="11" x="508" y="82" fill="#161b22" opacity=".45" rx="2.5"/><rect width="11" height="11" x="508" y="96" fill="#161b22" opacity=".45" rx="2.5"/><rect width="11" height="11" x="508" y="110" fill="#161b22" opacity=".45" rx="2.5"/><rect width="11" height="11" x="508" y="124" fill="#161b22" opacity=".45" rx="2.5"/><rect width="11" height="11" x="522" y="40" fill="#161b22" opacity=".45" rx="2.5"/><rect width="11" height="11" x="522" y="54" fill="#161b22" opacity=".45" rx="2.5"/><rect width="11" height="11" x="522" y="68" fill="#161b22" opacity=".45" rx="2.5"/><rect width="11" height="11" x="522" y="82" fill="#161b22" opacity=".45" rx="2.5"/><rect width="11" height="11" x="522" y="96" fill="#161b22" opacity=".45" rx="2.5"/><rect width="11" height="11" x="522" y="110" fill="#161b22" opacity=".45" rx="2.5"/><rect width="11" height="11" x="522" y="124" fill="#161b22" opacity=".45" rx="2.5"/><rect width="11" height="11" x="536" y="40" fill="#161b22" opacity=".45" rx="2.5"/><rect width="11" height="11" x="536" y="54" fill="#161b22" opacity=".45" rx="2.5"/><rect width="11" height="11" x="536" y="68" fill="#161b22" opacity=".45" rx="2.5"/><rect width="11" height="11" x="536" y="82" fill="#161b22" opacity=".45" rx="2.5"/><rect width="11" height="11" x="536" y="96" fill="#161b22" opacity=".45" rx="2.5"/><rect width="11" height="11" x="536" y="110" fill="#161b22" opacity=".45" rx="2.5"/><rect width="11" height="11" x="536" y="124" fill="#161b22" opacity=".45" rx="2.5"/><rect width="11" height="11" x="550" y="40" fill="#161b22" opacity=".45" rx="2.5"/><rect width="11" height="11" x="550" y="54" fill="#161b22" opacity=".45" rx="2.5"/><rect width="11" height="11" x="550" y="68" fill="#161b22" opacity=".45" rx="2.5"/><rect width="11" height="11" x="550" y="82" fill="#161b22" opacity=".45" rx="2.5"/><rect width="11" height="11" x="550" y="96" fill="#161b22" opacity=".45" rx="2.5"/><rect width="11" height="11" x="550" y="110" fill="#161b22" opacity=".45" rx="2.5"/><rect width="11" height="11" x="550" y="124" fill="#161b22" opacity=".45" rx="2.5"/><rect width="11" height="11" x="564" y="40" fill="#161b22" opacity=".45" rx="2.5"/><rect width="11" height="11" x="564" y="54" fill="#161b22" opacity=".45" rx="2.5"/><rect width="11" height="11" x="564" y="68" fill="#161b22" opacity=".45" rx="2.5"/><rect width="11" height="11" x="564" y="82" fill="#161b22" opacity=".45" rx="2.5"/><rect width="11" height="11" x="564" y="96" fill="#161b22" opacity=".45" rx="2.5"/><rect width="11" height="11" x="564" y="110" fill="#161b22" opacity=".45" rx="2.5"/><rect width="11" height="11" x="564" y="124" fill="#161b22" opacity=".45" rx="2.5"/><rect width="11" height="11" x="578" y="40" fill="#161b22" opacity=".45" rx="2.5"/><rect width="11" height="11" x="578" y="54" fill="#161b22" opacity=".45" rx="2.5"/><rect width="11" height="11" x="578" y="68" fill="#161b22" opacity=".45" rx="2.5"/><rect width="11" height="11" x="578" y="82" fill="#161b22" opacity=".45" rx="2.5"/><rect width="11" height="11" x="578" y="96" fill="#161b22" opacity=".45" rx="2.5"/><rect width="11" height="11" x="578" y="110" fill="#161b22" opacity=".45" rx="2.5"/><rect width="11" height="11" x="578" y="124" fill="#161b22" opacity=".45" rx="2.5"/><rect width="11" height="11" x="592" y="40" fill="#161b22" opacity=".45" rx="2.5"/><rect width="11" height="11" x="592" y="54" fill="#161b22" opacity=".45" rx="2.5"/><rect width="11" height="11" x="592" y="68" fill="#161b22" opacity=".45" rx="2.5"/><rect width="11" height="11" x="592" y="82" fill="#161b22" opacity=".45" rx="2.5"/><rect width="11" height="11" x="592" y="96" fill="#161b22" opacity=".45" rx="2.5"/><rect width="11" height="11" x="592" y="110" fill="#161b22" opacity=".45" rx="2.5"/><rect width="11" height="11" x="592" y="124" fill="#161b22" opacity=".45" rx="2.5"/><rect width="11" height="11" x="606" y="40" fill="#161b22" opacity=".45" rx="2.5"/><rect width="11" height="11" x="606" y="54" fill="#161b22" opacity=".45" rx="2.5"/><rect width="11" height="11" x="606" y="68" fill="#161b22" opacity=".45" rx="2.5"/><rect width="11" height="11" x="606" y="82" fill="#161b22" opacity=".45" rx="2.5"/><rect width="11" height="11" x="606" y="96" fill="#161b22" opacity=".45" rx="2.5"/><rect width="11" height="11" x="606" y="110" fill="#161b22" opacity=".45" rx="2.5"/><rect width="11" height="11" x="606" y="124" fill="#161b22" opacity=".45" rx="2.5"/><rect width="11" height="11" x="620" y="40" fill="#161b22" opacity=".45" rx="2.5"/><rect width="11" height="11" x="620" y="54" fill="#161b22" opacity=".45" rx="2.5"/><rect width="11" height="11" x="620" y="68" fill="#161b22" opacity=".45" rx="2.5"/><rect width="11" height="11" x="620" y="82" fill="#161b22" opacity=".45" rx="2.5"/><rect width="11" height="11" x="620" y="96" fill="#161b22" opacity=".45" rx="2.5"/><rect width="11" height="11" x="620" y="110" fill="#161b22" opacity=".45" rx="2.5"/><rect width="11" height="11" x="620" y="124" fill="#161b22" opacity=".45" rx="2.5"/><rect width="11" height="11" x="634" y="40" fill="#161b22" opacity=".45" rx="2.5"/><rect width="11" height="11" x="634" y="54" fill="#161b22" opacity=".45" rx="2.5"/><rect width="11" height="11" x="634" y="68" fill="#161b22" opacity=".45" rx="2.5"/><rect width="11" height="11" x="634" y="82" fill="#161b22" opacity=".45" rx="2.5"/><rect width="11" height="11" x="634" y="96" fill="#161b22" opacity=".45" rx="2.5"/><rect width="11" height="11" x="634" y="110" fill="#161b22" opacity=".45" rx="2.5"/><rect width="11" height="11" x="634" y="124" fill="#161b22" opacity=".45" rx="2.5"/><rect width="11" height="11" x="648" y="40" fill="#161b22" opacity=".45" rx="2.5"/><rect width="11" height="11" x="648" y="54" fill="#161b22" opacity=".45" rx="2.5"/><rect width="11" height="11" x="648" y="68" fill="#161b22" opacity=".45" rx="2.5"/><rect width="11" height="11" x="648" y="82" fill="#161b22" opacity=".45" rx="2.5"/><rect width="11" height="11" x="648" y="96" fill="#161b22" opacity=".45" rx="2.5"/><rect width="11" height="11" x="648" y="110" fill="#161b22" opacity=".45" rx="2.5"/><rect width="11" height="11" x="648" y="124" fill="#161b22" opacity=".45" rx="2.5"/><rect width="11" height="11" x="662" y="40" fill="#161b22" opacity=".45" rx="2.5"/><rect width="11" height="11" x="662" y="54" fill="#161b22" opacity=".45" rx="2.5"/><rect width="11" height="11" x="662" y="68" fill="#161b22" opacity=".45" rx="2.5"/><rect width="11" height="11" x="662" y="82" fill="#161b22" opacity=".45" rx="2.5"/><rect width="11" height="11" x="662" y="96" fill="#161b22" opacity=".45" rx="2.5"/><rect width="11" height="11" x="662" y="110" fill="#161b22" opacity=".45" rx="2.5"/><rect width="11" height="11" x="662" y="124" fill="#161b22" opacity=".45" rx="2.5"/><rect width="11" height="11" x="676" y="40" fill="#161b22" opacity=".45" rx="2.5"/><rect width="11" height="11" x="676" y="54" fill="#161b22" opacity=".45" rx="2.5"/><rect width="11" height="11" x="676" y="68" fill="#161b22" opacity=".45" rx="2.5"/><rect width="11" height="11" x="676" y="82" fill="#161b22" opacity=".45" rx="2.5"/><rect width="11" height="11" x="676" y="96" fill="#161b22" opacity=".45" rx="2.5"/><rect width="11" height="11" x="676" y="110" fill="#161b22" opacity=".45" rx="2.5"/><rect width="11" height="11" x="676" y="124" fill="#161b22" opacity=".45" rx="2.5"/><rect width="11" height="11" x="690" y="40" fill="#161b22" opacity=".45" rx="2.5"/><rect width="11" height="11" x="690" y="54" fill="#161b22" opacity=".45" rx="2.5"/><rect width="11" height="11" x="690" y="68" fill="#161b22" opacity=".45" rx="2.5"/><rect width="11" height="11" x="690" y="82" fill="#161b22" opacity=".45" rx="2.5"/><rect width="11" height="11" x="690" y="96" fill="#161b22" opacity=".45" rx="2.5"/><rect width="11" height="11" x="690" y="110" fill="#161b22" opacity=".45" rx="2.5"/><rect width="11" height="11" x="690" y="124" fill="#161b22" opacity=".45" rx="2.5"/><rect width="11" height="11" x="704" y="40" fill="#161b22" opacity=".45" rx="2.5"/><rect width="11" height="11" x="704" y="54" fill="#161b22" opacity=".45" rx="2.5"/><rect width="11" height="11" x="704" y="68" fill="#161b22" opacity=".45" rx="2.5"/><rect width="11" height="11" x="704" y="82" fill="#161b22" opacity=".45" rx="2.5"/><rect width="11" height="11" x="704" y="96" fill="#161b22" opacity=".45" rx="2.5"/><rect width="11" height="11" x="704" y="110" fill="#161b22" opacity=".45" rx="2.5"/><rect width="11" height="11" x="704" y="124" fill="#161b22" opacity=".45" rx="2.5"/><rect width="11" height="11" x="718" y="40" fill="#161b22" opacity=".45" rx="2.5"/><rect width="11" height="11" x="718" y="54" fill="#161b22" opacity=".45" rx="2.5"/><rect width="11" height="11" x="718" y="68" fill="#161b22" opacity=".45" rx="2.5"/><rect width="11" height="11" x="718" y="82" fill="#161b22" opacity=".45" rx="2.5"/><rect width="11" height="11" x="718" y="96" fill="#161b22" opacity=".45" rx="2.5"/><rect width="11" height="11" x="718" y="110" fill="#161b22" opacity=".45" rx="2.5"/><rect width="11" height="11" x="718" y="124" fill="#161b22" opacity=".45" rx="2.5"/><rect width="11" height="11" x="732" y="40" fill="#161b22" opacity=".45" rx="2.5"/><rect width="11" height="11" x="732" y="54" fill="#161b22" opacity=".45" rx="2.5"/><rect width="11" height="11" x="732" y="68" fill="#161b22" opacity=".45" rx="2.5"/><rect width="11" height="11" x="732" y="82" fill="#161b22" opacity=".45" rx="2.5"/><rect width="11" height="11" x="732" y="96" fill="#161b22" opacity=".45" rx="2.5"/><rect width="11" height="11" x="732" y="110" fill="#161b22" opacity=".45" rx="2.5"/><rect width="11" height="11" x="732" y="124" fill="#161b22" opacity=".45" rx="2.5"/><rect width="11" height="11" x="746" y="40" fill="#161b22" opacity=".45" rx="2.5"/><rect width="11" height="11" x="746" y="54" fill="#161b22" opacity=".45" rx="2.5"/><rect width="11" height="11" x="746" y="68" fill="#161b22" opacity=".45" rx="2.5"/><rect width="11" height="11" x="746" y="82" fill="#161b22" opacity=".45" rx="2.5"/><rect width="11" height="11" x="746" y="96" fill="#161b22" opacity=".45" rx="2.5"/></svg>