<svg xmlns="http://www.w3.org/2000/svg" viewBox="0 0 778 152" width="778" font-family="ui-monospace,'JetBrains Mono','SF Mono',Menlo,Consolas,monospace">
<rect width="778" height="152" rx="10" fill="#0d1117" stroke="#30363d"/>
<text x="18" y="24" font-size="13" fill="#c9d1d9">
  <tspan fill="#39d353" font-weight="700">8,461</tspan> contributions in 2026 · ytd
</text>
<text x="623" y="23" text-anchor="end" font-size="9" fill="#8b949e">less</text>
<rect x="631" y="14" width="8" height="8" rx="2" fill="#161b22"/><rect x="642" y="14" width="8" height="8" rx="2" fill="#0a3a26"/><rect x="653" y="14" width="8" height="8" rx="2" fill="#0e5230"/><rect x="664" y="14" width="8" height="8" rx="2" fill="#15703c"/><rect x="675" y="14" width="8" height="8" rx="2" fill="#229246"/><rect x="686" y="14" width="8" height="8" rx="2" fill="#39d353"/><rect x="697" y="14" width="8" height="8" rx="2" fill="#5ce96f"/><rect x="708" y="14" width="8" height="8" rx="2" fill="#97fce4"/><rect x="719" y="14" width="8" height="8" rx="2" fill="#eafffa"/>
<text x="760" y="23" text-anchor="end" font-size="9" fill="#8b949e">more</text>
<rect x="18" y="96" width="11" height="11" rx="2.5" fill="#229246"/><rect x="18" y="110" width="11" height="11" rx="2.5" fill="#229246"/><rect x="18" y="124" width="11" height="11" rx="2.5" fill="#161b22"/><rect x="32" y="40" width="11" height="11" rx="2.5" fill="#161b22"/><rect x="32" y="54" width="11" height="11" rx="2.5" fill="#0e5230"/><rect x="32" y="68" width="11" height="11" rx="2.5" fill="#229246"/><rect x="32" y="82" width="11" height="11" rx="2.5" fill="#0a3a26"/><rect x="32" y="96" width="11" height="11" rx="2.5" fill="#0a3a26"/><rect x="32" y="110" width="11" height="11" rx="2.5" fill="#161b22"/><rect x="32" y="124" width="11" height="11" rx="2.5" fill="#161b22"/><rect x="46" y="40" width="11" height="11" rx="2.5" fill="#0a3a26"/><rect x="46" y="54" width="11" height="11" rx="2.5" fill="#39d353"/><rect x="46" y="68" width="11" height="11" rx="2.5" fill="#15703c"/><rect x="46" y="82" width="11" height="11" rx="2.5" fill="#0e5230"/><rect x="46" y="96" width="11" height="11" rx="2.5" fill="#15703c"/><rect x="46" y="110" width="11" height="11" rx="2.5" fill="#0e5230"/><rect x="46" y="124" width="11" height="11" rx="2.5" fill="#0e5230"/><rect x="60" y="40" width="11" height="11" rx="2.5" fill="#0a3a26"/><rect x="60" y="54" width="11" height="11" rx="2.5" fill="#5ce96f"/><rect x="60" y="68" width="11" height="11" rx="2.5" fill="#97fce4"/><rect x="60" y="82" width="11" height="11" rx="2.5" fill="#15703c"/><rect x="60" y="96" width="11" height="11" rx="2.5" fill="#0e5230"/><rect x="60" y="110" width="11" height="11" rx="2.5" fill="#15703c"/><rect x="60" y="124" width="11" height="11" rx="2.5" fill="#161b22"/><rect x="74" y="40" width="11" height="11" rx="2.5" fill="#161b22"/><rect x="74" y="54" width="11" height="11" rx="2.5" fill="#229246"/><rect x="74" y="68" width="11" height="11" rx="2.5" fill="#39d353"/><rect x="74" y="82" width="11" height="11" rx="2.5" fill="#229246"/><rect x="74" y="96" width="11" height="11" rx="2.5" fill="#39d353"/><rect x="74" y="110" width="11" height="11" rx="2.5" fill="#229246"/><rect x="74" y="124" width="11" height="11" rx="2.5" fill="#161b22"/><rect x="88" y="40" width="11" height="11" rx="2.5" fill="#161b22"/><rect x="88" y="54" width="11" height="11" rx="2.5" fill="#0a3a26"/><rect x="88" y="68" width="11" height="11" rx="2.5" fill="#229246"/><rect x="88" y="82" width="11" height="11" rx="2.5" fill="#161b22"/><rect x="88" y="96" width="11" height="11" rx="2.5" fill="#0a3a26"/><rect x="88" y="110" width="11" height="11" rx="2.5" fill="#0e5230"/><rect x="88" y="124" width="11" height="11" rx="2.5" fill="#0e5230"/><rect x="102" y="40" width="11" height="11" rx="2.5" fill="#0e5230"/><rect x="102" y="54" width="11" height="11" rx="2.5" fill="#229246"/><rect x="102" y="68" width="11" height="11" rx="2.5" fill="#5ce96f"/><rect x="102" y="82" width="11" height="11" rx="2.5" fill="#15703c"/><rect x="102" y="96" width="11" height="11" rx="2.5" fill="#161b22"/><rect x="102" y="110" width="11" height="11" rx="2.5" fill="#161b22"/><rect x="102" y="124" width="11" height="11" rx="2.5" fill="#161b22"/><rect x="116" y="40" width="11" height="11" rx="2.5" fill="#161b22"/><rect x="116" y="54" width="11" height="11" rx="2.5" fill="#161b22"/><rect x="116" y="68" width="11" height="11" rx="2.5" fill="#15703c"/><rect x="116" y="82" width="11" height="11" rx="2.5" fill="#0e5230"/><rect x="116" y="96" width="11" height="11" rx="2.5" fill="#0e5230"/><rect x="116" y="110" width="11" height="11" rx="2.5" fill="#0a3a26"/><rect x="116" y="124" width="11" height="11" rx="2.5" fill="#5ce96f"/><rect x="130" y="40" width="11" height="11" rx="2.5" fill="#0a3a26"/><rect x="130" y="54" width="11" height="11" rx="2.5" fill="#161b22"/><rect x="130" y="68" width="11" height="11" rx="2.5" fill="#15703c"/><rect x="130" y="82" width="11" height="11" rx="2.5" fill="#0a3a26"/><rect x="130" y="96" width="11" height="11" rx="2.5" fill="#0a3a26"/><rect x="130" y="110" width="11" height="11" rx="2.5" fill="#161b22"/><rect x="130" y="124" width="11" height="11" rx="2.5" fill="#161b22"/><rect x="144" y="40" width="11" height="11" rx="2.5" fill="#0e5230"/><rect x="144" y="54" width="11" height="11" rx="2.5" fill="#229246"/><rect x="144" y="68" width="11" height="11" rx="2.5" fill="#161b22"/><rect x="144" y="82" width="11" height="11" rx="2.5" fill="#5ce96f"/><rect x="144" y="96" width="11" height="11" rx="2.5" fill="#97fce4"/><rect x="144" y="110" width="11" height="11" rx="2.5" fill="#97fce4"/><rect x="144" y="124" width="11" height="11" rx="2.5" fill="#0a3a26"/><rect x="158" y="40" width="11" height="11" rx="2.5" fill="#39d353"/><rect x="158" y="54" width="11" height="11" rx="2.5" fill="#0e5230"/><rect x="158" y="68" width="11" height="11" rx="2.5" fill="#0e5230"/><rect x="158" y="82" width="11" height="11" rx="2.5" fill="#15703c"/><rect x="158" y="96" width="11" height="11" rx="2.5" fill="#39d353"/><rect x="158" y="110" width="11" height="11" rx="2.5" fill="#5ce96f"/><rect x="158" y="124" width="11" height="11" rx="2.5" fill="#15703c"/><rect x="172" y="40" width="11" height="11" rx="2.5" fill="#229246"/><rect x="172" y="54" width="11" height="11" rx="2.5" fill="#5ce96f"/><rect x="172" y="68" width="11" height="11" rx="2.5" fill="#229246"/><rect x="172" y="82" width="11" height="11" rx="2.5" fill="#5ce96f"/><rect x="172" y="96" width="11" height="11" rx="2.5" fill="#229246"/><rect x="172" y="110" width="11" height="11" rx="2.5" fill="#39d353"/><rect x="172" y="124" width="11" height="11" rx="2.5" fill="#5ce96f"/><rect x="186" y="40" width="11" height="11" rx="2.5" fill="#0e5230"/><rect x="186" y="54" width="11" height="11" rx="2.5" fill="#39d353"/><rect x="186" y="68" width="11" height="11" rx="2.5" fill="#39d353"/><rect x="186" y="82" width="11" height="11" rx="2.5" fill="#15703c"/><rect x="186" y="96" width="11" height="11" rx="2.5" fill="#0a3a26"/><rect x="186" y="110" width="11" height="11" rx="2.5" fill="#161b22"/><rect x="186" y="124" width="11" height="11" rx="2.5" fill="#161b22"/><rect x="200" y="40" width="11" height="11" rx="2.5" fill="#161b22"/><rect x="200" y="54" width="11" height="11" rx="2.5" fill="#5ce96f"/><rect x="200" y="68" width="11" height="11" rx="2.5" fill="#97fce4"/><rect x="200" y="82" width="11" height="11" rx="2.5" fill="#5ce96f"/><rect x="200" y="96" width="11" height="11" rx="2.5" fill="#39d353"/><rect x="200" y="110" width="11" height="11" rx="2.5" fill="#15703c"/><rect x="200" y="124" width="11" height="11" rx="2.5" fill="#15703c"/><rect x="214" y="40" width="11" height="11" rx="2.5" fill="#0e5230"/><rect x="214" y="54" width="11" height="11" rx="2.5" fill="#15703c"/><rect x="214" y="68" width="11" height="11" rx="2.5" fill="#161b22"/><rect x="214" y="82" width="11" height="11" rx="2.5" fill="#229246"/><rect x="214" y="96" width="11" height="11" rx="2.5" fill="#0e5230"/><rect x="214" y="110" width="11" height="11" rx="2.5" fill="#15703c"/><rect x="214" y="124" width="11" height="11" rx="2.5" fill="#5ce96f"/><rect x="228" y="40" width="11" height="11" rx="2.5" fill="#97fce4"/><rect x="228" y="54" width="11" height="11" rx="2.5" fill="#97fce4"/><rect x="228" y="68" width="11" height="11" rx="2.5" fill="#39d353"/><rect x="228" y="82" width="11" height="11" rx="2.5" fill="#229246"/><rect x="228" y="96" width="11" height="11" rx="2.5" fill="#161b22"/><rect x="228" y="110" width="11" height="11" rx="2.5" fill="#5ce96f"/><rect x="228" y="124" width="11" height="11" rx="2.5" fill="#161b22"/><rect x="242" y="40" width="11" height="11" rx="2.5" fill="#161b22"/><rect x="242" y="54" width="11" height="11" rx="2.5" fill="#39d353"/><rect x="242" y="68" width="11" height="11" rx="2.5" fill="#0a3a26"/><rect x="242" y="82" width="11" height="11" rx="2.5" fill="#229246"/><rect x="242" y="96" width="11" height="11" rx="2.5" fill="#161b22"/><rect x="242" y="110" width="11" height="11" rx="2.5" fill="#15703c"/><rect x="242" y="124" width="11" height="11" rx="2.5" fill="#15703c"/><rect x="256" y="40" width="11" height="11" rx="2.5" fill="#0a3a26"/><rect x="256" y="54" width="11" height="11" rx="2.5" fill="#229246"/><rect x="256" y="68" width="11" height="11" rx="2.5" fill="#39d353"/><rect x="256" y="82" width="11" height="11" rx="2.5" fill="#0e5230"/><rect x="256" y="96" width="11" height="11" rx="2.5" fill="#15703c"/><rect x="256" y="110" width="11" height="11" rx="2.5" fill="#161b22"/><rect x="256" y="124" width="11" height="11" rx="2.5" fill="#15703c"/><rect x="270" y="40" width="11" height="11" rx="2.5" fill="#161b22"/><rect x="270" y="54" width="11" height="11" rx="2.5" fill="#161b22"/><rect x="270" y="68" width="11" height="11" rx="2.5" fill="#15703c"/><rect x="270" y="82" width="11" height="11" rx="2.5" fill="#15703c"/><rect x="270" y="96" width="11" height="11" rx="2.5" fill="#0a3a26"/><rect x="270" y="110" width="11" height="11" rx="2.5" fill="#161b22"/><rect x="270" y="124" width="11" height="11" rx="2.5" fill="#0a3a26"/><rect x="284" y="40" width="11" height="11" rx="2.5" fill="#161b22"/><rect x="284" y="54" width="11" height="11" rx="2.5" fill="#161b22"/><rect x="284" y="68" width="11" height="11" rx="2.5" fill="#5ce96f"/><rect x="284" y="82" width="11" height="11" rx="2.5" fill="#39d353"/><rect x="284" y="96" width="11" height="11" rx="2.5" fill="#0a3a26"/><rect x="284" y="110" width="11" height="11" rx="2.5" fill="#15703c"/><rect x="284" y="124" width="11" height="11" rx="2.5" fill="#161b22"/><rect x="298" y="40" width="11" height="11" rx="2.5" fill="#161b22"/><rect x="298" y="54" width="11" height="11" rx="2.5" fill="#5ce96f"/><rect x="298" y="68" width="11" height="11" rx="2.5" fill="#39d353"/><rect x="298" y="82" width="11" height="11" rx="2.5" fill="#229246"/><rect x="298" y="96" width="11" height="11" rx="2.5" fill="#0a3a26"/><rect x="298" y="110" width="11" height="11" rx="2.5" fill="#5ce96f"/><rect x="298" y="124" width="11" height="11" rx="2.5" fill="#97fce4"/><rect x="312" y="40" width="11" height="11" rx="2.5" fill="#97fce4"/><rect x="312" y="54" width="11" height="11" rx="2.5" fill="#39d353"/><rect x="312" y="68" width="11" height="11" rx="2.5" fill="#15703c"/><rect x="312" y="82" width="11" height="11" rx="2.5" fill="#0a3a26"/><rect x="312" y="96" width="11" height="11" rx="2.5" fill="#39d353"/><rect x="312" y="110" width="11" height="11" rx="2.5" fill="#5ce96f"/><rect x="312" y="124" width="11" height="11" rx="2.5" fill="#0e5230"/><rect x="326" y="40" width="11" height="11" rx="2.5" fill="#161b22"/><rect x="326" y="54" width="11" height="11" rx="2.5" fill="#161b22"/><rect x="326" y="68" width="11" height="11" rx="2.5" fill="#15703c"/><rect x="326" y="82" width="11" height="11" rx="2.5" fill="#15703c"/><rect x="326" y="96" width="11" height="11" rx="2.5" fill="#39d353"/><rect x="326" y="110" width="11" height="11" rx="2.5" fill="#0a3a26"/><rect x="326" y="124" width="11" height="11" rx="2.5" fill="#0e5230"/><rect x="340" y="40" width="11" height="11" rx="2.5" fill="#0a3a26"/><rect x="340" y="54" width="11" height="11" rx="2.5" fill="#15703c"/><rect x="340" y="68" width="11" height="11" rx="2.5" fill="#229246"/><rect x="340" y="82" width="11" height="11" rx="2.5" fill="#5ce96f"/><rect x="340" y="96" width="11" height="11" rx="2.5" fill="#5ce96f"/><rect x="340" y="110" width="11" height="11" rx="2.5" fill="#97fce4"/><rect x="340" y="124" width="11" height="11" rx="2.5" fill="#0e5230"/><rect x="354" y="40" width="11" height="11" rx="2.5" fill="#161b22"/><rect x="354" y="54" width="11" height="11" rx="2.5" fill="#15703c"/><rect x="354" y="68" width="11" height="11" rx="2.5" fill="#39d353"/><rect x="354" y="82" width="11" height="11" rx="2.5" fill="#0a3a26"/><rect x="354" y="96" width="11" height="11" rx="2.5" fill="#39d353"/><rect x="354" y="110" width="11" height="11" rx="2.5" fill="#39d353"/><rect x="354" y="124" width="11" height="11" rx="2.5" fill="#97fce4"/><rect x="368" y="40" width="11" height="11" rx="2.5" fill="#eafffa"/><rect x="368" y="54" width="11" height="11" rx="2.5" fill="#eafffa"/><rect x="368" y="68" width="11" height="11" rx="2.5" fill="#0e5230"/><rect x="368" y="82" width="11" height="11" rx="2.5" fill="#5ce96f"/><rect x="368" y="96" width="11" height="11" rx="2.5" fill="#229246"/><rect x="368" y="110" width="11" height="11" rx="2.5" fill="#39d353"/><rect x="368" y="124" width="11" height="11" rx="2.5" fill="#eafffa"/><rect x="382" y="40" width="11" height="11" rx="2.5" fill="#97fce4"/><rect x="382" y="54" width="11" height="11" rx="2.5" fill="#97fce4"/><rect x="382" y="68" width="11" height="11" rx="2.5" fill="#eafffa"/><rect x="382" y="82" width="11" height="11" rx="2.5" fill="#eafffa"/><rect x="382" y="96" width="11" height="11" rx="2.5" fill="#eafffa"/><rect x="382" y="110" width="11" height="11" rx="2.5" fill="#eafffa"/><rect x="382" y="124" width="11" height="11" rx="2.5" fill="#161b22"/><rect x="396" y="40" width="11" height="11" rx="2.5" fill="#39d353"/><rect x="396" y="54" width="11" height="11" rx="2.5" fill="#229246"/><rect x="396" y="68" width="11" height="11" rx="2.5" fill="#5ce96f"/><rect x="396" y="82" width="11" height="11" rx="2.5" fill="#97fce4"/><rect x="396" y="96" width="11" height="11" rx="2.5" fill="#97fce4"/><rect x="396" y="110" width="11" height="11" rx="2.5" fill="#97fce4"/><rect x="396" y="124" width="11" height="11" rx="2.5" fill="#97fce4"/><rect x="410" y="40" width="11" height="11" rx="2.5" fill="#161b22" opacity="0.45"/><rect x="410" y="54" width="11" height="11" rx="2.5" fill="#161b22" opacity="0.45"/><rect x="410" y="68" width="11" height="11" rx="2.5" fill="#161b22" opacity="0.45"/><rect x="410" y="82" width="11" height="11" rx="2.5" fill="#161b22" opacity="0.45"/><rect x="410" y="96" width="11" height="11" rx="2.5" fill="#161b22" opacity="0.45"/><rect x="410" y="110" width="11" height="11" rx="2.5" fill="#161b22" opacity="0.45"/><rect x="410" y="124" width="11" height="11" rx="2.5" fill="#161b22" opacity="0.45"/><rect x="424" y="40" width="11" height="11" rx="2.5" fill="#161b22" opacity="0.45"/><rect x="424" y="54" width="11" height="11" rx="2.5" fill="#161b22" opacity="0.45"/><rect x="424" y="68" width="11" height="11" rx="2.5" fill="#161b22" opacity="0.45"/><rect x="424" y="82" width="11" height="11" rx="2.5" fill="#161b22" opacity="0.45"/><rect x="424" y="96" width="11" height="11" rx="2.5" fill="#161b22" opacity="0.45"/><rect x="424" y="110" width="11" height="11" rx="2.5" fill="#161b22" opacity="0.45"/><rect x="424" y="124" width="11" height="11" rx="2.5" fill="#161b22" opacity="0.45"/><rect x="438" y="40" width="11" height="11" rx="2.5" fill="#161b22" opacity="0.45"/><rect x="438" y="54" width="11" height="11" rx="2.5" fill="#161b22" opacity="0.45"/><rect x="438" y="68" width="11" height="11" rx="2.5" fill="#161b22" opacity="0.45"/><rect x="438" y="82" width="11" height="11" rx="2.5" fill="#161b22" opacity="0.45"/><rect x="438" y="96" width="11" height="11" rx="2.5" fill="#161b22" opacity="0.45"/><rect x="438" y="110" width="11" height="11" rx="2.5" fill="#161b22" opacity="0.45"/><rect x="438" y="124" width="11" height="11" rx="2.5" fill="#161b22" opacity="0.45"/><rect x="452" y="40" width="11" height="11" rx="2.5" fill="#161b22" opacity="0.45"/><rect x="452" y="54" width="11" height="11" rx="2.5" fill="#161b22" opacity="0.45"/><rect x="452" y="68" width="11" height="11" rx="2.5" fill="#161b22" opacity="0.45"/><rect x="452" y="82" width="11" height="11" rx="2.5" fill="#161b22" opacity="0.45"/><rect x="452" y="96" width="11" height="11" rx="2.5" fill="#161b22" opacity="0.45"/><rect x="452" y="110" width="11" height="11" rx="2.5" fill="#161b22" opacity="0.45"/><rect x="452" y="124" width="11" height="11" rx="2.5" fill="#161b22" opacity="0.45"/><rect x="466" y="40" width="11" height="11" rx="2.5" fill="#161b22" opacity="0.45"/><rect x="466" y="54" width="11" height="11" rx="2.5" fill="#161b22" opacity="0.45"/><rect x="466" y="68" width="11" height="11" rx="2.5" fill="#161b22" opacity="0.45"/><rect x="466" y="82" width="11" height="11" rx="2.5" fill="#161b22" opacity="0.45"/><rect x="466" y="96" width="11" height="11" rx="2.5" fill="#161b22" opacity="0.45"/><rect x="466" y="110" width="11" height="11" rx="2.5" fill="#161b22" opacity="0.45"/><rect x="466" y="124" width="11" height="11" rx="2.5" fill="#161b22" opacity="0.45"/><rect x="480" y="40" width="11" height="11" rx="2.5" fill="#161b22" opacity="0.45"/><rect x="480" y="54" width="11" height="11" rx="2.5" fill="#161b22" opacity="0.45"/><rect x="480" y="68" width="11" height="11" rx="2.5" fill="#161b22" opacity="0.45"/><rect x="480" y="82" width="11" height="11" rx="2.5" fill="#161b22" opacity="0.45"/><rect x="480" y="96" width="11" height="11" rx="2.5" fill="#161b22" opacity="0.45"/><rect x="480" y="110" width="11" height="11" rx="2.5" fill="#161b22" opacity="0.45"/><rect x="480" y="124" width="11" height="11" rx="2.5" fill="#161b22" opacity="0.45"/><rect x="494" y="40" width="11" height="11" rx="2.5" fill="#161b22" opacity="0.45"/><rect x="494" y="54" width="11" height="11" rx="2.5" fill="#161b22" opacity="0.45"/><rect x="494" y="68" width="11" height="11" rx="2.5" fill="#161b22" opacity="0.45"/><rect x="494" y="82" width="11" height="11" rx="2.5" fill="#161b22" opacity="0.45"/><rect x="494" y="96" width="11" height="11" rx="2.5" fill="#161b22" opacity="0.45"/><rect x="494" y="110" width="11" height="11" rx="2.5" fill="#161b22" opacity="0.45"/><rect x="494" y="124" width="11" height="11" rx="2.5" fill="#161b22" opacity="0.45"/><rect x="508" y="40" width="11" height="11" rx="2.5" fill="#161b22" opacity="0.45"/><rect x="508" y="54" width="11" height="11" rx="2.5" fill="#161b22" opacity="0.45"/><rect x="508" y="68" width="11" height="11" rx="2.5" fill="#161b22" opacity="0.45"/><rect x="508" y="82" width="11" height="11" rx="2.5" fill="#161b22" opacity="0.45"/><rect x="508" y="96" width="11" height="11" rx="2.5" fill="#161b22" opacity="0.45"/><rect x="508" y="110" width="11" height="11" rx="2.5" fill="#161b22" opacity="0.45"/><rect x="508" y="124" width="11" height="11" rx="2.5" fill="#161b22" opacity="0.45"/><rect x="522" y="40" width="11" height="11" rx="2.5" fill="#161b22" opacity="0.45"/><rect x="522" y="54" width="11" height="11" rx="2.5" fill="#161b22" opacity="0.45"/><rect x="522" y="68" width="11" height="11" rx="2.5" fill="#161b22" opacity="0.45"/><rect x="522" y="82" width="11" height="11" rx="2.5" fill="#161b22" opacity="0.45"/><rect x="522" y="96" width="11" height="11" rx="2.5" fill="#161b22" opacity="0.45"/><rect x="522" y="110" width="11" height="11" rx="2.5" fill="#161b22" opacity="0.45"/><rect x="522" y="124" width="11" height="11" rx="2.5" fill="#161b22" opacity="0.45"/><rect x="536" y="40" width="11" height="11" rx="2.5" fill="#161b22" opacity="0.45"/><rect x="536" y="54" width="11" height="11" rx="2.5" fill="#161b22" opacity="0.45"/><rect x="536" y="68" width="11" height="11" rx="2.5" fill="#161b22" opacity="0.45"/><rect x="536" y="82" width="11" height="11" rx="2.5" fill="#161b22" opacity="0.45"/><rect x="536" y="96" width="11" height="11" rx="2.5" fill="#161b22" opacity="0.45"/><rect x="536" y="110" width="11" height="11" rx="2.5" fill="#161b22" opacity="0.45"/><rect x="536" y="124" width="11" height="11" rx="2.5" fill="#161b22" opacity="0.45"/><rect x="550" y="40" width="11" height="11" rx="2.5" fill="#161b22" opacity="0.45"/><rect x="550" y="54" width="11" height="11" rx="2.5" fill="#161b22" opacity="0.45"/><rect x="550" y="68" width="11" height="11" rx="2.5" fill="#161b22" opacity="0.45"/><rect x="550" y="82" width="11" height="11" rx="2.5" fill="#161b22" opacity="0.45"/><rect x="550" y="96" width="11" height="11" rx="2.5" fill="#161b22" opacity="0.45"/><rect x="550" y="110" width="11" height="11" rx="2.5" fill="#161b22" opacity="0.45"/><rect x="550" y="124" width="11" height="11" rx="2.5" fill="#161b22" opacity="0.45"/><rect x="564" y="40" width="11" height="11" rx="2.5" fill="#161b22" opacity="0.45"/><rect x="564" y="54" width="11" height="11" rx="2.5" fill="#161b22" opacity="0.45"/><rect x="564" y="68" width="11" height="11" rx="2.5" fill="#161b22" opacity="0.45"/><rect x="564" y="82" width="11" height="11" rx="2.5" fill="#161b22" opacity="0.45"/><rect x="564" y="96" width="11" height="11" rx="2.5" fill="#161b22" opacity="0.45"/><rect x="564" y="110" width="11" height="11" rx="2.5" fill="#161b22" opacity="0.45"/><rect x="564" y="124" width="11" height="11" rx="2.5" fill="#161b22" opacity="0.45"/><rect x="578" y="40" width="11" height="11" rx="2.5" fill="#161b22" opacity="0.45"/><rect x="578" y="54" width="11" height="11" rx="2.5" fill="#161b22" opacity="0.45"/><rect x="578" y="68" width="11" height="11" rx="2.5" fill="#161b22" opacity="0.45"/><rect x="578" y="82" width="11" height="11" rx="2.5" fill="#161b22" opacity="0.45"/><rect x="578" y="96" width="11" height="11" rx="2.5" fill="#161b22" opacity="0.45"/><rect x="578" y="110" width="11" height="11" rx="2.5" fill="#161b22" opacity="0.45"/><rect x="578" y="124" width="11" height="11" rx="2.5" fill="#161b22" opacity="0.45"/><rect x="592" y="40" width="11" height="11" rx="2.5" fill="#161b22" opacity="0.45"/><rect x="592" y="54" width="11" height="11" rx="2.5" fill="#161b22" opacity="0.45"/><rect x="592" y="68" width="11" height="11" rx="2.5" fill="#161b22" opacity="0.45"/><rect x="592" y="82" width="11" height="11" rx="2.5" fill="#161b22" opacity="0.45"/><rect x="592" y="96" width="11" height="11" rx="2.5" fill="#161b22" opacity="0.45"/><rect x="592" y="110" width="11" height="11" rx="2.5" fill="#161b22" opacity="0.45"/><rect x="592" y="124" width="11" height="11" rx="2.5" fill="#161b22" opacity="0.45"/><rect x="606" y="40" width="11" height="11" rx="2.5" fill="#161b22" opacity="0.45"/><rect x="606" y="54" width="11" height="11" rx="2.5" fill="#161b22" opacity="0.45"/><rect x="606" y="68" width="11" height="11" rx="2.5" fill="#161b22" opacity="0.45"/><rect x="606" y="82" width="11" height="11" rx="2.5" fill="#161b22" opacity="0.45"/><rect x="606" y="96" width="11" height="11" rx="2.5" fill="#161b22" opacity="0.45"/><rect x="606" y="110" width="11" height="11" rx="2.5" fill="#161b22" opacity="0.45"/><rect x="606" y="124" width="11" height="11" rx="2.5" fill="#161b22" opacity="0.45"/><rect x="620" y="40" width="11" height="11" rx="2.5" fill="#161b22" opacity="0.45"/><rect x="620" y="54" width="11" height="11" rx="2.5" fill="#161b22" opacity="0.45"/><rect x="620" y="68" width="11" height="11" rx="2.5" fill="#161b22" opacity="0.45"/><rect x="620" y="82" width="11" height="11" rx="2.5" fill="#161b22" opacity="0.45"/><rect x="620" y="96" width="11" height="11" rx="2.5" fill="#161b22" opacity="0.45"/><rect x="620" y="110" width="11" height="11" rx="2.5" fill="#161b22" opacity="0.45"/><rect x="620" y="124" width="11" height="11" rx="2.5" fill="#161b22" opacity="0.45"/><rect x="634" y="40" width="11" height="11" rx="2.5" fill="#161b22" opacity="0.45"/><rect x="634" y="54" width="11" height="11" rx="2.5" fill="#161b22" opacity="0.45"/><rect x="634" y="68" width="11" height="11" rx="2.5" fill="#161b22" opacity="0.45"/><rect x="634" y="82" width="11" height="11" rx="2.5" fill="#161b22" opacity="0.45"/><rect x="634" y="96" width="11" height="11" rx="2.5" fill="#161b22" opacity="0.45"/><rect x="634" y="110" width="11" height="11" rx="2.5" fill="#161b22" opacity="0.45"/><rect x="634" y="124" width="11" height="11" rx="2.5" fill="#161b22" opacity="0.45"/><rect x="648" y="40" width="11" height="11" rx="2.5" fill="#161b22" opacity="0.45"/><rect x="648" y="54" width="11" height="11" rx="2.5" fill="#161b22" opacity="0.45"/><rect x="648" y="68" width="11" height="11" rx="2.5" fill="#161b22" opacity="0.45"/><rect x="648" y="82" width="11" height="11" rx="2.5" fill="#161b22" opacity="0.45"/><rect x="648" y="96" width="11" height="11" rx="2.5" fill="#161b22" opacity="0.45"/><rect x="648" y="110" width="11" height="11" rx="2.5" fill="#161b22" opacity="0.45"/><rect x="648" y="124" width="11" height="11" rx="2.5" fill="#161b22" opacity="0.45"/><rect x="662" y="40" width="11" height="11" rx="2.5" fill="#161b22" opacity="0.45"/><rect x="662" y="54" width="11" height="11" rx="2.5" fill="#161b22" opacity="0.45"/><rect x="662" y="68" width="11" height="11" rx="2.5" fill="#161b22" opacity="0.45"/><rect x="662" y="82" width="11" height="11" rx="2.5" fill="#161b22" opacity="0.45"/><rect x="662" y="96" width="11" height="11" rx="2.5" fill="#161b22" opacity="0.45"/><rect x="662" y="110" width="11" height="11" rx="2.5" fill="#161b22" opacity="0.45"/><rect x="662" y="124" width="11" height="11" rx="2.5" fill="#161b22" opacity="0.45"/><rect x="676" y="40" width="11" height="11" rx="2.5" fill="#161b22" opacity="0.45"/><rect x="676" y="54" width="11" height="11" rx="2.5" fill="#161b22" opacity="0.45"/><rect x="676" y="68" width="11" height="11" rx="2.5" fill="#161b22" opacity="0.45"/><rect x="676" y="82" width="11" height="11" rx="2.5" fill="#161b22" opacity="0.45"/><rect x="676" y="96" width="11" height="11" rx="2.5" fill="#161b22" opacity="0.45"/><rect x="676" y="110" width="11" height="11" rx="2.5" fill="#161b22" opacity="0.45"/><rect x="676" y="124" width="11" height="11" rx="2.5" fill="#161b22" opacity="0.45"/><rect x="690" y="40" width="11" height="11" rx="2.5" fill="#161b22" opacity="0.45"/><rect x="690" y="54" width="11" height="11" rx="2.5" fill="#161b22" opacity="0.45"/><rect x="690" y="68" width="11" height="11" rx="2.5" fill="#161b22" opacity="0.45"/><rect x="690" y="82" width="11" height="11" rx="2.5" fill="#161b22" opacity="0.45"/><rect x="690" y="96" width="11" height="11" rx="2.5" fill="#161b22" opacity="0.45"/><rect x="690" y="110" width="11" height="11" rx="2.5" fill="#161b22" opacity="0.45"/><rect x="690" y="124" width="11" height="11" rx="2.5" fill="#161b22" opacity="0.45"/><rect x="704" y="40" width="11" height="11" rx="2.5" fill="#161b22" opacity="0.45"/><rect x="704" y="54" width="11" height="11" rx="2.5" fill="#161b22" opacity="0.45"/><rect x="704" y="68" width="11" height="11" rx="2.5" fill="#161b22" opacity="0.45"/><rect x="704" y="82" width="11" height="11" rx="2.5" fill="#161b22" opacity="0.45"/><rect x="704" y="96" width="11" height="11" rx="2.5" fill="#161b22" opacity="0.45"/><rect x="704" y="110" width="11" height="11" rx="2.5" fill="#161b22" opacity="0.45"/><rect x="704" y="124" width="11" height="11" rx="2.5" fill="#161b22" opacity="0.45"/><rect x="718" y="40" width="11" height="11" rx="2.5" fill="#161b22" opacity="0.45"/><rect x="718" y="54" width="11" height="11" rx="2.5" fill="#161b22" opacity="0.45"/><rect x="718" y="68" width="11" height="11" rx="2.5" fill="#161b22" opacity="0.45"/><rect x="718" y="82" width="11" height="11" rx="2.5" fill="#161b22" opacity="0.45"/><rect x="718" y="96" width="11" height="11" rx="2.5" fill="#161b22" opacity="0.45"/><rect x="718" y="110" width="11" height="11" rx="2.5" fill="#161b22" opacity="0.45"/><rect x="718" y="124" width="11" height="11" rx="2.5" fill="#161b22" opacity="0.45"/><rect x="732" y="40" width="11" height="11" rx="2.5" fill="#161b22" opacity="0.45"/><rect x="732" y="54" width="11" height="11" rx="2.5" fill="#161b22" opacity="0.45"/><rect x="732" y="68" width="11" height="11" rx="2.5" fill="#161b22" opacity="0.45"/><rect x="732" y="82" width="11" height="11" rx="2.5" fill="#161b22" opacity="0.45"/><rect x="732" y="96" width="11" height="11" rx="2.5" fill="#161b22" opacity="0.45"/><rect x="732" y="110" width="11" height="11" rx="2.5" fill="#161b22" opacity="0.45"/><rect x="732" y="124" width="11" height="11" rx="2.5" fill="#161b22" opacity="0.45"/><rect x="746" y="40" width="11" height="11" rx="2.5" fill="#161b22" opacity="0.45"/><rect x="746" y="54" width="11" height="11" rx="2.5" fill="#161b22" opacity="0.45"/><rect x="746" y="68" width="11" height="11" rx="2.5" fill="#161b22" opacity="0.45"/><rect x="746" y="82" width="11" height="11" rx="2.5" fill="#161b22" opacity="0.45"/><rect x="746" y="96" width="11" height="11" rx="2.5" fill="#161b22" opacity="0.45"/>
</svg>