<svg xmlns="http://www.w3.org/2000/svg" viewBox="0 0 778 152" width="778" font-family="ui-monospace,'JetBrains Mono','SF Mono',Menlo,Consolas,monospace">
<rect width="778" height="152" rx="10" fill="#0d1117" stroke="#30363d"/>
<text x="18" y="24" font-size="13" fill="#c9d1d9">
  <tspan fill="#39d353" font-weight="700">2,796</tspan> contributions in 2026 · ytd
</text>
<rect x="18" y="96" width="11" height="11" rx="2.5" fill="#26a641"/><rect x="18" y="110" width="11" height="11" rx="2.5" fill="#26a641"/><rect x="18" y="124" width="11" height="11" rx="2.5" fill="#161b22"/><rect x="32" y="40" width="11" height="11" rx="2.5" fill="#161b22"/><rect x="32" y="54" width="11" height="11" rx="2.5" fill="#006d32"/><rect x="32" y="68" width="11" height="11" rx="2.5" fill="#26a641"/><rect x="32" y="82" width="11" height="11" rx="2.5" fill="#0e4429"/><rect x="32" y="96" width="11" height="11" rx="2.5" fill="#0e4429"/><rect x="32" y="110" width="11" height="11" rx="2.5" fill="#161b22"/><rect x="32" y="124" width="11" height="11" rx="2.5" fill="#161b22"/><rect x="46" y="40" width="11" height="11" rx="2.5" fill="#0e4429"/><rect x="46" y="54" width="11" height="11" rx="2.5" fill="#39d353"/><rect x="46" y="68" width="11" height="11" rx="2.5" fill="#006d32"/><rect x="46" y="82" width="11" height="11" rx="2.5" fill="#0e4429"/><rect x="46" y="96" width="11" height="11" rx="2.5" fill="#006d32"/><rect x="46" y="110" width="11" height="11" rx="2.5" fill="#0e4429"/><rect x="46" y="124" width="11" height="11" rx="2.5" fill="#0e4429"/><rect x="60" y="40" width="11" height="11" rx="2.5" fill="#0e4429"/><rect x="60" y="54" width="11" height="11" rx="2.5" fill="#39d353"/><rect x="60" y="68" width="11" height="11" rx="2.5" fill="#39d353"/><rect x="60" y="82" width="11" height="11" rx="2.5" fill="#006d32"/><rect x="60" y="96" width="11" height="11" rx="2.5" fill="#0e4429"/><rect x="60" y="110" width="11" height="11" rx="2.5" fill="#006d32"/><rect x="60" y="124" width="11" height="11" rx="2.5" fill="#161b22"/><rect x="74" y="40" width="11" height="11" rx="2.5" fill="#161b22"/><rect x="74" y="54" width="11" height="11" rx="2.5" fill="#26a641"/><rect x="74" y="68" width="11" height="11" rx="2.5" fill="#26a641"/><rect x="74" y="82" width="11" height="11" rx="2.5" fill="#26a641"/><rect x="74" y="96" width="11" height="11" rx="2.5" fill="#39d353"/><rect x="74" y="110" width="11" height="11" rx="2.5" fill="#26a641"/><rect x="74" y="124" width="11" height="11" rx="2.5" fill="#161b22"/><rect x="88" y="40" width="11" height="11" rx="2.5" fill="#161b22"/><rect x="88" y="54" width="11" height="11" rx="2.5" fill="#0e4429"/><rect x="88" y="68" width="11" height="11" rx="2.5" fill="#26a641"/><rect x="88" y="82" width="11" height="11" rx="2.5" fill="#161b22"/><rect x="88" y="96" width="11" height="11" rx="2.5" fill="#0e4429"/><rect x="88" y="110" width="11" height="11" rx="2.5" fill="#006d32"/><rect x="88" y="124" width="11" height="11" rx="2.5" fill="#0e4429"/><rect x="102" y="40" width="11" height="11" rx="2.5" fill="#0e4429"/><rect x="102" y="54" width="11" height="11" rx="2.5" fill="#26a641"/><rect x="102" y="68" width="11" height="11" rx="2.5" fill="#39d353"/><rect x="102" y="82" width="11" height="11" rx="2.5" fill="#006d32"/><rect x="102" y="96" width="11" height="11" rx="2.5" fill="#161b22"/><rect x="102" y="110" width="11" height="11" rx="2.5" fill="#161b22"/><rect x="102" y="124" width="11" height="11" rx="2.5" fill="#161b22"/><rect x="116" y="40" width="11" height="11" rx="2.5" fill="#161b22"/><rect x="116" y="54" width="11" height="11" rx="2.5" fill="#161b22"/><rect x="116" y="68" width="11" height="11" rx="2.5" fill="#006d32"/><rect x="116" y="82" width="11" height="11" rx="2.5" fill="#0e4429"/><rect x="116" y="96" width="11" height="11" rx="2.5" fill="#0e4429"/><rect x="116" y="110" width="11" height="11" rx="2.5" fill="#0e4429"/><rect x="116" y="124" width="11" height="11" rx="2.5" fill="#39d353"/><rect x="130" y="40" width="11" height="11" rx="2.5" fill="#0e4429"/><rect x="130" y="54" width="11" height="11" rx="2.5" fill="#161b22"/><rect x="130" y="68" width="11" height="11" rx="2.5" fill="#006d32"/><rect x="130" y="82" width="11" height="11" rx="2.5" fill="#0e4429"/><rect x="130" y="96" width="11" height="11" rx="2.5" fill="#0e4429"/><rect x="130" y="110" width="11" height="11" rx="2.5" fill="#161b22"/><rect x="130" y="124" width="11" height="11" rx="2.5" fill="#161b22"/><rect x="144" y="40" width="11" height="11" rx="2.5" fill="#0e4429"/><rect x="144" y="54" width="11" height="11" rx="2.5" fill="#26a641"/><rect x="144" y="68" width="11" height="11" rx="2.5" fill="#161b22"/><rect x="144" y="82" width="11" height="11" rx="2.5" fill="#39d353"/><rect x="144" y="96" width="11" height="11" rx="2.5" fill="#39d353"/><rect x="144" y="110" width="11" height="11" rx="2.5" fill="#39d353"/><rect x="144" y="124" width="11" height="11" rx="2.5" fill="#0e4429"/><rect x="158" y="40" width="11" height="11" rx="2.5" fill="#26a641"/><rect x="158" y="54" width="11" height="11" rx="2.5" fill="#0e4429"/><rect x="158" y="68" width="11" height="11" rx="2.5" fill="#0e4429"/><rect x="158" y="82" width="11" height="11" rx="2.5" fill="#006d32"/><rect x="158" y="96" width="11" height="11" rx="2.5" fill="#26a641"/><rect x="158" y="110" width="11" height="11" rx="2.5" fill="#39d353"/><rect x="158" y="124" width="11" height="11" rx="2.5" fill="#006d32"/><rect x="172" y="40" width="11" height="11" rx="2.5" fill="#26a641"/><rect x="172" y="54" width="11" height="11" rx="2.5" fill="#39d353"/><rect x="172" y="68" width="11" height="11" rx="2.5" fill="#26a641"/><rect x="172" y="82" width="11" height="11" rx="2.5" fill="#39d353"/><rect x="172" y="96" width="11" height="11" rx="2.5" fill="#26a641"/><rect x="172" y="110" width="11" height="11" rx="2.5" fill="#26a641"/><rect x="172" y="124" width="11" height="11" rx="2.5" fill="#39d353"/><rect x="186" y="40" width="11" height="11" rx="2.5" fill="#0e4429"/><rect x="186" y="54" width="11" height="11" rx="2.5" fill="#39d353"/><rect x="186" y="68" width="11" height="11" rx="2.5" fill="#26a641"/><rect x="186" y="82" width="11" height="11" rx="2.5" fill="#006d32"/><rect x="186" y="96" width="11" height="11" rx="2.5" fill="#0e4429"/><rect x="186" y="110" width="11" height="11" rx="2.5" fill="#161b22"/><rect x="186" y="124" width="11" height="11" rx="2.5" fill="#161b22"/><rect x="200" y="40" width="11" height="11" rx="2.5" fill="#161b22"/><rect x="200" y="54" width="11" height="11" rx="2.5" fill="#39d353"/><rect x="200" y="68" width="11" height="11" rx="2.5" fill="#39d353"/><rect x="200" y="82" width="11" height="11" rx="2.5" fill="#39d353"/><rect x="200" y="96" width="11" height="11" rx="2.5" fill="#39d353"/><rect x="200" y="110" width="11" height="11" rx="2.5" fill="#006d32"/><rect x="200" y="124" width="11" height="11" rx="2.5" fill="#006d32"/><rect x="214" y="40" width="11" height="11" rx="2.5" fill="#0e4429"/><rect x="214" y="54" width="11" height="11" rx="2.5" fill="#006d32"/><rect x="214" y="68" width="11" height="11" rx="2.5" fill="#161b22"/><rect x="214" y="82" width="11" height="11" rx="2.5" fill="#26a641"/><rect x="214" y="96" width="11" height="11" rx="2.5" fill="#006d32"/><rect x="214" y="110" width="11" height="11" rx="2.5" fill="#006d32"/><rect x="214" y="124" width="11" height="11" rx="2.5" fill="#39d353"/><rect x="228" y="40" width="11" height="11" rx="2.5" fill="#39d353"/><rect x="228" y="54" width="11" height="11" rx="2.5" fill="#39d353"/><rect x="228" y="68" width="11" height="11" rx="2.5" fill="#26a641"/><rect x="228" y="82" width="11" height="11" rx="2.5" fill="#26a641"/><rect x="228" y="96" width="11" height="11" rx="2.5" fill="#161b22"/><rect x="228" y="110" width="11" height="11" rx="2.5" fill="#39d353"/><rect x="228" y="124" width="11" height="11" rx="2.5" fill="#161b22"/><rect x="242" y="40" width="11" height="11" rx="2.5" fill="#161b22"/><rect x="242" y="54" width="11" height="11" rx="2.5" fill="#26a641"/><rect x="242" y="68" width="11" height="11" rx="2.5" fill="#0e4429"/><rect x="242" y="82" width="11" height="11" rx="2.5" fill="#26a641"/><rect x="242" y="96" width="11" height="11" rx="2.5" fill="#161b22"/><rect x="242" y="110" width="11" height="11" rx="2.5" fill="#006d32"/><rect x="242" y="124" width="11" height="11" rx="2.5" fill="#006d32"/><rect x="256" y="40" width="11" height="11" rx="2.5" fill="#0e4429"/><rect x="256" y="54" width="11" height="11" rx="2.5" fill="#26a641"/><rect x="256" y="68" width="11" height="11" rx="2.5" fill="#26a641"/><rect x="256" y="82" width="11" height="11" rx="2.5" fill="#161b22"/><rect x="256" y="96" width="11" height="11" rx="2.5" fill="#006d32"/><rect x="256" y="110" width="11" height="11" rx="2.5" fill="#161b22"/><rect x="256" y="124" width="11" height="11" rx="2.5" fill="#006d32"/><rect x="270" y="40" width="11" height="11" rx="2.5" fill="#161b22"/><rect x="270" y="54" width="11" height="11" rx="2.5" fill="#161b22"/><rect x="270" y="68" width="11" height="11" rx="2.5" fill="#006d32"/><rect x="270" y="82" width="11" height="11" rx="2.5" fill="#006d32"/><rect x="270" y="96" width="11" height="11" rx="2.5" fill="#0e4429"/><rect x="270" y="110" width="11" height="11" rx="2.5" fill="#161b22"/><rect x="270" y="124" width="11" height="11" rx="2.5" fill="#0e4429"/><rect x="284" y="40" width="11" height="11" rx="2.5" fill="#161b22"/><rect x="284" y="54" width="11" height="11" rx="2.5" fill="#161b22"/><rect x="284" y="68" width="11" height="11" rx="2.5" fill="#39d353"/><rect x="284" y="82" width="11" height="11" rx="2.5" fill="#39d353"/><rect x="284" y="96" width="11" height="11" rx="2.5" fill="#0e4429"/><rect x="284" y="110" width="11" height="11" rx="2.5" fill="#006d32"/><rect x="284" y="124" width="11" height="11" rx="2.5" fill="#161b22"/><rect x="298" y="40" width="11" height="11" rx="2.5" fill="#161b22"/><rect x="298" y="54" width="11" height="11" rx="2.5" fill="#39d353"/><rect x="298" y="68" width="11" height="11" rx="2.5" fill="#26a641"/><rect x="298" y="82" width="11" height="11" rx="2.5" fill="#26a641"/><rect x="298" y="96" width="11" height="11" rx="2.5" fill="#0e4429"/><rect x="298" y="110" width="11" height="11" rx="2.5" fill="#39d353"/><rect x="298" y="124" width="11" height="11" rx="2.5" fill="#39d353"/><rect x="312" y="40" width="11" height="11" rx="2.5" fill="#39d353"/><rect x="312" y="54" width="11" height="11" rx="2.5" fill="#26a641"/><rect x="312" y="68" width="11" height="11" rx="2.5" fill="#006d32"/><rect x="312" y="82" width="11" height="11" rx="2.5" fill="#0e4429"/><rect x="312" y="96" width="11" height="11" rx="2.5" fill="#39d353"/><rect x="312" y="110" width="11" height="11" rx="2.5" fill="#39d353"/><rect x="312" y="124" width="11" height="11" rx="2.5" fill="#0e4429"/><rect x="326" y="40" width="11" height="11" rx="2.5" fill="#161b22"/><rect x="326" y="54" width="11" height="11" rx="2.5" fill="#161b22"/><rect x="326" y="68" width="11" height="11" rx="2.5" fill="#006d32"/><rect x="326" y="82" width="11" height="11" rx="2.5" fill="#006d32"/><rect x="326" y="96" width="11" height="11" rx="2.5" fill="#26a641"/><rect x="326" y="110" width="11" height="11" rx="2.5" fill="#0e4429"/><rect x="326" y="124" width="11" height="11" rx="2.5" fill="#0e4429"/><rect x="340" y="40" width="11" height="11" rx="2.5" fill="#161b22"/><rect x="340" y="54" width="11" height="11" rx="2.5" fill="#006d32"/><rect x="340" y="68" width="11" height="11" rx="2.5" fill="#26a641"/><rect x="340" y="82" width="11" height="11" rx="2.5" fill="#006d32"/>
</svg>