<svg xmlns="http://www.w3.org/2000/svg" viewBox="0 0 460 302" width="460" font-family="ui-monospace,'JetBrains Mono','SF Mono',Menlo,Consolas,monospace">
<defs>
  <clipPath id="bclip"><path d="M0,12 Q0,0 12,0 H448 Q460,0 460,12 V172 H0 Z"/></clipPath>
  <linearGradient id="cbg" x1="0" y1="0" x2="0" y2="1">
    <stop offset="0" stop-color="#0d1117"/><stop offset="1" stop-color="#0a0f16"/>
  </linearGradient>
  <linearGradient id="ph" x1="0" y1="0" x2="1" y2="1">
    <stop offset="0" stop-color="#11161d"/><stop offset="1" stop-color="#4a90e2" stop-opacity="0.12"/>
  </linearGradient>
  <linearGradient id="spk" x1="0" y1="0" x2="0" y2="1">
    <stop offset="0" stop-color="#53fca1" stop-opacity="0.35"/>
    <stop offset="1" stop-color="#53fca1" stop-opacity="0.02"/>
  </linearGradient>
  <linearGradient id="fade" x1="0" y1="0" x2="0" y2="1">
    <stop offset="0" stop-color="#0d1117" stop-opacity="0"/><stop offset="1" stop-color="#0d1117" stop-opacity="0.9"/>
  </linearGradient>
</defs>
<rect x="0.5" y="0.5" width="459" height="301" rx="12" fill="url(#cbg)" stroke="#30363d"/>
<rect x="0" y="0" width="460" height="172" fill="url(#ph)" clip-path="url(#bclip)"/><text x="230" y="101" text-anchor="middle" font-size="46" font-weight="800" fill="#4a90e2" opacity="0.15">$APTOSPO</text><text x="230" y="148" text-anchor="middle" font-size="9.5" fill="#8b949e" letter-spacing="2.5">LIVE PREVIEW SOON</text><rect x="0" y="124" width="460" height="48" fill="url(#fade)" clip-path="url(#bclip)"/><text x="446" y="159" text-anchor="end" font-size="9.5" fill="#dbe6f0" opacity="0.9">aptos-polymarket.vercel.app/polymar… ↗</text><rect x="0" y="170" width="460" height="2" fill="#4a90e2" opacity="0.9"/><text x="22" y="204" font-size="18" font-weight="700" fill="#53fca1">aptos-polymarket</text><text x="22" y="221" font-size="9.5" fill="#8b949e" letter-spacing="1.5">$APTOSPO</text><rect x="382" y="189" width="56" height="21" rx="10.5" fill="#161b22" stroke="#4a90e2" stroke-opacity="0.5"/><circle cx="395" cy="199.5" r="4" fill="#4a90e2"/><text x="431" y="203.5" text-anchor="end" font-size="10" fill="#c9d1d9">Move</text><text x="22" y="241" font-size="11.5" fill="#9fb0c0">Polymarket Clone on Aptos with HFT Trading Bots to Showca…</text><polygon points="22,283 22.0,283.0 30.2,283.0 38.3,283.0 46.5,283.0 54.6,283.0 62.8,283.0 70.9,283.0 79.1,283.0 87.3,283.0 95.4,283.0 103.6,283.0 111.7,283.0 119.9,283.0 128.0,283.0 136.2,283.0 144.4,283.0 152.5,283.0 160.7,283.0 168.8,283.0 177.0,283.0 185.1,283.0 193.3,283.0 201.5,283.0 209.6,283.0 217.8,283.0 225.9,282.8 234.1,255.0 242.2,281.5 250.4,273.6 258.5,275.6 266.7,266.2 274.9,282.8 283.0,281.8 291.2,282.8 299.3,283.0 307.5,283.0 315.6,283.0 323.8,283.0 332.0,282.8 340.1,283.0 348.3,283.0 356.4,283.0 364.6,283.0 372.7,283.0 380.9,283.0 389.1,283.0 397.2,283.0 405.4,283.0 413.5,283.0 421.7,283.0 429.8,282.3 438.0,283.0 438,283" fill="url(#spk)"/><polyline points="22.0,283.0 30.2,283.0 38.3,283.0 46.5,283.0 54.6,283.0 62.8,283.0 70.9,283.0 79.1,283.0 87.3,283.0 95.4,283.0 103.6,283.0 111.7,283.0 119.9,283.0 128.0,283.0 136.2,283.0 144.4,283.0 152.5,283.0 160.7,283.0 168.8,283.0 177.0,283.0 185.1,283.0 193.3,283.0 201.5,283.0 209.6,283.0 217.8,283.0 225.9,282.8 234.1,255.0 242.2,281.5 250.4,273.6 258.5,275.6 266.7,266.2 274.9,282.8 283.0,281.8 291.2,282.8 299.3,283.0 307.5,283.0 315.6,283.0 323.8,283.0 332.0,282.8 340.1,283.0 348.3,283.0 356.4,283.0 364.6,283.0 372.7,283.0 380.9,283.0 389.1,283.0 397.2,283.0 405.4,283.0 413.5,283.0 421.7,283.0 429.8,282.3 438.0,283.0" fill="none" stroke="#53fca1" stroke-width="1.5"/><circle cx="438.0" cy="283.0" r="2.6" fill="#53fca1"/><text x="22" y="300" font-size="8.5" fill="#8b949e" letter-spacing="1.5">52-WEEK COMMITS</text><text x="438" y="300" text-anchor="end" font-size="10.5" fill="#9fb0c0"><tspan fill="#53fca1" font-weight="700">267</tspan> commits  ·  ★ 2  ·  5d ago</text>
</svg>