<svg xmlns="http://www.w3.org/2000/svg" width="460" font-family="ui-monospace,'JetBrains Mono','SF Mono',Menlo,Consolas,monospace" viewBox="0 0 460 302"><defs><clipPath id="bclip"><path d="M0,12 Q0,0 12,0 H448 Q460,0 460,12 V172 H0 Z"/></clipPath><linearGradient id="cbg" x1="0" x2="0" y1="0" y2="1"><stop offset="0" stop-color="#0d1117"/><stop offset="1" stop-color="#0a0f16"/></linearGradient><linearGradient id="ph" x1="0" x2="1" y1="0" y2="1"><stop offset="0" stop-color="#11161d"/><stop offset="1" stop-color="#4a90e2" stop-opacity=".12"/></linearGradient><linearGradient id="spk" x1="0" x2="0" y1="0" y2="1"><stop offset="0" stop-color="#53fca1" stop-opacity=".35"/><stop offset="1" stop-color="#53fca1" stop-opacity=".02"/></linearGradient><linearGradient id="fade" x1="0" x2="0" y1="0" y2="1"><stop offset="0" stop-color="#0d1117" stop-opacity="0"/><stop offset="1" stop-color="#0d1117" stop-opacity=".9"/></linearGradient></defs><rect width="459" height="301" x=".5" y=".5" fill="url(#cbg)" stroke="#30363d" rx="12"/><rect width="460" height="172" x="0" y="0" fill="url(#ph)" clip-path="url(#bclip)"/><text x="230" y="101" fill="#4a90e2" font-size="46" font-weight="800" opacity=".15" text-anchor="middle">$APTOSPO</text><text x="230" y="148" fill="#8b949e" font-size="9.5" letter-spacing="2.5" text-anchor="middle">LIVE PREVIEW SOON</text><rect width="460" height="48" x="0" y="124" fill="url(#fade)" clip-path="url(#bclip)"/><text x="446" y="159" fill="#dbe6f0" font-size="9.5" opacity=".9" text-anchor="end">aptos-polymarket.vercel.app/polymar… ↗</text><rect width="460" height="2" x="0" y="170" fill="#4a90e2" opacity=".9"/><text x="22" y="204" fill="#53fca1" font-size="18" font-weight="700">aptos-polymarket</text><text x="22" y="221" fill="#8b949e" font-size="9.5" letter-spacing="1.5">$APTOSPO</text><rect width="56" height="21" x="382" y="189" fill="#161b22" stroke="#4a90e2" stroke-opacity=".5" rx="10.5"/><circle cx="395" cy="199.5" r="4" fill="#4a90e2"/><text x="431" y="203.5" fill="#c9d1d9" font-size="10" text-anchor="end">Move</text><text x="22" y="241" fill="#9fb0c0" font-size="11.5">Polymarket Clone on Aptos with HFT Trading Bots to Showca…</text><polygon fill="url(#spk)" points="22 283 22 283 30.2 283 38.3 283 46.5 283 54.6 283 62.8 283 70.9 283 79.1 283 87.3 283 95.4 283 103.6 283 111.7 283 119.9 283 128 283 136.2 282.8 144.4 255 152.5 281.5 160.7 273.6 168.8 275.6 177 266.2 185.1 282.8 193.3 281.8 201.5 282.8 209.6 283 217.8 283 225.9 283 234.1 283 242.2 282.8 250.4 283 258.5 283 266.7 283 274.9 283 283 283 291.2 283 299.3 283 307.5 283 315.6 283 323.8 283 332 283 340.1 282.3 348.3 283 356.4 283 364.6 283 372.7 283 380.9 283 389.1 283 397.2 283 405.4 283 413.5 283 421.7 283 429.8 282.8 438 283 438 283"/><polyline fill="none" stroke="#53fca1" stroke-width="1.5" points="22 283 30.2 283 38.3 283 46.5 283 54.6 283 62.8 283 70.9 283 79.1 283 87.3 283 95.4 283 103.6 283 111.7 283 119.9 283 128 283 136.2 282.8 144.4 255 152.5 281.5 160.7 273.6 168.8 275.6 177 266.2 185.1 282.8 193.3 281.8 201.5 282.8 209.6 283 217.8 283 225.9 283 234.1 283 242.2 282.8 250.4 283 258.5 283 266.7 283 274.9 283 283 283 291.2 283 299.3 283 307.5 283 315.6 283 323.8 283 332 283 340.1 282.3 348.3 283 356.4 283 364.6 283 372.7 283 380.9 283 389.1 283 397.2 283 405.4 283 413.5 283 421.7 283 429.8 282.8 438 283"/><circle cx="438" cy="283" r="2.6" fill="#53fca1"/><text x="22" y="300" fill="#8b949e" font-size="8.5" letter-spacing="1.5">52-WEEK COMMITS</text><text x="438" y="300" fill="#9fb0c0" font-size="10.5" text-anchor="end"><tspan fill="#53fca1" font-weight="700">268</tspan> commits · ★ 2 · 6d ago</text></svg>