<svg xmlns="http://www.w3.org/2000/svg" viewBox="0 0 460 168" width="460" font-family="ui-monospace,'JetBrains Mono','SF Mono',Menlo,Consolas,monospace">
<defs>
  <linearGradient id="cbg" x1="0" y1="0" x2="0" y2="1">
    <stop offset="0" stop-color="#0d1117"/><stop offset="1" stop-color="#0a0f16"/>
  </linearGradient>
  <linearGradient id="spk" x1="0" y1="0" x2="0" y2="1">
    <stop offset="0" stop-color="#53fca1" stop-opacity="0.35"/>
    <stop offset="1" stop-color="#53fca1" stop-opacity="0.02"/>
  </linearGradient>
  <linearGradient id="fade" x1="0" y1="0" x2="0" y2="1">
    <stop offset="0" stop-color="#0d1117" stop-opacity="0"/><stop offset="1" stop-color="#0d1117" stop-opacity="0.85"/>
  </linearGradient>
</defs>
<rect width="460" height="168" rx="12" fill="url(#cbg)" stroke="#30363d"/>
<text x="20" y="30" font-size="17" font-weight="700" fill="#53fca1">commit-markets</text><text x="179.0" y="30" font-size="10" fill="#8b949e">$COMMIT</text><g><rect x="344" y="15" width="96" height="20" rx="10" fill="#161b22" stroke="#3178c6" stroke-opacity="0.6"/><circle cx="357" cy="25" r="4" fill="#3178c6"/><text x="434" y="29" text-anchor="end" font-size="10" fill="#c9d1d9">TypeScript</text></g><text x="20" y="52" font-size="11.5" fill="#c9d1d9">Tradeable markets on GitHub commit activity — turn any repo o...</text><polygon points="20,106 20.0,106.0 28.2,106.0 36.5,106.0 44.7,106.0 52.9,106.0 61.2,106.0 69.4,106.0 77.6,106.0 85.9,106.0 94.1,106.0 102.4,106.0 110.6,106.0 118.8,106.0 127.1,106.0 135.3,106.0 143.5,106.0 151.8,106.0 160.0,106.0 168.2,106.0 176.5,106.0 184.7,106.0 192.9,106.0 201.2,106.0 209.4,106.0 217.6,106.0 225.9,106.0 234.1,106.0 242.4,106.0 250.6,106.0 258.8,106.0 267.1,106.0 275.3,106.0 283.5,106.0 291.8,106.0 300.0,106.0 308.2,106.0 316.5,106.0 324.7,106.0 332.9,106.0 341.2,106.0 349.4,106.0 357.6,106.0 365.9,106.0 374.1,106.0 382.4,106.0 390.6,106.0 398.8,106.0 407.1,106.0 415.3,106.0 423.5,105.0 431.8,68.0 440.0,105.0 440,106" fill="url(#spk)"/><polyline points="20.0,106.0 28.2,106.0 36.5,106.0 44.7,106.0 52.9,106.0 61.2,106.0 69.4,106.0 77.6,106.0 85.9,106.0 94.1,106.0 102.4,106.0 110.6,106.0 118.8,106.0 127.1,106.0 135.3,106.0 143.5,106.0 151.8,106.0 160.0,106.0 168.2,106.0 176.5,106.0 184.7,106.0 192.9,106.0 201.2,106.0 209.4,106.0 217.6,106.0 225.9,106.0 234.1,106.0 242.4,106.0 250.6,106.0 258.8,106.0 267.1,106.0 275.3,106.0 283.5,106.0 291.8,106.0 300.0,106.0 308.2,106.0 316.5,106.0 324.7,106.0 332.9,106.0 341.2,106.0 349.4,106.0 357.6,106.0 365.9,106.0 374.1,106.0 382.4,106.0 390.6,106.0 398.8,106.0 407.1,106.0 415.3,106.0 423.5,105.0 431.8,68.0 440.0,105.0" fill="none" stroke="#53fca1" stroke-width="1.4"/><text x="20" y="121" font-size="9" fill="#8b949e">52-WEEK COMMIT FLOW</text><text x="440" y="121" text-anchor="end" font-size="11" fill="#c9d1d9"><tspan fill="#53fca1" font-weight="700">42</tspan> commits/52w  ·  ★ 0  ·  today</text>
</svg>