<svg xmlns="http://www.w3.org/2000/svg" width="940" font-family="ui-monospace,'JetBrains Mono','SF Mono',Menlo,Consolas,monospace" viewBox="0 0 940 580"><defs><clipPath id="tickclip"><rect width="892" height="30" x="24" y="44"/></clipPath><pattern id="dots" width="22" height="22" patternUnits="userSpaceOnUse"><circle cx="2" cy="2" r=".9" fill="#1a2330"/></pattern><style>.marquee{animation:tick 36s linear infinite}</style></defs><rect width="940" height="580" fill="#070b10" stroke="#1c2430" rx="14"/><line x1="0" x2="940" y1="44" y2="44" stroke="#1c2430"/><line x1="0" x2="940" y1="74" y2="74" stroke="#1c2430"/><text x="24" y="28" fill="#97fce4" font-size="14" font-weight="700">MAXMONEYCASH-PERP</text><text x="202" y="28" fill="#55657a" font-size="11">CONTRIB-7D / USD</text><circle cx="324" cy="24" r="4" fill="#16c79a"><animate attributeName="opacity" dur="2s" repeatCount="indefinite" values="1;0.2;1"/></circle><text x="336" y="28" fill="#16c79a" font-size="11">LIVE</text><text x="916" y="28" fill="#9fb2c8" font-size="11" text-anchor="end">LAST <tspan fill="#97fce4" font-weight="700">94</tspan> 30D <tspan fill="#16c79a" font-weight="700">+49.8%</tspan> 365D VOL <tspan fill="#97fce4" font-weight="700">3,601</tspan> FUNDING <tspan fill="#ffb454" font-weight="700">-$10,903</tspan></text><g clip-path="url(#tickclip)"><g class="marquee"><text x="0" y="64" font-size="11"><tspan fill="#9fb2c8">JS</tspan><tspan fill="#16c79a"> 29.0% ▲</tspan><tspan fill="#1c2430"> │ </tspan><tspan fill="#9fb2c8">TS</tspan><tspan fill="#16c79a"> 22.6% ▲</tspan><tspan fill="#1c2430"> │ </tspan><tspan fill="#9fb2c8">PY</tspan><tspan fill="#f6465d"> 22.6% ▼</tspan><tspan fill="#1c2430"> │ </tspan><tspan fill="#9fb2c8">VUE</tspan><tspan fill="#16c79a"> 6.5% ▲</tspan><tspan fill="#1c2430"> │ </tspan><tspan fill="#9fb2c8">IPYNB</tspan><tspan fill="#16c79a"> 6.5% ▲</tspan><tspan fill="#1c2430"> │ </tspan><tspan fill="#9fb2c8">RS</tspan><tspan fill="#f6465d"> 6.5% ▼</tspan><tspan fill="#1c2430"> │ </tspan><tspan fill="#9fb2c8">SH</tspan><tspan fill="#16c79a"> 3.2% ▲</tspan><tspan fill="#1c2430"> │ </tspan><tspan fill="#9fb2c8">C</tspan><tspan fill="#16c79a"> 3.2% ▲</tspan><tspan fill="#1c2430"> │ </tspan><tspan fill="#9fb2c8">JS</tspan><tspan fill="#16c79a"> 29.0% ▲</tspan><tspan fill="#1c2430"> │ </tspan><tspan fill="#9fb2c8">TS</tspan><tspan fill="#16c79a"> 22.6% ▲</tspan><tspan fill="#1c2430"> │ </tspan><tspan fill="#9fb2c8">PY</tspan><tspan fill="#f6465d"> 22.6% ▼</tspan><tspan fill="#1c2430"> │ </tspan><tspan fill="#9fb2c8">VUE</tspan><tspan fill="#16c79a"> 6.5% ▲</tspan><tspan fill="#1c2430"> │ </tspan><tspan fill="#9fb2c8">IPYNB</tspan><tspan fill="#16c79a"> 6.5% ▲</tspan><tspan fill="#1c2430"> │ </tspan><tspan fill="#9fb2c8">RS</tspan><tspan fill="#f6465d"> 6.5% ▼</tspan><tspan fill="#1c2430"> │ </tspan><tspan fill="#9fb2c8">SH</tspan><tspan fill="#16c79a"> 3.2% ▲</tspan><tspan fill="#1c2430"> │ </tspan><tspan fill="#9fb2c8">C</tspan><tspan fill="#16c79a"> 3.2% ▲</tspan><tspan fill="#1c2430"> │</tspan></text></g></g><rect width="660" height="402" x="20" y="86" fill="#0b1018" stroke="#1c2430" rx="8"/><rect width="660" height="402" x="20" y="86" fill="url(#dots)" rx="8"/><line x1="28" x2="624" y1="400" y2="400" stroke="#141b26" stroke-dasharray="2 6"/><text x="634" y="404" fill="#55657a" font-size="9">0</text><line x1="28" x2="624" y1="325" y2="325" stroke="#141b26" stroke-dasharray="2 6"/><text x="634" y="329" fill="#55657a" font-size="9">100</text><line x1="28" x2="624" y1="250" y2="250" stroke="#141b26" stroke-dasharray="2 6"/><text x="634" y="254" fill="#55657a" font-size="9">200</text><line x1="28" x2="624" y1="175" y2="175" stroke="#141b26" stroke-dasharray="2 6"/><text x="634" y="179" fill="#55657a" font-size="9">300</text><line x1="28" x2="624" y1="100" y2="100" stroke="#141b26" stroke-dasharray="2 6"/><text x="634" y="104" fill="#55657a" font-size="9">400</text><polyline fill="none" stroke="#97fce4" stroke-width="1" points="34.3 400 45.8 399.2 57.3 400 68.9 394 80.4 390.2 92 344.4 103.5 392.5 115 373 126.6 398.5 138.1 398.5 149.7 396.2 161.2 398.5 172.7 399.2 184.3 400 195.8 398.5 207.3 399.2 218.9 385 230.4 400 242 400 253.5 399.2 265 397.7 276.6 398.5 288.1 340.7 299.7 355.7 311.2 309.2 322.7 363.2 334.3 314.4 345.8 362.5 357.3 300.2 368.9 376.7 380.4 348.2 392 257.4 403.5 313.7 415 376.7 426.6 352 438.1 355 449.7 385.7 461.2 198.8 472.7 287.4 484.3 238.6 495.8 343.7 507.3 206.3 518.9 331.7 530.4 149.3 542 349 553.5 349 565 385 576.6 324.2 588.1 221.3 599.7 240.8 611.2 364 622.7 329.4" opacity=".35"/><line x1="34.3" x2="34.3" y1="400" y2="400" stroke="#16c79a" stroke-width="1"/><rect width="8.5" height="2" x="30" y="400" fill="#16c79a" rx="1"/><rect width="8.5" height="1" x="30" y="468" fill="#16c79a" opacity=".4"/><line x1="45.8" x2="45.8" y1="399.2" y2="400" stroke="#16c79a" stroke-width="1"/><rect width="8.5" height="2" x="41.5" y="399.2" fill="#16c79a" rx="1"/><rect width="8.5" height="1" x="41.5" y="467.8" fill="#16c79a" opacity=".4"/><line x1="57.3" x2="57.3" y1="399.2" y2="400" stroke="#f6465d" stroke-width="1"/><rect width="8.5" height="2" x="53.1" y="399.2" fill="#f6465d" rx="1"/><rect width="8.5" height="1" x="53.1" y="468" fill="#f6465d" opacity=".4"/><line x1="68.9" x2="68.9" y1="394" y2="400" stroke="#16c79a" stroke-width="1"/><rect width="8.5" height="6" x="64.6" y="394" fill="#16c79a" rx="1"/><rect width="8.5" height="1.3" x="64.6" y="466.7" fill="#16c79a" opacity=".4"/><line x1="80.4" x2="80.4" y1="386.5" y2="394" stroke="#16c79a" stroke-width="1"/><rect width="8.5" height="3.8" x="76.2" y="390.2" fill="#16c79a" rx="1"/><rect width="8.5" height="2.2" x="76.2" y="465.8" fill="#16c79a" opacity=".4"/><line x1="92" x2="92" y1="344.4" y2="391.7" stroke="#16c79a" stroke-width="1"/><rect width="8.5" height="42.8" x="87.7" y="344.4" fill="#16c79a" rx="1"/><rect width="8.5" height="12.4" x="87.7" y="455.6" fill="#16c79a" opacity=".4"/><line x1="103.5" x2="103.5" y1="345.2" y2="392.5" stroke="#f6465d" stroke-width="1"/><rect width="8.5" height="47.3" x="99.2" y="345.2" fill="#f6465d" rx="1"/><rect width="8.5" height="1.7" x="99.2" y="466.3" fill="#f6465d" opacity=".4"/><line x1="115" x2="115" y1="373" y2="394.7" stroke="#16c79a" stroke-width="1"/><rect width="8.5" height="21" x="110.8" y="373" fill="#16c79a" rx="1"/><rect width="8.5" height="6" x="110.8" y="462" fill="#16c79a" opacity=".4"/><line x1="126.6" x2="126.6" y1="373" y2="398.5" stroke="#f6465d" stroke-width="1"/><rect width="8.5" height="24.8" x="122.3" y="373.7" fill="#f6465d" rx="1"/><rect width="8.5" height="1" x="122.3" y="467.7" fill="#f6465d" opacity=".4"/><line x1="138.1" x2="138.1" y1="398.5" y2="399.2" stroke="#16c79a" stroke-width="1"/><rect width="8.5" height="2" x="133.8" y="398.5" fill="#16c79a" rx="1"/><rect width="8.5" height="1" x="133.8" y="467.7" fill="#16c79a" opacity=".4"/><line x1="149.7" x2="149.7" y1="396.2" y2="398.5" stroke="#16c79a" stroke-width="1"/><rect width="8.5" height="2.3" x="145.4" y="396.2" fill="#16c79a" rx="1"/><rect width="8.5" height="1" x="145.4" y="467.2" fill="#16c79a" opacity=".4"/><line x1="161.2" x2="161.2" y1="394.7" y2="398.5" stroke="#f6465d" stroke-width="1"/><rect width="8.5" height="2.3" x="156.9" y="396.2" fill="#f6465d" rx="1"/><rect width="8.5" height="1" x="156.9" y="467.7" fill="#f6465d" opacity=".4"/><line x1="172.7" x2="172.7" y1="398.5" y2="399.2" stroke="#f6465d" stroke-width="1"/><rect width="8.5" height="2" x="168.5" y="398.5" fill="#f6465d" rx="1"/><rect width="8.5" height="1" x="168.5" y="467.8" fill="#f6465d" opacity=".4"/><line x1="184.3" x2="184.3" y1="399.2" y2="400" stroke="#f6465d" stroke-width="1"/><rect width="8.5" height="2" x="180" y="399.2" fill="#f6465d" rx="1"/><rect width="8.5" height="1" x="180" y="468" fill="#f6465d" opacity=".4"/><line x1="195.8" x2="195.8" y1="398.5" y2="398.5" stroke="#16c79a" stroke-width="1"/><rect width="8.5" height="2" x="191.5" y="398.5" fill="#16c79a" rx="1"/><rect width="8.5" height="1" x="191.5" y="467.7" fill="#16c79a" opacity=".4"/><line x1="207.3" x2="207.3" y1="399.2" y2="400" stroke="#16c79a" stroke-width="1"/><rect width="8.5" height="2" x="203.1" y="399.2" fill="#16c79a" rx="1"/><rect width="8.5" height="1" x="203.1" y="467.8" fill="#16c79a" opacity=".4"/><line x1="218.9" x2="218.9" y1="384.2" y2="398.5" stroke="#16c79a" stroke-width="1"/><rect width="8.5" height="13.5" x="214.6" y="385" fill="#16c79a" rx="1"/><rect width="8.5" height="3.4" x="214.6" y="464.6" fill="#16c79a" opacity=".4"/><line x1="230.4" x2="230.4" y1="385.7" y2="400" stroke="#f6465d" stroke-width="1"/><rect width="8.5" height="14.3" x="226.2" y="385.7" fill="#f6465d" rx="1"/><rect width="8.5" height="1" x="226.2" y="468" fill="#f6465d" opacity=".4"/><line x1="242" x2="242" y1="400" y2="400" stroke="#16c79a" stroke-width="1"/><rect width="8.5" height="2" x="237.7" y="400" fill="#16c79a" rx="1"/><rect width="8.5" height="1" x="237.7" y="468" fill="#16c79a" opacity=".4"/><line x1="253.5" x2="253.5" y1="399.2" y2="400" stroke="#16c79a" stroke-width="1"/><rect width="8.5" height="2" x="249.2" y="399.2" fill="#16c79a" rx="1"/><rect width="8.5" height="1" x="249.2" y="467.8" fill="#16c79a" opacity=".4"/><line x1="265" x2="265" y1="397.7" y2="399.2" stroke="#16c79a" stroke-width="1"/><rect width="8.5" height="2" x="260.8" y="397.7" fill="#16c79a" rx="1"/><rect width="8.5" height="1" x="260.8" y="467.5" fill="#16c79a" opacity=".4"/><line x1="276.6" x2="276.6" y1="397" y2="398.5" stroke="#16c79a" stroke-width="1"/><rect width="8.5" height="2" x="272.3" y="398.5" fill="#16c79a" rx="1"/><rect width="8.5" height="1" x="272.3" y="467.7" fill="#16c79a" opacity=".4"/><line x1="288.1" x2="288.1" y1="340.7" y2="397.7" stroke="#16c79a" stroke-width="1"/><rect width="8.5" height="57.1" x="283.8" y="340.7" fill="#16c79a" rx="1"/><rect width="8.5" height="13.2" x="283.8" y="454.8" fill="#16c79a" opacity=".4"/><line x1="299.7" x2="299.7" y1="329.4" y2="368.5" stroke="#f6465d" stroke-width="1"/><rect width="8.5" height="26.3" x="295.4" y="329.4" fill="#f6465d" rx="1"/><rect width="8.5" height="9.9" x="295.4" y="458.1" fill="#f6465d" opacity=".4"/><line x1="311.2" x2="311.2" y1="294.1" y2="337.7" stroke="#16c79a" stroke-width="1"/><rect width="8.5" height="28.5" x="306.9" y="309.2" fill="#16c79a" rx="1"/><rect width="8.5" height="20.3" x="306.9" y="447.7" fill="#16c79a" opacity=".4"/><line x1="322.7" x2="322.7" y1="334.7" y2="363.2" stroke="#f6465d" stroke-width="1"/><rect width="8.5" height="24" x="318.5" y="339.2" fill="#f6465d" rx="1"/><rect width="8.5" height="8.2" x="318.5" y="459.8" fill="#f6465d" opacity=".4"/><line x1="334.3" x2="334.3" y1="313.7" y2="366.2" stroke="#16c79a" stroke-width="1"/><rect width="8.5" height="48.8" x="330" y="314.4" fill="#16c79a" rx="1"/><rect width="8.5" height="19.1" x="330" y="448.9" fill="#16c79a" opacity=".4"/><line x1="345.8" x2="345.8" y1="309.2" y2="362.5" stroke="#f6465d" stroke-width="1"/><rect width="8.5" height="53.3" x="341.5" y="309.2" fill="#f6465d" rx="1"/><rect width="8.5" height="8.4" x="341.5" y="459.6" fill="#f6465d" opacity=".4"/><line x1="357.3" x2="357.3" y1="300.2" y2="365.5" stroke="#16c79a" stroke-width="1"/><rect width="8.5" height="63.1" x="353.1" y="300.2" fill="#16c79a" rx="1"/><rect width="8.5" height="22.3" x="353.1" y="445.7" fill="#16c79a" opacity=".4"/><line x1="368.9" x2="368.9" y1="289.6" y2="376.7" stroke="#f6465d" stroke-width="1"/><rect width="8.5" height="72.1" x="364.6" y="304.7" fill="#f6465d" rx="1"/><rect width="8.5" height="5.2" x="364.6" y="462.8" fill="#f6465d" opacity=".4"/><line x1="380.4" x2="380.4" y1="348.2" y2="375.2" stroke="#16c79a" stroke-width="1"/><rect width="8.5" height="27" x="376.2" y="348.2" fill="#16c79a" rx="1"/><rect width="8.5" height="11.6" x="376.2" y="456.4" fill="#16c79a" opacity=".4"/><line x1="392" x2="392" y1="254.4" y2="349" stroke="#16c79a" stroke-width="1"/><rect width="8.5" height="91.6" x="387.7" y="257.4" fill="#16c79a" rx="1"/><rect width="8.5" height="31.9" x="387.7" y="436.1" fill="#16c79a" opacity=".4"/><line x1="403.5" x2="403.5" y1="258.1" y2="346.7" stroke="#f6465d" stroke-width="1"/><rect width="8.5" height="55.6" x="399.2" y="258.1" fill="#f6465d" rx="1"/><rect width="8.5" height="19.3" x="399.2" y="448.7" fill="#f6465d" opacity=".4"/><line x1="415" x2="415" y1="313.7" y2="380.5" stroke="#f6465d" stroke-width="1"/><rect width="8.5" height="63.1" x="410.8" y="313.7" fill="#f6465d" rx="1"/><rect width="8.5" height="5.2" x="410.8" y="462.8" fill="#f6465d" opacity=".4"/><line x1="426.6" x2="426.6" y1="343.7" y2="373" stroke="#16c79a" stroke-width="1"/><rect width="8.5" height="21" x="422.3" y="352" fill="#16c79a" rx="1"/><rect width="8.5" height="10.7" x="422.3" y="457.3" fill="#16c79a" opacity=".4"/><line x1="438.1" x2="438.1" y1="355" y2="391.7" stroke="#16c79a" stroke-width="1"/><rect width="8.5" height="2" x="433.8" y="355" fill="#16c79a" rx="1"/><rect width="8.5" height="10.1" x="433.8" y="457.9" fill="#16c79a" opacity=".4"/><line x1="449.7" x2="449.7" y1="349.7" y2="385.7" stroke="#f6465d" stroke-width="1"/><rect width="8.5" height="33" x="445.4" y="352.7" fill="#f6465d" rx="1"/><rect width="8.5" height="3.2" x="445.4" y="464.8" fill="#f6465d" opacity=".4"/><line x1="461.2" x2="461.2" y1="198.8" y2="385" stroke="#16c79a" stroke-width="1"/><rect width="8.5" height="186.2" x="456.9" y="198.8" fill="#16c79a" rx="1"/><rect width="8.5" height="44.9" x="456.9" y="423.1" fill="#16c79a" opacity=".4"/><line x1="472.7" x2="472.7" y1="184.5" y2="295.7" stroke="#f6465d" stroke-width="1"/><rect width="8.5" height="102.8" x="468.5" y="184.5" fill="#f6465d" rx="1"/><rect width="8.5" height="25.1" x="468.5" y="442.9" fill="#f6465d" opacity=".4"/><line x1="484.3" x2="484.3" y1="216.8" y2="289.6" stroke="#16c79a" stroke-width="1"/><rect width="8.5" height="51" x="480" y="238.6" fill="#16c79a" rx="1"/><rect width="8.5" height="36" x="480" y="432" fill="#16c79a" opacity=".4"/><line x1="495.8" x2="495.8" y1="250.6" y2="343.7" stroke="#f6465d" stroke-width="1"/><rect width="8.5" height="93.1" x="491.5" y="250.6" fill="#f6465d" rx="1"/><rect width="8.5" height="12.6" x="491.5" y="455.4" fill="#f6465d" opacity=".4"/><line x1="507.3" x2="507.3" y1="206.3" y2="346.7" stroke="#16c79a" stroke-width="1"/><rect width="8.5" height="140.4" x="503.1" y="206.3" fill="#16c79a" rx="1"/><rect width="8.5" height="43.3" x="503.1" y="424.7" fill="#16c79a" opacity=".4"/><line x1="518.9" x2="518.9" y1="203.3" y2="355" stroke="#f6465d" stroke-width="1"/><rect width="8.5" height="128.4" x="514.6" y="203.3" fill="#f6465d" rx="1"/><rect width="8.5" height="15.3" x="514.6" y="452.7" fill="#f6465d" opacity=".4"/><line x1="530.4" x2="530.4" y1="117" y2="242.4" stroke="#16c79a" stroke-width="1"/><rect width="8.5" height="93.1" x="526.2" y="149.3" fill="#16c79a" rx="1"/><rect width="8.5" height="56" x="526.2" y="412" fill="#16c79a" opacity=".4"/><line x1="542" x2="542" y1="241.6" y2="355.7" stroke="#f6465d" stroke-width="1"/><rect width="8.5" height="107.4" x="537.7" y="241.6" fill="#f6465d" rx="1"/><rect width="8.5" height="11.4" x="537.7" y="456.6" fill="#f6465d" opacity=".4"/><line x1="553.5" x2="553.5" y1="339.2" y2="355.7" stroke="#f6465d" stroke-width="1"/><rect width="8.5" height="2.3" x="549.2" y="346.7" fill="#f6465d" rx="1"/><rect width="8.5" height="11.4" x="549.2" y="456.6" fill="#f6465d" opacity=".4"/><line x1="565" x2="565" y1="351.2" y2="385" stroke="#f6465d" stroke-width="1"/><rect width="8.5" height="33.8" x="560.8" y="351.2" fill="#f6465d" rx="1"/><rect width="8.5" height="3.4" x="560.8" y="464.6" fill="#f6465d" opacity=".4"/><line x1="576.6" x2="576.6" y1="321.9" y2="385" stroke="#16c79a" stroke-width="1"/><rect width="8.5" height="60.8" x="572.3" y="324.2" fill="#16c79a" rx="1"/><rect width="8.5" height="16.9" x="572.3" y="451.1" fill="#16c79a" opacity=".4"/><line x1="588.1" x2="588.1" y1="221.3" y2="331.7" stroke="#16c79a" stroke-width="1"/><rect width="8.5" height="102.8" x="583.8" y="221.3" fill="#16c79a" rx="1"/><rect width="8.5" height="39.9" x="583.8" y="428.1" fill="#16c79a" opacity=".4"/><line x1="599.7" x2="599.7" y1="166.5" y2="240.8" stroke="#f6465d" stroke-width="1"/><rect width="8.5" height="74.3" x="595.4" y="166.5" fill="#f6465d" rx="1"/><rect width="8.5" height="35.5" x="595.4" y="432.5" fill="#f6465d" opacity=".4"/><line x1="611.2" x2="611.2" y1="295.7" y2="364" stroke="#f6465d" stroke-width="1"/><rect width="8.5" height="68.3" x="606.9" y="295.7" fill="#f6465d" rx="1"/><rect width="8.5" height="8" x="606.9" y="460" fill="#f6465d" opacity=".4"/><line x1="622.7" x2="622.7" y1="329.4" y2="363.2" stroke="#16c79a" stroke-width="1"/><rect width="8.5" height="33.8" x="618.5" y="329.4" fill="#16c79a" rx="1"/><rect width="8.5" height="14.8" x="618.5" y="453.2" fill="#16c79a" opacity=".4"/><line x1="28" x2="624" y1="329.4" y2="329.4" stroke="#ffb454" stroke-dasharray="6 4" stroke-width="1"/><rect width="50" height="17" x="628" y="320.4" fill="#ffb454" rx="3"/><text x="653" y="333.4" fill="#070b10" font-size="10" font-weight="700" text-anchor="middle">94</text><text x="30" y="482" fill="#55657a" font-size="9">JUN</text><text x="76.2" y="482" fill="#55657a" font-size="9">JUL</text><text x="122.3" y="482" fill="#55657a" font-size="9">AUG</text><text x="168.5" y="482" fill="#55657a" font-size="9">SEP</text><text x="214.6" y="482" fill="#55657a" font-size="9">OCT</text><text x="260.8" y="482" fill="#55657a" font-size="9">NOV</text><text x="353.1" y="482" fill="#55657a" font-size="9">DEC</text><text x="399.2" y="482" fill="#55657a" font-size="9">JAN</text><text x="445.4" y="482" fill="#55657a" font-size="9">FEB</text><text x="491.5" y="482" fill="#55657a" font-size="9">MAR</text><text x="537.7" y="482" fill="#55657a" font-size="9">APR</text><text x="583.8" y="482" fill="#55657a" font-size="9">MAY</text><rect width="216" height="402" x="700" y="86" fill="#0b1018" stroke="#1c2430" rx="8"/><text x="714" y="110" fill="#9fb2c8" font-size="11" letter-spacing="2">ORDER BOOK</text><text x="902" y="110" fill="#55657a" font-size="9" text-anchor="end">AGENTS × LANGS</text><rect width=".7" height="17" x="901.3" y="124" fill="#f6465d" opacity=".16"/><text x="714" y="136" fill="#f6465d" font-size="10">OPENCODE</text><text x="902" y="136" fill="#9fb2c8" font-size="10" text-anchor="end">$25 <tspan fill="#55657a">· 66.0M</tspan></text><rect width="2.2" height="17" x="899.8" y="146" fill="#f6465d" opacity=".16"/><text x="714" y="158" fill="#f6465d" font-size="10">KIMI</text><text x="902" y="158" fill="#9fb2c8" font-size="10" text-anchor="end">$74 <tspan fill="#55657a">· 419.0M</tspan></text><rect width="12.6" height="17" x="889.4" y="168" fill="#f6465d" opacity=".16"/><text x="714" y="180" fill="#f6465d" font-size="10">CURSOR</text><text x="902" y="180" fill="#9fb2c8" font-size="10" text-anchor="end">$424 <tspan fill="#55657a">· 189.1M</tspan></text><rect width="25" height="17" x="877" y="190" fill="#f6465d" opacity=".16"/><text x="714" y="202" fill="#f6465d" font-size="10">DROID</text><text x="902" y="202" fill="#9fb2c8" font-size="10" text-anchor="end">$841 <tspan fill="#55657a">· 1.01B</tspan></text><rect width="95.5" height="17" x="806.5" y="212" fill="#f6465d" opacity=".16"/><text x="714" y="224" fill="#f6465d" font-size="10">CODEX</text><text x="902" y="224" fill="#9fb2c8" font-size="10" text-anchor="end">$3,213 <tspan fill="#55657a">· 5.17B</tspan></text><rect width="188" height="17" x="714" y="234" fill="#f6465d" opacity=".16"/><text x="714" y="246" fill="#f6465d" font-size="10">CLAUDE</text><text x="902" y="246" fill="#9fb2c8" font-size="10" text-anchor="end">$6,324 <tspan fill="#55657a">· 8.15B</tspan></text><line x1="710" x2="906" y1="259" y2="259" stroke="#1c2430"/><text x="808" y="275" fill="#ffb454" font-size="11" font-weight="700" text-anchor="middle">MARK 15.0B TOK</text><line x1="710" x2="906" y1="283" y2="283" stroke="#1c2430"/><rect width="188" height="17" x="714" y="296" fill="#16c79a" opacity=".16"/><text x="714" y="308" fill="#16c79a" font-size="10">JS</text><text x="902" y="308" fill="#9fb2c8" font-size="10" text-anchor="end">9 repos</text><rect width="146.2" height="17" x="714" y="318" fill="#16c79a" opacity=".16"/><text x="714" y="330" fill="#16c79a" font-size="10">TS</text><text x="902" y="330" fill="#9fb2c8" font-size="10" text-anchor="end">7 repos</text><rect width="146.2" height="17" x="714" y="340" fill="#16c79a" opacity=".16"/><text x="714" y="352" fill="#16c79a" font-size="10">PY</text><text x="902" y="352" fill="#9fb2c8" font-size="10" text-anchor="end">7 repos</text><rect width="41.8" height="17" x="714" y="362" fill="#16c79a" opacity=".16"/><text x="714" y="374" fill="#16c79a" font-size="10">VUE</text><text x="902" y="374" fill="#9fb2c8" font-size="10" text-anchor="end">2 repos</text><rect width="41.8" height="17" x="714" y="384" fill="#16c79a" opacity=".16"/><text x="714" y="396" fill="#16c79a" font-size="10">IPYNB</text><text x="902" y="396" fill="#9fb2c8" font-size="10" text-anchor="end">2 repos</text><line x1="710" x2="906" y1="412" y2="412" stroke="#1c2430"/><text x="714" y="426" fill="#55657a" font-size="10" letter-spacing="2">RECENT FILLS</text><text x="714" y="442" fill="#16c79a" font-size="9.5">BUY <tspan fill="#9fb2c8">maxmoneycash</tspan></text><text x="902" y="442" fill="#55657a" font-size="9.5" text-anchor="end">1c · 1m</text><text x="714" y="460" fill="#16c79a" font-size="9.5">BUY <tspan fill="#9fb2c8">cash.trading</tspan></text><text x="902" y="460" fill="#55657a" font-size="9.5" text-anchor="end">1c · 1m</text><text x="714" y="478" fill="#16c79a" font-size="9.5">BUY <tspan fill="#9fb2c8">commit-markets</tspan></text><text x="902" y="478" fill="#55657a" font-size="9.5" text-anchor="end">1c · 1m</text><text x="24" y="516" fill="#55657a" font-size="11">ATH WEEK <tspan fill="#97fce4" font-weight="700">334</tspan> ACTIVE DAYS <tspan fill="#97fce4" font-weight="700">201/365</tspan> STREAK <tspan fill="#16c79a" font-weight="700">10D</tspan> PEAK STREAK <tspan fill="#16c79a" font-weight="700">23D</tspan> 30D VOL <tspan fill="#97fce4" font-weight="700">632</tspan> 1W CANDLES ON A 7D ROLLING INDEX</text></svg>