<svg xmlns="http://www.w3.org/2000/svg" viewBox="0 0 940 470" width="940" font-family="ui-monospace,'JetBrains Mono','SF Mono',Menlo,Consolas,monospace">
<defs>
  <clipPath id="tickclip"><rect x="24" y="44" width="892" height="30"/></clipPath>
  <style>
    @keyframes tick { from { transform: translateX(24px); } to { transform: translateX(-860px); } }
    .marquee { animation: tick 36s linear infinite; }
  </style>
</defs>
<rect width="940" height="470" rx="14" fill="#070b10" stroke="#1c2430"/>
<line x1="0" y1="44" x2="940" y2="44" stroke="#1c2430"/>
<line x1="0" y1="74" x2="940" y2="74" stroke="#1c2430"/>
<text x="24" y="28" font-size="14" font-weight="700" fill="#97fce4">MAXMONEYCASH-PERP</text><text x="202" y="28" font-size="11" fill="#55657a">CONTRIB / USD</text><circle cx="304" cy="24" r="4" fill="#16c79a"><animate attributeName="opacity" values="1;0.2;1" dur="2s" repeatCount="indefinite"/></circle><text x="316" y="28" font-size="11" fill="#16c79a">LIVE</text><text x="916" y="28" text-anchor="end" font-size="11" fill="#9fb2c8">LAST <tspan fill="#97fce4" font-weight="700">33</tspan>   365D VOL <tspan fill="#97fce4" font-weight="700">3,546</tspan>   FUNDING <tspan fill="#ffb454" font-weight="700">-$12,525</tspan></text><g clip-path="url(#tickclip)"><g class="marquee"><text x="0" y="64" font-size="11"><tspan fill="#9fb2c8">JS</tspan><tspan fill="#16c79a"> 29.0% ▲</tspan><tspan fill="#1c2430">   │   </tspan><tspan fill="#9fb2c8">TS</tspan><tspan fill="#16c79a"> 22.6% ▲</tspan><tspan fill="#1c2430">   │   </tspan><tspan fill="#9fb2c8">PY</tspan><tspan fill="#f6465d"> 22.6% ▼</tspan><tspan fill="#1c2430">   │   </tspan><tspan fill="#9fb2c8">VUE</tspan><tspan fill="#16c79a"> 6.5% ▲</tspan><tspan fill="#1c2430">   │   </tspan><tspan fill="#9fb2c8">IPYNB</tspan><tspan fill="#16c79a"> 6.5% ▲</tspan><tspan fill="#1c2430">   │   </tspan><tspan fill="#9fb2c8">RS</tspan><tspan fill="#f6465d"> 6.5% ▼</tspan><tspan fill="#1c2430">   │   </tspan><tspan fill="#9fb2c8">SH</tspan><tspan fill="#16c79a"> 3.2% ▲</tspan><tspan fill="#1c2430">   │   </tspan><tspan fill="#9fb2c8">C</tspan><tspan fill="#16c79a"> 3.2% ▲</tspan><tspan fill="#1c2430">   │   </tspan><tspan fill="#9fb2c8">JS</tspan><tspan fill="#16c79a"> 29.0% ▲</tspan><tspan fill="#1c2430">   │   </tspan><tspan fill="#9fb2c8">TS</tspan><tspan fill="#16c79a"> 22.6% ▲</tspan><tspan fill="#1c2430">   │   </tspan><tspan fill="#9fb2c8">PY</tspan><tspan fill="#f6465d"> 22.6% ▼</tspan><tspan fill="#1c2430">   │   </tspan><tspan fill="#9fb2c8">VUE</tspan><tspan fill="#16c79a"> 6.5% ▲</tspan><tspan fill="#1c2430">   │   </tspan><tspan fill="#9fb2c8">IPYNB</tspan><tspan fill="#16c79a"> 6.5% ▲</tspan><tspan fill="#1c2430">   │   </tspan><tspan fill="#9fb2c8">RS</tspan><tspan fill="#f6465d"> 6.5% ▼</tspan><tspan fill="#1c2430">   │   </tspan><tspan fill="#9fb2c8">SH</tspan><tspan fill="#16c79a"> 3.2% ▲</tspan><tspan fill="#1c2430">   │   </tspan><tspan fill="#9fb2c8">C</tspan><tspan fill="#16c79a"> 3.2% ▲</tspan><tspan fill="#1c2430">   │   </tspan></text></g></g><rect x="20" y="86" width="660" height="350" rx="8" fill="#0b1018" stroke="#1c2430"/><line x1="28" y1="287.5" x2="624" y2="287.5" stroke="#141b26" stroke-dasharray="3 5"/><text x="632" y="291.5" font-size="9" fill="#55657a">31</text><line x1="28" y1="225.0" x2="624" y2="225.0" stroke="#141b26" stroke-dasharray="3 5"/><text x="632" y="229.0" font-size="9" fill="#55657a">62</text><line x1="28" y1="162.5" x2="624" y2="162.5" stroke="#141b26" stroke-dasharray="3 5"/><text x="632" y="166.5" font-size="9" fill="#55657a">92</text><line x1="28" y1="100.0" x2="624" y2="100.0" stroke="#141b26" stroke-dasharray="3 5"/><text x="632" y="104.0" font-size="9" fill="#55657a">123</text><line x1="34.0" y1="350.0" x2="34.0" y2="350.0" stroke="#16c79a" stroke-width="1"/><rect x="30.0" y="350.0" width="8.0" height="1.5" rx="1" fill="#16c79a"/><rect x="30.0" y="420.0" width="8.0" height="1.0" fill="#16c79a" opacity="0.45"/><line x1="45.6" y1="348.0" x2="45.6" y2="350.0" stroke="#16c79a" stroke-width="1"/><rect x="41.5" y="350.0" width="8.0" height="1.5" rx="1" fill="#16c79a"/><rect x="41.5" y="419.8" width="8.0" height="1.0" fill="#16c79a" opacity="0.45"/><line x1="57.1" y1="350.0" x2="57.1" y2="350.0" stroke="#16c79a" stroke-width="1"/><rect x="53.1" y="350.0" width="8.0" height="1.5" rx="1" fill="#16c79a"/><rect x="53.1" y="420.0" width="8.0" height="1.0" fill="#16c79a" opacity="0.45"/><line x1="68.6" y1="339.8" x2="68.6" y2="350.0" stroke="#16c79a" stroke-width="1"/><rect x="64.6" y="350.0" width="8.0" height="1.5" rx="1" fill="#16c79a"/><rect x="64.6" y="418.7" width="8.0" height="1.3" fill="#16c79a" opacity="0.45"/><line x1="80.2" y1="329.7" x2="80.2" y2="350.0" stroke="#16c79a" stroke-width="1"/><rect x="76.2" y="343.9" width="8.0" height="6.1" rx="1" fill="#16c79a"/><rect x="76.2" y="417.8" width="8.0" height="2.2" fill="#16c79a" opacity="0.45"/><line x1="91.7" y1="276.8" x2="91.7" y2="350.0" stroke="#16c79a" stroke-width="1"/><rect x="87.7" y="276.8" width="8.0" height="65.0" rx="1" fill="#16c79a"/><rect x="87.7" y="407.6" width="8.0" height="12.4" fill="#16c79a" opacity="0.45"/><line x1="103.2" y1="339.8" x2="103.2" y2="350.0" stroke="#f6465d" stroke-width="1"/><rect x="99.2" y="343.9" width="8.0" height="6.1" rx="1" fill="#f6465d"/><rect x="99.2" y="418.3" width="8.0" height="1.7" fill="#f6465d" opacity="0.45"/><line x1="114.8" y1="282.9" x2="114.8" y2="350.0" stroke="#16c79a" stroke-width="1"/><rect x="110.8" y="348.0" width="8.0" height="1.5" rx="1" fill="#16c79a"/><rect x="110.8" y="414.0" width="8.0" height="6.0" fill="#16c79a" opacity="0.45"/><line x1="126.3" y1="348.0" x2="126.3" y2="350.0" stroke="#16c79a" stroke-width="1"/><rect x="122.3" y="350.0" width="8.0" height="1.5" rx="1" fill="#16c79a"/><rect x="122.3" y="419.7" width="8.0" height="1.0" fill="#16c79a" opacity="0.45"/><line x1="137.9" y1="348.0" x2="137.9" y2="350.0" stroke="#16c79a" stroke-width="1"/><rect x="133.8" y="350.0" width="8.0" height="1.5" rx="1" fill="#16c79a"/><rect x="133.8" y="419.7" width="8.0" height="1.0" fill="#16c79a" opacity="0.45"/><line x1="149.4" y1="341.9" x2="149.4" y2="350.0" stroke="#16c79a" stroke-width="1"/><rect x="145.4" y="350.0" width="8.0" height="1.5" rx="1" fill="#16c79a"/><rect x="145.4" y="419.2" width="8.0" height="1.0" fill="#16c79a" opacity="0.45"/><line x1="160.9" y1="345.9" x2="160.9" y2="350.0" stroke="#16c79a" stroke-width="1"/><rect x="156.9" y="350.0" width="8.0" height="1.5" rx="1" fill="#16c79a"/><rect x="156.9" y="419.7" width="8.0" height="1.0" fill="#16c79a" opacity="0.45"/><line x1="172.5" y1="348.0" x2="172.5" y2="350.0" stroke="#16c79a" stroke-width="1"/><rect x="168.5" y="350.0" width="8.0" height="1.5" rx="1" fill="#16c79a"/><rect x="168.5" y="419.8" width="8.0" height="1.0" fill="#16c79a" opacity="0.45"/><line x1="184.0" y1="350.0" x2="184.0" y2="350.0" stroke="#16c79a" stroke-width="1"/><rect x="180.0" y="350.0" width="8.0" height="1.5" rx="1" fill="#16c79a"/><rect x="180.0" y="420.0" width="8.0" height="1.0" fill="#16c79a" opacity="0.45"/><line x1="195.6" y1="345.9" x2="195.6" y2="350.0" stroke="#f6465d" stroke-width="1"/><rect x="191.5" y="345.9" width="8.0" height="4.1" rx="1" fill="#f6465d"/><rect x="191.5" y="419.7" width="8.0" height="1.0" fill="#f6465d" opacity="0.45"/><line x1="207.1" y1="348.0" x2="207.1" y2="350.0" stroke="#16c79a" stroke-width="1"/><rect x="203.1" y="348.0" width="8.0" height="2.0" rx="1" fill="#16c79a"/><rect x="203.1" y="419.8" width="8.0" height="1.0" fill="#16c79a" opacity="0.45"/><line x1="218.6" y1="313.4" x2="218.6" y2="350.0" stroke="#f6465d" stroke-width="1"/><rect x="214.6" y="348.0" width="8.0" height="2.0" rx="1" fill="#f6465d"/><rect x="214.6" y="416.6" width="8.0" height="3.4" fill="#f6465d" opacity="0.45"/><line x1="230.2" y1="350.0" x2="230.2" y2="350.0" stroke="#16c79a" stroke-width="1"/><rect x="226.2" y="350.0" width="8.0" height="1.5" rx="1" fill="#16c79a"/><rect x="226.2" y="420.0" width="8.0" height="1.0" fill="#16c79a" opacity="0.45"/><line x1="241.7" y1="350.0" x2="241.7" y2="350.0" stroke="#16c79a" stroke-width="1"/><rect x="237.7" y="350.0" width="8.0" height="1.5" rx="1" fill="#16c79a"/><rect x="237.7" y="420.0" width="8.0" height="1.0" fill="#16c79a" opacity="0.45"/><line x1="253.2" y1="348.0" x2="253.2" y2="350.0" stroke="#16c79a" stroke-width="1"/><rect x="249.2" y="350.0" width="8.0" height="1.5" rx="1" fill="#16c79a"/><rect x="249.2" y="419.8" width="8.0" height="1.0" fill="#16c79a" opacity="0.45"/><line x1="264.8" y1="348.0" x2="264.8" y2="350.0" stroke="#16c79a" stroke-width="1"/><rect x="260.8" y="348.0" width="8.0" height="1.5" rx="1" fill="#16c79a"/><rect x="260.8" y="419.5" width="8.0" height="1.0" fill="#16c79a" opacity="0.45"/><line x1="276.3" y1="345.9" x2="276.3" y2="350.0" stroke="#16c79a" stroke-width="1"/><rect x="272.3" y="350.0" width="8.0" height="1.5" rx="1" fill="#16c79a"/><rect x="272.3" y="419.7" width="8.0" height="1.0" fill="#16c79a" opacity="0.45"/><line x1="287.9" y1="301.2" x2="287.9" y2="348.0" stroke="#16c79a" stroke-width="1"/><rect x="283.8" y="337.8" width="8.0" height="10.2" rx="1" fill="#16c79a"/><rect x="283.8" y="406.8" width="8.0" height="13.2" fill="#16c79a" opacity="0.45"/><line x1="299.4" y1="303.3" x2="299.4" y2="350.0" stroke="#16c79a" stroke-width="1"/><rect x="295.4" y="303.3" width="8.0" height="14.2" rx="1" fill="#16c79a"/><rect x="295.4" y="410.1" width="8.0" height="9.9" fill="#16c79a" opacity="0.45"/><line x1="310.9" y1="268.7" x2="310.9" y2="350.0" stroke="#f6465d" stroke-width="1"/><rect x="306.9" y="268.7" width="8.0" height="75.2" rx="1" fill="#f6465d"/><rect x="306.9" y="399.7" width="8.0" height="20.3" fill="#f6465d" opacity="0.45"/><line x1="322.5" y1="309.3" x2="322.5" y2="350.0" stroke="#16c79a" stroke-width="1"/><rect x="318.5" y="348.0" width="8.0" height="2.0" rx="1" fill="#16c79a"/><rect x="318.5" y="411.8" width="8.0" height="8.2" fill="#16c79a" opacity="0.45"/><line x1="334.0" y1="264.6" x2="334.0" y2="350.0" stroke="#16c79a" stroke-width="1"/><rect x="330.0" y="350.0" width="8.0" height="1.5" rx="1" fill="#16c79a"/><rect x="330.0" y="400.9" width="8.0" height="19.1" fill="#16c79a" opacity="0.45"/><line x1="345.6" y1="282.9" x2="345.6" y2="350.0" stroke="#f6465d" stroke-width="1"/><rect x="341.5" y="335.8" width="8.0" height="14.2" rx="1" fill="#f6465d"/><rect x="341.5" y="411.6" width="8.0" height="8.4" fill="#f6465d" opacity="0.45"/><line x1="357.1" y1="181.3" x2="357.1" y2="350.0" stroke="#f6465d" stroke-width="1"/><rect x="353.1" y="337.8" width="8.0" height="12.2" rx="1" fill="#f6465d"/><rect x="353.1" y="397.7" width="8.0" height="22.3" fill="#f6465d" opacity="0.45"/><line x1="368.6" y1="305.3" x2="368.6" y2="350.0" stroke="#16c79a" stroke-width="1"/><rect x="364.6" y="350.0" width="8.0" height="1.5" rx="1" fill="#16c79a"/><rect x="364.6" y="414.8" width="8.0" height="5.2" fill="#16c79a" opacity="0.45"/><line x1="380.2" y1="276.8" x2="380.2" y2="345.9" stroke="#16c79a" stroke-width="1"/><rect x="376.2" y="341.9" width="8.0" height="4.1" rx="1" fill="#16c79a"/><rect x="376.2" y="408.4" width="8.0" height="11.6" fill="#16c79a" opacity="0.45"/><line x1="391.7" y1="126.4" x2="391.7" y2="350.0" stroke="#f6465d" stroke-width="1"/><rect x="387.7" y="348.0" width="8.0" height="2.0" rx="1" fill="#f6465d"/><rect x="387.7" y="388.1" width="8.0" height="31.9" fill="#f6465d" opacity="0.45"/><line x1="403.2" y1="278.9" x2="403.2" y2="350.0" stroke="#16c79a" stroke-width="1"/><rect x="399.2" y="350.0" width="8.0" height="1.5" rx="1" fill="#16c79a"/><rect x="399.2" y="400.7" width="8.0" height="19.3" fill="#16c79a" opacity="0.45"/><line x1="414.8" y1="311.4" x2="414.8" y2="350.0" stroke="#16c79a" stroke-width="1"/><rect x="410.8" y="339.8" width="8.0" height="10.2" rx="1" fill="#16c79a"/><rect x="410.8" y="414.8" width="8.0" height="5.2" fill="#16c79a" opacity="0.45"/><line x1="426.3" y1="274.8" x2="426.3" y2="350.0" stroke="#f6465d" stroke-width="1"/><rect x="422.3" y="339.8" width="8.0" height="10.2" rx="1" fill="#f6465d"/><rect x="422.3" y="409.3" width="8.0" height="10.7" fill="#f6465d" opacity="0.45"/><line x1="437.9" y1="260.6" x2="437.9" y2="350.0" stroke="#16c79a" stroke-width="1"/><rect x="433.8" y="260.6" width="8.0" height="89.4" rx="1" fill="#16c79a"/><rect x="433.8" y="409.9" width="8.0" height="10.1" fill="#16c79a" opacity="0.45"/><line x1="449.4" y1="327.6" x2="449.4" y2="350.0" stroke="#f6465d" stroke-width="1"/><rect x="445.4" y="343.9" width="8.0" height="6.1" rx="1" fill="#f6465d"/><rect x="445.4" y="416.8" width="8.0" height="3.2" fill="#f6465d" opacity="0.45"/><line x1="460.9" y1="128.5" x2="460.9" y2="350.0" stroke="#f6465d" stroke-width="1"/><rect x="456.9" y="341.9" width="8.0" height="6.1" rx="1" fill="#f6465d"/><rect x="456.9" y="375.1" width="8.0" height="44.9" fill="#f6465d" opacity="0.45"/><line x1="472.5" y1="209.8" x2="472.5" y2="339.8" stroke="#f6465d" stroke-width="1"/><rect x="468.5" y="303.3" width="8.0" height="22.4" rx="1" fill="#f6465d"/><rect x="468.5" y="394.9" width="8.0" height="25.1" fill="#f6465d" opacity="0.45"/><line x1="484.0" y1="230.1" x2="484.0" y2="323.6" stroke="#16c79a" stroke-width="1"/><rect x="480.0" y="272.8" width="8.0" height="36.6" rx="1" fill="#16c79a"/><rect x="480.0" y="384.0" width="8.0" height="36.0" fill="#16c79a" opacity="0.45"/><line x1="495.6" y1="282.9" x2="495.6" y2="350.0" stroke="#f6465d" stroke-width="1"/><rect x="491.5" y="341.9" width="8.0" height="8.1" rx="1" fill="#f6465d"/><rect x="491.5" y="407.4" width="8.0" height="12.6" fill="#f6465d" opacity="0.45"/><line x1="507.1" y1="193.5" x2="507.1" y2="350.0" stroke="#16c79a" stroke-width="1"/><rect x="503.1" y="325.6" width="8.0" height="24.4" rx="1" fill="#16c79a"/><rect x="503.1" y="376.7" width="8.0" height="43.3" fill="#16c79a" opacity="0.45"/><line x1="518.6" y1="262.6" x2="518.6" y2="350.0" stroke="#16c79a" stroke-width="1"/><rect x="514.6" y="262.6" width="8.0" height="79.3" rx="1" fill="#16c79a"/><rect x="514.6" y="404.7" width="8.0" height="15.3" fill="#16c79a" opacity="0.45"/><line x1="530.2" y1="100.0" x2="530.2" y2="350.0" stroke="#f6465d" stroke-width="1"/><rect x="526.2" y="100.0" width="8.0" height="250.0" rx="1" fill="#f6465d"/><rect x="526.2" y="364.0" width="8.0" height="56.0" fill="#f6465d" opacity="0.45"/><line x1="541.7" y1="289.0" x2="541.7" y2="350.0" stroke="#16c79a" stroke-width="1"/><rect x="537.7" y="331.7" width="8.0" height="18.3" rx="1" fill="#16c79a"/><rect x="537.7" y="408.6" width="8.0" height="11.4" fill="#16c79a" opacity="0.45"/><line x1="553.2" y1="299.2" x2="553.2" y2="350.0" stroke="#16c79a" stroke-width="1"/><rect x="549.2" y="331.7" width="8.0" height="12.2" rx="1" fill="#16c79a"/><rect x="549.2" y="408.6" width="8.0" height="11.4" fill="#16c79a" opacity="0.45"/><line x1="564.8" y1="333.7" x2="564.8" y2="350.0" stroke="#16c79a" stroke-width="1"/><rect x="560.8" y="343.9" width="8.0" height="6.1" rx="1" fill="#16c79a"/><rect x="560.8" y="416.6" width="8.0" height="3.4" fill="#16c79a" opacity="0.45"/><line x1="576.3" y1="238.2" x2="576.3" y2="350.0" stroke="#16c79a" stroke-width="1"/><rect x="572.3" y="350.0" width="8.0" height="1.5" rx="1" fill="#16c79a"/><rect x="572.3" y="403.1" width="8.0" height="16.9" fill="#16c79a" opacity="0.45"/><line x1="587.9" y1="150.8" x2="587.9" y2="350.0" stroke="#16c79a" stroke-width="1"/><rect x="583.8" y="150.8" width="8.0" height="199.2" rx="1" fill="#16c79a"/><rect x="583.8" y="380.1" width="8.0" height="39.9" fill="#16c79a" opacity="0.45"/><line x1="599.4" y1="201.6" x2="599.4" y2="348.0" stroke="#f6465d" stroke-width="1"/><rect x="595.4" y="201.6" width="8.0" height="138.2" rx="1" fill="#f6465d"/><rect x="595.4" y="384.5" width="8.0" height="35.5" fill="#f6465d" opacity="0.45"/><line x1="610.9" y1="299.2" x2="610.9" y2="350.0" stroke="#16c79a" stroke-width="1"/><rect x="606.9" y="343.9" width="8.0" height="6.1" rx="1" fill="#16c79a"/><rect x="606.9" y="412.0" width="8.0" height="8.0" fill="#16c79a" opacity="0.45"/><line x1="622.5" y1="317.5" x2="622.5" y2="350.0" stroke="#f6465d" stroke-width="1"/><rect x="618.5" y="348.0" width="8.0" height="2.0" rx="1" fill="#f6465d"/><rect x="618.5" y="414.5" width="8.0" height="5.5" fill="#f6465d" opacity="0.45"/><line x1="28" y1="350.0" x2="624" y2="350.0" stroke="#ffb454" stroke-width="1" stroke-dasharray="6 4"/><rect x="626" y="341.0" width="52" height="16" rx="3" fill="#ffb454"/><text x="652" y="353.0" text-anchor="middle" font-size="10" font-weight="700" fill="#070b10">MARK</text><text x="30" y="432" font-size="10" fill="#55657a">CONTRIBUTIONS · 1W CANDLES · O/H/L/C = first/max/min/last day of week · VOL = weekly total</text><rect x="700" y="86" width="216" height="350" rx="8" fill="#0b1018" stroke="#1c2430"/><text x="714" y="110" font-size="11" letter-spacing="2" fill="#9fb2c8">ORDER BOOK</text><text x="902" y="110" text-anchor="end" font-size="9" fill="#55657a">AGENTS × LANGS</text><rect x="902.0" y="126" width="0.0" height="18" fill="#f6465d" opacity="0.16"/><text x="714" y="139" font-size="10" fill="#f6465d">CODEX</text><text x="902" y="139" text-anchor="end" font-size="10" fill="#9fb2c8">$0 <tspan fill="#55657a">· 8.58B</tspan></text><rect x="901.2" y="150" width="0.8" height="18" fill="#f6465d" opacity="0.16"/><text x="714" y="163" font-size="10" fill="#f6465d">OPENCODE</text><text x="902" y="163" text-anchor="end" font-size="10" fill="#9fb2c8">$25 <tspan fill="#55657a">· 66.0M</tspan></text><rect x="899.7" y="174" width="2.3" height="18" fill="#f6465d" opacity="0.16"/><text x="714" y="187" font-size="10" fill="#f6465d">KIMI</text><text x="902" y="187" text-anchor="end" font-size="10" fill="#9fb2c8">$74 <tspan fill="#55657a">· 419.0M</tspan></text><rect x="876.0" y="198" width="26.0" height="18" fill="#f6465d" opacity="0.16"/><text x="714" y="211" font-size="10" fill="#f6465d">DROID</text><text x="902" y="211" text-anchor="end" font-size="10" fill="#9fb2c8">$841 <tspan fill="#55657a">· 1.01B</tspan></text><rect x="714.0" y="222" width="188.0" height="18" fill="#f6465d" opacity="0.16"/><text x="714" y="235" font-size="10" fill="#f6465d">CLAUDE</text><text x="902" y="235" text-anchor="end" font-size="10" fill="#9fb2c8">$6,090 <tspan fill="#55657a">· 7.91B</tspan></text><line x1="710" y1="250" x2="906" y2="250" stroke="#1c2430"/><text x="808.0" y="268" text-anchor="middle" font-size="11" font-weight="700" fill="#ffb454">MARK 18.0B TOK</text><line x1="710" y1="278" x2="906" y2="278" stroke="#1c2430"/><rect x="714" y="292" width="188.0" height="18" fill="#16c79a" opacity="0.16"/><text x="714" y="305" font-size="10" fill="#16c79a">JS</text><text x="902" y="305" text-anchor="end" font-size="10" fill="#9fb2c8">9 repos</text><rect x="714" y="316" width="146.2" height="18" fill="#16c79a" opacity="0.16"/><text x="714" y="329" font-size="10" fill="#16c79a">TS</text><text x="902" y="329" text-anchor="end" font-size="10" fill="#9fb2c8">7 repos</text><rect x="714" y="340" width="146.2" height="18" fill="#16c79a" opacity="0.16"/><text x="714" y="353" font-size="10" fill="#16c79a">PY</text><text x="902" y="353" text-anchor="end" font-size="10" fill="#9fb2c8">7 repos</text><rect x="714" y="364" width="41.8" height="18" fill="#16c79a" opacity="0.16"/><text x="714" y="377" font-size="10" fill="#16c79a">VUE</text><text x="902" y="377" text-anchor="end" font-size="10" fill="#9fb2c8">2 repos</text><rect x="714" y="388" width="41.8" height="18" fill="#16c79a" opacity="0.16"/><text x="714" y="401" font-size="10" fill="#16c79a">IPYNB</text><text x="902" y="401" text-anchor="end" font-size="10" fill="#9fb2c8">2 repos</text>
</svg>