<svg xmlns="http://www.w3.org/2000/svg" viewBox="0 0 940 420" width="940" font-family="ui-monospace,'JetBrains Mono','SF Mono',Menlo,Consolas,monospace">
<defs>
  <pattern id="dots" width="14" height="14" patternUnits="userSpaceOnUse">
    <circle cx="2" cy="2" r="1" fill="#202624"/>
  </pattern>
</defs>
<rect width="940" height="420" rx="14" fill="#0a0c0b" stroke="#26292b"/>
<text x="34" y="36" font-size="21" font-weight="700" fill="#e8eae9">$MAXMONEYCASH</text><text x="34" y="54" font-size="11" fill="#5c625f">maxmoneycash · github</text><text x="906" y="36" text-anchor="end" font-size="26" font-weight="700" fill="#e8eae9">753.00</text><rect x="820" y="42" width="86" height="20" rx="10" fill="#22c55e" fill-opacity="0.14"/><text x="863" y="56" text-anchor="middle" font-size="12" font-weight="600" fill="#22c55e">▲ 313.7%</text><rect x="34" y="80" width="872" height="282" rx="12" fill="#0a0c0b" stroke="#26292b"/><rect x="34" y="80" width="872" height="282" rx="12" fill="url(#dots)"/><line x1="44" y1="354.0" x2="896" y2="354.0" stroke="#202624" stroke-dasharray="3 3"/><text x="900" y="357.0" text-anchor="end" font-size="9" fill="#5c625f">0</text><line x1="44" y1="287.5" x2="896" y2="287.5" stroke="#202624" stroke-dasharray="3 3"/><text x="900" y="290.5" text-anchor="end" font-size="9" fill="#5c625f">509</text><line x1="44" y1="221.0" x2="896" y2="221.0" stroke="#202624" stroke-dasharray="3 3"/><text x="900" y="224.0" text-anchor="end" font-size="9" fill="#5c625f">1,019</text><line x1="44" y1="154.5" x2="896" y2="154.5" stroke="#202624" stroke-dasharray="3 3"/><text x="900" y="157.5" text-anchor="end" font-size="9" fill="#5c625f">1,528</text><line x1="44" y1="88.0" x2="896" y2="88.0" stroke="#202624" stroke-dasharray="3 3"/><text x="900" y="91.0" text-anchor="end" font-size="9" fill="#5c625f">2,037</text><polyline points="48.5,353.0 64.9,352.3 81.3,344.3 97.7,352.7 114.0,349.3 130.4,353.7 146.8,353.7 163.2,353.3 179.6,353.7 196.0,353.9 212.4,354.0 228.7,353.7 245.1,353.9 261.5,351.4 277.9,354.0 294.3,354.0 310.7,353.9 327.0,353.6 343.4,353.7 359.8,343.7 376.2,346.3 392.6,338.2 409.0,347.6 425.4,339.1 441.7,347.5 458.1,336.6 474.5,350.0 490.9,345.0 507.3,329.2 523.7,339.0 540.0,350.0 556.4,345.6 572.8,346.2 589.2,351.5 605.6,319.0 622.0,334.4 638.4,325.9 654.7,344.2 671.1,320.3 687.5,342.1 703.9,310.4 720.3,345.1 736.7,345.1 753.0,351.4 769.4,340.8 785.8,322.9 802.2,326.3 818.6,347.6 835.0,320.3 851.4,331.3 867.7,103.1 884.1,255.7" fill="none" stroke="#e8eae9" stroke-width="1" opacity="0.12"/><line x1="48.5" y1="353.0" x2="48.5" y2="354.0" stroke="#22c55e" stroke-width="1"/><rect x="44.0" y="353.0" width="9.0" height="2.0" rx="1.5" fill="#22c55e"/><line x1="64.9" y1="351.6" x2="64.9" y2="353.0" stroke="#22c55e" stroke-width="1"/><rect x="60.4" y="352.3" width="9.0" height="2.0" rx="1.5" fill="#22c55e"/><line x1="81.3" y1="344.3" x2="81.3" y2="352.6" stroke="#22c55e" stroke-width="1"/><rect x="76.8" y="344.3" width="9.0" height="7.4" rx="1.5" fill="#22c55e"/><line x1="97.7" y1="344.5" x2="97.7" y2="352.7" stroke="#e5484d" stroke-width="1"/><rect x="93.2" y="344.5" width="9.0" height="8.2" rx="1.5" fill="#e5484d"/><line x1="114.0" y1="349.3" x2="114.0" y2="353.1" stroke="#22c55e" stroke-width="1"/><rect x="109.5" y="349.3" width="9.0" height="3.7" rx="1.5" fill="#22c55e"/><line x1="130.4" y1="349.3" x2="130.4" y2="353.7" stroke="#e5484d" stroke-width="1"/><rect x="125.9" y="349.4" width="9.0" height="4.3" rx="1.5" fill="#e5484d"/><line x1="146.8" y1="353.7" x2="146.8" y2="353.9" stroke="#22c55e" stroke-width="1"/><rect x="142.3" y="353.7" width="9.0" height="2.0" rx="1.5" fill="#22c55e"/><line x1="163.2" y1="353.3" x2="163.2" y2="353.7" stroke="#22c55e" stroke-width="1"/><rect x="158.7" y="353.3" width="9.0" height="2.0" rx="1.5" fill="#22c55e"/><line x1="179.6" y1="353.1" x2="179.6" y2="353.7" stroke="#e5484d" stroke-width="1"/><rect x="175.1" y="353.3" width="9.0" height="2.0" rx="1.5" fill="#e5484d"/><line x1="196.0" y1="353.7" x2="196.0" y2="353.9" stroke="#e5484d" stroke-width="1"/><rect x="191.5" y="353.7" width="9.0" height="2.0" rx="1.5" fill="#e5484d"/><line x1="212.4" y1="353.9" x2="212.4" y2="354.0" stroke="#e5484d" stroke-width="1"/><rect x="207.8" y="353.9" width="9.0" height="2.0" rx="1.5" fill="#e5484d"/><line x1="228.7" y1="353.7" x2="228.7" y2="353.7" stroke="#22c55e" stroke-width="1"/><rect x="224.2" y="353.7" width="9.0" height="2.0" rx="1.5" fill="#22c55e"/><line x1="245.1" y1="353.9" x2="245.1" y2="354.0" stroke="#22c55e" stroke-width="1"/><rect x="240.6" y="353.9" width="9.0" height="2.0" rx="1.5" fill="#22c55e"/><line x1="261.5" y1="351.3" x2="261.5" y2="353.7" stroke="#22c55e" stroke-width="1"/><rect x="257.0" y="351.4" width="9.0" height="2.4" rx="1.5" fill="#22c55e"/><line x1="277.9" y1="351.5" x2="277.9" y2="354.0" stroke="#e5484d" stroke-width="1"/><rect x="273.4" y="351.5" width="9.0" height="2.5" rx="1.5" fill="#e5484d"/><line x1="294.3" y1="354.0" x2="294.3" y2="354.0" stroke="#22c55e" stroke-width="1"/><rect x="289.8" y="354.0" width="9.0" height="2.0" rx="1.5" fill="#22c55e"/><line x1="310.7" y1="353.9" x2="310.7" y2="354.0" stroke="#22c55e" stroke-width="1"/><rect x="306.2" y="353.9" width="9.0" height="2.0" rx="1.5" fill="#22c55e"/><line x1="327.0" y1="353.6" x2="327.0" y2="353.9" stroke="#22c55e" stroke-width="1"/><rect x="322.5" y="353.6" width="9.0" height="2.0" rx="1.5" fill="#22c55e"/><line x1="343.4" y1="353.5" x2="343.4" y2="353.7" stroke="#22c55e" stroke-width="1"/><rect x="338.9" y="353.7" width="9.0" height="2.0" rx="1.5" fill="#22c55e"/><line x1="359.8" y1="343.7" x2="359.8" y2="353.6" stroke="#22c55e" stroke-width="1"/><rect x="355.3" y="343.7" width="9.0" height="9.9" rx="1.5" fill="#22c55e"/><line x1="376.2" y1="341.7" x2="376.2" y2="348.5" stroke="#e5484d" stroke-width="1"/><rect x="371.7" y="341.7" width="9.0" height="4.6" rx="1.5" fill="#e5484d"/><line x1="392.6" y1="335.6" x2="392.6" y2="343.2" stroke="#22c55e" stroke-width="1"/><rect x="388.1" y="338.2" width="9.0" height="5.0" rx="1.5" fill="#22c55e"/><line x1="409.0" y1="342.6" x2="409.0" y2="347.6" stroke="#e5484d" stroke-width="1"/><rect x="404.5" y="343.4" width="9.0" height="4.2" rx="1.5" fill="#e5484d"/><line x1="425.4" y1="339.0" x2="425.4" y2="348.1" stroke="#22c55e" stroke-width="1"/><rect x="420.8" y="339.1" width="9.0" height="8.5" rx="1.5" fill="#22c55e"/><line x1="441.7" y1="338.2" x2="441.7" y2="347.5" stroke="#e5484d" stroke-width="1"/><rect x="437.2" y="338.2" width="9.0" height="9.3" rx="1.5" fill="#e5484d"/><line x1="458.1" y1="336.6" x2="458.1" y2="348.0" stroke="#22c55e" stroke-width="1"/><rect x="453.6" y="336.6" width="9.0" height="11.0" rx="1.5" fill="#22c55e"/><line x1="474.5" y1="334.8" x2="474.5" y2="350.0" stroke="#e5484d" stroke-width="1"/><rect x="470.0" y="337.4" width="9.0" height="12.5" rx="1.5" fill="#e5484d"/><line x1="490.9" y1="345.0" x2="490.9" y2="349.7" stroke="#22c55e" stroke-width="1"/><rect x="486.4" y="345.0" width="9.0" height="4.7" rx="1.5" fill="#22c55e"/><line x1="507.3" y1="328.7" x2="507.3" y2="345.1" stroke="#22c55e" stroke-width="1"/><rect x="502.8" y="329.2" width="9.0" height="15.9" rx="1.5" fill="#22c55e"/><line x1="523.7" y1="329.3" x2="523.7" y2="344.7" stroke="#e5484d" stroke-width="1"/><rect x="519.2" y="329.3" width="9.0" height="9.7" rx="1.5" fill="#e5484d"/><line x1="540.0" y1="339.0" x2="540.0" y2="350.6" stroke="#e5484d" stroke-width="1"/><rect x="535.5" y="339.0" width="9.0" height="11.0" rx="1.5" fill="#e5484d"/><line x1="556.4" y1="344.2" x2="556.4" y2="349.3" stroke="#22c55e" stroke-width="1"/><rect x="551.9" y="345.6" width="9.0" height="3.7" rx="1.5" fill="#22c55e"/><line x1="572.8" y1="346.2" x2="572.8" y2="352.6" stroke="#22c55e" stroke-width="1"/><rect x="568.3" y="346.2" width="9.0" height="2.0" rx="1.5" fill="#22c55e"/><line x1="589.2" y1="345.3" x2="589.2" y2="351.5" stroke="#e5484d" stroke-width="1"/><rect x="584.7" y="345.8" width="9.0" height="5.7" rx="1.5" fill="#e5484d"/><line x1="605.6" y1="319.0" x2="605.6" y2="351.4" stroke="#22c55e" stroke-width="1"/><rect x="601.1" y="319.0" width="9.0" height="32.4" rx="1.5" fill="#22c55e"/><line x1="622.0" y1="316.5" x2="622.0" y2="335.9" stroke="#e5484d" stroke-width="1"/><rect x="617.5" y="316.5" width="9.0" height="17.9" rx="1.5" fill="#e5484d"/><line x1="638.4" y1="322.1" x2="638.4" y2="334.8" stroke="#22c55e" stroke-width="1"/><rect x="633.8" y="325.9" width="9.0" height="8.9" rx="1.5" fill="#22c55e"/><line x1="654.7" y1="328.0" x2="654.7" y2="344.2" stroke="#e5484d" stroke-width="1"/><rect x="650.2" y="328.0" width="9.0" height="16.2" rx="1.5" fill="#e5484d"/><line x1="671.1" y1="320.3" x2="671.1" y2="344.7" stroke="#22c55e" stroke-width="1"/><rect x="666.6" y="320.3" width="9.0" height="24.4" rx="1.5" fill="#22c55e"/><line x1="687.5" y1="319.8" x2="687.5" y2="346.2" stroke="#e5484d" stroke-width="1"/><rect x="683.0" y="319.8" width="9.0" height="22.3" rx="1.5" fill="#e5484d"/><line x1="703.9" y1="304.8" x2="703.9" y2="326.6" stroke="#22c55e" stroke-width="1"/><rect x="699.4" y="310.4" width="9.0" height="16.2" rx="1.5" fill="#22c55e"/><line x1="720.3" y1="326.5" x2="720.3" y2="346.3" stroke="#e5484d" stroke-width="1"/><rect x="715.8" y="326.5" width="9.0" height="18.7" rx="1.5" fill="#e5484d"/><line x1="736.7" y1="343.4" x2="736.7" y2="346.3" stroke="#e5484d" stroke-width="1"/><rect x="732.2" y="344.7" width="9.0" height="2.0" rx="1.5" fill="#e5484d"/><line x1="753.0" y1="345.5" x2="753.0" y2="351.4" stroke="#e5484d" stroke-width="1"/><rect x="748.5" y="345.5" width="9.0" height="5.9" rx="1.5" fill="#e5484d"/><line x1="769.4" y1="340.4" x2="769.4" y2="351.4" stroke="#22c55e" stroke-width="1"/><rect x="764.9" y="340.8" width="9.0" height="10.6" rx="1.5" fill="#22c55e"/><line x1="785.8" y1="322.9" x2="785.8" y2="342.1" stroke="#22c55e" stroke-width="1"/><rect x="781.3" y="322.9" width="9.0" height="17.9" rx="1.5" fill="#22c55e"/><line x1="802.2" y1="313.4" x2="802.2" y2="326.3" stroke="#e5484d" stroke-width="1"/><rect x="797.7" y="313.4" width="9.0" height="12.9" rx="1.5" fill="#e5484d"/><line x1="818.6" y1="335.9" x2="818.6" y2="347.6" stroke="#e5484d" stroke-width="1"/><rect x="814.1" y="335.9" width="9.0" height="11.8" rx="1.5" fill="#e5484d"/><line x1="835.0" y1="320.3" x2="835.0" y2="347.5" stroke="#22c55e" stroke-width="1"/><rect x="830.5" y="320.3" width="9.0" height="27.2" rx="1.5" fill="#22c55e"/><line x1="851.4" y1="319.5" x2="851.4" y2="340.4" stroke="#e5484d" stroke-width="1"/><rect x="846.8" y="320.4" width="9.0" height="10.8" rx="1.5" fill="#e5484d"/><line x1="867.7" y1="103.1" x2="867.7" y2="177.6" stroke="#22c55e" stroke-width="1"/><rect x="863.2" y="103.1" width="9.0" height="74.6" rx="1.5" fill="#22c55e"/><line x1="884.1" y1="255.7" x2="884.1" y2="255.7" stroke="#22c55e" stroke-width="1"/><rect x="879.6" y="255.7" width="9.0" height="2.0" rx="1.5" fill="#22c55e"/><line x1="44" y1="255.7" x2="896" y2="255.7" stroke="#22c55e" stroke-width="1" stroke-dasharray="3 3" opacity="0.7"/><rect x="852" y="246.7" width="48" height="18" rx="3" fill="#22c55e"/><text x="876" y="259.7" text-anchor="middle" font-size="10" font-weight="700" fill="#0a0c0b">753</text><text x="44.0" y="354" font-size="9" fill="#5c625f">JUL</text><text x="109.5" y="354" font-size="9" fill="#5c625f">AUG</text><text x="240.6" y="354" font-size="9" fill="#5c625f">SEP</text><text x="306.2" y="354" font-size="9" fill="#5c625f">OCT</text><text x="371.7" y="354" font-size="9" fill="#5c625f">NOV</text><text x="437.2" y="354" font-size="9" fill="#5c625f">DEC</text><text x="502.8" y="354" font-size="9" fill="#5c625f">JAN</text><text x="568.3" y="354" font-size="9" fill="#5c625f">FEB</text><text x="633.8" y="354" font-size="9" fill="#5c625f">MAR</text><text x="699.4" y="354" font-size="9" fill="#5c625f">APR</text><text x="764.9" y="354" font-size="9" fill="#5c625f">MAY</text><text x="830.5" y="354" font-size="9" fill="#5c625f">JUN</text><text x="34" y="398" font-size="10" fill="#5c625f">52W · COMMIT VELOCITY</text><text x="906" y="398" text-anchor="end" font-size="10" fill="#5c625f">commit-markets</text><text x="470.0" y="398" text-anchor="middle" font-size="10" fill="#e8eae9">ATH WEEK <tspan fill="#22c55e" font-weight="700">1922</tspan>   ACTIVE DAYS <tspan fill="#22c55e" font-weight="700">216/365</tspan>   STREAK <tspan fill="#22c55e" font-weight="700">14D</tspan>   PEAK STREAK <tspan fill="#22c55e" font-weight="700">23D</tspan>   365D VOL <tspan fill="#22c55e" font-weight="700">5,875</tspan></text>
</svg>