<svg xmlns="http://www.w3.org/2000/svg" viewBox="0 0 940 420" width="940" font-family="ui-monospace,'JetBrains Mono','SF Mono',Menlo,Consolas,monospace">
<defs>
  <pattern id="dots" width="14" height="14" patternUnits="userSpaceOnUse">
    <circle cx="2" cy="2" r="1" fill="#202624"/>
  </pattern>
</defs>
<rect width="940" height="420" rx="14" fill="#0a0c0b" stroke="#26292b"/>
<text x="34" y="36" font-size="21" font-weight="700" fill="#e8eae9">$MAXMONEYCASH</text><text x="34" y="54" font-size="11" fill="#5c625f">maxmoneycash · github</text><text x="906" y="36" text-anchor="end" font-size="26" font-weight="700" fill="#e8eae9">8,272.20</text><rect x="802" y="42" width="104" height="20" rx="10" fill="#22c55e" fill-opacity="0.14"/><text x="854" y="56" text-anchor="middle" font-size="12" font-weight="600" fill="#22c55e">▲ 272.5% 30d</text><rect x="34" y="80" width="872" height="282" rx="12" fill="#0a0c0b" stroke="#26292b"/><rect x="34" y="80" width="872" height="282" rx="12" fill="url(#dots)"/><line x1="44" y1="289.9" x2="896" y2="289.9" stroke="#202624" stroke-dasharray="3 3"/><text x="900" y="292.9" text-anchor="end" font-size="9" fill="#5c625f">0</text><line x1="44" y1="239.4" x2="896" y2="239.4" stroke="#202624" stroke-dasharray="3 3"/><text x="900" y="242.4" text-anchor="end" font-size="9" fill="#5c625f">9.39K</text><line x1="44" y1="189.0" x2="896" y2="189.0" stroke="#202624" stroke-dasharray="3 3"/><text x="900" y="192.0" text-anchor="end" font-size="9" fill="#5c625f">18.8K</text><line x1="44" y1="138.5" x2="896" y2="138.5" stroke="#202624" stroke-dasharray="3 3"/><text x="900" y="141.5" text-anchor="end" font-size="9" fill="#5c625f">28.2K</text><line x1="44" y1="88.0" x2="896" y2="88.0" stroke="#202624" stroke-dasharray="3 3"/><text x="900" y="91.0" text-anchor="end" font-size="9" fill="#5c625f">37.5K</text><rect x="46.5" y="343.8" width="11.5" height="0.2" fill="#22c55e" fill-opacity="0.25"/><line x1="52.2" y1="288.9" x2="52.2" y2="289.9" stroke="#22c55e" stroke-width="1"/><rect x="46.5" y="289.2" width="11.5" height="2.0" rx="1" fill="#22c55e"/><rect x="62.8" y="343.7" width="11.5" height="0.3" fill="#22c55e" fill-opacity="0.25"/><line x1="68.6" y1="288.2" x2="68.6" y2="289.4" stroke="#22c55e" stroke-width="1"/><rect x="62.8" y="289.1" width="11.5" height="2.0" rx="1" fill="#22c55e"/><rect x="79.2" y="342.2" width="11.5" height="1.8" fill="#22c55e" fill-opacity="0.25"/><line x1="85.0" y1="282.7" x2="85.0" y2="288.8" stroke="#22c55e" stroke-width="1"/><rect x="79.2" y="282.7" width="11.5" height="6.1" rx="1" fill="#22c55e"/><rect x="95.6" y="343.8" width="11.5" height="0.2" fill="#e5484d" fill-opacity="0.25"/><line x1="101.3" y1="284.1" x2="101.3" y2="288.3" stroke="#e5484d" stroke-width="1"/><rect x="95.6" y="284.1" width="11.5" height="4.2" rx="1" fill="#e5484d"/><rect x="112.0" y="343.1" width="11.5" height="0.9" fill="#22c55e" fill-opacity="0.25"/><line x1="117.7" y1="285.1" x2="117.7" y2="289.4" stroke="#22c55e" stroke-width="1"/><rect x="112.0" y="286.2" width="11.5" height="2.4" rx="1" fill="#22c55e"/><rect x="128.4" y="344.0" width="11.5" height="0.0" fill="#e5484d" fill-opacity="0.25"/><line x1="134.1" y1="287.1" x2="134.1" y2="289.3" stroke="#e5484d" stroke-width="1"/><rect x="128.4" y="287.1" width="11.5" height="2.2" rx="1" fill="#e5484d"/><rect x="144.8" y="344.0" width="11.5" height="0.0" fill="#e5484d" fill-opacity="0.25"/><line x1="150.5" y1="289.5" x2="150.5" y2="289.7" stroke="#e5484d" stroke-width="1"/><rect x="144.8" y="289.5" width="11.5" height="2.0" rx="1" fill="#e5484d"/><rect x="161.1" y="343.9" width="11.5" height="0.1" fill="#22c55e" fill-opacity="0.25"/><line x1="166.9" y1="289.3" x2="166.9" y2="289.8" stroke="#22c55e" stroke-width="1"/><rect x="161.1" y="289.6" width="11.5" height="2.0" rx="1" fill="#22c55e"/><rect x="177.5" y="344.0" width="11.5" height="0.0" fill="#e5484d" fill-opacity="0.25"/><line x1="183.3" y1="289.5" x2="183.3" y2="289.8" stroke="#e5484d" stroke-width="1"/><rect x="177.5" y="289.7" width="11.5" height="2.0" rx="1" fill="#e5484d"/><rect x="193.9" y="344.0" width="11.5" height="0.0" fill="#e5484d" fill-opacity="0.25"/><line x1="199.7" y1="289.7" x2="199.7" y2="289.9" stroke="#e5484d" stroke-width="1"/><rect x="193.9" y="289.8" width="11.5" height="2.0" rx="1" fill="#e5484d"/><rect x="210.3" y="344.0" width="11.5" height="0.0" fill="#e5484d" fill-opacity="0.25"/><line x1="216.0" y1="289.9" x2="216.0" y2="289.9" stroke="#e5484d" stroke-width="1"/><rect x="210.3" y="289.9" width="11.5" height="2.0" rx="1" fill="#e5484d"/><rect x="226.7" y="344.0" width="11.5" height="0.0" fill="#e5484d" fill-opacity="0.25"/><line x1="232.4" y1="289.6" x2="232.4" y2="289.9" stroke="#e5484d" stroke-width="1"/><rect x="226.7" y="289.6" width="11.5" height="2.0" rx="1" fill="#e5484d"/><rect x="243.1" y="344.0" width="11.5" height="0.0" fill="#22c55e" fill-opacity="0.25"/><line x1="248.8" y1="289.8" x2="248.8" y2="289.9" stroke="#22c55e" stroke-width="1"/><rect x="243.1" y="289.8" width="11.5" height="2.0" rx="1" fill="#22c55e"/><rect x="259.5" y="343.5" width="11.5" height="0.5" fill="#22c55e" fill-opacity="0.25"/><line x1="265.2" y1="287.4" x2="265.2" y2="289.8" stroke="#22c55e" stroke-width="1"/><rect x="259.5" y="288.0" width="11.5" height="2.0" rx="1" fill="#22c55e"/><rect x="275.8" y="344.0" width="11.5" height="0.0" fill="#e5484d" fill-opacity="0.25"/><line x1="281.6" y1="288.5" x2="281.6" y2="289.7" stroke="#e5484d" stroke-width="1"/><rect x="275.8" y="288.5" width="11.5" height="2.0" rx="1" fill="#e5484d"/><rect x="292.2" y="344.0" width="11.5" height="0.0" fill="#e5484d" fill-opacity="0.25"/><line x1="298.0" y1="289.7" x2="298.0" y2="289.9" stroke="#e5484d" stroke-width="1"/><rect x="292.2" y="289.7" width="11.5" height="2.0" rx="1" fill="#e5484d"/><rect x="308.6" y="344.0" width="11.5" height="0.0" fill="#22c55e" fill-opacity="0.25"/><line x1="314.3" y1="289.8" x2="314.3" y2="289.9" stroke="#22c55e" stroke-width="1"/><rect x="308.6" y="289.9" width="11.5" height="2.0" rx="1" fill="#22c55e"/><rect x="325.0" y="343.9" width="11.5" height="0.1" fill="#22c55e" fill-opacity="0.25"/><line x1="330.7" y1="289.7" x2="330.7" y2="289.9" stroke="#22c55e" stroke-width="1"/><rect x="325.0" y="289.7" width="11.5" height="2.0" rx="1" fill="#22c55e"/><rect x="341.4" y="344.0" width="11.5" height="0.0" fill="#e5484d" fill-opacity="0.25"/><line x1="347.1" y1="289.6" x2="347.1" y2="289.8" stroke="#e5484d" stroke-width="1"/><rect x="341.4" y="289.7" width="11.5" height="2.0" rx="1" fill="#e5484d"/><rect x="357.8" y="342.1" width="11.5" height="1.9" fill="#22c55e" fill-opacity="0.25"/><line x1="363.5" y1="284.2" x2="363.5" y2="289.7" stroke="#22c55e" stroke-width="1"/><rect x="357.8" y="285.1" width="11.5" height="4.6" rx="1" fill="#22c55e"/><rect x="374.1" y="342.6" width="11.5" height="1.4" fill="#e5484d" fill-opacity="0.25"/><line x1="379.9" y1="284.2" x2="379.9" y2="287.1" stroke="#e5484d" stroke-width="1"/><rect x="374.1" y="284.2" width="11.5" height="2.0" rx="1" fill="#e5484d"/><rect x="390.5" y="341.1" width="11.5" height="2.9" fill="#e5484d" fill-opacity="0.25"/><line x1="396.3" y1="279.8" x2="396.3" y2="283.2" stroke="#e5484d" stroke-width="1"/><rect x="390.5" y="280.3" width="11.5" height="2.3" rx="1" fill="#e5484d"/><rect x="406.9" y="342.8" width="11.5" height="1.2" fill="#e5484d" fill-opacity="0.25"/><line x1="412.7" y1="283.2" x2="412.7" y2="286.2" stroke="#e5484d" stroke-width="1"/><rect x="406.9" y="284.4" width="11.5" height="2.0" rx="1" fill="#e5484d"/><rect x="423.3" y="341.3" width="11.5" height="2.7" fill="#22c55e" fill-opacity="0.25"/><line x1="429.0" y1="279.2" x2="429.0" y2="287.2" stroke="#22c55e" stroke-width="1"/><rect x="423.3" y="281.9" width="11.5" height="5.3" rx="1" fill="#22c55e"/><rect x="439.7" y="342.8" width="11.5" height="1.2" fill="#e5484d" fill-opacity="0.25"/><line x1="445.4" y1="282.1" x2="445.4" y2="286.2" stroke="#e5484d" stroke-width="1"/><rect x="439.7" y="282.9" width="11.5" height="3.3" rx="1" fill="#e5484d"/><rect x="456.1" y="340.8" width="11.5" height="3.2" fill="#22c55e" fill-opacity="0.25"/><line x1="461.8" y1="276.4" x2="461.8" y2="287.2" stroke="#22c55e" stroke-width="1"/><rect x="456.1" y="281.1" width="11.5" height="5.3" rx="1" fill="#22c55e"/><rect x="472.5" y="343.3" width="11.5" height="0.7" fill="#e5484d" fill-opacity="0.25"/><line x1="478.2" y1="282.6" x2="478.2" y2="287.4" stroke="#e5484d" stroke-width="1"/><rect x="472.5" y="283.3" width="11.5" height="4.1" rx="1" fill="#e5484d"/><rect x="488.8" y="342.3" width="11.5" height="1.7" fill="#22c55e" fill-opacity="0.25"/><line x1="494.6" y1="283.5" x2="494.6" y2="287.8" stroke="#22c55e" stroke-width="1"/><rect x="488.8" y="286.1" width="11.5" height="2.0" rx="1" fill="#22c55e"/><rect x="505.2" y="339.4" width="11.5" height="4.6" fill="#22c55e" fill-opacity="0.25"/><line x1="511.0" y1="268.1" x2="511.0" y2="286.9" stroke="#22c55e" stroke-width="1"/><rect x="505.2" y="281.0" width="11.5" height="5.9" rx="1" fill="#22c55e"/><rect x="521.6" y="341.2" width="11.5" height="2.8" fill="#22c55e" fill-opacity="0.25"/><line x1="527.3" y1="278.7" x2="527.3" y2="283.3" stroke="#22c55e" stroke-width="1"/><rect x="521.6" y="281.5" width="11.5" height="2.0" rx="1" fill="#22c55e"/><rect x="538.0" y="343.3" width="11.5" height="0.7" fill="#e5484d" fill-opacity="0.25"/><line x1="543.7" y1="283.6" x2="543.7" y2="286.7" stroke="#e5484d" stroke-width="1"/><rect x="538.0" y="283.6" width="11.5" height="3.1" rx="1" fill="#e5484d"/><rect x="554.4" y="342.5" width="11.5" height="1.5" fill="#e5484d" fill-opacity="0.25"/><line x1="560.1" y1="281.7" x2="560.1" y2="286.9" stroke="#e5484d" stroke-width="1"/><rect x="554.4" y="286.9" width="11.5" height="2.0" rx="1" fill="#e5484d"/><rect x="570.8" y="342.6" width="11.5" height="1.4" fill="#22c55e" fill-opacity="0.25"/><line x1="576.5" y1="282.7" x2="576.5" y2="288.2" stroke="#22c55e" stroke-width="1"/><rect x="570.8" y="282.7" width="11.5" height="5.0" rx="1" fill="#22c55e"/><rect x="587.1" y="343.5" width="11.5" height="0.5" fill="#e5484d" fill-opacity="0.25"/><line x1="592.9" y1="284.1" x2="592.9" y2="288.1" stroke="#e5484d" stroke-width="1"/><rect x="587.1" y="284.1" width="11.5" height="4.0" rx="1" fill="#e5484d"/><rect x="603.5" y="337.6" width="11.5" height="6.4" fill="#22c55e" fill-opacity="0.25"/><line x1="609.3" y1="262.5" x2="609.3" y2="288.0" stroke="#22c55e" stroke-width="1"/><rect x="603.5" y="269.2" width="11.5" height="18.8" rx="1" fill="#22c55e"/><rect x="619.9" y="340.4" width="11.5" height="3.6" fill="#e5484d" fill-opacity="0.25"/><line x1="625.7" y1="271.2" x2="625.7" y2="279.7" stroke="#e5484d" stroke-width="1"/><rect x="619.9" y="271.2" width="11.5" height="4.0" rx="1" fill="#e5484d"/><rect x="636.3" y="338.8" width="11.5" height="5.2" fill="#22c55e" fill-opacity="0.25"/><line x1="642.0" y1="271.7" x2="642.0" y2="276.2" stroke="#22c55e" stroke-width="1"/><rect x="636.3" y="273.8" width="11.5" height="2.4" rx="1" fill="#22c55e"/><rect x="652.7" y="342.2" width="11.5" height="1.8" fill="#e5484d" fill-opacity="0.25"/><line x1="658.4" y1="276.0" x2="658.4" y2="284.8" stroke="#e5484d" stroke-width="1"/><rect x="652.7" y="277.3" width="11.5" height="7.5" rx="1" fill="#e5484d"/><rect x="669.1" y="337.8" width="11.5" height="6.2" fill="#22c55e" fill-opacity="0.25"/><line x1="674.8" y1="267.9" x2="674.8" y2="286.1" stroke="#22c55e" stroke-width="1"/><rect x="669.1" y="275.1" width="11.5" height="11.0" rx="1" fill="#22c55e"/><rect x="685.5" y="341.8" width="11.5" height="2.2" fill="#e5484d" fill-opacity="0.25"/><line x1="691.2" y1="278.3" x2="691.2" y2="283.3" stroke="#e5484d" stroke-width="1"/><rect x="685.5" y="278.3" width="11.5" height="2.0" rx="1" fill="#e5484d"/><rect x="701.8" y="336.0" width="11.5" height="8.0" fill="#e5484d" fill-opacity="0.25"/><line x1="707.6" y1="255.6" x2="707.6" y2="274.9" stroke="#e5484d" stroke-width="1"/><rect x="701.8" y="265.3" width="11.5" height="9.6" rx="1" fill="#e5484d"/><rect x="718.2" y="342.4" width="11.5" height="1.6" fill="#e5484d" fill-opacity="0.25"/><line x1="724.0" y1="277.4" x2="724.0" y2="283.7" stroke="#e5484d" stroke-width="1"/><rect x="718.2" y="278.6" width="11.5" height="5.0" rx="1" fill="#e5484d"/><rect x="734.6" y="342.4" width="11.5" height="1.6" fill="#e5484d" fill-opacity="0.25"/><line x1="740.3" y1="281.4" x2="740.3" y2="285.4" stroke="#e5484d" stroke-width="1"/><rect x="734.6" y="284.8" width="11.5" height="2.0" rx="1" fill="#e5484d"/><rect x="751.0" y="343.5" width="11.5" height="0.5" fill="#e5484d" fill-opacity="0.25"/><line x1="756.7" y1="286.5" x2="756.7" y2="288.0" stroke="#e5484d" stroke-width="1"/><rect x="751.0" y="286.5" width="11.5" height="2.0" rx="1" fill="#e5484d"/><rect x="767.4" y="341.6" width="11.5" height="2.4" fill="#22c55e" fill-opacity="0.25"/><line x1="773.1" y1="279.3" x2="773.1" y2="288.8" stroke="#22c55e" stroke-width="1"/><rect x="767.4" y="284.2" width="11.5" height="4.3" rx="1" fill="#22c55e"/><rect x="783.8" y="338.3" width="11.5" height="5.7" fill="#22c55e" fill-opacity="0.25"/><line x1="789.5" y1="266.7" x2="789.5" y2="285.6" stroke="#22c55e" stroke-width="1"/><rect x="783.8" y="266.7" width="11.5" height="18.9" rx="1" fill="#22c55e"/><rect x="800.1" y="338.9" width="11.5" height="5.1" fill="#e5484d" fill-opacity="0.25"/><line x1="805.9" y1="262.7" x2="805.9" y2="275.5" stroke="#e5484d" stroke-width="1"/><rect x="800.1" y="262.7" width="11.5" height="11.3" rx="1" fill="#e5484d"/><rect x="816.5" y="342.8" width="11.5" height="1.2" fill="#e5484d" fill-opacity="0.25"/><line x1="822.3" y1="278.0" x2="822.3" y2="284.1" stroke="#e5484d" stroke-width="1"/><rect x="816.5" y="278.0" width="11.5" height="6.1" rx="1" fill="#e5484d"/><rect x="832.9" y="337.8" width="11.5" height="6.2" fill="#22c55e" fill-opacity="0.25"/><line x1="838.7" y1="262.7" x2="838.7" y2="285.6" stroke="#22c55e" stroke-width="1"/><rect x="832.9" y="268.8" width="11.5" height="16.7" rx="1" fill="#22c55e"/><rect x="849.3" y="339.8" width="11.5" height="4.2" fill="#22c55e" fill-opacity="0.25"/><line x1="855.0" y1="270.3" x2="855.0" y2="279.2" stroke="#22c55e" stroke-width="1"/><rect x="849.3" y="270.3" width="11.5" height="3.8" rx="1" fill="#22c55e"/><rect x="865.7" y="297.9" width="11.5" height="46.1" fill="#e5484d" fill-opacity="0.25"/><line x1="871.4" y1="99.4" x2="871.4" y2="219.7" stroke="#e5484d" stroke-width="1"/><rect x="865.7" y="117.0" width="11.5" height="95.6" rx="1" fill="#e5484d"/><rect x="882.1" y="343.8" width="11.5" height="0.2" fill="#e5484d" fill-opacity="0.25"/><line x1="887.8" y1="230.6" x2="887.8" y2="245.4" stroke="#e5484d" stroke-width="1"/><rect x="882.1" y="230.6" width="11.5" height="14.8" rx="1" fill="#e5484d"/><line x1="44" y1="245.4" x2="896" y2="245.4" stroke="#22c55e" stroke-width="1" stroke-dasharray="3 3" opacity="0.7"/><rect x="848" y="236.4" width="52" height="18" rx="3" fill="#22c55e"/><text x="874" y="249.4" text-anchor="middle" font-size="10" font-weight="700" fill="#0a0c0b">8,272</text><text x="52.2" y="357" text-anchor="middle" font-size="9" fill="#5c625f">JUL</text><text x="117.7" y="357" text-anchor="middle" font-size="9" fill="#5c625f">AUG</text><text x="248.8" y="357" text-anchor="middle" font-size="9" fill="#5c625f">SEP</text><text x="314.3" y="357" text-anchor="middle" font-size="9" fill="#5c625f">OCT</text><text x="379.9" y="357" text-anchor="middle" font-size="9" fill="#5c625f">NOV</text><text x="445.4" y="357" text-anchor="middle" font-size="9" fill="#5c625f">DEC</text><text x="511.0" y="357" text-anchor="middle" font-size="9" fill="#5c625f">JAN</text><text x="576.5" y="357" text-anchor="middle" font-size="9" fill="#5c625f">FEB</text><text x="642.0" y="357" text-anchor="middle" font-size="9" fill="#5c625f">MAR</text><text x="707.6" y="357" text-anchor="middle" font-size="9" fill="#5c625f">APR</text><text x="773.1" y="357" text-anchor="middle" font-size="9" fill="#5c625f">MAY</text><text x="838.7" y="357" text-anchor="middle" font-size="9" fill="#5c625f">JUN</text><text x="34" y="398" font-size="10" fill="#5c625f">52W · COMMIT VELOCITY</text><text x="906" y="398" text-anchor="end" font-size="10" fill="#5c625f">commit-markets</text><text x="470.0" y="398" text-anchor="middle" font-size="10" fill="#e8eae9">ATH WEEK <tspan fill="#22c55e" font-weight="700">1922</tspan>   ACTIVE DAYS <tspan fill="#22c55e" font-weight="700">214/365</tspan>   STREAK <tspan fill="#22c55e" font-weight="700">0D</tspan>   PEAK STREAK <tspan fill="#22c55e" font-weight="700">23D</tspan>   365D VOL <tspan fill="#22c55e" font-weight="700">5,877</tspan></text>
</svg>