<svg xmlns="http://www.w3.org/2000/svg" viewBox="0 0 940 420" width="940" font-family="ui-monospace,'JetBrains Mono','SF Mono',Menlo,Consolas,monospace">
<defs>
  <pattern id="dots" width="14" height="14" patternUnits="userSpaceOnUse">
    <circle cx="2" cy="2" r="1" fill="#202624"/>
  </pattern>
</defs>
<rect width="940" height="420" rx="14" fill="#0a0c0b" stroke="#26292b"/>
<text x="34" y="36" font-size="21" font-weight="700" fill="#e8eae9">$MAXMONEYCASH</text><text x="34" y="54" font-size="11" fill="#5c625f">maxmoneycash · github</text><text x="906" y="36" text-anchor="end" font-size="26" font-weight="700" fill="#e8eae9">1,907.00</text><rect x="820" y="42" width="86" height="20" rx="10" fill="#22c55e" fill-opacity="0.14"/><text x="863" y="56" text-anchor="middle" font-size="12" font-weight="600" fill="#22c55e">▲ 371.1%</text><rect x="34" y="80" width="872" height="282" rx="12" fill="#0a0c0b" stroke="#26292b"/><rect x="34" y="80" width="872" height="282" rx="12" fill="url(#dots)"/><line x1="44" y1="354.0" x2="896" y2="354.0" stroke="#202624" stroke-dasharray="3 3"/><text x="900" y="357.0" text-anchor="end" font-size="9" fill="#5c625f">0</text><line x1="44" y1="287.5" x2="896" y2="287.5" stroke="#202624" stroke-dasharray="3 3"/><text x="900" y="290.5" text-anchor="end" font-size="9" fill="#5c625f">505</text><line x1="44" y1="221.0" x2="896" y2="221.0" stroke="#202624" stroke-dasharray="3 3"/><text x="900" y="224.0" text-anchor="end" font-size="9" fill="#5c625f">1,011</text><line x1="44" y1="154.5" x2="896" y2="154.5" stroke="#202624" stroke-dasharray="3 3"/><text x="900" y="157.5" text-anchor="end" font-size="9" fill="#5c625f">1,516</text><line x1="44" y1="88.0" x2="896" y2="88.0" stroke="#202624" stroke-dasharray="3 3"/><text x="900" y="91.0" text-anchor="end" font-size="9" fill="#5c625f">2,021</text><polyline points="48.5,354.0 64.9,352.9 81.3,352.3 97.7,344.3 114.0,352.7 130.4,349.3 146.8,353.7 163.2,353.7 179.6,353.3 196.0,353.7 212.4,353.9 228.7,354.0 245.1,353.7 261.5,353.9 277.9,351.4 294.3,354.0 310.7,354.0 327.0,353.9 343.4,353.6 359.8,353.7 376.2,343.6 392.6,346.2 409.0,338.1 425.4,347.6 441.7,339.0 458.1,347.4 474.5,336.5 490.9,349.9 507.3,344.9 523.7,329.0 540.0,338.9 556.4,349.9 572.8,345.6 589.2,346.1 605.6,351.5 622.0,318.7 638.4,334.3 654.7,325.7 671.1,344.1 687.5,320.0 703.9,342.0 720.3,310.0 736.7,345.1 753.0,345.1 769.4,351.4 785.8,340.7 802.2,322.7 818.6,326.1 835.0,347.6 851.4,320.0 867.7,331.1 884.1,103.1" fill="none" stroke="#e8eae9" stroke-width="1" opacity="0.12"/><line x1="48.5" y1="354.0" x2="48.5" y2="354.0" stroke="#22c55e" stroke-width="1"/><rect x="44.0" y="354.0" width="9.0" height="2.0" rx="1.5" fill="#22c55e"/><line x1="64.9" y1="352.9" x2="64.9" y2="354.0" stroke="#22c55e" stroke-width="1"/><rect x="60.4" y="352.9" width="9.0" height="2.0" rx="1.5" fill="#22c55e"/><line x1="81.3" y1="351.6" x2="81.3" y2="352.9" stroke="#22c55e" stroke-width="1"/><rect x="76.8" y="352.3" width="9.0" height="2.0" rx="1.5" fill="#22c55e"/><line x1="97.7" y1="344.3" x2="97.7" y2="352.6" stroke="#22c55e" stroke-width="1"/><rect x="93.2" y="344.3" width="9.0" height="7.5" rx="1.5" fill="#22c55e"/><line x1="114.0" y1="344.4" x2="114.0" y2="352.7" stroke="#e5484d" stroke-width="1"/><rect x="109.5" y="344.4" width="9.0" height="8.3" rx="1.5" fill="#e5484d"/><line x1="130.4" y1="349.3" x2="130.4" y2="353.1" stroke="#22c55e" stroke-width="1"/><rect x="125.9" y="349.3" width="9.0" height="3.7" rx="1.5" fill="#22c55e"/><line x1="146.8" y1="349.3" x2="146.8" y2="353.7" stroke="#e5484d" stroke-width="1"/><rect x="142.3" y="349.4" width="9.0" height="4.3" rx="1.5" fill="#e5484d"/><line x1="163.2" y1="353.7" x2="163.2" y2="353.9" stroke="#22c55e" stroke-width="1"/><rect x="158.7" y="353.7" width="9.0" height="2.0" rx="1.5" fill="#22c55e"/><line x1="179.6" y1="353.3" x2="179.6" y2="353.7" stroke="#22c55e" stroke-width="1"/><rect x="175.1" y="353.3" width="9.0" height="2.0" rx="1.5" fill="#22c55e"/><line x1="196.0" y1="353.1" x2="196.0" y2="353.7" stroke="#e5484d" stroke-width="1"/><rect x="191.5" y="353.3" width="9.0" height="2.0" rx="1.5" fill="#e5484d"/><line x1="212.4" y1="353.7" x2="212.4" y2="353.9" stroke="#e5484d" stroke-width="1"/><rect x="207.8" y="353.7" width="9.0" height="2.0" rx="1.5" fill="#e5484d"/><line x1="228.7" y1="353.9" x2="228.7" y2="354.0" stroke="#e5484d" stroke-width="1"/><rect x="224.2" y="353.9" width="9.0" height="2.0" rx="1.5" fill="#e5484d"/><line x1="245.1" y1="353.7" x2="245.1" y2="353.7" stroke="#22c55e" stroke-width="1"/><rect x="240.6" y="353.7" width="9.0" height="2.0" rx="1.5" fill="#22c55e"/><line x1="261.5" y1="353.9" x2="261.5" y2="354.0" stroke="#22c55e" stroke-width="1"/><rect x="257.0" y="353.9" width="9.0" height="2.0" rx="1.5" fill="#22c55e"/><line x1="277.9" y1="351.2" x2="277.9" y2="353.7" stroke="#22c55e" stroke-width="1"/><rect x="273.4" y="351.4" width="9.0" height="2.4" rx="1.5" fill="#22c55e"/><line x1="294.3" y1="351.5" x2="294.3" y2="354.0" stroke="#e5484d" stroke-width="1"/><rect x="289.8" y="351.5" width="9.0" height="2.5" rx="1.5" fill="#e5484d"/><line x1="310.7" y1="354.0" x2="310.7" y2="354.0" stroke="#22c55e" stroke-width="1"/><rect x="306.2" y="354.0" width="9.0" height="2.0" rx="1.5" fill="#22c55e"/><line x1="327.0" y1="353.9" x2="327.0" y2="354.0" stroke="#22c55e" stroke-width="1"/><rect x="322.5" y="353.9" width="9.0" height="2.0" rx="1.5" fill="#22c55e"/><line x1="343.4" y1="353.6" x2="343.4" y2="353.9" stroke="#22c55e" stroke-width="1"/><rect x="338.9" y="353.6" width="9.0" height="2.0" rx="1.5" fill="#22c55e"/><line x1="359.8" y1="353.5" x2="359.8" y2="353.7" stroke="#22c55e" stroke-width="1"/><rect x="355.3" y="353.7" width="9.0" height="2.0" rx="1.5" fill="#22c55e"/><line x1="376.2" y1="343.6" x2="376.2" y2="353.6" stroke="#22c55e" stroke-width="1"/><rect x="371.7" y="343.6" width="9.0" height="10.0" rx="1.5" fill="#22c55e"/><line x1="392.6" y1="341.6" x2="392.6" y2="348.5" stroke="#e5484d" stroke-width="1"/><rect x="388.1" y="341.6" width="9.0" height="4.6" rx="1.5" fill="#e5484d"/><line x1="409.0" y1="335.4" x2="409.0" y2="343.1" stroke="#22c55e" stroke-width="1"/><rect x="404.5" y="338.1" width="9.0" height="5.0" rx="1.5" fill="#22c55e"/><line x1="425.4" y1="342.6" x2="425.4" y2="347.6" stroke="#e5484d" stroke-width="1"/><rect x="420.8" y="343.3" width="9.0" height="4.2" rx="1.5" fill="#e5484d"/><line x1="441.7" y1="338.9" x2="441.7" y2="348.1" stroke="#22c55e" stroke-width="1"/><rect x="437.2" y="339.0" width="9.0" height="8.6" rx="1.5" fill="#22c55e"/><line x1="458.1" y1="338.1" x2="458.1" y2="347.4" stroke="#e5484d" stroke-width="1"/><rect x="453.6" y="338.1" width="9.0" height="9.3" rx="1.5" fill="#e5484d"/><line x1="474.5" y1="336.5" x2="474.5" y2="347.9" stroke="#22c55e" stroke-width="1"/><rect x="470.0" y="336.5" width="9.0" height="11.1" rx="1.5" fill="#22c55e"/><line x1="490.9" y1="334.7" x2="490.9" y2="349.9" stroke="#e5484d" stroke-width="1"/><rect x="486.4" y="337.3" width="9.0" height="12.6" rx="1.5" fill="#e5484d"/><line x1="507.3" y1="344.9" x2="507.3" y2="349.7" stroke="#22c55e" stroke-width="1"/><rect x="502.8" y="344.9" width="9.0" height="4.7" rx="1.5" fill="#22c55e"/><line x1="523.7" y1="328.5" x2="523.7" y2="345.1" stroke="#22c55e" stroke-width="1"/><rect x="519.2" y="329.0" width="9.0" height="16.1" rx="1.5" fill="#22c55e"/><line x1="540.0" y1="329.1" x2="540.0" y2="344.7" stroke="#e5484d" stroke-width="1"/><rect x="535.5" y="329.1" width="9.0" height="9.7" rx="1.5" fill="#e5484d"/><line x1="556.4" y1="338.9" x2="556.4" y2="350.6" stroke="#e5484d" stroke-width="1"/><rect x="551.9" y="338.9" width="9.0" height="11.1" rx="1.5" fill="#e5484d"/><line x1="572.8" y1="344.1" x2="572.8" y2="349.3" stroke="#22c55e" stroke-width="1"/><rect x="568.3" y="345.6" width="9.0" height="3.7" rx="1.5" fill="#22c55e"/><line x1="589.2" y1="346.1" x2="589.2" y2="352.6" stroke="#22c55e" stroke-width="1"/><rect x="584.7" y="346.1" width="9.0" height="2.0" rx="1.5" fill="#22c55e"/><line x1="605.6" y1="345.2" x2="605.6" y2="351.5" stroke="#e5484d" stroke-width="1"/><rect x="601.1" y="345.7" width="9.0" height="5.8" rx="1.5" fill="#e5484d"/><line x1="622.0" y1="318.7" x2="622.0" y2="351.4" stroke="#22c55e" stroke-width="1"/><rect x="617.5" y="318.7" width="9.0" height="32.6" rx="1.5" fill="#22c55e"/><line x1="638.4" y1="316.2" x2="638.4" y2="335.7" stroke="#e5484d" stroke-width="1"/><rect x="633.8" y="316.2" width="9.0" height="18.0" rx="1.5" fill="#e5484d"/><line x1="654.7" y1="321.9" x2="654.7" y2="334.7" stroke="#22c55e" stroke-width="1"/><rect x="650.2" y="325.7" width="9.0" height="8.9" rx="1.5" fill="#22c55e"/><line x1="671.1" y1="327.8" x2="671.1" y2="344.1" stroke="#e5484d" stroke-width="1"/><rect x="666.6" y="327.8" width="9.0" height="16.3" rx="1.5" fill="#e5484d"/><line x1="687.5" y1="320.0" x2="687.5" y2="344.7" stroke="#22c55e" stroke-width="1"/><rect x="683.0" y="320.0" width="9.0" height="24.6" rx="1.5" fill="#22c55e"/><line x1="703.9" y1="319.5" x2="703.9" y2="346.1" stroke="#e5484d" stroke-width="1"/><rect x="699.4" y="319.5" width="9.0" height="22.5" rx="1.5" fill="#e5484d"/><line x1="720.3" y1="304.4" x2="720.3" y2="326.4" stroke="#22c55e" stroke-width="1"/><rect x="715.8" y="310.0" width="9.0" height="16.3" rx="1.5" fill="#22c55e"/><line x1="736.7" y1="326.2" x2="736.7" y2="346.2" stroke="#e5484d" stroke-width="1"/><rect x="732.2" y="326.2" width="9.0" height="18.8" rx="1.5" fill="#e5484d"/><line x1="753.0" y1="343.3" x2="753.0" y2="346.2" stroke="#e5484d" stroke-width="1"/><rect x="748.5" y="344.7" width="9.0" height="2.0" rx="1.5" fill="#e5484d"/><line x1="769.4" y1="345.4" x2="769.4" y2="351.4" stroke="#e5484d" stroke-width="1"/><rect x="764.9" y="345.4" width="9.0" height="5.9" rx="1.5" fill="#e5484d"/><line x1="785.8" y1="340.3" x2="785.8" y2="351.4" stroke="#22c55e" stroke-width="1"/><rect x="781.3" y="340.7" width="9.0" height="10.7" rx="1.5" fill="#22c55e"/><line x1="802.2" y1="322.7" x2="802.2" y2="342.0" stroke="#22c55e" stroke-width="1"/><rect x="797.7" y="322.7" width="9.0" height="18.0" rx="1.5" fill="#22c55e"/><line x1="818.6" y1="313.1" x2="818.6" y2="326.1" stroke="#e5484d" stroke-width="1"/><rect x="814.1" y="313.1" width="9.0" height="13.0" rx="1.5" fill="#e5484d"/><line x1="835.0" y1="335.7" x2="835.0" y2="347.6" stroke="#e5484d" stroke-width="1"/><rect x="830.5" y="335.7" width="9.0" height="11.8" rx="1.5" fill="#e5484d"/><line x1="851.4" y1="320.0" x2="851.4" y2="347.4" stroke="#22c55e" stroke-width="1"/><rect x="846.8" y="320.0" width="9.0" height="27.4" rx="1.5" fill="#22c55e"/><line x1="867.7" y1="319.3" x2="867.7" y2="340.3" stroke="#e5484d" stroke-width="1"/><rect x="863.2" y="320.2" width="9.0" height="10.9" rx="1.5" fill="#e5484d"/><line x1="884.1" y1="103.1" x2="884.1" y2="176.2" stroke="#22c55e" stroke-width="1"/><rect x="879.6" y="103.1" width="9.0" height="73.2" rx="1.5" fill="#22c55e"/><line x1="44" y1="103.1" x2="896" y2="103.1" stroke="#22c55e" stroke-width="1" stroke-dasharray="3 3" opacity="0.7"/><rect x="852" y="94.1" width="48" height="18" rx="3" fill="#22c55e"/><text x="876" y="107.1" text-anchor="middle" font-size="10" font-weight="700" fill="#0a0c0b">1907</text><text x="44.0" y="354" font-size="9" fill="#5c625f">JUN</text><text x="109.5" y="354" font-size="9" fill="#5c625f">JUL</text><text x="175.1" y="354" font-size="9" fill="#5c625f">AUG</text><text x="240.6" y="354" font-size="9" fill="#5c625f">SEP</text><text x="306.2" y="354" font-size="9" fill="#5c625f">OCT</text><text x="371.7" y="354" font-size="9" fill="#5c625f">NOV</text><text x="437.2" y="354" font-size="9" fill="#5c625f">DEC</text><text x="502.8" y="354" font-size="9" fill="#5c625f">JAN</text><text x="568.3" y="354" font-size="9" fill="#5c625f">FEB</text><text x="633.8" y="354" font-size="9" fill="#5c625f">MAR</text><text x="699.4" y="354" font-size="9" fill="#5c625f">APR</text><text x="764.9" y="354" font-size="9" fill="#5c625f">MAY</text><text x="34" y="398" font-size="10" fill="#5c625f">52W · COMMIT VELOCITY</text><text x="906" y="398" text-anchor="end" font-size="10" fill="#5c625f">commit-markets</text><text x="470.0" y="398" text-anchor="middle" font-size="10" fill="#e8eae9">ATH WEEK <tspan fill="#22c55e" font-weight="700">1907</tspan>   ACTIVE DAYS <tspan fill="#22c55e" font-weight="700">215/365</tspan>   STREAK <tspan fill="#22c55e" font-weight="700">13D</tspan>   PEAK STREAK <tspan fill="#22c55e" font-weight="700">23D</tspan>   365D VOL <tspan fill="#22c55e" font-weight="700">5,852</tspan></text>
</svg>