<svg xmlns="http://www.w3.org/2000/svg" viewBox="0 0 940 580" width="940" font-family="ui-monospace,'JetBrains Mono','SF Mono',Menlo,Consolas,monospace">
<defs>
  <clipPath id="tickclip"><rect x="24" y="44" width="892" height="30"/></clipPath>
  <pattern id="dots" width="22" height="22" patternUnits="userSpaceOnUse">
    <circle cx="2" cy="2" r="0.9" fill="#1a2330"/>
  </pattern>
  <style>
    @keyframes tick { from { transform: translateX(24px); } to { transform: translateX(-860px); } }
    .marquee { animation: tick 36s linear infinite; }
  </style>
</defs>
<rect width="940" height="580" rx="14" fill="#070b10" stroke="#1c2430"/>
<line x1="0" y1="44" x2="940" y2="44" stroke="#1c2430"/>
<line x1="0" y1="74" x2="940" y2="74" stroke="#1c2430"/>
<text x="24" y="28" font-size="14" font-weight="700" fill="#97fce4">MAXMONEYCASH-PERP</text><text x="202" y="28" font-size="11" fill="#55657a">CONTRIB-7D / USD</text><circle cx="324" cy="24" r="4" fill="#16c79a"><animate attributeName="opacity" values="1;0.2;1" dur="2s" repeatCount="indefinite"/></circle><text x="336" y="28" font-size="11" fill="#16c79a">LIVE</text><text x="916" y="28" text-anchor="end" font-size="11" fill="#9fb2c8">LAST <tspan fill="#97fce4" font-weight="700">59</tspan>   30D <tspan fill="#16c79a" font-weight="700">+41.7%</tspan>   365D VOL <tspan fill="#97fce4" font-weight="700">3,567</tspan>   FUNDING <tspan fill="#ffb454" font-weight="700">-$10,855</tspan></text><g clip-path="url(#tickclip)"><g class="marquee"><text x="0" y="64" font-size="11"><tspan fill="#9fb2c8">JS</tspan><tspan fill="#16c79a"> 29.0% ▲</tspan><tspan fill="#1c2430">   │   </tspan><tspan fill="#9fb2c8">TS</tspan><tspan fill="#16c79a"> 22.6% ▲</tspan><tspan fill="#1c2430">   │   </tspan><tspan fill="#9fb2c8">PY</tspan><tspan fill="#f6465d"> 22.6% ▼</tspan><tspan fill="#1c2430">   │   </tspan><tspan fill="#9fb2c8">VUE</tspan><tspan fill="#16c79a"> 6.5% ▲</tspan><tspan fill="#1c2430">   │   </tspan><tspan fill="#9fb2c8">IPYNB</tspan><tspan fill="#16c79a"> 6.5% ▲</tspan><tspan fill="#1c2430">   │   </tspan><tspan fill="#9fb2c8">RS</tspan><tspan fill="#f6465d"> 6.5% ▼</tspan><tspan fill="#1c2430">   │   </tspan><tspan fill="#9fb2c8">SH</tspan><tspan fill="#16c79a"> 3.2% ▲</tspan><tspan fill="#1c2430">   │   </tspan><tspan fill="#9fb2c8">C</tspan><tspan fill="#16c79a"> 3.2% ▲</tspan><tspan fill="#1c2430">   │   </tspan><tspan fill="#9fb2c8">JS</tspan><tspan fill="#16c79a"> 29.0% ▲</tspan><tspan fill="#1c2430">   │   </tspan><tspan fill="#9fb2c8">TS</tspan><tspan fill="#16c79a"> 22.6% ▲</tspan><tspan fill="#1c2430">   │   </tspan><tspan fill="#9fb2c8">PY</tspan><tspan fill="#f6465d"> 22.6% ▼</tspan><tspan fill="#1c2430">   │   </tspan><tspan fill="#9fb2c8">VUE</tspan><tspan fill="#16c79a"> 6.5% ▲</tspan><tspan fill="#1c2430">   │   </tspan><tspan fill="#9fb2c8">IPYNB</tspan><tspan fill="#16c79a"> 6.5% ▲</tspan><tspan fill="#1c2430">   │   </tspan><tspan fill="#9fb2c8">RS</tspan><tspan fill="#f6465d"> 6.5% ▼</tspan><tspan fill="#1c2430">   │   </tspan><tspan fill="#9fb2c8">SH</tspan><tspan fill="#16c79a"> 3.2% ▲</tspan><tspan fill="#1c2430">   │   </tspan><tspan fill="#9fb2c8">C</tspan><tspan fill="#16c79a"> 3.2% ▲</tspan><tspan fill="#1c2430">   │   </tspan></text></g></g><rect x="20" y="86" width="660" height="402" rx="8" fill="#0b1018" stroke="#1c2430"/><rect x="20" y="86" width="660" height="402" rx="8" fill="url(#dots)"/><line x1="28" y1="400.0" x2="624" y2="400.0" stroke="#141b26" stroke-dasharray="2 6"/><text x="634" y="404.0" font-size="9" fill="#55657a">0</text><line x1="28" y1="325.0" x2="624" y2="325.0" stroke="#141b26" stroke-dasharray="2 6"/><text x="634" y="329.0" font-size="9" fill="#55657a">100</text><line x1="28" y1="250.0" x2="624" y2="250.0" stroke="#141b26" stroke-dasharray="2 6"/><text x="634" y="254.0" font-size="9" fill="#55657a">200</text><line x1="28" y1="175.0" x2="624" y2="175.0" stroke="#141b26" stroke-dasharray="2 6"/><text x="634" y="179.0" font-size="9" fill="#55657a">300</text><line x1="28" y1="100.0" x2="624" y2="100.0" stroke="#141b26" stroke-dasharray="2 6"/><text x="634" y="104.0" font-size="9" fill="#55657a">400</text><polyline points="34.3,400.0 45.8,399.2 57.3,400.0 68.9,394.0 80.4,390.2 92.0,344.4 103.5,392.5 115.0,373.0 126.6,398.5 138.1,398.5 149.7,396.2 161.2,398.5 172.7,399.2 184.3,400.0 195.8,398.5 207.3,399.2 218.9,385.0 230.4,400.0 242.0,400.0 253.5,399.2 265.0,397.7 276.6,398.5 288.1,340.7 299.7,355.7 311.2,309.2 322.7,363.2 334.3,314.4 345.8,362.5 357.3,300.2 368.9,376.7 380.4,348.2 392.0,257.4 403.5,313.7 415.0,376.7 426.6,352.0 438.1,355.0 449.7,385.7 461.2,198.8 472.7,287.4 484.3,238.6 495.8,343.7 507.3,206.3 518.9,331.7 530.4,149.3 542.0,349.0 553.5,349.0 565.0,385.0 576.6,324.2 588.1,221.3 599.7,240.8 611.2,363.2 622.7,355.7" fill="none" stroke="#97fce4" stroke-width="1" opacity="0.35"/><line x1="34.3" y1="400.0" x2="34.3" y2="400.0" stroke="#16c79a" stroke-width="1"/><rect x="30.0" y="400.0" width="8.5" height="2.0" rx="1" fill="#16c79a"/><rect x="30.0" y="468.0" width="8.5" height="1.0" fill="#16c79a" opacity="0.4"/><line x1="45.8" y1="399.2" x2="45.8" y2="400.0" stroke="#16c79a" stroke-width="1"/><rect x="41.5" y="399.2" width="8.5" height="2.0" rx="1" fill="#16c79a"/><rect x="41.5" y="467.8" width="8.5" height="1.0" fill="#16c79a" opacity="0.4"/><line x1="57.3" y1="399.2" x2="57.3" y2="400.0" stroke="#f6465d" stroke-width="1"/><rect x="53.1" y="399.2" width="8.5" height="2.0" rx="1" fill="#f6465d"/><rect x="53.1" y="468.0" width="8.5" height="1.0" fill="#f6465d" opacity="0.4"/><line x1="68.9" y1="394.0" x2="68.9" y2="400.0" stroke="#16c79a" stroke-width="1"/><rect x="64.6" y="394.0" width="8.5" height="6.0" rx="1" fill="#16c79a"/><rect x="64.6" y="466.7" width="8.5" height="1.3" fill="#16c79a" opacity="0.4"/><line x1="80.4" y1="386.5" x2="80.4" y2="394.0" stroke="#16c79a" stroke-width="1"/><rect x="76.2" y="390.2" width="8.5" height="3.8" rx="1" fill="#16c79a"/><rect x="76.2" y="465.8" width="8.5" height="2.2" fill="#16c79a" opacity="0.4"/><line x1="92.0" y1="344.4" x2="92.0" y2="391.7" stroke="#16c79a" stroke-width="1"/><rect x="87.7" y="344.4" width="8.5" height="42.8" rx="1" fill="#16c79a"/><rect x="87.7" y="455.6" width="8.5" height="12.4" fill="#16c79a" opacity="0.4"/><line x1="103.5" y1="345.2" x2="103.5" y2="392.5" stroke="#f6465d" stroke-width="1"/><rect x="99.2" y="345.2" width="8.5" height="47.3" rx="1" fill="#f6465d"/><rect x="99.2" y="466.3" width="8.5" height="1.7" fill="#f6465d" opacity="0.4"/><line x1="115.0" y1="373.0" x2="115.0" y2="394.7" stroke="#16c79a" stroke-width="1"/><rect x="110.8" y="373.0" width="8.5" height="21.0" rx="1" fill="#16c79a"/><rect x="110.8" y="462.0" width="8.5" height="6.0" fill="#16c79a" opacity="0.4"/><line x1="126.6" y1="373.0" x2="126.6" y2="398.5" stroke="#f6465d" stroke-width="1"/><rect x="122.3" y="373.7" width="8.5" height="24.8" rx="1" fill="#f6465d"/><rect x="122.3" y="467.7" width="8.5" height="1.0" fill="#f6465d" opacity="0.4"/><line x1="138.1" y1="398.5" x2="138.1" y2="399.2" stroke="#16c79a" stroke-width="1"/><rect x="133.8" y="398.5" width="8.5" height="2.0" rx="1" fill="#16c79a"/><rect x="133.8" y="467.7" width="8.5" height="1.0" fill="#16c79a" opacity="0.4"/><line x1="149.7" y1="396.2" x2="149.7" y2="398.5" stroke="#16c79a" stroke-width="1"/><rect x="145.4" y="396.2" width="8.5" height="2.3" rx="1" fill="#16c79a"/><rect x="145.4" y="467.2" width="8.5" height="1.0" fill="#16c79a" opacity="0.4"/><line x1="161.2" y1="394.7" x2="161.2" y2="398.5" stroke="#f6465d" stroke-width="1"/><rect x="156.9" y="396.2" width="8.5" height="2.3" rx="1" fill="#f6465d"/><rect x="156.9" y="467.7" width="8.5" height="1.0" fill="#f6465d" opacity="0.4"/><line x1="172.7" y1="398.5" x2="172.7" y2="399.2" stroke="#f6465d" stroke-width="1"/><rect x="168.5" y="398.5" width="8.5" height="2.0" rx="1" fill="#f6465d"/><rect x="168.5" y="467.8" width="8.5" height="1.0" fill="#f6465d" opacity="0.4"/><line x1="184.3" y1="399.2" x2="184.3" y2="400.0" stroke="#f6465d" stroke-width="1"/><rect x="180.0" y="399.2" width="8.5" height="2.0" rx="1" fill="#f6465d"/><rect x="180.0" y="468.0" width="8.5" height="1.0" fill="#f6465d" opacity="0.4"/><line x1="195.8" y1="398.5" x2="195.8" y2="398.5" stroke="#16c79a" stroke-width="1"/><rect x="191.5" y="398.5" width="8.5" height="2.0" rx="1" fill="#16c79a"/><rect x="191.5" y="467.7" width="8.5" height="1.0" fill="#16c79a" opacity="0.4"/><line x1="207.3" y1="399.2" x2="207.3" y2="400.0" stroke="#16c79a" stroke-width="1"/><rect x="203.1" y="399.2" width="8.5" height="2.0" rx="1" fill="#16c79a"/><rect x="203.1" y="467.8" width="8.5" height="1.0" fill="#16c79a" opacity="0.4"/><line x1="218.9" y1="384.2" x2="218.9" y2="398.5" stroke="#16c79a" stroke-width="1"/><rect x="214.6" y="385.0" width="8.5" height="13.5" rx="1" fill="#16c79a"/><rect x="214.6" y="464.6" width="8.5" height="3.4" fill="#16c79a" opacity="0.4"/><line x1="230.4" y1="385.7" x2="230.4" y2="400.0" stroke="#f6465d" stroke-width="1"/><rect x="226.2" y="385.7" width="8.5" height="14.3" rx="1" fill="#f6465d"/><rect x="226.2" y="468.0" width="8.5" height="1.0" fill="#f6465d" opacity="0.4"/><line x1="242.0" y1="400.0" x2="242.0" y2="400.0" stroke="#16c79a" stroke-width="1"/><rect x="237.7" y="400.0" width="8.5" height="2.0" rx="1" fill="#16c79a"/><rect x="237.7" y="468.0" width="8.5" height="1.0" fill="#16c79a" opacity="0.4"/><line x1="253.5" y1="399.2" x2="253.5" y2="400.0" stroke="#16c79a" stroke-width="1"/><rect x="249.2" y="399.2" width="8.5" height="2.0" rx="1" fill="#16c79a"/><rect x="249.2" y="467.8" width="8.5" height="1.0" fill="#16c79a" opacity="0.4"/><line x1="265.0" y1="397.7" x2="265.0" y2="399.2" stroke="#16c79a" stroke-width="1"/><rect x="260.8" y="397.7" width="8.5" height="2.0" rx="1" fill="#16c79a"/><rect x="260.8" y="467.5" width="8.5" height="1.0" fill="#16c79a" opacity="0.4"/><line x1="276.6" y1="397.0" x2="276.6" y2="398.5" stroke="#16c79a" stroke-width="1"/><rect x="272.3" y="398.5" width="8.5" height="2.0" rx="1" fill="#16c79a"/><rect x="272.3" y="467.7" width="8.5" height="1.0" fill="#16c79a" opacity="0.4"/><line x1="288.1" y1="340.7" x2="288.1" y2="397.7" stroke="#16c79a" stroke-width="1"/><rect x="283.8" y="340.7" width="8.5" height="57.1" rx="1" fill="#16c79a"/><rect x="283.8" y="454.8" width="8.5" height="13.2" fill="#16c79a" opacity="0.4"/><line x1="299.7" y1="329.4" x2="299.7" y2="368.5" stroke="#f6465d" stroke-width="1"/><rect x="295.4" y="329.4" width="8.5" height="26.3" rx="1" fill="#f6465d"/><rect x="295.4" y="458.1" width="8.5" height="9.9" fill="#f6465d" opacity="0.4"/><line x1="311.2" y1="294.1" x2="311.2" y2="337.7" stroke="#16c79a" stroke-width="1"/><rect x="306.9" y="309.2" width="8.5" height="28.5" rx="1" fill="#16c79a"/><rect x="306.9" y="447.7" width="8.5" height="20.3" fill="#16c79a" opacity="0.4"/><line x1="322.7" y1="334.7" x2="322.7" y2="363.2" stroke="#f6465d" stroke-width="1"/><rect x="318.5" y="339.2" width="8.5" height="24.0" rx="1" fill="#f6465d"/><rect x="318.5" y="459.8" width="8.5" height="8.2" fill="#f6465d" opacity="0.4"/><line x1="334.3" y1="313.7" x2="334.3" y2="366.2" stroke="#16c79a" stroke-width="1"/><rect x="330.0" y="314.4" width="8.5" height="48.8" rx="1" fill="#16c79a"/><rect x="330.0" y="448.9" width="8.5" height="19.1" fill="#16c79a" opacity="0.4"/><line x1="345.8" y1="309.2" x2="345.8" y2="362.5" stroke="#f6465d" stroke-width="1"/><rect x="341.5" y="309.2" width="8.5" height="53.3" rx="1" fill="#f6465d"/><rect x="341.5" y="459.6" width="8.5" height="8.4" fill="#f6465d" opacity="0.4"/><line x1="357.3" y1="300.2" x2="357.3" y2="365.5" stroke="#16c79a" stroke-width="1"/><rect x="353.1" y="300.2" width="8.5" height="63.1" rx="1" fill="#16c79a"/><rect x="353.1" y="445.7" width="8.5" height="22.3" fill="#16c79a" opacity="0.4"/><line x1="368.9" y1="289.6" x2="368.9" y2="376.7" stroke="#f6465d" stroke-width="1"/><rect x="364.6" y="304.7" width="8.5" height="72.1" rx="1" fill="#f6465d"/><rect x="364.6" y="462.8" width="8.5" height="5.2" fill="#f6465d" opacity="0.4"/><line x1="380.4" y1="348.2" x2="380.4" y2="375.2" stroke="#16c79a" stroke-width="1"/><rect x="376.2" y="348.2" width="8.5" height="27.0" rx="1" fill="#16c79a"/><rect x="376.2" y="456.4" width="8.5" height="11.6" fill="#16c79a" opacity="0.4"/><line x1="392.0" y1="254.4" x2="392.0" y2="349.0" stroke="#16c79a" stroke-width="1"/><rect x="387.7" y="257.4" width="8.5" height="91.6" rx="1" fill="#16c79a"/><rect x="387.7" y="436.1" width="8.5" height="31.9" fill="#16c79a" opacity="0.4"/><line x1="403.5" y1="258.1" x2="403.5" y2="345.9" stroke="#f6465d" stroke-width="1"/><rect x="399.2" y="258.1" width="8.5" height="55.6" rx="1" fill="#f6465d"/><rect x="399.2" y="448.7" width="8.5" height="19.3" fill="#f6465d" opacity="0.4"/><line x1="415.0" y1="313.7" x2="415.0" y2="379.7" stroke="#f6465d" stroke-width="1"/><rect x="410.8" y="313.7" width="8.5" height="63.1" rx="1" fill="#f6465d"/><rect x="410.8" y="462.8" width="8.5" height="5.2" fill="#f6465d" opacity="0.4"/><line x1="426.6" y1="343.7" x2="426.6" y2="373.0" stroke="#16c79a" stroke-width="1"/><rect x="422.3" y="352.0" width="8.5" height="21.0" rx="1" fill="#16c79a"/><rect x="422.3" y="457.3" width="8.5" height="10.7" fill="#16c79a" opacity="0.4"/><line x1="438.1" y1="355.0" x2="438.1" y2="391.7" stroke="#16c79a" stroke-width="1"/><rect x="433.8" y="355.0" width="8.5" height="2.0" rx="1" fill="#16c79a"/><rect x="433.8" y="457.9" width="8.5" height="10.1" fill="#16c79a" opacity="0.4"/><line x1="449.7" y1="349.7" x2="449.7" y2="385.7" stroke="#f6465d" stroke-width="1"/><rect x="445.4" y="352.7" width="8.5" height="33.0" rx="1" fill="#f6465d"/><rect x="445.4" y="464.8" width="8.5" height="3.2" fill="#f6465d" opacity="0.4"/><line x1="461.2" y1="198.8" x2="461.2" y2="385.0" stroke="#16c79a" stroke-width="1"/><rect x="456.9" y="198.8" width="8.5" height="186.2" rx="1" fill="#16c79a"/><rect x="456.9" y="423.1" width="8.5" height="44.9" fill="#16c79a" opacity="0.4"/><line x1="472.7" y1="183.8" x2="472.7" y2="295.7" stroke="#f6465d" stroke-width="1"/><rect x="468.5" y="183.8" width="8.5" height="103.6" rx="1" fill="#f6465d"/><rect x="468.5" y="442.9" width="8.5" height="25.1" fill="#f6465d" opacity="0.4"/><line x1="484.3" y1="216.8" x2="484.3" y2="290.4" stroke="#16c79a" stroke-width="1"/><rect x="480.0" y="238.6" width="8.5" height="51.8" rx="1" fill="#16c79a"/><rect x="480.0" y="432.0" width="8.5" height="36.0" fill="#16c79a" opacity="0.4"/><line x1="495.8" y1="250.6" x2="495.8" y2="343.7" stroke="#f6465d" stroke-width="1"/><rect x="491.5" y="250.6" width="8.5" height="93.1" rx="1" fill="#f6465d"/><rect x="491.5" y="455.4" width="8.5" height="12.6" fill="#f6465d" opacity="0.4"/><line x1="507.3" y1="206.3" x2="507.3" y2="346.7" stroke="#16c79a" stroke-width="1"/><rect x="503.1" y="206.3" width="8.5" height="140.4" rx="1" fill="#16c79a"/><rect x="503.1" y="424.7" width="8.5" height="43.3" fill="#16c79a" opacity="0.4"/><line x1="518.9" y1="203.3" x2="518.9" y2="355.0" stroke="#f6465d" stroke-width="1"/><rect x="514.6" y="203.3" width="8.5" height="128.4" rx="1" fill="#f6465d"/><rect x="514.6" y="452.7" width="8.5" height="15.3" fill="#f6465d" opacity="0.4"/><line x1="530.4" y1="117.0" x2="530.4" y2="242.4" stroke="#16c79a" stroke-width="1"/><rect x="526.2" y="149.3" width="8.5" height="93.1" rx="1" fill="#16c79a"/><rect x="526.2" y="412.0" width="8.5" height="56.0" fill="#16c79a" opacity="0.4"/><line x1="542.0" y1="241.6" x2="542.0" y2="355.7" stroke="#f6465d" stroke-width="1"/><rect x="537.7" y="241.6" width="8.5" height="107.4" rx="1" fill="#f6465d"/><rect x="537.7" y="456.6" width="8.5" height="11.4" fill="#f6465d" opacity="0.4"/><line x1="553.5" y1="336.2" x2="553.5" y2="353.5" stroke="#f6465d" stroke-width="1"/><rect x="549.2" y="346.7" width="8.5" height="2.3" rx="1" fill="#f6465d"/><rect x="549.2" y="456.6" width="8.5" height="11.4" fill="#f6465d" opacity="0.4"/><line x1="565.0" y1="351.2" x2="565.0" y2="385.0" stroke="#f6465d" stroke-width="1"/><rect x="560.8" y="351.2" width="8.5" height="33.8" rx="1" fill="#f6465d"/><rect x="560.8" y="464.6" width="8.5" height="3.4" fill="#f6465d" opacity="0.4"/><line x1="576.6" y1="321.9" x2="576.6" y2="385.0" stroke="#16c79a" stroke-width="1"/><rect x="572.3" y="324.2" width="8.5" height="60.8" rx="1" fill="#16c79a"/><rect x="572.3" y="451.1" width="8.5" height="16.9" fill="#16c79a" opacity="0.4"/><line x1="588.1" y1="221.3" x2="588.1" y2="331.7" stroke="#16c79a" stroke-width="1"/><rect x="583.8" y="221.3" width="8.5" height="102.8" rx="1" fill="#16c79a"/><rect x="583.8" y="428.1" width="8.5" height="39.9" fill="#16c79a" opacity="0.4"/><line x1="599.7" y1="166.5" x2="599.7" y2="240.8" stroke="#f6465d" stroke-width="1"/><rect x="595.4" y="166.5" width="8.5" height="74.3" rx="1" fill="#f6465d"/><rect x="595.4" y="432.5" width="8.5" height="35.5" fill="#f6465d" opacity="0.4"/><line x1="611.2" y1="295.7" x2="611.2" y2="363.2" stroke="#f6465d" stroke-width="1"/><rect x="606.9" y="295.7" width="8.5" height="67.6" rx="1" fill="#f6465d"/><rect x="606.9" y="459.8" width="8.5" height="8.2" fill="#f6465d" opacity="0.4"/><line x1="622.7" y1="336.2" x2="622.7" y2="363.2" stroke="#16c79a" stroke-width="1"/><rect x="618.5" y="355.7" width="8.5" height="7.5" rx="1" fill="#16c79a"/><rect x="618.5" y="459.1" width="8.5" height="8.9" fill="#16c79a" opacity="0.4"/><line x1="28" y1="355.7" x2="624" y2="355.7" stroke="#ffb454" stroke-width="1" stroke-dasharray="6 4"/><rect x="628" y="346.7" width="50" height="17" rx="3" fill="#ffb454"/><text x="653" y="359.7" text-anchor="middle" font-size="10" font-weight="700" fill="#070b10">59</text><text x="30.0" y="482" font-size="9" fill="#55657a">JUN</text><text x="76.2" y="482" font-size="9" fill="#55657a">JUL</text><text x="122.3" y="482" font-size="9" fill="#55657a">AUG</text><text x="168.5" y="482" font-size="9" fill="#55657a">SEP</text><text x="214.6" y="482" font-size="9" fill="#55657a">OCT</text><text x="260.8" y="482" font-size="9" fill="#55657a">NOV</text><text x="353.1" y="482" font-size="9" fill="#55657a">DEC</text><text x="399.2" y="482" font-size="9" fill="#55657a">JAN</text><text x="445.4" y="482" font-size="9" fill="#55657a">FEB</text><text x="491.5" y="482" font-size="9" fill="#55657a">MAR</text><text x="537.7" y="482" font-size="9" fill="#55657a">APR</text><text x="583.8" y="482" font-size="9" fill="#55657a">MAY</text><rect x="700" y="86" width="216" height="402" rx="8" fill="#0b1018" stroke="#1c2430"/><text x="714" y="110" font-size="11" letter-spacing="2" fill="#9fb2c8">ORDER BOOK</text><text x="902" y="110" text-anchor="end" font-size="9" fill="#55657a">AGENTS × LANGS</text><rect x="901.2" y="124" width="0.8" height="17" fill="#f6465d" opacity="0.16"/><text x="714" y="136" font-size="10" fill="#f6465d">OPENCODE</text><text x="902" y="136" text-anchor="end" font-size="10" fill="#9fb2c8">$25 <tspan fill="#55657a">· 66.0M</tspan></text><rect x="899.8" y="146" width="2.2" height="17" fill="#f6465d" opacity="0.16"/><text x="714" y="158" font-size="10" fill="#f6465d">KIMI</text><text x="902" y="158" text-anchor="end" font-size="10" fill="#9fb2c8">$74 <tspan fill="#55657a">· 419.0M</tspan></text><rect x="889.3" y="168" width="12.7" height="17" fill="#f6465d" opacity="0.16"/><text x="714" y="180" font-size="10" fill="#f6465d">CURSOR</text><text x="902" y="180" text-anchor="end" font-size="10" fill="#9fb2c8">$424 <tspan fill="#55657a">· 189.1M</tspan></text><rect x="876.8" y="190" width="25.2" height="17" fill="#f6465d" opacity="0.16"/><text x="714" y="202" font-size="10" fill="#f6465d">DROID</text><text x="902" y="202" text-anchor="end" font-size="10" fill="#9fb2c8">$841 <tspan fill="#55657a">· 1.01B</tspan></text><rect x="806.0" y="212" width="96.0" height="17" fill="#f6465d" opacity="0.16"/><text x="714" y="224" font-size="10" fill="#f6465d">CODEX</text><text x="902" y="224" text-anchor="end" font-size="10" fill="#9fb2c8">$3,208 <tspan fill="#55657a">· 5.16B</tspan></text><rect x="714.0" y="234" width="188.0" height="17" fill="#f6465d" opacity="0.16"/><text x="714" y="246" font-size="10" fill="#f6465d">CLAUDE</text><text x="902" y="246" text-anchor="end" font-size="10" fill="#9fb2c8">$6,282 <tspan fill="#55657a">· 8.10B</tspan></text><line x1="710" y1="259" x2="906" y2="259" stroke="#1c2430"/><text x="808.0" y="275" text-anchor="middle" font-size="11" font-weight="700" fill="#ffb454">MARK 15.0B TOK</text><line x1="710" y1="283" x2="906" y2="283" stroke="#1c2430"/><rect x="714" y="296" width="188.0" height="17" fill="#16c79a" opacity="0.16"/><text x="714" y="308" font-size="10" fill="#16c79a">JS</text><text x="902" y="308" text-anchor="end" font-size="10" fill="#9fb2c8">9 repos</text><rect x="714" y="318" width="146.2" height="17" fill="#16c79a" opacity="0.16"/><text x="714" y="330" font-size="10" fill="#16c79a">TS</text><text x="902" y="330" text-anchor="end" font-size="10" fill="#9fb2c8">7 repos</text><rect x="714" y="340" width="146.2" height="17" fill="#16c79a" opacity="0.16"/><text x="714" y="352" font-size="10" fill="#16c79a">PY</text><text x="902" y="352" text-anchor="end" font-size="10" fill="#9fb2c8">7 repos</text><rect x="714" y="362" width="41.8" height="17" fill="#16c79a" opacity="0.16"/><text x="714" y="374" font-size="10" fill="#16c79a">VUE</text><text x="902" y="374" text-anchor="end" font-size="10" fill="#9fb2c8">2 repos</text><rect x="714" y="384" width="41.8" height="17" fill="#16c79a" opacity="0.16"/><text x="714" y="396" font-size="10" fill="#16c79a">IPYNB</text><text x="902" y="396" text-anchor="end" font-size="10" fill="#9fb2c8">2 repos</text><text x="24" y="516" font-size="11" fill="#55657a">ATH WEEK <tspan fill="#97fce4" font-weight="700">334</tspan>   ACTIVE DAYS <tspan fill="#97fce4" font-weight="700">198/365</tspan>   STREAK <tspan fill="#16c79a" font-weight="700">0D</tspan>   PEAK STREAK <tspan fill="#16c79a" font-weight="700">23D</tspan>   30D VOL <tspan fill="#97fce4" font-weight="700">598</tspan>   1W CANDLES ON A 7D ROLLING INDEX</text>
</svg>