<svg xmlns="http://www.w3.org/2000/svg" viewBox="0 0 940 580" width="940" font-family="ui-monospace,'JetBrains Mono','SF Mono',Menlo,Consolas,monospace">
<defs>
  <clipPath id="tickclip"><rect x="24" y="44" width="892" height="30"/></clipPath>
  <pattern id="dots" width="22" height="22" patternUnits="userSpaceOnUse">
    <circle cx="2" cy="2" r="0.9" fill="#1a2330"/>
  </pattern>
  <style>
    @keyframes tick { from { transform: translateX(24px); } to { transform: translateX(-860px); } }
    .marquee { animation: tick 36s linear infinite; }
  </style>
</defs>
<rect width="940" height="580" rx="14" fill="#070b10" stroke="#1c2430"/>
<line x1="0" y1="44" x2="940" y2="44" stroke="#1c2430"/>
<line x1="0" y1="74" x2="940" y2="74" stroke="#1c2430"/>
<text x="24" y="28" font-size="14" font-weight="700" fill="#97fce4">MAXMONEYCASH-PERP</text><text x="202" y="28" font-size="11" fill="#55657a">CONTRIB-7D / USD</text><circle cx="324" cy="24" r="4" fill="#16c79a"><animate attributeName="opacity" values="1;0.2;1" dur="2s" repeatCount="indefinite"/></circle><text x="336" y="28" font-size="11" fill="#16c79a">LIVE</text><text x="916" y="28" text-anchor="end" font-size="11" fill="#9fb2c8">LAST <tspan fill="#97fce4" font-weight="700">565</tspan>   30D <tspan fill="#16c79a" font-weight="700">+238.7%</tspan>   365D VOL <tspan fill="#97fce4" font-weight="700">4,337</tspan>   FUNDING <tspan fill="#ffb454" font-weight="700">-$16,308</tspan></text><g clip-path="url(#tickclip)"><g class="marquee"><text x="0" y="64" font-size="11"><tspan fill="#9fb2c8">JS</tspan><tspan fill="#16c79a"> 29.0% ▲</tspan><tspan fill="#1c2430">   │   </tspan><tspan fill="#9fb2c8">TS</tspan><tspan fill="#16c79a"> 22.6% ▲</tspan><tspan fill="#1c2430">   │   </tspan><tspan fill="#9fb2c8">PY</tspan><tspan fill="#f6465d"> 22.6% ▼</tspan><tspan fill="#1c2430">   │   </tspan><tspan fill="#9fb2c8">VUE</tspan><tspan fill="#16c79a"> 6.5% ▲</tspan><tspan fill="#1c2430">   │   </tspan><tspan fill="#9fb2c8">IPYNB</tspan><tspan fill="#16c79a"> 6.5% ▲</tspan><tspan fill="#1c2430">   │   </tspan><tspan fill="#9fb2c8">RS</tspan><tspan fill="#f6465d"> 6.5% ▼</tspan><tspan fill="#1c2430">   │   </tspan><tspan fill="#9fb2c8">SH</tspan><tspan fill="#16c79a"> 3.2% ▲</tspan><tspan fill="#1c2430">   │   </tspan><tspan fill="#9fb2c8">C</tspan><tspan fill="#16c79a"> 3.2% ▲</tspan><tspan fill="#1c2430">   │   </tspan><tspan fill="#9fb2c8">JS</tspan><tspan fill="#16c79a"> 29.0% ▲</tspan><tspan fill="#1c2430">   │   </tspan><tspan fill="#9fb2c8">TS</tspan><tspan fill="#16c79a"> 22.6% ▲</tspan><tspan fill="#1c2430">   │   </tspan><tspan fill="#9fb2c8">PY</tspan><tspan fill="#f6465d"> 22.6% ▼</tspan><tspan fill="#1c2430">   │   </tspan><tspan fill="#9fb2c8">VUE</tspan><tspan fill="#16c79a"> 6.5% ▲</tspan><tspan fill="#1c2430">   │   </tspan><tspan fill="#9fb2c8">IPYNB</tspan><tspan fill="#16c79a"> 6.5% ▲</tspan><tspan fill="#1c2430">   │   </tspan><tspan fill="#9fb2c8">RS</tspan><tspan fill="#f6465d"> 6.5% ▼</tspan><tspan fill="#1c2430">   │   </tspan><tspan fill="#9fb2c8">SH</tspan><tspan fill="#16c79a"> 3.2% ▲</tspan><tspan fill="#1c2430">   │   </tspan><tspan fill="#9fb2c8">C</tspan><tspan fill="#16c79a"> 3.2% ▲</tspan><tspan fill="#1c2430">   │   </tspan></text></g></g><rect x="20" y="86" width="660" height="402" rx="8" fill="#0b1018" stroke="#1c2430"/><rect x="20" y="86" width="660" height="402" rx="8" fill="url(#dots)"/><line x1="28" y1="400.0" x2="624" y2="400.0" stroke="#141b26" stroke-dasharray="2 6"/><text x="634" y="404.0" font-size="9" fill="#55657a">0</text><line x1="28" y1="325.0" x2="624" y2="325.0" stroke="#141b26" stroke-dasharray="2 6"/><text x="634" y="329.0" font-size="9" fill="#55657a">150</text><line x1="28" y1="250.0" x2="624" y2="250.0" stroke="#141b26" stroke-dasharray="2 6"/><text x="634" y="254.0" font-size="9" fill="#55657a">299</text><line x1="28" y1="175.0" x2="624" y2="175.0" stroke="#141b26" stroke-dasharray="2 6"/><text x="634" y="179.0" font-size="9" fill="#55657a">449</text><line x1="28" y1="100.0" x2="624" y2="100.0" stroke="#141b26" stroke-dasharray="2 6"/><text x="634" y="104.0" font-size="9" fill="#55657a">599</text><polyline points="34.3,400.0 45.8,396.0 57.3,393.5 68.9,362.9 80.4,395.0 92.0,382.0 103.5,399.0 115.0,399.0 126.6,397.5 138.1,399.0 149.7,399.5 161.2,400.0 172.7,399.0 184.3,399.5 195.8,390.0 207.3,400.0 218.9,400.0 230.4,399.5 242.0,398.5 253.5,399.0 265.0,360.4 276.6,370.4 288.1,339.4 299.7,375.5 311.2,342.9 322.7,375.0 334.3,333.4 345.8,384.5 357.3,365.4 368.9,304.8 380.4,342.4 392.0,384.5 403.5,367.9 415.0,369.9 426.6,390.5 438.1,265.8 449.7,324.9 461.2,292.3 472.7,362.4 484.3,270.8 495.8,354.4 507.3,232.7 518.9,365.9 530.4,365.9 542.0,390.0 553.5,349.4 565.0,280.8 576.6,293.8 588.1,375.5 599.7,270.8 611.2,312.8 622.7,117.0" fill="none" stroke="#97fce4" stroke-width="1" opacity="0.35"/><line x1="34.3" y1="399.5" x2="34.3" y2="400.0" stroke="#f6465d" stroke-width="1"/><rect x="30.0" y="399.5" width="8.5" height="2.0" rx="1" fill="#f6465d"/><rect x="30.0" y="468.0" width="8.5" height="1.0" fill="#f6465d" opacity="0.4"/><line x1="45.8" y1="396.0" x2="45.8" y2="400.0" stroke="#16c79a" stroke-width="1"/><rect x="41.5" y="396.0" width="8.5" height="4.0" rx="1" fill="#16c79a"/><rect x="41.5" y="466.9" width="8.5" height="1.1" fill="#16c79a" opacity="0.4"/><line x1="57.3" y1="391.0" x2="57.3" y2="396.0" stroke="#16c79a" stroke-width="1"/><rect x="53.1" y="393.5" width="8.5" height="2.5" rx="1" fill="#16c79a"/><rect x="53.1" y="466.1" width="8.5" height="1.9" fill="#16c79a" opacity="0.4"/><line x1="68.9" y1="362.9" x2="68.9" y2="394.5" stroke="#16c79a" stroke-width="1"/><rect x="64.6" y="362.9" width="8.5" height="28.6" rx="1" fill="#16c79a"/><rect x="64.6" y="457.4" width="8.5" height="10.6" fill="#16c79a" opacity="0.4"/><line x1="80.4" y1="363.4" x2="80.4" y2="395.0" stroke="#f6465d" stroke-width="1"/><rect x="76.2" y="363.4" width="8.5" height="31.6" rx="1" fill="#f6465d"/><rect x="76.2" y="466.6" width="8.5" height="1.4" fill="#f6465d" opacity="0.4"/><line x1="92.0" y1="382.0" x2="92.0" y2="396.5" stroke="#16c79a" stroke-width="1"/><rect x="87.7" y="382.0" width="8.5" height="14.0" rx="1" fill="#16c79a"/><rect x="87.7" y="462.8" width="8.5" height="5.2" fill="#16c79a" opacity="0.4"/><line x1="103.5" y1="382.0" x2="103.5" y2="399.0" stroke="#f6465d" stroke-width="1"/><rect x="99.2" y="382.5" width="8.5" height="16.5" rx="1" fill="#f6465d"/><rect x="99.2" y="467.7" width="8.5" height="1.0" fill="#f6465d" opacity="0.4"/><line x1="115.0" y1="399.0" x2="115.0" y2="399.5" stroke="#16c79a" stroke-width="1"/><rect x="110.8" y="399.0" width="8.5" height="2.0" rx="1" fill="#16c79a"/><rect x="110.8" y="467.7" width="8.5" height="1.0" fill="#16c79a" opacity="0.4"/><line x1="126.6" y1="397.5" x2="126.6" y2="399.0" stroke="#16c79a" stroke-width="1"/><rect x="122.3" y="397.5" width="8.5" height="2.0" rx="1" fill="#16c79a"/><rect x="122.3" y="467.3" width="8.5" height="1.0" fill="#16c79a" opacity="0.4"/><line x1="138.1" y1="396.5" x2="138.1" y2="399.0" stroke="#f6465d" stroke-width="1"/><rect x="133.8" y="397.5" width="8.5" height="2.0" rx="1" fill="#f6465d"/><rect x="133.8" y="467.7" width="8.5" height="1.0" fill="#f6465d" opacity="0.4"/><line x1="149.7" y1="399.0" x2="149.7" y2="399.5" stroke="#f6465d" stroke-width="1"/><rect x="145.4" y="399.0" width="8.5" height="2.0" rx="1" fill="#f6465d"/><rect x="145.4" y="467.9" width="8.5" height="1.0" fill="#f6465d" opacity="0.4"/><line x1="161.2" y1="399.5" x2="161.2" y2="400.0" stroke="#f6465d" stroke-width="1"/><rect x="156.9" y="399.5" width="8.5" height="2.0" rx="1" fill="#f6465d"/><rect x="156.9" y="468.0" width="8.5" height="1.0" fill="#f6465d" opacity="0.4"/><line x1="172.7" y1="399.0" x2="172.7" y2="399.0" stroke="#16c79a" stroke-width="1"/><rect x="168.5" y="399.0" width="8.5" height="2.0" rx="1" fill="#16c79a"/><rect x="168.5" y="467.7" width="8.5" height="1.0" fill="#16c79a" opacity="0.4"/><line x1="184.3" y1="399.5" x2="184.3" y2="400.0" stroke="#16c79a" stroke-width="1"/><rect x="180.0" y="399.5" width="8.5" height="2.0" rx="1" fill="#16c79a"/><rect x="180.0" y="467.9" width="8.5" height="1.0" fill="#16c79a" opacity="0.4"/><line x1="195.8" y1="389.5" x2="195.8" y2="399.0" stroke="#16c79a" stroke-width="1"/><rect x="191.5" y="390.0" width="8.5" height="9.0" rx="1" fill="#16c79a"/><rect x="191.5" y="465.1" width="8.5" height="2.9" fill="#16c79a" opacity="0.4"/><line x1="207.3" y1="390.5" x2="207.3" y2="400.0" stroke="#f6465d" stroke-width="1"/><rect x="203.1" y="390.5" width="8.5" height="9.5" rx="1" fill="#f6465d"/><rect x="203.1" y="468.0" width="8.5" height="1.0" fill="#f6465d" opacity="0.4"/><line x1="218.9" y1="400.0" x2="218.9" y2="400.0" stroke="#16c79a" stroke-width="1"/><rect x="214.6" y="400.0" width="8.5" height="2.0" rx="1" fill="#16c79a"/><rect x="214.6" y="468.0" width="8.5" height="1.0" fill="#16c79a" opacity="0.4"/><line x1="230.4" y1="399.5" x2="230.4" y2="400.0" stroke="#16c79a" stroke-width="1"/><rect x="226.2" y="399.5" width="8.5" height="2.0" rx="1" fill="#16c79a"/><rect x="226.2" y="467.9" width="8.5" height="1.0" fill="#16c79a" opacity="0.4"/><line x1="242.0" y1="398.5" x2="242.0" y2="399.5" stroke="#16c79a" stroke-width="1"/><rect x="237.7" y="398.5" width="8.5" height="2.0" rx="1" fill="#16c79a"/><rect x="237.7" y="467.6" width="8.5" height="1.0" fill="#16c79a" opacity="0.4"/><line x1="253.5" y1="398.0" x2="253.5" y2="399.0" stroke="#16c79a" stroke-width="1"/><rect x="249.2" y="399.0" width="8.5" height="2.0" rx="1" fill="#16c79a"/><rect x="249.2" y="467.7" width="8.5" height="1.0" fill="#16c79a" opacity="0.4"/><line x1="265.0" y1="360.4" x2="265.0" y2="398.5" stroke="#16c79a" stroke-width="1"/><rect x="260.8" y="360.4" width="8.5" height="38.1" rx="1" fill="#16c79a"/><rect x="260.8" y="456.7" width="8.5" height="11.3" fill="#16c79a" opacity="0.4"/><line x1="276.6" y1="352.9" x2="276.6" y2="379.0" stroke="#f6465d" stroke-width="1"/><rect x="272.3" y="352.9" width="8.5" height="17.5" rx="1" fill="#f6465d"/><rect x="272.3" y="459.5" width="8.5" height="8.5" fill="#f6465d" opacity="0.4"/><line x1="288.1" y1="329.4" x2="288.1" y2="358.4" stroke="#16c79a" stroke-width="1"/><rect x="283.8" y="339.4" width="8.5" height="19.0" rx="1" fill="#16c79a"/><rect x="283.8" y="450.7" width="8.5" height="17.3" fill="#16c79a" opacity="0.4"/><line x1="299.7" y1="356.4" x2="299.7" y2="375.5" stroke="#f6465d" stroke-width="1"/><rect x="295.4" y="359.4" width="8.5" height="16.0" rx="1" fill="#f6465d"/><rect x="295.4" y="461.0" width="8.5" height="7.0" fill="#f6465d" opacity="0.4"/><line x1="311.2" y1="342.4" x2="311.2" y2="377.5" stroke="#16c79a" stroke-width="1"/><rect x="306.9" y="342.9" width="8.5" height="32.6" rx="1" fill="#16c79a"/><rect x="306.9" y="451.7" width="8.5" height="16.3" fill="#16c79a" opacity="0.4"/><line x1="322.7" y1="339.4" x2="322.7" y2="375.0" stroke="#f6465d" stroke-width="1"/><rect x="318.5" y="339.4" width="8.5" height="35.6" rx="1" fill="#f6465d"/><rect x="318.5" y="460.8" width="8.5" height="7.2" fill="#f6465d" opacity="0.4"/><line x1="334.3" y1="333.4" x2="334.3" y2="377.0" stroke="#16c79a" stroke-width="1"/><rect x="330.0" y="333.4" width="8.5" height="42.1" rx="1" fill="#16c79a"/><rect x="330.0" y="449.0" width="8.5" height="19.0" fill="#16c79a" opacity="0.4"/><line x1="345.8" y1="326.4" x2="345.8" y2="384.5" stroke="#f6465d" stroke-width="1"/><rect x="341.5" y="336.4" width="8.5" height="48.1" rx="1" fill="#f6465d"/><rect x="341.5" y="463.6" width="8.5" height="4.4" fill="#f6465d" opacity="0.4"/><line x1="357.3" y1="365.4" x2="357.3" y2="383.5" stroke="#16c79a" stroke-width="1"/><rect x="353.1" y="365.4" width="8.5" height="18.0" rx="1" fill="#16c79a"/><rect x="353.1" y="458.1" width="8.5" height="9.9" fill="#16c79a" opacity="0.4"/><line x1="368.9" y1="302.8" x2="368.9" y2="365.9" stroke="#16c79a" stroke-width="1"/><rect x="364.6" y="304.8" width="8.5" height="61.1" rx="1" fill="#16c79a"/><rect x="364.6" y="440.8" width="8.5" height="27.2" fill="#16c79a" opacity="0.4"/><line x1="380.4" y1="305.3" x2="380.4" y2="364.4" stroke="#f6465d" stroke-width="1"/><rect x="376.2" y="305.3" width="8.5" height="37.1" rx="1" fill="#f6465d"/><rect x="376.2" y="451.5" width="8.5" height="16.5" fill="#f6465d" opacity="0.4"/><line x1="392.0" y1="342.4" x2="392.0" y2="387.0" stroke="#f6465d" stroke-width="1"/><rect x="387.7" y="342.4" width="8.5" height="42.1" rx="1" fill="#f6465d"/><rect x="387.7" y="463.6" width="8.5" height="4.4" fill="#f6465d" opacity="0.4"/><line x1="403.5" y1="362.4" x2="403.5" y2="382.0" stroke="#16c79a" stroke-width="1"/><rect x="399.2" y="367.9" width="8.5" height="14.0" rx="1" fill="#16c79a"/><rect x="399.2" y="458.8" width="8.5" height="9.2" fill="#16c79a" opacity="0.4"/><line x1="415.0" y1="369.9" x2="415.0" y2="394.5" stroke="#16c79a" stroke-width="1"/><rect x="410.8" y="369.9" width="8.5" height="2.0" rx="1" fill="#16c79a"/><rect x="410.8" y="459.4" width="8.5" height="8.6" fill="#16c79a" opacity="0.4"/><line x1="426.6" y1="366.4" x2="426.6" y2="390.5" stroke="#f6465d" stroke-width="1"/><rect x="422.3" y="368.4" width="8.5" height="22.0" rx="1" fill="#f6465d"/><rect x="422.3" y="465.3" width="8.5" height="2.7" fill="#f6465d" opacity="0.4"/><line x1="438.1" y1="265.8" x2="438.1" y2="390.0" stroke="#16c79a" stroke-width="1"/><rect x="433.8" y="265.8" width="8.5" height="124.2" rx="1" fill="#16c79a"/><rect x="433.8" y="429.6" width="8.5" height="38.4" fill="#16c79a" opacity="0.4"/><line x1="449.7" y1="256.2" x2="449.7" y2="330.4" stroke="#f6465d" stroke-width="1"/><rect x="445.4" y="256.2" width="8.5" height="68.6" rx="1" fill="#f6465d"/><rect x="445.4" y="446.5" width="8.5" height="21.5" fill="#f6465d" opacity="0.4"/><line x1="461.2" y1="277.8" x2="461.2" y2="326.4" stroke="#16c79a" stroke-width="1"/><rect x="456.9" y="292.3" width="8.5" height="34.1" rx="1" fill="#16c79a"/><rect x="456.9" y="437.2" width="8.5" height="30.8" fill="#16c79a" opacity="0.4"/><line x1="472.7" y1="300.3" x2="472.7" y2="362.4" stroke="#f6465d" stroke-width="1"/><rect x="468.5" y="300.3" width="8.5" height="62.1" rx="1" fill="#f6465d"/><rect x="468.5" y="457.3" width="8.5" height="10.7" fill="#f6465d" opacity="0.4"/><line x1="484.3" y1="270.8" x2="484.3" y2="364.4" stroke="#16c79a" stroke-width="1"/><rect x="480.0" y="270.8" width="8.5" height="93.7" rx="1" fill="#16c79a"/><rect x="480.0" y="431.0" width="8.5" height="37.0" fill="#16c79a" opacity="0.4"/><line x1="495.8" y1="268.8" x2="495.8" y2="369.9" stroke="#f6465d" stroke-width="1"/><rect x="491.5" y="268.8" width="8.5" height="85.7" rx="1" fill="#f6465d"/><rect x="491.5" y="455.0" width="8.5" height="13.0" fill="#f6465d" opacity="0.4"/><line x1="507.3" y1="211.2" x2="507.3" y2="294.8" stroke="#16c79a" stroke-width="1"/><rect x="503.1" y="232.7" width="8.5" height="62.1" rx="1" fill="#16c79a"/><rect x="503.1" y="420.2" width="8.5" height="47.8" fill="#16c79a" opacity="0.4"/><line x1="518.9" y1="294.3" x2="518.9" y2="370.4" stroke="#f6465d" stroke-width="1"/><rect x="514.6" y="294.3" width="8.5" height="71.6" rx="1" fill="#f6465d"/><rect x="514.6" y="458.3" width="8.5" height="9.7" fill="#f6465d" opacity="0.4"/><line x1="530.4" y1="359.4" x2="530.4" y2="370.4" stroke="#f6465d" stroke-width="1"/><rect x="526.2" y="364.4" width="8.5" height="2.0" rx="1" fill="#f6465d"/><rect x="526.2" y="458.3" width="8.5" height="9.7" fill="#f6465d" opacity="0.4"/><line x1="542.0" y1="367.4" x2="542.0" y2="390.0" stroke="#f6465d" stroke-width="1"/><rect x="537.7" y="367.4" width="8.5" height="22.5" rx="1" fill="#f6465d"/><rect x="537.7" y="465.1" width="8.5" height="2.9" fill="#f6465d" opacity="0.4"/><line x1="553.5" y1="347.9" x2="553.5" y2="390.0" stroke="#16c79a" stroke-width="1"/><rect x="549.2" y="349.4" width="8.5" height="40.6" rx="1" fill="#16c79a"/><rect x="549.2" y="453.5" width="8.5" height="14.5" fill="#16c79a" opacity="0.4"/><line x1="565.0" y1="280.8" x2="565.0" y2="354.4" stroke="#16c79a" stroke-width="1"/><rect x="560.8" y="280.8" width="8.5" height="68.6" rx="1" fill="#16c79a"/><rect x="560.8" y="433.9" width="8.5" height="34.1" fill="#16c79a" opacity="0.4"/><line x1="576.6" y1="244.2" x2="576.6" y2="293.8" stroke="#f6465d" stroke-width="1"/><rect x="572.3" y="244.2" width="8.5" height="49.6" rx="1" fill="#f6465d"/><rect x="572.3" y="437.6" width="8.5" height="30.4" fill="#f6465d" opacity="0.4"/><line x1="588.1" y1="330.4" x2="588.1" y2="375.5" stroke="#f6465d" stroke-width="1"/><rect x="583.8" y="330.4" width="8.5" height="45.1" rx="1" fill="#f6465d"/><rect x="583.8" y="461.0" width="8.5" height="7.0" fill="#f6465d" opacity="0.4"/><line x1="599.7" y1="270.8" x2="599.7" y2="375.0" stroke="#16c79a" stroke-width="1"/><rect x="595.4" y="270.8" width="8.5" height="104.2" rx="1" fill="#16c79a"/><rect x="595.4" y="431.0" width="8.5" height="37.0" fill="#16c79a" opacity="0.4"/><line x1="611.2" y1="267.8" x2="611.2" y2="347.9" stroke="#f6465d" stroke-width="1"/><rect x="606.9" y="271.3" width="8.5" height="41.6" rx="1" fill="#f6465d"/><rect x="606.9" y="443.1" width="8.5" height="24.9" fill="#f6465d" opacity="0.4"/><line x1="622.7" y1="117.0" x2="622.7" y2="117.0" stroke="#16c79a" stroke-width="1"/><rect x="618.5" y="117.0" width="8.5" height="2.0" rx="1" fill="#16c79a"/><rect x="618.5" y="412.0" width="8.5" height="56.0" fill="#16c79a" opacity="0.4"/><line x1="28" y1="117.0" x2="624" y2="117.0" stroke="#ffb454" stroke-width="1" stroke-dasharray="6 4"/><rect x="628" y="108.0" width="50" height="17" rx="3" fill="#ffb454"/><text x="653" y="121.0" text-anchor="middle" font-size="10" font-weight="700" fill="#070b10">565</text><text x="30.0" y="482" font-size="9" fill="#55657a">JUN</text><text x="76.2" y="482" font-size="9" fill="#55657a">JUL</text><text x="122.3" y="482" font-size="9" fill="#55657a">AUG</text><text x="168.5" y="482" font-size="9" fill="#55657a">SEP</text><text x="214.6" y="482" font-size="9" fill="#55657a">OCT</text><text x="260.8" y="482" font-size="9" fill="#55657a">NOV</text><text x="306.9" y="482" font-size="9" fill="#55657a">DEC</text><text x="353.1" y="482" font-size="9" fill="#55657a">JAN</text><text x="399.2" y="482" font-size="9" fill="#55657a">FEB</text><text x="445.4" y="482" font-size="9" fill="#55657a">MAR</text><text x="491.5" y="482" font-size="9" fill="#55657a">APR</text><text x="537.7" y="482" font-size="9" fill="#55657a">MAY</text><rect x="700" y="86" width="216" height="402" rx="8" fill="#0b1018" stroke="#1c2430"/><text x="714" y="110" font-size="11" letter-spacing="2" fill="#9fb2c8">ORDER BOOK</text><text x="902" y="110" text-anchor="end" font-size="9" fill="#55657a">AGENTS × LANGS</text><rect x="900.5" y="124" width="1.5" height="17" fill="#f6465d" opacity="0.16"/><text x="714" y="136" font-size="10" fill="#f6465d">KIMI</text><text x="902" y="136" text-anchor="end" font-size="10" fill="#9fb2c8">$74 <tspan fill="#55657a">· 419.6M</tspan></text><rect x="893.5" y="146" width="8.5" height="17" fill="#f6465d" opacity="0.16"/><text x="714" y="158" font-size="10" fill="#f6465d">CURSOR</text><text x="902" y="158" text-anchor="end" font-size="10" fill="#9fb2c8">$424 <tspan fill="#55657a">· 189.1M</tspan></text><rect x="885.1" y="168" width="16.9" height="17" fill="#f6465d" opacity="0.16"/><text x="714" y="180" font-size="10" fill="#f6465d">DROID</text><text x="902" y="180" text-anchor="end" font-size="10" fill="#9fb2c8">$841 <tspan fill="#55657a">· 1.01B</tspan></text><rect x="864.7" y="190" width="37.3" height="17" fill="#f6465d" opacity="0.16"/><text x="714" y="202" font-size="10" fill="#f6465d">CODEX</text><text x="902" y="202" text-anchor="end" font-size="10" fill="#9fb2c8">$1,861 <tspan fill="#55657a">· 5.22B</tspan></text><rect x="864.7" y="212" width="37.3" height="17" fill="#f6465d" opacity="0.16"/><text x="714" y="224" font-size="10" fill="#f6465d">OPENCODE</text><text x="902" y="224" text-anchor="end" font-size="10" fill="#9fb2c8">$1,861 <tspan fill="#55657a">· 0</tspan></text><rect x="864.7" y="234" width="37.3" height="17" fill="#f6465d" opacity="0.16"/><text x="714" y="246" font-size="10" fill="#f6465d">GROK</text><text x="902" y="246" text-anchor="end" font-size="10" fill="#9fb2c8">$1,861 <tspan fill="#55657a">· 22.2M</tspan></text><rect x="714.0" y="256" width="188.0" height="17" fill="#f6465d" opacity="0.16"/><text x="714" y="268" font-size="10" fill="#f6465d">CLAUDE</text><text x="902" y="268" text-anchor="end" font-size="10" fill="#9fb2c8">$9,386 <tspan fill="#55657a">· 11.1B</tspan></text><line x1="710" y1="281" x2="906" y2="281" stroke="#1c2430"/><text x="808.0" y="297" text-anchor="middle" font-size="11" font-weight="700" fill="#ffb454">MARK 21.5B TOK</text><line x1="710" y1="305" x2="906" y2="305" stroke="#1c2430"/><rect x="714" y="318" width="188.0" height="17" fill="#16c79a" opacity="0.16"/><text x="714" y="330" font-size="10" fill="#16c79a">JS</text><text x="902" y="330" text-anchor="end" font-size="10" fill="#9fb2c8">9 repos</text><rect x="714" y="340" width="146.2" height="17" fill="#16c79a" opacity="0.16"/><text x="714" y="352" font-size="10" fill="#16c79a">TS</text><text x="902" y="352" text-anchor="end" font-size="10" fill="#9fb2c8">7 repos</text><rect x="714" y="362" width="146.2" height="17" fill="#16c79a" opacity="0.16"/><text x="714" y="374" font-size="10" fill="#16c79a">PY</text><text x="902" y="374" text-anchor="end" font-size="10" fill="#9fb2c8">7 repos</text><rect x="714" y="384" width="41.8" height="17" fill="#16c79a" opacity="0.16"/><text x="714" y="396" font-size="10" fill="#16c79a">VUE</text><text x="902" y="396" text-anchor="end" font-size="10" fill="#9fb2c8">2 repos</text><rect x="714" y="406" width="41.8" height="17" fill="#16c79a" opacity="0.16"/><text x="714" y="418" font-size="10" fill="#16c79a">IPYNB</text><text x="902" y="418" text-anchor="end" font-size="10" fill="#9fb2c8">2 repos</text><line x1="710" y1="434" x2="906" y2="434" stroke="#1c2430"/><text x="714" y="448" font-size="10" letter-spacing="2" fill="#55657a">RECENT FILLS</text><text x="714" y="464" font-size="9.5" fill="#16c79a">BUY <tspan fill="#9fb2c8">maxmoneycash</tspan></text><text x="902" y="464" text-anchor="end" font-size="9.5" fill="#55657a">1c · 1m</text><text x="714" y="482" font-size="9.5" fill="#16c79a">BUY <tspan fill="#9fb2c8">maxmoneycash</tspan></text><text x="902" y="482" text-anchor="end" font-size="9.5" fill="#55657a">1c · 3h</text><text x="714" y="500" font-size="9.5" fill="#16c79a">BUY <tspan fill="#9fb2c8">maxmoneycash</tspan></text><text x="902" y="500" text-anchor="end" font-size="9.5" fill="#55657a">1c · 4h</text><text x="24" y="516" font-size="11" fill="#55657a">ATH WEEK <tspan fill="#97fce4" font-weight="700">391</tspan>   ACTIVE DAYS <tspan fill="#97fce4" font-weight="700">210/365</tspan>   STREAK <tspan fill="#16c79a" font-weight="700">7D</tspan>   PEAK STREAK <tspan fill="#16c79a" font-weight="700">23D</tspan>   30D VOL <tspan fill="#97fce4" font-weight="700">1182</tspan>   1W CANDLES ON A 7D ROLLING INDEX</text>
</svg>