<svg xmlns="http://www.w3.org/2000/svg" viewBox="0 0 940 420" width="940" font-family="ui-monospace,'JetBrains Mono','SF Mono',Menlo,Consolas,monospace">
<defs>
  <pattern id="dots" width="14" height="14" patternUnits="userSpaceOnUse">
    <circle cx="2" cy="2" r="1" fill="#202624"/>
  </pattern>
</defs>
<rect width="940" height="420" rx="14" fill="#0a0c0b" stroke="#26292b"/>
<text x="34" y="36" font-size="21" font-weight="700" fill="#e8eae9">$MAXMONEYCASH</text><text x="34" y="54" font-size="11" fill="#5c625f">maxmoneycash · github</text><text x="906" y="36" text-anchor="end" font-size="26" font-weight="700" fill="#e8eae9">1,803.00</text><rect x="820" y="42" width="86" height="20" rx="10" fill="#22c55e" fill-opacity="0.14"/><text x="863" y="56" text-anchor="middle" font-size="12" font-weight="600" fill="#22c55e">▲ 330.7%</text><rect x="34" y="80" width="872" height="282" rx="12" fill="#0a0c0b" stroke="#26292b"/><rect x="34" y="80" width="872" height="282" rx="12" fill="url(#dots)"/><line x1="44" y1="354.0" x2="896" y2="354.0" stroke="#202624" stroke-dasharray="3 3"/><text x="900" y="357.0" text-anchor="end" font-size="9" fill="#5c625f">0</text><line x1="44" y1="287.5" x2="896" y2="287.5" stroke="#202624" stroke-dasharray="3 3"/><text x="900" y="290.5" text-anchor="end" font-size="9" fill="#5c625f">486</text><line x1="44" y1="221.0" x2="896" y2="221.0" stroke="#202624" stroke-dasharray="3 3"/><text x="900" y="224.0" text-anchor="end" font-size="9" fill="#5c625f">971</text><line x1="44" y1="154.5" x2="896" y2="154.5" stroke="#202624" stroke-dasharray="3 3"/><text x="900" y="157.5" text-anchor="end" font-size="9" fill="#5c625f">1,457</text><line x1="44" y1="88.0" x2="896" y2="88.0" stroke="#202624" stroke-dasharray="3 3"/><text x="900" y="91.0" text-anchor="end" font-size="9" fill="#5c625f">1,943</text><polyline points="48.5,354.0 64.9,352.9 81.3,352.2 97.7,343.9 114.0,352.6 130.4,349.1 146.8,353.7 163.2,353.7 179.6,353.3 196.0,353.7 212.4,353.9 228.7,354.0 245.1,353.7 261.5,353.9 277.9,351.3 294.3,354.0 310.7,354.0 327.0,353.9 343.4,353.6 359.8,353.7 376.2,343.2 392.6,345.9 409.0,337.4 425.4,347.3 441.7,338.4 458.1,347.2 474.5,335.8 490.9,349.8 507.3,344.6 523.7,328.0 540.0,338.3 556.4,349.8 572.8,345.2 589.2,345.8 605.6,351.4 622.0,317.3 638.4,333.5 654.7,324.6 671.1,343.7 687.5,318.7 703.9,341.5 720.3,308.3 736.7,344.7 753.0,344.7 769.4,351.3 785.8,340.2 802.2,321.4 818.6,325.0 835.0,347.3 851.4,318.7 867.7,330.2 884.1,107.2" fill="none" stroke="#e8eae9" stroke-width="1" opacity="0.12"/><line x1="48.5" y1="354.0" x2="48.5" y2="354.0" stroke="#22c55e" stroke-width="1"/><rect x="44.0" y="354.0" width="9.0" height="2.0" rx="1.5" fill="#22c55e"/><line x1="64.9" y1="352.9" x2="64.9" y2="354.0" stroke="#22c55e" stroke-width="1"/><rect x="60.4" y="352.9" width="9.0" height="2.0" rx="1.5" fill="#22c55e"/><line x1="81.3" y1="351.5" x2="81.3" y2="352.9" stroke="#22c55e" stroke-width="1"/><rect x="76.8" y="352.2" width="9.0" height="2.0" rx="1.5" fill="#22c55e"/><line x1="97.7" y1="343.9" x2="97.7" y2="352.5" stroke="#22c55e" stroke-width="1"/><rect x="93.2" y="343.9" width="9.0" height="7.8" rx="1.5" fill="#22c55e"/><line x1="114.0" y1="344.0" x2="114.0" y2="352.6" stroke="#e5484d" stroke-width="1"/><rect x="109.5" y="344.0" width="9.0" height="8.6" rx="1.5" fill="#e5484d"/><line x1="130.4" y1="349.1" x2="130.4" y2="353.0" stroke="#22c55e" stroke-width="1"/><rect x="125.9" y="349.1" width="9.0" height="3.8" rx="1.5" fill="#22c55e"/><line x1="146.8" y1="349.1" x2="146.8" y2="353.7" stroke="#e5484d" stroke-width="1"/><rect x="142.3" y="349.2" width="9.0" height="4.5" rx="1.5" fill="#e5484d"/><line x1="163.2" y1="353.7" x2="163.2" y2="353.9" stroke="#22c55e" stroke-width="1"/><rect x="158.7" y="353.7" width="9.0" height="2.0" rx="1.5" fill="#22c55e"/><line x1="179.6" y1="353.3" x2="179.6" y2="353.7" stroke="#22c55e" stroke-width="1"/><rect x="175.1" y="353.3" width="9.0" height="2.0" rx="1.5" fill="#22c55e"/><line x1="196.0" y1="353.0" x2="196.0" y2="353.7" stroke="#e5484d" stroke-width="1"/><rect x="191.5" y="353.3" width="9.0" height="2.0" rx="1.5" fill="#e5484d"/><line x1="212.4" y1="353.7" x2="212.4" y2="353.9" stroke="#e5484d" stroke-width="1"/><rect x="207.8" y="353.7" width="9.0" height="2.0" rx="1.5" fill="#e5484d"/><line x1="228.7" y1="353.9" x2="228.7" y2="354.0" stroke="#e5484d" stroke-width="1"/><rect x="224.2" y="353.9" width="9.0" height="2.0" rx="1.5" fill="#e5484d"/><line x1="245.1" y1="353.7" x2="245.1" y2="353.7" stroke="#22c55e" stroke-width="1"/><rect x="240.6" y="353.7" width="9.0" height="2.0" rx="1.5" fill="#22c55e"/><line x1="261.5" y1="353.9" x2="261.5" y2="354.0" stroke="#22c55e" stroke-width="1"/><rect x="257.0" y="353.9" width="9.0" height="2.0" rx="1.5" fill="#22c55e"/><line x1="277.9" y1="351.1" x2="277.9" y2="353.7" stroke="#22c55e" stroke-width="1"/><rect x="273.4" y="351.3" width="9.0" height="2.5" rx="1.5" fill="#22c55e"/><line x1="294.3" y1="351.4" x2="294.3" y2="354.0" stroke="#e5484d" stroke-width="1"/><rect x="289.8" y="351.4" width="9.0" height="2.6" rx="1.5" fill="#e5484d"/><line x1="310.7" y1="354.0" x2="310.7" y2="354.0" stroke="#22c55e" stroke-width="1"/><rect x="306.2" y="354.0" width="9.0" height="2.0" rx="1.5" fill="#22c55e"/><line x1="327.0" y1="353.9" x2="327.0" y2="354.0" stroke="#22c55e" stroke-width="1"/><rect x="322.5" y="353.9" width="9.0" height="2.0" rx="1.5" fill="#22c55e"/><line x1="343.4" y1="353.6" x2="343.4" y2="353.9" stroke="#22c55e" stroke-width="1"/><rect x="338.9" y="353.6" width="9.0" height="2.0" rx="1.5" fill="#22c55e"/><line x1="359.8" y1="353.5" x2="359.8" y2="353.7" stroke="#22c55e" stroke-width="1"/><rect x="355.3" y="353.7" width="9.0" height="2.0" rx="1.5" fill="#22c55e"/><line x1="376.2" y1="343.2" x2="376.2" y2="353.6" stroke="#22c55e" stroke-width="1"/><rect x="371.7" y="343.2" width="9.0" height="10.4" rx="1.5" fill="#22c55e"/><line x1="392.6" y1="341.1" x2="392.6" y2="348.3" stroke="#e5484d" stroke-width="1"/><rect x="388.1" y="341.1" width="9.0" height="4.8" rx="1.5" fill="#e5484d"/><line x1="409.0" y1="334.7" x2="409.0" y2="342.6" stroke="#22c55e" stroke-width="1"/><rect x="404.5" y="337.4" width="9.0" height="5.2" rx="1.5" fill="#22c55e"/><line x1="425.4" y1="342.1" x2="425.4" y2="347.3" stroke="#e5484d" stroke-width="1"/><rect x="420.8" y="342.9" width="9.0" height="4.4" rx="1.5" fill="#e5484d"/><line x1="441.7" y1="338.3" x2="441.7" y2="347.8" stroke="#22c55e" stroke-width="1"/><rect x="437.2" y="338.4" width="9.0" height="8.9" rx="1.5" fill="#22c55e"/><line x1="458.1" y1="337.4" x2="458.1" y2="347.2" stroke="#e5484d" stroke-width="1"/><rect x="453.6" y="337.4" width="9.0" height="9.7" rx="1.5" fill="#e5484d"/><line x1="474.5" y1="335.8" x2="474.5" y2="347.7" stroke="#22c55e" stroke-width="1"/><rect x="470.0" y="335.8" width="9.0" height="11.5" rx="1.5" fill="#22c55e"/><line x1="490.9" y1="333.9" x2="490.9" y2="349.8" stroke="#e5484d" stroke-width="1"/><rect x="486.4" y="336.6" width="9.0" height="13.1" rx="1.5" fill="#e5484d"/><line x1="507.3" y1="344.6" x2="507.3" y2="349.5" stroke="#22c55e" stroke-width="1"/><rect x="502.8" y="344.6" width="9.0" height="4.9" rx="1.5" fill="#22c55e"/><line x1="523.7" y1="327.4" x2="523.7" y2="344.7" stroke="#22c55e" stroke-width="1"/><rect x="519.2" y="328.0" width="9.0" height="16.7" rx="1.5" fill="#22c55e"/><line x1="540.0" y1="328.1" x2="540.0" y2="344.3" stroke="#e5484d" stroke-width="1"/><rect x="535.5" y="328.1" width="9.0" height="10.1" rx="1.5" fill="#e5484d"/><line x1="556.4" y1="338.3" x2="556.4" y2="350.4" stroke="#e5484d" stroke-width="1"/><rect x="551.9" y="338.3" width="9.0" height="11.5" rx="1.5" fill="#e5484d"/><line x1="572.8" y1="343.7" x2="572.8" y2="349.1" stroke="#22c55e" stroke-width="1"/><rect x="568.3" y="345.2" width="9.0" height="3.8" rx="1.5" fill="#22c55e"/><line x1="589.2" y1="345.8" x2="589.2" y2="352.5" stroke="#22c55e" stroke-width="1"/><rect x="584.7" y="345.8" width="9.0" height="2.0" rx="1.5" fill="#22c55e"/><line x1="605.6" y1="344.8" x2="605.6" y2="351.4" stroke="#e5484d" stroke-width="1"/><rect x="601.1" y="345.4" width="9.0" height="6.0" rx="1.5" fill="#e5484d"/><line x1="622.0" y1="317.3" x2="622.0" y2="351.3" stroke="#22c55e" stroke-width="1"/><rect x="617.5" y="317.3" width="9.0" height="34.0" rx="1.5" fill="#22c55e"/><line x1="638.4" y1="314.7" x2="638.4" y2="335.0" stroke="#e5484d" stroke-width="1"/><rect x="633.8" y="314.7" width="9.0" height="18.8" rx="1.5" fill="#e5484d"/><line x1="654.7" y1="320.6" x2="654.7" y2="333.9" stroke="#22c55e" stroke-width="1"/><rect x="650.2" y="324.6" width="9.0" height="9.3" rx="1.5" fill="#22c55e"/><line x1="671.1" y1="326.8" x2="671.1" y2="343.7" stroke="#e5484d" stroke-width="1"/><rect x="666.6" y="326.8" width="9.0" height="17.0" rx="1.5" fill="#e5484d"/><line x1="687.5" y1="318.7" x2="687.5" y2="344.3" stroke="#22c55e" stroke-width="1"/><rect x="683.0" y="318.7" width="9.0" height="25.6" rx="1.5" fill="#22c55e"/><line x1="703.9" y1="318.1" x2="703.9" y2="345.8" stroke="#e5484d" stroke-width="1"/><rect x="699.4" y="318.1" width="9.0" height="23.4" rx="1.5" fill="#e5484d"/><line x1="720.3" y1="302.4" x2="720.3" y2="325.3" stroke="#22c55e" stroke-width="1"/><rect x="715.8" y="308.3" width="9.0" height="17.0" rx="1.5" fill="#22c55e"/><line x1="736.7" y1="325.1" x2="736.7" y2="345.9" stroke="#e5484d" stroke-width="1"/><rect x="732.2" y="325.1" width="9.0" height="19.6" rx="1.5" fill="#e5484d"/><line x1="753.0" y1="342.9" x2="753.0" y2="345.9" stroke="#e5484d" stroke-width="1"/><rect x="748.5" y="344.3" width="9.0" height="2.0" rx="1.5" fill="#e5484d"/><line x1="769.4" y1="345.1" x2="769.4" y2="351.3" stroke="#e5484d" stroke-width="1"/><rect x="764.9" y="345.1" width="9.0" height="6.2" rx="1.5" fill="#e5484d"/><line x1="785.8" y1="339.8" x2="785.8" y2="351.3" stroke="#22c55e" stroke-width="1"/><rect x="781.3" y="340.2" width="9.0" height="11.1" rx="1.5" fill="#22c55e"/><line x1="802.2" y1="321.4" x2="802.2" y2="341.5" stroke="#22c55e" stroke-width="1"/><rect x="797.7" y="321.4" width="9.0" height="18.8" rx="1.5" fill="#22c55e"/><line x1="818.6" y1="311.4" x2="818.6" y2="325.0" stroke="#e5484d" stroke-width="1"/><rect x="814.1" y="311.4" width="9.0" height="13.6" rx="1.5" fill="#e5484d"/><line x1="835.0" y1="335.0" x2="835.0" y2="347.3" stroke="#e5484d" stroke-width="1"/><rect x="830.5" y="335.0" width="9.0" height="12.3" rx="1.5" fill="#e5484d"/><line x1="851.4" y1="318.7" x2="851.4" y2="347.2" stroke="#22c55e" stroke-width="1"/><rect x="846.8" y="318.7" width="9.0" height="28.5" rx="1.5" fill="#22c55e"/><line x1="867.7" y1="317.9" x2="867.7" y2="339.8" stroke="#e5484d" stroke-width="1"/><rect x="863.2" y="318.8" width="9.0" height="11.4" rx="1.5" fill="#e5484d"/><line x1="884.1" y1="103.1" x2="884.1" y2="169.0" stroke="#22c55e" stroke-width="1"/><rect x="879.6" y="107.2" width="9.0" height="61.9" rx="1.5" fill="#22c55e"/><line x1="44" y1="107.2" x2="896" y2="107.2" stroke="#22c55e" stroke-width="1" stroke-dasharray="3 3" opacity="0.7"/><rect x="852" y="98.2" width="48" height="18" rx="3" fill="#22c55e"/><text x="876" y="111.2" text-anchor="middle" font-size="10" font-weight="700" fill="#0a0c0b">1803</text><text x="44.0" y="354" font-size="9" fill="#5c625f">JUN</text><text x="109.5" y="354" font-size="9" fill="#5c625f">JUL</text><text x="175.1" y="354" font-size="9" fill="#5c625f">AUG</text><text x="240.6" y="354" font-size="9" fill="#5c625f">SEP</text><text x="306.2" y="354" font-size="9" fill="#5c625f">OCT</text><text x="371.7" y="354" font-size="9" fill="#5c625f">NOV</text><text x="437.2" y="354" font-size="9" fill="#5c625f">DEC</text><text x="502.8" y="354" font-size="9" fill="#5c625f">JAN</text><text x="568.3" y="354" font-size="9" fill="#5c625f">FEB</text><text x="633.8" y="354" font-size="9" fill="#5c625f">MAR</text><text x="699.4" y="354" font-size="9" fill="#5c625f">APR</text><text x="764.9" y="354" font-size="9" fill="#5c625f">MAY</text><text x="34" y="398" font-size="10" fill="#5c625f">52W · COMMIT VELOCITY</text><text x="906" y="398" text-anchor="end" font-size="10" fill="#5c625f">commit-markets</text><text x="470.0" y="398" text-anchor="middle" font-size="10" fill="#e8eae9">ATH WEEK <tspan fill="#22c55e" font-weight="700">1701</tspan>   ACTIVE DAYS <tspan fill="#22c55e" font-weight="700">212/365</tspan>   STREAK <tspan fill="#22c55e" font-weight="700">0D</tspan>   PEAK STREAK <tspan fill="#22c55e" font-weight="700">23D</tspan>   365D VOL <tspan fill="#22c55e" font-weight="700">5,646</tspan></text>
</svg>