<svg xmlns="http://www.w3.org/2000/svg" viewBox="0 0 940 580" width="940" font-family="ui-monospace,'JetBrains Mono','SF Mono',Menlo,Consolas,monospace">
<defs>
  <clipPath id="tickclip"><rect x="24" y="44" width="892" height="30"/></clipPath>
  <pattern id="dots" width="22" height="22" patternUnits="userSpaceOnUse">
    <circle cx="2" cy="2" r="0.9" fill="#1a2330"/>
  </pattern>
  <style>
    @keyframes tick { from { transform: translateX(24px); } to { transform: translateX(-860px); } }
    .marquee { animation: tick 36s linear infinite; }
  </style>
</defs>
<rect width="940" height="580" rx="14" fill="#070b10" stroke="#1c2430"/>
<line x1="0" y1="44" x2="940" y2="44" stroke="#1c2430"/>
<line x1="0" y1="74" x2="940" y2="74" stroke="#1c2430"/>
<text x="24" y="28" font-size="14" font-weight="700" fill="#97fce4">MAXMONEYCASH-PERP</text><text x="202" y="28" font-size="11" fill="#55657a">CONTRIB-7D / USD</text><circle cx="324" cy="24" r="4" fill="#16c79a"><animate attributeName="opacity" values="1;0.2;1" dur="2s" repeatCount="indefinite"/></circle><text x="336" y="28" font-size="11" fill="#16c79a">LIVE</text><text x="916" y="28" text-anchor="end" font-size="11" fill="#9fb2c8">LAST <tspan fill="#97fce4" font-weight="700">1353</tspan>   30D <tspan fill="#16c79a" font-weight="700">+321.0%</tspan>   365D VOL <tspan fill="#97fce4" font-weight="700">5,135</tspan>   FUNDING <tspan fill="#ffb454" font-weight="700">-$16,308</tspan></text><g clip-path="url(#tickclip)"><g class="marquee"><text x="0" y="64" font-size="11"><tspan fill="#9fb2c8">JS</tspan><tspan fill="#16c79a"> 29.0% ▲</tspan><tspan fill="#1c2430">   │   </tspan><tspan fill="#9fb2c8">TS</tspan><tspan fill="#16c79a"> 22.6% ▲</tspan><tspan fill="#1c2430">   │   </tspan><tspan fill="#9fb2c8">PY</tspan><tspan fill="#f6465d"> 22.6% ▼</tspan><tspan fill="#1c2430">   │   </tspan><tspan fill="#9fb2c8">VUE</tspan><tspan fill="#16c79a"> 6.5% ▲</tspan><tspan fill="#1c2430">   │   </tspan><tspan fill="#9fb2c8">IPYNB</tspan><tspan fill="#16c79a"> 6.5% ▲</tspan><tspan fill="#1c2430">   │   </tspan><tspan fill="#9fb2c8">RS</tspan><tspan fill="#f6465d"> 6.5% ▼</tspan><tspan fill="#1c2430">   │   </tspan><tspan fill="#9fb2c8">SH</tspan><tspan fill="#16c79a"> 3.2% ▲</tspan><tspan fill="#1c2430">   │   </tspan><tspan fill="#9fb2c8">C</tspan><tspan fill="#16c79a"> 3.2% ▲</tspan><tspan fill="#1c2430">   │   </tspan><tspan fill="#9fb2c8">JS</tspan><tspan fill="#16c79a"> 29.0% ▲</tspan><tspan fill="#1c2430">   │   </tspan><tspan fill="#9fb2c8">TS</tspan><tspan fill="#16c79a"> 22.6% ▲</tspan><tspan fill="#1c2430">   │   </tspan><tspan fill="#9fb2c8">PY</tspan><tspan fill="#f6465d"> 22.6% ▼</tspan><tspan fill="#1c2430">   │   </tspan><tspan fill="#9fb2c8">VUE</tspan><tspan fill="#16c79a"> 6.5% ▲</tspan><tspan fill="#1c2430">   │   </tspan><tspan fill="#9fb2c8">IPYNB</tspan><tspan fill="#16c79a"> 6.5% ▲</tspan><tspan fill="#1c2430">   │   </tspan><tspan fill="#9fb2c8">RS</tspan><tspan fill="#f6465d"> 6.5% ▼</tspan><tspan fill="#1c2430">   │   </tspan><tspan fill="#9fb2c8">SH</tspan><tspan fill="#16c79a"> 3.2% ▲</tspan><tspan fill="#1c2430">   │   </tspan><tspan fill="#9fb2c8">C</tspan><tspan fill="#16c79a"> 3.2% ▲</tspan><tspan fill="#1c2430">   │   </tspan></text></g></g><rect x="20" y="86" width="660" height="402" rx="8" fill="#0b1018" stroke="#1c2430"/><rect x="20" y="86" width="660" height="402" rx="8" fill="url(#dots)"/><line x1="28" y1="400.0" x2="624" y2="400.0" stroke="#141b26" stroke-dasharray="2 6"/><text x="634" y="404.0" font-size="9" fill="#55657a">0</text><line x1="28" y1="325.0" x2="624" y2="325.0" stroke="#141b26" stroke-dasharray="2 6"/><text x="634" y="329.0" font-size="9" fill="#55657a">359</text><line x1="28" y1="250.0" x2="624" y2="250.0" stroke="#141b26" stroke-dasharray="2 6"/><text x="634" y="254.0" font-size="9" fill="#55657a">717</text><line x1="28" y1="175.0" x2="624" y2="175.0" stroke="#141b26" stroke-dasharray="2 6"/><text x="634" y="179.0" font-size="9" fill="#55657a">1,076</text><line x1="28" y1="100.0" x2="624" y2="100.0" stroke="#141b26" stroke-dasharray="2 6"/><text x="634" y="104.0" font-size="9" fill="#55657a">1,434</text><polyline points="34.3,400.0 45.8,398.3 57.3,397.3 68.9,384.5 80.4,397.9 92.0,392.5 103.5,399.6 115.0,399.6 126.6,399.0 138.1,399.6 149.7,399.8 161.2,400.0 172.7,399.6 184.3,399.8 195.8,395.8 207.3,400.0 218.9,400.0 230.4,399.8 242.0,399.4 253.5,399.6 265.0,383.5 276.6,387.7 288.1,374.7 299.7,389.8 311.2,376.2 322.7,389.5 334.3,372.2 345.8,393.5 357.3,385.6 368.9,360.3 380.4,375.9 392.0,393.5 403.5,386.6 415.0,387.4 426.6,396.0 438.1,343.9 449.7,368.6 461.2,355.0 472.7,384.3 484.3,346.0 495.8,381.0 507.3,330.1 518.9,385.8 530.4,385.8 542.0,395.8 553.5,378.9 565.0,350.2 576.6,355.7 588.1,389.8 599.7,346.0 611.2,363.6 622.7,117.0" fill="none" stroke="#97fce4" stroke-width="1" opacity="0.35"/><line x1="34.3" y1="399.8" x2="34.3" y2="400.0" stroke="#f6465d" stroke-width="1"/><rect x="30.0" y="399.8" width="8.5" height="2.0" rx="1" fill="#f6465d"/><rect x="30.0" y="468.0" width="8.5" height="1.0" fill="#f6465d" opacity="0.4"/><line x1="45.8" y1="398.3" x2="45.8" y2="400.0" stroke="#16c79a" stroke-width="1"/><rect x="41.5" y="398.3" width="8.5" height="2.0" rx="1" fill="#16c79a"/><rect x="41.5" y="467.6" width="8.5" height="1.0" fill="#16c79a" opacity="0.4"/><line x1="57.3" y1="396.2" x2="57.3" y2="398.3" stroke="#16c79a" stroke-width="1"/><rect x="53.1" y="397.3" width="8.5" height="2.0" rx="1" fill="#16c79a"/><rect x="53.1" y="467.4" width="8.5" height="1.0" fill="#16c79a" opacity="0.4"/><line x1="68.9" y1="384.5" x2="68.9" y2="397.7" stroke="#16c79a" stroke-width="1"/><rect x="64.6" y="384.5" width="8.5" height="11.9" rx="1" fill="#16c79a"/><rect x="64.6" y="464.5" width="8.5" height="3.5" fill="#16c79a" opacity="0.4"/><line x1="80.4" y1="384.7" x2="80.4" y2="397.9" stroke="#f6465d" stroke-width="1"/><rect x="76.2" y="384.7" width="8.5" height="13.2" rx="1" fill="#f6465d"/><rect x="76.2" y="467.5" width="8.5" height="1.0" fill="#f6465d" opacity="0.4"/><line x1="92.0" y1="392.5" x2="92.0" y2="398.5" stroke="#16c79a" stroke-width="1"/><rect x="87.7" y="392.5" width="8.5" height="5.9" rx="1" fill="#16c79a"/><rect x="87.7" y="466.3" width="8.5" height="1.7" fill="#16c79a" opacity="0.4"/><line x1="103.5" y1="392.5" x2="103.5" y2="399.6" stroke="#f6465d" stroke-width="1"/><rect x="99.2" y="392.7" width="8.5" height="6.9" rx="1" fill="#f6465d"/><rect x="99.2" y="467.9" width="8.5" height="1.0" fill="#f6465d" opacity="0.4"/><line x1="115.0" y1="399.6" x2="115.0" y2="399.8" stroke="#16c79a" stroke-width="1"/><rect x="110.8" y="399.6" width="8.5" height="2.0" rx="1" fill="#16c79a"/><rect x="110.8" y="467.9" width="8.5" height="1.0" fill="#16c79a" opacity="0.4"/><line x1="126.6" y1="399.0" x2="126.6" y2="399.6" stroke="#16c79a" stroke-width="1"/><rect x="122.3" y="399.0" width="8.5" height="2.0" rx="1" fill="#16c79a"/><rect x="122.3" y="467.8" width="8.5" height="1.0" fill="#16c79a" opacity="0.4"/><line x1="138.1" y1="398.5" x2="138.1" y2="399.6" stroke="#f6465d" stroke-width="1"/><rect x="133.8" y="399.0" width="8.5" height="2.0" rx="1" fill="#f6465d"/><rect x="133.8" y="467.9" width="8.5" height="1.0" fill="#f6465d" opacity="0.4"/><line x1="149.7" y1="399.6" x2="149.7" y2="399.8" stroke="#f6465d" stroke-width="1"/><rect x="145.4" y="399.6" width="8.5" height="2.0" rx="1" fill="#f6465d"/><rect x="145.4" y="468.0" width="8.5" height="1.0" fill="#f6465d" opacity="0.4"/><line x1="161.2" y1="399.8" x2="161.2" y2="400.0" stroke="#f6465d" stroke-width="1"/><rect x="156.9" y="399.8" width="8.5" height="2.0" rx="1" fill="#f6465d"/><rect x="156.9" y="468.0" width="8.5" height="1.0" fill="#f6465d" opacity="0.4"/><line x1="172.7" y1="399.6" x2="172.7" y2="399.6" stroke="#16c79a" stroke-width="1"/><rect x="168.5" y="399.6" width="8.5" height="2.0" rx="1" fill="#16c79a"/><rect x="168.5" y="467.9" width="8.5" height="1.0" fill="#16c79a" opacity="0.4"/><line x1="184.3" y1="399.8" x2="184.3" y2="400.0" stroke="#16c79a" stroke-width="1"/><rect x="180.0" y="399.8" width="8.5" height="2.0" rx="1" fill="#16c79a"/><rect x="180.0" y="468.0" width="8.5" height="1.0" fill="#16c79a" opacity="0.4"/><line x1="195.8" y1="395.6" x2="195.8" y2="399.6" stroke="#16c79a" stroke-width="1"/><rect x="191.5" y="395.8" width="8.5" height="3.8" rx="1" fill="#16c79a"/><rect x="191.5" y="467.1" width="8.5" height="1.0" fill="#16c79a" opacity="0.4"/><line x1="207.3" y1="396.0" x2="207.3" y2="400.0" stroke="#f6465d" stroke-width="1"/><rect x="203.1" y="396.0" width="8.5" height="4.0" rx="1" fill="#f6465d"/><rect x="203.1" y="468.0" width="8.5" height="1.0" fill="#f6465d" opacity="0.4"/><line x1="218.9" y1="400.0" x2="218.9" y2="400.0" stroke="#16c79a" stroke-width="1"/><rect x="214.6" y="400.0" width="8.5" height="2.0" rx="1" fill="#16c79a"/><rect x="214.6" y="468.0" width="8.5" height="1.0" fill="#16c79a" opacity="0.4"/><line x1="230.4" y1="399.8" x2="230.4" y2="400.0" stroke="#16c79a" stroke-width="1"/><rect x="226.2" y="399.8" width="8.5" height="2.0" rx="1" fill="#16c79a"/><rect x="226.2" y="468.0" width="8.5" height="1.0" fill="#16c79a" opacity="0.4"/><line x1="242.0" y1="399.4" x2="242.0" y2="399.8" stroke="#16c79a" stroke-width="1"/><rect x="237.7" y="399.4" width="8.5" height="2.0" rx="1" fill="#16c79a"/><rect x="237.7" y="467.9" width="8.5" height="1.0" fill="#16c79a" opacity="0.4"/><line x1="253.5" y1="399.2" x2="253.5" y2="399.6" stroke="#16c79a" stroke-width="1"/><rect x="249.2" y="399.6" width="8.5" height="2.0" rx="1" fill="#16c79a"/><rect x="249.2" y="467.9" width="8.5" height="1.0" fill="#16c79a" opacity="0.4"/><line x1="265.0" y1="383.5" x2="265.0" y2="399.4" stroke="#16c79a" stroke-width="1"/><rect x="260.8" y="383.5" width="8.5" height="15.9" rx="1" fill="#16c79a"/><rect x="260.8" y="464.3" width="8.5" height="3.7" fill="#16c79a" opacity="0.4"/><line x1="276.6" y1="380.3" x2="276.6" y2="391.2" stroke="#f6465d" stroke-width="1"/><rect x="272.3" y="380.3" width="8.5" height="7.3" rx="1" fill="#f6465d"/><rect x="272.3" y="465.2" width="8.5" height="2.8" fill="#f6465d" opacity="0.4"/><line x1="288.1" y1="370.5" x2="288.1" y2="382.6" stroke="#16c79a" stroke-width="1"/><rect x="283.8" y="374.7" width="8.5" height="7.9" rx="1" fill="#16c79a"/><rect x="283.8" y="462.3" width="8.5" height="5.7" fill="#16c79a" opacity="0.4"/><line x1="299.7" y1="381.8" x2="299.7" y2="389.8" stroke="#f6465d" stroke-width="1"/><rect x="295.4" y="383.1" width="8.5" height="6.7" rx="1" fill="#f6465d"/><rect x="295.4" y="465.7" width="8.5" height="2.3" fill="#f6465d" opacity="0.4"/><line x1="311.2" y1="375.9" x2="311.2" y2="390.6" stroke="#16c79a" stroke-width="1"/><rect x="306.9" y="376.2" width="8.5" height="13.6" rx="1" fill="#16c79a"/><rect x="306.9" y="462.6" width="8.5" height="5.4" fill="#16c79a" opacity="0.4"/><line x1="322.7" y1="374.7" x2="322.7" y2="389.5" stroke="#f6465d" stroke-width="1"/><rect x="318.5" y="374.7" width="8.5" height="14.9" rx="1" fill="#f6465d"/><rect x="318.5" y="465.6" width="8.5" height="2.4" fill="#f6465d" opacity="0.4"/><line x1="334.3" y1="372.2" x2="334.3" y2="390.4" stroke="#16c79a" stroke-width="1"/><rect x="330.0" y="372.2" width="8.5" height="17.6" rx="1" fill="#16c79a"/><rect x="330.0" y="461.7" width="8.5" height="6.3" fill="#16c79a" opacity="0.4"/><line x1="345.8" y1="369.3" x2="345.8" y2="393.5" stroke="#f6465d" stroke-width="1"/><rect x="341.5" y="373.4" width="8.5" height="20.1" rx="1" fill="#f6465d"/><rect x="341.5" y="466.5" width="8.5" height="1.5" fill="#f6465d" opacity="0.4"/><line x1="357.3" y1="385.6" x2="357.3" y2="393.1" stroke="#16c79a" stroke-width="1"/><rect x="353.1" y="385.6" width="8.5" height="7.5" rx="1" fill="#16c79a"/><rect x="353.1" y="464.8" width="8.5" height="3.2" fill="#16c79a" opacity="0.4"/><line x1="368.9" y1="359.4" x2="368.9" y2="385.8" stroke="#16c79a" stroke-width="1"/><rect x="364.6" y="360.3" width="8.5" height="25.5" rx="1" fill="#16c79a"/><rect x="364.6" y="459.1" width="8.5" height="8.9" fill="#16c79a" opacity="0.4"/><line x1="380.4" y1="360.5" x2="380.4" y2="385.1" stroke="#f6465d" stroke-width="1"/><rect x="376.2" y="360.5" width="8.5" height="15.5" rx="1" fill="#f6465d"/><rect x="376.2" y="462.6" width="8.5" height="5.4" fill="#f6465d" opacity="0.4"/><line x1="392.0" y1="375.9" x2="392.0" y2="394.6" stroke="#f6465d" stroke-width="1"/><rect x="387.7" y="375.9" width="8.5" height="17.6" rx="1" fill="#f6465d"/><rect x="387.7" y="466.5" width="8.5" height="1.5" fill="#f6465d" opacity="0.4"/><line x1="403.5" y1="384.3" x2="403.5" y2="392.5" stroke="#16c79a" stroke-width="1"/><rect x="399.2" y="386.6" width="8.5" height="5.9" rx="1" fill="#16c79a"/><rect x="399.2" y="465.0" width="8.5" height="3.0" fill="#16c79a" opacity="0.4"/><line x1="415.0" y1="387.4" x2="415.0" y2="397.7" stroke="#16c79a" stroke-width="1"/><rect x="410.8" y="387.4" width="8.5" height="2.0" rx="1" fill="#16c79a"/><rect x="410.8" y="465.2" width="8.5" height="2.8" fill="#16c79a" opacity="0.4"/><line x1="426.6" y1="386.0" x2="426.6" y2="396.0" stroke="#f6465d" stroke-width="1"/><rect x="422.3" y="386.8" width="8.5" height="9.2" rx="1" fill="#f6465d"/><rect x="422.3" y="467.1" width="8.5" height="1.0" fill="#f6465d" opacity="0.4"/><line x1="438.1" y1="343.9" x2="438.1" y2="395.8" stroke="#16c79a" stroke-width="1"/><rect x="433.8" y="343.9" width="8.5" height="51.9" rx="1" fill="#16c79a"/><rect x="433.8" y="455.4" width="8.5" height="12.6" fill="#16c79a" opacity="0.4"/><line x1="449.7" y1="340.0" x2="449.7" y2="370.9" stroke="#f6465d" stroke-width="1"/><rect x="445.4" y="340.0" width="8.5" height="28.7" rx="1" fill="#f6465d"/><rect x="445.4" y="460.9" width="8.5" height="7.1" fill="#f6465d" opacity="0.4"/><line x1="461.2" y1="349.0" x2="461.2" y2="369.3" stroke="#16c79a" stroke-width="1"/><rect x="456.9" y="355.0" width="8.5" height="14.2" rx="1" fill="#16c79a"/><rect x="456.9" y="457.9" width="8.5" height="10.1" fill="#16c79a" opacity="0.4"/><line x1="472.7" y1="358.4" x2="472.7" y2="384.3" stroke="#f6465d" stroke-width="1"/><rect x="468.5" y="358.4" width="8.5" height="25.9" rx="1" fill="#f6465d"/><rect x="468.5" y="464.5" width="8.5" height="3.5" fill="#f6465d" opacity="0.4"/><line x1="484.3" y1="346.0" x2="484.3" y2="385.1" stroke="#16c79a" stroke-width="1"/><rect x="480.0" y="346.0" width="8.5" height="39.1" rx="1" fill="#16c79a"/><rect x="480.0" y="455.8" width="8.5" height="12.2" fill="#16c79a" opacity="0.4"/><line x1="495.8" y1="345.2" x2="495.8" y2="387.4" stroke="#f6465d" stroke-width="1"/><rect x="491.5" y="345.2" width="8.5" height="35.8" rx="1" fill="#f6465d"/><rect x="491.5" y="463.7" width="8.5" height="4.3" fill="#f6465d" opacity="0.4"/><line x1="507.3" y1="321.1" x2="507.3" y2="356.1" stroke="#16c79a" stroke-width="1"/><rect x="503.1" y="330.1" width="8.5" height="25.9" rx="1" fill="#16c79a"/><rect x="503.1" y="452.3" width="8.5" height="15.7" fill="#16c79a" opacity="0.4"/><line x1="518.9" y1="355.9" x2="518.9" y2="387.7" stroke="#f6465d" stroke-width="1"/><rect x="514.6" y="355.9" width="8.5" height="29.9" rx="1" fill="#f6465d"/><rect x="514.6" y="464.8" width="8.5" height="3.2" fill="#f6465d" opacity="0.4"/><line x1="530.4" y1="383.1" x2="530.4" y2="387.7" stroke="#f6465d" stroke-width="1"/><rect x="526.2" y="385.1" width="8.5" height="2.0" rx="1" fill="#f6465d"/><rect x="526.2" y="464.8" width="8.5" height="3.2" fill="#f6465d" opacity="0.4"/><line x1="542.0" y1="386.4" x2="542.0" y2="395.8" stroke="#f6465d" stroke-width="1"/><rect x="537.7" y="386.4" width="8.5" height="9.4" rx="1" fill="#f6465d"/><rect x="537.7" y="467.1" width="8.5" height="1.0" fill="#f6465d" opacity="0.4"/><line x1="553.5" y1="378.2" x2="553.5" y2="395.8" stroke="#16c79a" stroke-width="1"/><rect x="549.2" y="378.9" width="8.5" height="16.9" rx="1" fill="#16c79a"/><rect x="549.2" y="463.2" width="8.5" height="4.8" fill="#16c79a" opacity="0.4"/><line x1="565.0" y1="350.2" x2="565.0" y2="381.0" stroke="#16c79a" stroke-width="1"/><rect x="560.8" y="350.2" width="8.5" height="28.7" rx="1" fill="#16c79a"/><rect x="560.8" y="456.8" width="8.5" height="11.2" fill="#16c79a" opacity="0.4"/><line x1="576.6" y1="334.9" x2="576.6" y2="355.7" stroke="#f6465d" stroke-width="1"/><rect x="572.3" y="334.9" width="8.5" height="20.7" rx="1" fill="#f6465d"/><rect x="572.3" y="458.0" width="8.5" height="10.0" fill="#f6465d" opacity="0.4"/><line x1="588.1" y1="370.9" x2="588.1" y2="389.8" stroke="#f6465d" stroke-width="1"/><rect x="583.8" y="370.9" width="8.5" height="18.8" rx="1" fill="#f6465d"/><rect x="583.8" y="465.7" width="8.5" height="2.3" fill="#f6465d" opacity="0.4"/><line x1="599.7" y1="346.0" x2="599.7" y2="389.5" stroke="#16c79a" stroke-width="1"/><rect x="595.4" y="346.0" width="8.5" height="43.5" rx="1" fill="#16c79a"/><rect x="595.4" y="455.8" width="8.5" height="12.2" fill="#16c79a" opacity="0.4"/><line x1="611.2" y1="344.8" x2="611.2" y2="378.2" stroke="#f6465d" stroke-width="1"/><rect x="606.9" y="346.2" width="8.5" height="17.4" rx="1" fill="#f6465d"/><rect x="606.9" y="459.8" width="8.5" height="8.2" fill="#f6465d" opacity="0.4"/><line x1="622.7" y1="117.0" x2="622.7" y2="117.4" stroke="#16c79a" stroke-width="1"/><rect x="618.5" y="117.0" width="8.5" height="2.0" rx="1" fill="#16c79a"/><rect x="618.5" y="412.0" width="8.5" height="56.0" fill="#16c79a" opacity="0.4"/><line x1="28" y1="117.0" x2="624" y2="117.0" stroke="#ffb454" stroke-width="1" stroke-dasharray="6 4"/><rect x="628" y="108.0" width="50" height="17" rx="3" fill="#ffb454"/><text x="653" y="121.0" text-anchor="middle" font-size="10" font-weight="700" fill="#070b10">1353</text><text x="30.0" y="482" font-size="9" fill="#55657a">JUN</text><text x="76.2" y="482" font-size="9" fill="#55657a">JUL</text><text x="122.3" y="482" font-size="9" fill="#55657a">AUG</text><text x="168.5" y="482" font-size="9" fill="#55657a">SEP</text><text x="214.6" y="482" font-size="9" fill="#55657a">OCT</text><text x="260.8" y="482" font-size="9" fill="#55657a">NOV</text><text x="306.9" y="482" font-size="9" fill="#55657a">DEC</text><text x="353.1" y="482" font-size="9" fill="#55657a">JAN</text><text x="399.2" y="482" font-size="9" fill="#55657a">FEB</text><text x="445.4" y="482" font-size="9" fill="#55657a">MAR</text><text x="491.5" y="482" font-size="9" fill="#55657a">APR</text><text x="537.7" y="482" font-size="9" fill="#55657a">MAY</text><rect x="700" y="86" width="216" height="402" rx="8" fill="#0b1018" stroke="#1c2430"/><text x="714" y="110" font-size="11" letter-spacing="2" fill="#9fb2c8">ORDER BOOK</text><text x="902" y="110" text-anchor="end" font-size="9" fill="#55657a">AGENTS × LANGS</text><rect x="900.5" y="124" width="1.5" height="17" fill="#f6465d" opacity="0.16"/><text x="714" y="136" font-size="10" fill="#f6465d">KIMI</text><text x="902" y="136" text-anchor="end" font-size="10" fill="#9fb2c8">$74 <tspan fill="#55657a">· 419.6M</tspan></text><rect x="893.5" y="146" width="8.5" height="17" fill="#f6465d" opacity="0.16"/><text x="714" y="158" font-size="10" fill="#f6465d">CURSOR</text><text x="902" y="158" text-anchor="end" font-size="10" fill="#9fb2c8">$424 <tspan fill="#55657a">· 189.1M</tspan></text><rect x="885.1" y="168" width="16.9" height="17" fill="#f6465d" opacity="0.16"/><text x="714" y="180" font-size="10" fill="#f6465d">DROID</text><text x="902" y="180" text-anchor="end" font-size="10" fill="#9fb2c8">$841 <tspan fill="#55657a">· 1.01B</tspan></text><rect x="864.7" y="190" width="37.3" height="17" fill="#f6465d" opacity="0.16"/><text x="714" y="202" font-size="10" fill="#f6465d">CODEX</text><text x="902" y="202" text-anchor="end" font-size="10" fill="#9fb2c8">$1,861 <tspan fill="#55657a">· 5.22B</tspan></text><rect x="864.7" y="212" width="37.3" height="17" fill="#f6465d" opacity="0.16"/><text x="714" y="224" font-size="10" fill="#f6465d">OPENCODE</text><text x="902" y="224" text-anchor="end" font-size="10" fill="#9fb2c8">$1,861 <tspan fill="#55657a">· 0</tspan></text><rect x="864.7" y="234" width="37.3" height="17" fill="#f6465d" opacity="0.16"/><text x="714" y="246" font-size="10" fill="#f6465d">GROK</text><text x="902" y="246" text-anchor="end" font-size="10" fill="#9fb2c8">$1,861 <tspan fill="#55657a">· 22.2M</tspan></text><rect x="714.0" y="256" width="188.0" height="17" fill="#f6465d" opacity="0.16"/><text x="714" y="268" font-size="10" fill="#f6465d">CLAUDE</text><text x="902" y="268" text-anchor="end" font-size="10" fill="#9fb2c8">$9,386 <tspan fill="#55657a">· 11.1B</tspan></text><line x1="710" y1="281" x2="906" y2="281" stroke="#1c2430"/><text x="808.0" y="297" text-anchor="middle" font-size="11" font-weight="700" fill="#ffb454">MARK 21.5B TOK</text><line x1="710" y1="305" x2="906" y2="305" stroke="#1c2430"/><rect x="714" y="318" width="188.0" height="17" fill="#16c79a" opacity="0.16"/><text x="714" y="330" font-size="10" fill="#16c79a">JS</text><text x="902" y="330" text-anchor="end" font-size="10" fill="#9fb2c8">9 repos</text><rect x="714" y="340" width="146.2" height="17" fill="#16c79a" opacity="0.16"/><text x="714" y="352" font-size="10" fill="#16c79a">TS</text><text x="902" y="352" text-anchor="end" font-size="10" fill="#9fb2c8">7 repos</text><rect x="714" y="362" width="146.2" height="17" fill="#16c79a" opacity="0.16"/><text x="714" y="374" font-size="10" fill="#16c79a">PY</text><text x="902" y="374" text-anchor="end" font-size="10" fill="#9fb2c8">7 repos</text><rect x="714" y="384" width="41.8" height="17" fill="#16c79a" opacity="0.16"/><text x="714" y="396" font-size="10" fill="#16c79a">VUE</text><text x="902" y="396" text-anchor="end" font-size="10" fill="#9fb2c8">2 repos</text><rect x="714" y="406" width="41.8" height="17" fill="#16c79a" opacity="0.16"/><text x="714" y="418" font-size="10" fill="#16c79a">IPYNB</text><text x="902" y="418" text-anchor="end" font-size="10" fill="#9fb2c8">2 repos</text><line x1="710" y1="434" x2="906" y2="434" stroke="#1c2430"/><text x="714" y="448" font-size="10" letter-spacing="2" fill="#55657a">RECENT FILLS</text><text x="714" y="464" font-size="9.5" fill="#16c79a">BUY <tspan fill="#9fb2c8">sui-options</tspan></text><text x="902" y="464" text-anchor="end" font-size="9.5" fill="#55657a">1c · 1m</text><text x="714" y="482" font-size="9.5" fill="#16c79a">BUY <tspan fill="#9fb2c8">sui-options</tspan></text><text x="902" y="482" text-anchor="end" font-size="9.5" fill="#55657a">1c · 1m</text><text x="714" y="500" font-size="9.5" fill="#16c79a">BUY <tspan fill="#9fb2c8">sui-options</tspan></text><text x="902" y="500" text-anchor="end" font-size="9.5" fill="#55657a">1c · 2m</text><text x="24" y="516" font-size="11" fill="#55657a">ATH WEEK <tspan fill="#97fce4" font-weight="700">1189</tspan>   ACTIVE DAYS <tspan fill="#97fce4" font-weight="700">211/365</tspan>   STREAK <tspan fill="#16c79a" font-weight="700">8D</tspan>   PEAK STREAK <tspan fill="#16c79a" font-weight="700">23D</tspan>   30D VOL <tspan fill="#97fce4" font-weight="700">1882</tspan>   1W CANDLES ON A 7D ROLLING INDEX</text>
</svg>