<svg xmlns="http://www.w3.org/2000/svg" viewBox="0 0 560 1083" width="560" font-family="ui-monospace,'JetBrains Mono','SF Mono',Menlo,Consolas,monospace">
<defs>
  <filter id="drop" x="-20%" y="-20%" width="140%" height="140%">
    <feDropShadow dx="0" dy="5" stdDeviation="7" flood-color="#000" flood-opacity="0.45"/>
  </filter>
</defs>
<polygon points="2,13 16,6 30,13 44,6 58,13 72,6 86,13 100,6 114,13 128,6 142,13 156,6 170,13 184,6 198,13 212,6 226,13 240,6 254,13 268,6 282,13 296,6 310,13 324,6 338,13 352,6 366,13 380,6 394,13 408,6 422,13 436,6 450,13 464,6 478,13 492,6 506,13 520,6 534,13 548,6 548,1070 534,1077 520,1070 506,1077 492,1070 478,1077 464,1070 450,1077 436,1070 422,1077 408,1070 394,1077 380,1070 366,1077 352,1070 338,1077 324,1070 310,1077 296,1070 282,1077 268,1070 254,1077 240,1070 226,1077 212,1070 198,1077 184,1070 170,1077 156,1070 142,1077 128,1070 114,1077 100,1070 86,1077 72,1070 58,1077 44,1070 30,1077 16,1070 2,1077" fill="#f7f3e9" filter="url(#drop)"/>
<text x="280.0" y="78" text-anchor="middle" font-size="17" fill="#211c16" font-weight="700">MAXMONEYCASH</text>
<text x="280.0" y="102" text-anchor="middle" font-size="11" fill="#6b6256">AI COMPUTE STATEMENT</text>
<text x="280.0" y="120" text-anchor="middle" font-size="11" fill="#6b6256">BILLING PERIOD: JUL 2025 — JUL 2026</text>
<text x="280.0" y="140" text-anchor="middle" font-size="13" fill="#6b6256" xml:space="preserve">───────────────────────────────────</text>
<g font-size="13"><text x="42" y="159" fill="#211c16">STATEMENT #</text><text x="518" y="159" text-anchor="end" fill="#211c16">MMC_20260712_C1E37A</text></g>
<g font-size="13"><text x="42" y="178" fill="#211c16">ISSUED</text><text x="518" y="178" text-anchor="end" fill="#211c16">2026-07-12 19:36 UTC</text></g>
<g font-size="13"><text x="42" y="197" fill="#211c16">DATA AS OF</text><text x="518" y="197" text-anchor="end" fill="#211c16">2026-07-12 19:36:12 UTC</text></g>
<g font-size="13"><text x="42" y="216" fill="#211c16">BILLED TO</text><text x="518" y="216" text-anchor="end" fill="#211c16">MAX @MAXMONEYCASH</text></g>
<g font-size="13"><text x="42" y="235" fill="#211c16">SERVED BY</text><text x="518" y="235" text-anchor="end" fill="#211c16">7 AGENTS + 8-HEAD CLOUD SWARM</text></g>
<g font-size="13"><text x="42" y="254" fill="#211c16">FLEET</text><text x="518" y="254" text-anchor="end" fill="#211c16">local 33.5B · cloud 0</text></g>
<text x="280.0" y="273" text-anchor="middle" font-size="13" fill="#211c16" xml:space="preserve">━━━━━━━━━━━━━━━━━━━━━━━━━━━━━━━━━━━</text>
<g font-size="13" font-weight="700"><text x="42" y="292" fill="#211c16">ITEM</text><text x="518" y="292" text-anchor="end" fill="#211c16">TOKENS</text></g>
<text x="280.0" y="311" text-anchor="middle" font-size="13" fill="#6b6256" xml:space="preserve">───────────────────────────────────</text>
<g font-size="13"><text x="42" y="330" fill="#211c16">CLAUDE CODE</text><text x="518" y="330" text-anchor="end" fill="#211c16">28,660,917,248</text></g>
<g font-size="13"><text x="42" y="349" fill="#211c16">  · OPUS 4.7</text><text x="518" y="349" text-anchor="end" fill="#211c16">7,360,341,247</text></g>
<g font-size="13"><text x="42" y="366" fill="#211c16">  · OPUS 4.8</text><text x="518" y="366" text-anchor="end" fill="#211c16">18,804,479,212</text></g>
<g font-size="13"><text x="42" y="383" fill="#211c16">  · FABLE 5</text><text x="518" y="383" text-anchor="end" fill="#211c16">2,246,758,161</text></g>
<g font-size="13"><text x="42" y="400" fill="#211c16">CODEX</text><text x="518" y="400" text-anchor="end" fill="#211c16">19,943,732,734</text></g>
<g font-size="13"><text x="42" y="419" fill="#211c16">DROID</text><text x="518" y="419" text-anchor="end" fill="#211c16">1,012,880,228</text></g>
<g font-size="13"><text x="42" y="438" fill="#211c16">KIMI CODE</text><text x="518" y="438" text-anchor="end" fill="#211c16">452,044,388</text></g>
<g font-size="13"><text x="42" y="457" fill="#211c16">CURSOR</text><text x="518" y="457" text-anchor="end" fill="#211c16">229,750,568</text></g>
<g font-size="13"><text x="42" y="476" fill="#211c16">GROK BUILD</text><text x="518" y="476" text-anchor="end" fill="#211c16">153,674,367</text></g>
<g font-size="13"><text x="42" y="495" fill="#211c16">OPENCODE</text><text x="518" y="495" text-anchor="end" fill="#211c16">65,964,739</text></g>
<g font-size="13"><text x="42" y="514" fill="#211c16">HERMES SWARM</text><text x="518" y="514" text-anchor="end" fill="#211c16">0</text></g>
<text x="280.0" y="533" text-anchor="middle" font-size="13" fill="#6b6256" xml:space="preserve">───────────────────────────────────</text>
<g font-size="13" font-weight="700"><text x="42" y="552" fill="#211c16">SUBTOTAL</text><text x="518" y="552" text-anchor="end" fill="#211c16">50,253,208,158 TOK</text></g>
<text x="280.0" y="571" text-anchor="middle" font-size="13" fill="#211c16" xml:space="preserve">━━━━━━━━━━━━━━━━━━━━━━━━━━━━━━━━━━━</text>
<g font-size="13" font-weight="700"><text x="42" y="590" fill="#211c16">LEDGER</text><text x="518" y="590" text-anchor="end" fill="#211c16">READ vs WRITTEN</text></g>
<text x="280.0" y="609" text-anchor="middle" font-size="13" fill="#6b6256" xml:space="preserve">───────────────────────────────────</text>
<g font-size="13" font-weight="700"><text x="42" y="628" fill="#211c16">OUTPUT (WRITTEN)</text><text x="518" y="628" text-anchor="end" fill="#211c16">148,401,804</text></g>
<g font-size="13"><text x="42" y="647" fill="#211c16">  · CLAUDE CODE</text><text x="518" y="647" text-anchor="end" fill="#211c16">88,164,955 (59%)</text></g>
<g font-size="13"><text x="42" y="664" fill="#211c16">  · CODEX</text><text x="518" y="664" text-anchor="end" fill="#211c16">48,921,717 (33%)</text></g>
<g font-size="13"><text x="42" y="681" fill="#211c16">  · DROID</text><text x="518" y="681" text-anchor="end" fill="#211c16">5,780,580 (4%)</text></g>
<g font-size="13"><text x="42" y="698" fill="#211c16">  · KIMI CODE</text><text x="518" y="698" text-anchor="end" fill="#211c16">3,649,690 (2%)</text></g>
<g font-size="13"><text x="42" y="715" fill="#211c16">  · CURSOR</text><text x="518" y="715" text-anchor="end" fill="#211c16">1,425,306 (1%)</text></g>
<g font-size="13"><text x="42" y="732" fill="#211c16">  · GROK BUILD</text><text x="518" y="732" text-anchor="end" fill="#211c16">810,471 (1%)</text></g>
<g font-size="13"><text x="42" y="749" fill="#211c16">  · OPENCODE</text><text x="518" y="749" text-anchor="end" fill="#211c16">580,553 (0%)</text></g>
<g font-size="13"><text x="42" y="766" fill="#211c16">  · HERMES SWARM</text><text x="518" y="766" text-anchor="end" fill="#211c16">0 (0%)</text></g>
<g font-size="13"><text x="42" y="783" fill="#6b6256">  ≈ NOVELS WRITTEN</text><text x="518" y="783" text-anchor="end" fill="#6b6256">1,237</text></g>
<g font-size="13"><text x="42" y="803" fill="#211c16">FRESH INPUT (READ)</text><text x="518" y="803" text-anchor="end" fill="#211c16">821,237,000</text></g>
<g font-size="13"><text x="42" y="822" fill="#211c16">CACHE WRITES</text><text x="518" y="822" text-anchor="end" fill="#211c16">534,653,956</text></g>
<g font-size="13"><text x="42" y="841" fill="#211c16">CACHE READS</text><text x="518" y="841" text-anchor="end" fill="#211c16">48,755,184,638</text></g>
<g font-size="13"><text x="42" y="860" fill="#6b6256">  · CONTEXT RE-READ</text><text x="518" y="860" text-anchor="end" fill="#6b6256">97.0% OF ALL TOK</text></g>
<text x="280.0" y="880" text-anchor="middle" font-size="13" fill="#211c16" xml:space="preserve">━━━━━━━━━━━━━━━━━━━━━━━━━━━━━━━━━━━</text>
<g font-size="13" font-weight="700"><text x="42" y="899" fill="#211c16">TOTAL USD</text><text x="518" y="899" text-anchor="end" fill="#211c16">$32,020.20</text></g>
<g font-size="13"><text x="42" y="923" fill="#211c16">AVG / MONTH</text><text x="518" y="923" text-anchor="end" fill="#211c16">$2,463.09</text></g>
<text x="280.0" y="943" text-anchor="middle" font-size="13" fill="#6b6256" xml:space="preserve">───────────────────────────────────</text>
<text x="280.0" y="962" text-anchor="middle" font-size="12" fill="#211c16">50,253,208,158 TOKENS.</text>
<text x="280.0" y="981" text-anchor="middle" font-size="12" fill="#211c16">ZERO REGRETS.</text>
<text x="280.0" y="1003" text-anchor="middle" font-size="14" fill="#211c16">|| |||||| |||||||||||  ||||||| ||| |||</text>
<text x="280.0" y="1019" text-anchor="middle" font-size="10" fill="#6b6256">MMC_20260712_C1E37A</text>
<text x="280.0" y="1039" text-anchor="middle" font-size="12" fill="#211c16" font-weight="700">★ PAID IN FULL · NO REFUNDS ★</text>
</svg>