<svg xmlns="http://www.w3.org/2000/svg" viewBox="0 0 560 1029" width="560" font-family="ui-monospace,'JetBrains Mono','SF Mono',Menlo,Consolas,monospace">
<defs>
  <linearGradient id="bg" x1="0" y1="0" x2="0" y2="1">
    <stop offset="0" stop-color="#0d1117"/><stop offset="1" stop-color="#10151d"/>
  </linearGradient>
  <pattern id="scan" width="4" height="4" patternUnits="userSpaceOnUse">
    <rect width="4" height="2" fill="#000" opacity="0.14"/>
  </pattern>
</defs>
<rect width="560" height="1029" rx="14" fill="url(#bg)" stroke="#30363d"/>
<circle cx="24" cy="24" r="6" fill="#ff5f56"/><circle cx="44" cy="24" r="6" fill="#ffbd2e"/><circle cx="64" cy="24" r="6" fill="#27c93f"/>
<text x="280.0" y="28" text-anchor="middle" font-size="12" fill="#8b949e">token-ops</text>
<line x1="0" y1="42" x2="560" y2="42" stroke="#30363d"/>
<text x="46" y="70" font-size="12" fill="#8b949e">~ <tspan fill="#53fca1">❯</tspan> <tspan fill="#c9d1d9">ccusage monthly --json | jq .monthly</tspan></text>
<rect x="46.0" y="270.9" width="39.8" height="1.5" rx="2" fill="#d97757"/><rect x="46.0" y="269.5" width="39.8" height="1.5" rx="2" fill="#19c37d"/><text x="65.9" y="262.5" text-anchor="middle" font-size="9" fill="#53fca1">141.2M</text><text x="65.9" y="288" text-anchor="middle" font-size="10" fill="#8b949e">Oct</text><rect x="99.8" y="272.0" width="39.8" height="1.5" rx="2" fill="#19c37d"/><text x="119.7" y="265.0" text-anchor="middle" font-size="9" fill="#53fca1">1.49M</text><text x="119.7" y="288" text-anchor="middle" font-size="10" fill="#8b949e">Nov</text><rect x="153.6" y="271.9" width="39.8" height="1.5" rx="2" fill="#19c37d"/><text x="173.4" y="264.9" text-anchor="middle" font-size="9" fill="#53fca1">6.71M</text><text x="173.4" y="288" text-anchor="middle" font-size="10" fill="#8b949e">Dec</text><rect x="207.3" y="272.0" width="39.8" height="1.5" rx="2" fill="#d97757"/><rect x="207.3" y="271.7" width="39.8" height="1.5" rx="2" fill="#19c37d"/><rect x="207.3" y="271.7" width="39.8" height="1.5" rx="2" fill="#8b949e"/><text x="227.2" y="264.7" text-anchor="middle" font-size="9" fill="#53fca1">17.7M</text><text x="227.2" y="288" text-anchor="middle" font-size="10" fill="#8b949e">Jan</text><rect x="261.1" y="272.0" width="39.8" height="1.5" rx="2" fill="#d97757"/><rect x="261.1" y="265.7" width="39.8" height="6.3" rx="2" fill="#19c37d"/><rect x="261.1" y="261.9" width="39.8" height="3.9" rx="2" fill="#a371f7"/><rect x="261.1" y="261.3" width="39.8" height="1.5" rx="2" fill="#8b949e"/><text x="281.0" y="254.3" text-anchor="middle" font-size="9" fill="#53fca1">603.7M</text><text x="281.0" y="288" text-anchor="middle" font-size="10" fill="#8b949e">Feb</text><rect x="314.9" y="265.1" width="39.8" height="6.9" rx="2" fill="#d97757"/><rect x="314.9" y="239.8" width="39.8" height="25.3" rx="2" fill="#19c37d"/><rect x="314.9" y="239.2" width="39.8" height="1.5" rx="2" fill="#a371f7"/><text x="334.8" y="232.2" text-anchor="middle" font-size="9" fill="#53fca1">1.86B</text><text x="334.8" y="288" text-anchor="middle" font-size="10" fill="#8b949e">Mar</text><rect x="368.7" y="266.1" width="39.8" height="5.9" rx="2" fill="#d97757"/><rect x="368.7" y="254.9" width="39.8" height="11.2" rx="2" fill="#19c37d"/><text x="388.6" y="247.9" text-anchor="middle" font-size="9" fill="#53fca1">929.9M</text><text x="388.6" y="288" text-anchor="middle" font-size="10" fill="#8b949e">Apr</text><rect x="422.4" y="142.4" width="39.8" height="129.6" rx="2" fill="#d97757"/><rect x="422.4" y="96.3" width="39.8" height="46.1" rx="2" fill="#19c37d"/><rect x="422.4" y="93.4" width="39.8" height="2.9" rx="2" fill="#a371f7"/><text x="442.3" y="86.4" text-anchor="middle" font-size="9" fill="#53fca1">10.2B</text><text x="442.3" y="288" text-anchor="middle" font-size="10" fill="#8b949e">May</text><rect x="476.2" y="206.7" width="39.8" height="65.3" rx="2" fill="#d97757"/><rect x="476.2" y="200.1" width="39.8" height="6.5" rx="2" fill="#19c37d"/><rect x="476.2" y="200.1" width="39.8" height="1.5" rx="2" fill="#a371f7"/><rect x="476.2" y="199.7" width="39.8" height="1.5" rx="2" fill="#8b949e"/><text x="496.1" y="192.7" text-anchor="middle" font-size="9" fill="#53fca1">4.09B</text><text x="496.1" y="288" text-anchor="middle" font-size="10" fill="#8b949e">Jun</text><rect x="46" y="302" width="9" height="9" rx="2" fill="#d97757"/><text x="60" y="310" font-size="10" fill="#c9d1d9">Claude</text><rect x="124" y="302" width="9" height="9" rx="2" fill="#19c37d"/><text x="138" y="310" font-size="10" fill="#c9d1d9">GPT</text><rect x="181" y="302" width="9" height="9" rx="2" fill="#a371f7"/><text x="195" y="310" font-size="10" fill="#c9d1d9">Kimi</text><rect x="245" y="302" width="9" height="9" rx="2" fill="#58a6ff"/><text x="259" y="310" font-size="10" fill="#c9d1d9">GLM</text><rect x="302" y="302" width="9" height="9" rx="2" fill="#8b949e"/><text x="316" y="310" font-size="10" fill="#c9d1d9">Other</text><text x="46" y="336" font-size="11" letter-spacing="2" fill="#8b949e">TOP MODELS · ALL-TIME</text><text x="46" y="359" font-size="11" fill="#c9d1d9">claude-opus-4-7</text><rect x="218" y="350" width="150.0" height="11" rx="3" fill="#d97757" opacity="0.9"/><text x="376.0" y="359" font-size="10" fill="#8b949e">7.36B · $5,608</text><text x="46" y="383" font-size="11" fill="#c9d1d9">gpt-5.5</text><rect x="218" y="374" width="68.7" height="11" rx="3" fill="#19c37d" opacity="0.9"/><text x="294.7" y="383" font-size="10" fill="#8b949e">3.37B · $2,628</text><text x="46" y="407" font-size="11" fill="#c9d1d9">claude-opus-4-8</text><rect x="218" y="398" width="53.7" height="11" rx="3" fill="#d97757" opacity="0.9"/><text x="279.7" y="407" font-size="10" fill="#8b949e">2.64B · $2,147</text><text x="46" y="431" font-size="11" fill="#c9d1d9">gpt-5.3-codex</text><rect x="218" y="422" width="23.8" height="11" rx="3" fill="#19c37d" opacity="0.9"/><text x="249.8" y="431" font-size="10" fill="#8b949e">1.17B · $370</text><text x="46" y="455" font-size="11" fill="#c9d1d9">claude-fable-5</text><rect x="218" y="446" width="21.8" height="11" rx="3" fill="#d97757" opacity="0.9"/><text x="247.8" y="455" font-size="10" fill="#8b949e">1.07B · $1,597</text><text x="46" y="479" font-size="11" fill="#c9d1d9">gpt-5.4</text><rect x="218" y="470" width="17.7" height="11" rx="3" fill="#19c37d" opacity="0.9"/><text x="243.7" y="479" font-size="10" fill="#8b949e">868.0M · $384</text><text x="46" y="503" font-size="11" fill="#c9d1d9">claude-opus-4-6</text><rect x="218" y="494" width="14.0" height="11" rx="3" fill="#d97757" opacity="0.9"/><text x="240.0" y="503" font-size="10" fill="#8b949e">686.2M · $704</text><text x="46" y="527" font-size="11" fill="#c9d1d9">kimi-for-coding</text><rect x="218" y="518" width="8.6" height="11" rx="3" fill="#a371f7" opacity="0.9"/><text x="234.6" y="527" font-size="10" fill="#8b949e">419.6M · $74</text><text x="46" y="568" font-size="11" letter-spacing="2" fill="#8b949e">OPENCODE LAB · 12 MODELS TESTED</text><rect x="46" y="580" width="131" height="21" rx="10.5" fill="#161b22" stroke="#8b949e" stroke-opacity="0.55"/><text x="111.5" y="594" text-anchor="middle" font-size="10" fill="#c9d1d9">pony-alpha · 26.4M</text><rect x="184" y="580" width="131" height="21" rx="10.5" fill="#161b22" stroke="#8b949e" stroke-opacity="0.55"/><text x="249.5" y="594" text-anchor="middle" font-size="10" fill="#c9d1d9">big-pickle · 5.02M</text><rect x="322" y="580" width="169" height="21" rx="10.5" fill="#161b22" stroke="#d97757" stroke-opacity="0.55"/><text x="406.5" y="594" text-anchor="middle" font-size="10" fill="#c9d1d9">claude-opus-4-5 · 760.2K</text><rect x="46" y="608" width="194" height="21" rx="10.5" fill="#161b22" stroke="#8b949e" stroke-opacity="0.55"/><text x="143.0" y="622" text-anchor="middle" font-size="10" fill="#c9d1d9">nemotron-nano-12b-v2-vl:free</text><rect x="247" y="608" width="163" height="21" rx="10.5" fill="#161b22" stroke="#8b949e" stroke-opacity="0.55"/><text x="328.5" y="622" text-anchor="middle" font-size="10" fill="#c9d1d9">gemma-4-e4b-obliterated</text><rect x="46" y="636" width="112" height="21" rx="10.5" fill="#161b22" stroke="#8b949e" stroke-opacity="0.55"/><text x="102.0" y="650" text-anchor="middle" font-size="10" fill="#c9d1d9">deepseek-v4-pro</text><rect x="165" y="636" width="50" height="21" rx="10.5" fill="#161b22" stroke="#58a6ff" stroke-opacity="0.55"/><text x="190.0" y="650" text-anchor="middle" font-size="10" fill="#c9d1d9">glm-5</text><rect x="222" y="636" width="81" height="21" rx="10.5" fill="#161b22" stroke="#58a6ff" stroke-opacity="0.55"/><text x="262.5" y="650" text-anchor="middle" font-size="10" fill="#c9d1d9">glm-5-free</text><rect x="310" y="636" width="194" height="21" rx="10.5" fill="#161b22" stroke="#8b949e" stroke-opacity="0.55"/><text x="407.0" y="650" text-anchor="middle" font-size="10" fill="#c9d1d9">nemotron-3-nano-30b-a3b:free</text><rect x="46" y="664" width="157" height="21" rx="10.5" fill="#161b22" stroke="#8b949e" stroke-opacity="0.55"/><text x="124.5" y="678" text-anchor="middle" font-size="10" fill="#c9d1d9">deepseek-v3.1-terminus</text><rect x="210" y="664" width="150" height="21" rx="10.5" fill="#161b22" stroke="#8b949e" stroke-opacity="0.55"/><text x="285.0" y="678" text-anchor="middle" font-size="10" fill="#c9d1d9">deepseek-chat-v3-0324</text><rect x="367" y="664" width="131" height="21" rx="10.5" fill="#161b22" stroke="#8b949e" stroke-opacity="0.55"/><text x="432.5" y="678" text-anchor="middle" font-size="10" fill="#c9d1d9">qwen3.5-plus-02-15</text><text x="46" y="719" font-size="11" letter-spacing="2" fill="#8b949e">LAST 30 DAYS · TOKENS/DAY</text><rect x="46.0" y="786.2" width="13.2" height="2.8" rx="2" fill="#53fca1" opacity="0.38"/><rect x="62.2" y="774.5" width="13.2" height="14.5" rx="2" fill="#53fca1" opacity="0.51"/><rect x="78.4" y="761.3" width="13.2" height="27.7" rx="2" fill="#53fca1" opacity="0.65"/><rect x="94.6" y="776.6" width="13.2" height="12.4" rx="2" fill="#53fca1" opacity="0.48"/><rect x="110.8" y="777.7" width="13.2" height="11.3" rx="2" fill="#53fca1" opacity="0.47"/><rect x="127.0" y="763.3" width="13.2" height="25.7" rx="2" fill="#53fca1" opacity="0.63"/><rect x="143.2" y="772.9" width="13.2" height="16.1" rx="2" fill="#53fca1" opacity="0.52"/><rect x="159.4" y="770.1" width="13.2" height="18.9" rx="2" fill="#53fca1" opacity="0.55"/><rect x="175.7" y="777.7" width="13.2" height="11.3" rx="2" fill="#53fca1" opacity="0.47"/><rect x="191.9" y="784.5" width="13.2" height="4.5" rx="2" fill="#53fca1" opacity="0.40"/><rect x="208.1" y="776.8" width="13.2" height="12.2" rx="2" fill="#53fca1" opacity="0.48"/><rect x="224.3" y="775.3" width="13.2" height="13.7" rx="2" fill="#53fca1" opacity="0.50"/><rect x="240.5" y="729.0" width="13.2" height="60.0" rx="2" fill="#53fca1" opacity="1.00"/><rect x="256.7" y="784.3" width="13.2" height="4.7" rx="2" fill="#53fca1" opacity="0.40"/><rect x="272.9" y="785.8" width="13.2" height="3.2" rx="2" fill="#53fca1" opacity="0.38"/><rect x="289.1" y="781.2" width="13.2" height="7.8" rx="2" fill="#53fca1" opacity="0.43"/><rect x="305.3" y="787.0" width="13.2" height="2.0" rx="2" fill="#53fca1" opacity="0.36"/><rect x="321.5" y="787.0" width="13.2" height="2.0" rx="2" fill="#53fca1" opacity="0.36"/><rect x="337.7" y="787.0" width="13.2" height="2.0" rx="2" fill="#53fca1" opacity="0.37"/><rect x="353.9" y="787.0" width="13.2" height="2.0" rx="2" fill="#53fca1" opacity="0.37"/><rect x="370.1" y="773.0" width="13.2" height="16.0" rx="2" fill="#53fca1" opacity="0.52"/><rect x="386.3" y="776.0" width="13.2" height="13.0" rx="2" fill="#53fca1" opacity="0.49"/><rect x="402.6" y="778.2" width="13.2" height="10.8" rx="2" fill="#53fca1" opacity="0.47"/><rect x="418.8" y="787.0" width="13.2" height="2.0" rx="2" fill="#53fca1" opacity="0.36"/><rect x="435.0" y="782.0" width="13.2" height="7.0" rx="2" fill="#53fca1" opacity="0.43"/><rect x="451.2" y="780.5" width="13.2" height="8.5" rx="2" fill="#53fca1" opacity="0.44"/><rect x="467.4" y="774.8" width="13.2" height="14.2" rx="2" fill="#53fca1" opacity="0.50"/><rect x="483.6" y="784.0" width="13.2" height="5.0" rx="2" fill="#53fca1" opacity="0.40"/><rect x="499.8" y="784.2" width="13.2" height="4.8" rx="2" fill="#ffb454" opacity="1.00"/><text x="46" y="1003" font-size="10.5" fill="#8b949e">Σ <tspan fill="#53fca1" font-weight="700">17,979,371,722</tspan> tok · cache <tspan fill="#53fca1">96.1%</tspan> · peak <tspan fill="#ffb454">2.42B</tspan> · <tspan fill="#a5d6ff">25</tspan> models</text>
<rect width="560" height="1029" rx="14" fill="url(#scan)"/>
</svg>