<svg xmlns="http://www.w3.org/2000/svg" viewBox="0 0 560 1067" width="560" font-family="ui-monospace,'JetBrains Mono','SF Mono',Menlo,Consolas,monospace">
<defs>
  <linearGradient id="bg" x1="0" y1="0" x2="0" y2="1">
    <stop offset="0" stop-color="#0d1117"/><stop offset="1" stop-color="#10151d"/>
  </linearGradient>
  <pattern id="scan" width="4" height="4" patternUnits="userSpaceOnUse">
    <rect width="4" height="2" fill="#000" opacity="0.14"/>
  </pattern>
</defs>
<rect width="560" height="1067" rx="14" fill="url(#bg)" stroke="#30363d"/>
<circle cx="24" cy="24" r="6" fill="#ff5f56"/><circle cx="44" cy="24" r="6" fill="#ffbd2e"/><circle cx="64" cy="24" r="6" fill="#27c93f"/>
<text x="280.0" y="28" text-anchor="middle" font-size="12" fill="#8b949e">token-ops</text>
<line x1="0" y1="42" x2="560" y2="42" stroke="#30363d"/>
<text x="46" y="70" font-size="12" fill="#8b949e">~ <tspan fill="#53fca1">❯</tspan> <tspan fill="#c9d1d9">ccusage monthly --json | jq .monthly</tspan></text>
<rect x="46.0" y="272.0" width="39.8" height="1.5" rx="2" fill="#d97757"/><rect x="46.0" y="272.0" width="39.8" height="1.5" rx="2" fill="#19c37d"/><rect x="46.0" y="272.0" width="39.8" height="1.5" rx="2" fill="#8b949e"/><text x="65.9" y="265.0" text-anchor="middle" font-size="9" fill="#53fca1">23.2M</text><text x="65.9" y="288" text-anchor="middle" font-size="10" fill="#8b949e">Nov</text><rect x="99.8" y="271.9" width="39.8" height="1.5" rx="2" fill="#19c37d"/><rect x="99.8" y="271.9" width="39.8" height="1.5" rx="2" fill="#8b949e"/><text x="119.7" y="264.9" text-anchor="middle" font-size="9" fill="#53fca1">19.7M</text><text x="119.7" y="288" text-anchor="middle" font-size="10" fill="#8b949e">Dec</text><rect x="153.6" y="272.0" width="39.8" height="1.5" rx="2" fill="#d97757"/><rect x="153.6" y="271.7" width="39.8" height="1.5" rx="2" fill="#19c37d"/><rect x="153.6" y="271.7" width="39.8" height="1.5" rx="2" fill="#8b949e"/><text x="173.4" y="264.7" text-anchor="middle" font-size="9" fill="#53fca1">38.3M</text><text x="173.4" y="288" text-anchor="middle" font-size="10" fill="#8b949e">Jan</text><rect x="207.3" y="272.0" width="39.8" height="1.5" rx="2" fill="#d97757"/><rect x="207.3" y="265.9" width="39.8" height="6.1" rx="2" fill="#19c37d"/><rect x="207.3" y="264.0" width="39.8" height="1.9" rx="2" fill="#a371f7"/><rect x="207.3" y="263.7" width="39.8" height="1.5" rx="2" fill="#58a6ff"/><rect x="207.3" y="263.5" width="39.8" height="1.5" rx="2" fill="#8b949e"/><text x="227.2" y="256.5" text-anchor="middle" font-size="9" fill="#53fca1">998.0M</text><text x="227.2" y="288" text-anchor="middle" font-size="10" fill="#8b949e">Feb</text><rect x="261.1" y="268.6" width="39.8" height="3.4" rx="2" fill="#d97757"/><rect x="261.1" y="253.4" width="39.8" height="15.3" rx="2" fill="#19c37d"/><rect x="261.1" y="253.1" width="39.8" height="1.5" rx="2" fill="#a371f7"/><rect x="261.1" y="253.1" width="39.8" height="1.5" rx="2" fill="#8b949e"/><text x="281.0" y="246.1" text-anchor="middle" font-size="9" fill="#53fca1">2.20B</text><text x="281.0" y="288" text-anchor="middle" font-size="10" fill="#8b949e">Mar</text><rect x="314.9" y="269.1" width="39.8" height="2.9" rx="2" fill="#d97757"/><rect x="314.9" y="262.3" width="39.8" height="6.8" rx="2" fill="#19c37d"/><text x="334.8" y="255.3" text-anchor="middle" font-size="9" fill="#53fca1">1.13B</text><text x="334.8" y="288" text-anchor="middle" font-size="10" fill="#8b949e">Apr</text><rect x="368.7" y="208.8" width="39.8" height="63.2" rx="2" fill="#d97757"/><rect x="368.7" y="164.9" width="39.8" height="43.9" rx="2" fill="#19c37d"/><rect x="368.7" y="163.4" width="39.8" height="1.5" rx="2" fill="#a371f7"/><rect x="368.7" y="163.4" width="39.8" height="1.5" rx="2" fill="#8b949e"/><text x="388.6" y="156.4" text-anchor="middle" font-size="9" fill="#53fca1">12.6B</text><text x="388.6" y="288" text-anchor="middle" font-size="10" fill="#8b949e">May</text><rect x="422.4" y="117.7" width="39.8" height="154.3" rx="2" fill="#d97757"/><rect x="422.4" y="92.2" width="39.8" height="25.4" rx="2" fill="#19c37d"/><rect x="422.4" y="92.0" width="39.8" height="1.5" rx="2" fill="#a371f7"/><text x="442.3" y="85.0" text-anchor="middle" font-size="9" fill="#53fca1">20.9B</text><text x="442.3" y="288" text-anchor="middle" font-size="10" fill="#8b949e">Jun</text><rect x="476.2" y="268.2" width="39.8" height="3.8" rx="2" fill="#d97757"/><text x="496.1" y="261.2" text-anchor="middle" font-size="9" fill="#53fca1">438.9M</text><text x="496.1" y="288" text-anchor="middle" font-size="10" fill="#8b949e">Jul</text><rect x="46" y="302" width="9" height="9" rx="2" fill="#d97757"/><text x="60" y="310" font-size="10" fill="#c9d1d9">Claude</text><rect x="124" y="302" width="9" height="9" rx="2" fill="#19c37d"/><text x="138" y="310" font-size="10" fill="#c9d1d9">GPT</text><rect x="181" y="302" width="9" height="9" rx="2" fill="#a371f7"/><text x="195" y="310" font-size="10" fill="#c9d1d9">Kimi</text><rect x="245" y="302" width="9" height="9" rx="2" fill="#58a6ff"/><text x="259" y="310" font-size="10" fill="#c9d1d9">GLM</text><rect x="302" y="302" width="9" height="9" rx="2" fill="#8b949e"/><text x="316" y="310" font-size="10" fill="#c9d1d9">Other</text><text x="46" y="336" font-size="11" letter-spacing="2" fill="#8b949e">TOP MODELS · ALL-TIME</text><text x="46" y="359" font-size="11" fill="#c9d1d9">claude-opus-4-8</text><rect x="218" y="350" width="150.0" height="11" rx="3" fill="#d97757" opacity="0.9"/><text x="376.0" y="359" font-size="10" fill="#8b949e">17.2B · $11,495</text><text x="46" y="383" font-size="11" fill="#c9d1d9">gpt-5.5</text><rect x="218" y="374" width="74.9" height="11" rx="3" fill="#19c37d" opacity="0.9"/><text x="300.9" y="383" font-size="10" fill="#8b949e">8.56B · $6,641</text><text x="46" y="407" font-size="11" fill="#c9d1d9">claude-opus-4-7</text><rect x="218" y="398" width="64.4" height="11" rx="3" fill="#d97757" opacity="0.9"/><text x="290.4" y="407" font-size="10" fill="#8b949e">7.36B · $5,608</text><text x="46" y="431" font-size="11" fill="#c9d1d9">gpt-5.3-codex</text><rect x="218" y="422" width="14.4" height="11" rx="3" fill="#19c37d" opacity="0.9"/><text x="240.4" y="431" font-size="10" fill="#8b949e">1.65B · $506</text><text x="46" y="455" font-size="11" fill="#c9d1d9">gpt-5.4</text><rect x="218" y="446" width="9.7" height="11" rx="3" fill="#19c37d" opacity="0.9"/><text x="235.7" y="455" font-size="10" fill="#8b949e">1.10B · $489</text><text x="46" y="479" font-size="11" fill="#c9d1d9">claude-fable-5</text><rect x="218" y="470" width="9.3" height="11" rx="3" fill="#d97757" opacity="0.9"/><text x="235.3" y="479" font-size="10" fill="#8b949e">1.07B · $1,597</text><text x="46" y="503" font-size="11" fill="#c9d1d9">claude-opus-4-6</text><rect x="218" y="494" width="6.0" height="11" rx="3" fill="#d97757" opacity="0.9"/><text x="232.0" y="503" font-size="10" fill="#8b949e">686.2M · $704</text><text x="46" y="527" font-size="11" fill="#c9d1d9">kimi-for-coding</text><rect x="218" y="518" width="3.9" height="11" rx="3" fill="#a371f7" opacity="0.9"/><text x="229.9" y="527" font-size="10" fill="#8b949e">446.3M · $80</text><text x="46" y="568" font-size="11" letter-spacing="2" fill="#8b949e">OPENCODE LAB · 0 MODELS TESTED</text><text x="46" y="635" font-size="11" letter-spacing="2" fill="#8b949e">LAST 30 DAYS · TOKENS/DAY</text><rect x="46.0" y="703.0" width="12.7" height="2.0" rx="2" fill="#53fca1" opacity="0.37"/><rect x="61.7" y="699.7" width="12.7" height="5.3" rx="2" fill="#53fca1" opacity="0.41"/><rect x="77.3" y="699.0" width="12.7" height="6.0" rx="2" fill="#53fca1" opacity="0.41"/><rect x="93.0" y="678.8" width="12.7" height="26.2" rx="2" fill="#53fca1" opacity="0.63"/><rect x="108.7" y="702.9" width="12.7" height="2.1" rx="2" fill="#53fca1" opacity="0.37"/><rect x="124.3" y="703.0" width="12.7" height="2.0" rx="2" fill="#53fca1" opacity="0.37"/><rect x="140.0" y="701.6" width="12.7" height="3.4" rx="2" fill="#53fca1" opacity="0.39"/><rect x="155.7" y="703.0" width="12.7" height="2.0" rx="2" fill="#53fca1" opacity="0.36"/><rect x="171.3" y="703.0" width="12.7" height="2.0" rx="2" fill="#53fca1" opacity="0.35"/><rect x="187.0" y="703.0" width="12.7" height="2.0" rx="2" fill="#53fca1" opacity="0.36"/><rect x="202.7" y="703.0" width="12.7" height="2.0" rx="2" fill="#53fca1" opacity="0.36"/><rect x="218.3" y="698.0" width="12.7" height="7.0" rx="2" fill="#53fca1" opacity="0.43"/><rect x="234.0" y="699.3" width="12.7" height="5.7" rx="2" fill="#53fca1" opacity="0.41"/><rect x="249.7" y="700.3" width="12.7" height="4.7" rx="2" fill="#53fca1" opacity="0.40"/><rect x="265.3" y="703.0" width="12.7" height="2.0" rx="2" fill="#53fca1" opacity="0.36"/><rect x="281.0" y="701.9" width="12.7" height="3.1" rx="2" fill="#53fca1" opacity="0.38"/><rect x="296.7" y="701.3" width="12.7" height="3.7" rx="2" fill="#53fca1" opacity="0.39"/><rect x="312.3" y="698.8" width="12.7" height="6.2" rx="2" fill="#53fca1" opacity="0.42"/><rect x="328.0" y="702.8" width="12.7" height="2.2" rx="2" fill="#53fca1" opacity="0.37"/><rect x="343.7" y="652.7" width="12.7" height="52.3" rx="2" fill="#53fca1" opacity="0.92"/><rect x="359.3" y="645.0" width="12.7" height="60.0" rx="2" fill="#53fca1" opacity="1.00"/><rect x="375.0" y="678.4" width="12.7" height="26.6" rx="2" fill="#53fca1" opacity="0.64"/><rect x="390.7" y="697.9" width="12.7" height="7.1" rx="2" fill="#53fca1" opacity="0.43"/><rect x="406.3" y="698.5" width="12.7" height="6.5" rx="2" fill="#53fca1" opacity="0.42"/><rect x="422.0" y="703.0" width="12.7" height="2.0" rx="2" fill="#53fca1" opacity="0.36"/><rect x="437.7" y="682.3" width="12.7" height="22.7" rx="2" fill="#53fca1" opacity="0.60"/><rect x="453.3" y="703.0" width="12.7" height="2.0" rx="2" fill="#53fca1" opacity="0.35"/><rect x="469.0" y="701.3" width="12.7" height="3.7" rx="2" fill="#53fca1" opacity="0.39"/><rect x="484.7" y="701.8" width="12.7" height="3.2" rx="2" fill="#53fca1" opacity="0.38"/><rect x="500.3" y="700.3" width="12.7" height="4.7" rx="2" fill="#ffb454" opacity="1.00"/><text x="46" y="1041" font-size="10.5" fill="#8b949e">Σ <tspan fill="#53fca1" font-weight="700">38,693,982,949</tspan> tok · cache <tspan fill="#53fca1">97.0%</tspan> · peak <tspan fill="#ffb454">5.55B</tspan> · <tspan fill="#a5d6ff">43</tspan> models</text>
<rect width="560" height="1067" rx="14" fill="url(#scan)"/>
</svg>