<svg xmlns="http://www.w3.org/2000/svg" viewBox="0 0 1148 1103" width="1148" font-family="ui-monospace,'JetBrains Mono','SF Mono',Menlo,Consolas,monospace"><g>
<defs>
  <filter id="drop" x="-20%" y="-20%" width="140%" height="140%">
    <feDropShadow dx="0" dy="5" stdDeviation="7" flood-color="#000" flood-opacity="0.45"/>
  </filter>
</defs>
<polygon points="2,13 16,6 30,13 44,6 58,13 72,6 86,13 100,6 114,13 128,6 142,13 156,6 170,13 184,6 198,13 212,6 226,13 240,6 254,13 268,6 282,13 296,6 310,13 324,6 338,13 352,6 366,13 380,6 394,13 408,6 422,13 436,6 450,13 464,6 478,13 492,6 506,13 520,6 534,13 548,6 548,1090 534,1097 520,1090 506,1097 492,1090 478,1097 464,1090 450,1097 436,1090 422,1097 408,1090 394,1097 380,1090 366,1097 352,1090 338,1097 324,1090 310,1097 296,1090 282,1097 268,1090 254,1097 240,1090 226,1097 212,1090 198,1097 184,1090 170,1097 156,1090 142,1097 128,1090 114,1097 100,1090 86,1097 72,1090 58,1097 44,1090 30,1097 16,1090 2,1097" fill="#f7f3e9" filter="url(#drop)"/>
<text x="280.0" y="78" text-anchor="middle" font-size="17" fill="#211c16" font-weight="700">MAXMONEYCASH</text>
<text x="280.0" y="102" text-anchor="middle" font-size="11" fill="#6b6256">AI COMPUTE STATEMENT</text>
<text x="280.0" y="120" text-anchor="middle" font-size="11" fill="#6b6256">BILLING PERIOD: JUL 2025 — OCT 2026</text>
<text x="280.0" y="140" text-anchor="middle" font-size="13" fill="#6b6256" xml:space="preserve">───────────────────────────────────</text>
<g font-size="13"><text x="42" y="159" fill="#211c16">STATEMENT #</text><text x="518" y="159" text-anchor="end" fill="#211c16">MMC_20261006_22948D</text></g>
<g font-size="13"><text x="42" y="178" fill="#211c16">ISSUED</text><text x="518" y="178" text-anchor="end" fill="#211c16">2026-10-06 07:52 UTC</text></g>
<g font-size="13"><text x="42" y="197" fill="#211c16">DATA AS OF</text><text x="518" y="197" text-anchor="end" fill="#211c16">2026-10-06 07:52:30 UTC</text></g>
<g font-size="13"><text x="42" y="216" fill="#211c16">BILLED TO</text><text x="518" y="216" text-anchor="end" fill="#211c16">MAX @MAXMONEYCASH</text></g>
<g font-size="13"><text x="42" y="235" fill="#211c16">SERVED BY</text><text x="518" y="235" text-anchor="end" fill="#211c16">7 AGENTS + 8-HEAD CLOUD SWARM</text></g>
<g font-size="13"><text x="42" y="254" fill="#211c16">FLEET</text><text x="518" y="254" text-anchor="end" fill="#211c16">local 92.3B · cloud 17.3B</text></g>
<text x="280.0" y="273" text-anchor="middle" font-size="13" fill="#211c16" xml:space="preserve">━━━━━━━━━━━━━━━━━━━━━━━━━━━━━━━━━━━</text>
<g font-size="13" font-weight="700"><text x="42" y="292" fill="#211c16">ITEM</text><text x="518" y="292" text-anchor="end" fill="#211c16">TOKENS</text></g>
<text x="280.0" y="311" text-anchor="middle" font-size="13" fill="#6b6256" xml:space="preserve">───────────────────────────────────</text>
<g font-size="13"><text x="42" y="330" fill="#211c16">CLAUDE CODE</text><text x="518" y="330" text-anchor="end" fill="#211c16">57,333,434,330</text></g>
<g font-size="13"><text x="42" y="349" fill="#211c16">  · OPUS 4.7</text><text x="518" y="349" text-anchor="end" fill="#211c16">7,360,341,247</text></g>
<g font-size="13"><text x="42" y="366" fill="#211c16">  · OPUS 4.8</text><text x="518" y="366" text-anchor="end" fill="#211c16">19,243,316,793</text></g>
<g font-size="13"><text x="42" y="383" fill="#211c16">  · FABLE 5</text><text x="518" y="383" text-anchor="end" fill="#211c16">6,502,297,001</text></g>
<g font-size="13"><text x="42" y="400" fill="#211c16">CODEX</text><text x="518" y="400" text-anchor="end" fill="#211c16">35,187,609,985</text></g>
<g font-size="13"><text x="42" y="419" fill="#211c16">CURSOR</text><text x="518" y="419" text-anchor="end" fill="#211c16">6,752,648,813</text></g>
<g font-size="13"><text x="42" y="438" fill="#211c16">GROK BUILD</text><text x="518" y="438" text-anchor="end" fill="#211c16">4,849,844,741</text></g>
<g font-size="13"><text x="42" y="457" fill="#211c16">KIMI CODE</text><text x="518" y="457" text-anchor="end" fill="#211c16">2,741,505,551</text></g>
<g font-size="13"><text x="42" y="476" fill="#211c16">DROID</text><text x="518" y="476" text-anchor="end" fill="#211c16">1,012,880,228</text></g>
<g font-size="13"><text x="42" y="495" fill="#211c16">HERMES SWARM</text><text x="518" y="495" text-anchor="end" fill="#211c16">900,061,464</text></g>
<g font-size="13"><text x="42" y="514" fill="#211c16">OPENCODE</text><text x="518" y="514" text-anchor="end" fill="#211c16">65,964,739</text></g>
<text x="280.0" y="533" text-anchor="middle" font-size="13" fill="#6b6256" xml:space="preserve">───────────────────────────────────</text>
<g font-size="13" font-weight="700"><text x="42" y="552" fill="#211c16">SUBTOTAL</text><text x="518" y="552" text-anchor="end" fill="#211c16">109,575,999,264 TOK</text></g>
<text x="280.0" y="571" text-anchor="middle" font-size="13" fill="#211c16" xml:space="preserve">━━━━━━━━━━━━━━━━━━━━━━━━━━━━━━━━━━━</text>
<g font-size="13" font-weight="700"><text x="42" y="590" fill="#211c16">LEDGER</text><text x="518" y="590" text-anchor="end" fill="#211c16">READ vs WRITTEN</text></g>
<text x="280.0" y="609" text-anchor="middle" font-size="13" fill="#6b6256" xml:space="preserve">───────────────────────────────────</text>
<g font-size="13" font-weight="700"><text x="42" y="628" fill="#211c16">OUTPUT (WRITTEN)</text><text x="518" y="628" text-anchor="end" fill="#211c16">366,809,117</text></g>
<g font-size="13"><text x="42" y="647" fill="#211c16">  · CLAUDE CODE</text><text x="518" y="647" text-anchor="end" fill="#211c16">163,071,655 (44%)</text></g>
<g font-size="13"><text x="42" y="664" fill="#211c16">  · CODEX</text><text x="518" y="664" text-anchor="end" fill="#211c16">106,065,738 (29%)</text></g>
<g font-size="13"><text x="42" y="681" fill="#211c16">  · CURSOR</text><text x="518" y="681" text-anchor="end" fill="#211c16">39,212,432 (11%)</text></g>
<g font-size="13"><text x="42" y="698" fill="#211c16">  · GROK BUILD</text><text x="518" y="698" text-anchor="end" fill="#211c16">35,476,083 (10%)</text></g>
<g font-size="13"><text x="42" y="715" fill="#211c16">  · KIMI CODE</text><text x="518" y="715" text-anchor="end" fill="#211c16">10,535,151 (3%)</text></g>
<g font-size="13"><text x="42" y="732" fill="#211c16">  · DROID</text><text x="518" y="732" text-anchor="end" fill="#211c16">5,780,580 (2%)</text></g>
<g font-size="13"><text x="42" y="749" fill="#211c16">  · HERMES SWARM</text><text x="518" y="749" text-anchor="end" fill="#211c16">5,549,221 (2%)</text></g>
<g font-size="13"><text x="42" y="766" fill="#211c16">  · OPENCODE</text><text x="518" y="766" text-anchor="end" fill="#211c16">580,553 (0%)</text></g>
<g font-size="13"><text x="42" y="783" fill="#6b6256">  ≈ NOVELS WRITTEN</text><text x="518" y="783" text-anchor="end" fill="#6b6256">3,057</text></g>
<g font-size="13"><text x="42" y="803" fill="#211c16">FRESH INPUT (READ)</text><text x="518" y="803" text-anchor="end" fill="#211c16">2,097,828,230</text></g>
<g font-size="13"><text x="42" y="822" fill="#211c16">CACHE WRITES</text><text x="518" y="822" text-anchor="end" fill="#211c16">1,123,699,893</text></g>
<g font-size="13"><text x="42" y="841" fill="#211c16">CACHE READS</text><text x="518" y="841" text-anchor="end" fill="#211c16">105,984,377,920</text></g>
<g font-size="13"><text x="42" y="860" fill="#6b6256">  · CONTEXT RE-READ</text><text x="518" y="860" text-anchor="end" fill="#6b6256">96.7% OF ALL TOK</text></g>
<g font-size="13"><text x="42" y="880" fill="#211c16">REASONING (DROID)</text><text x="518" y="880" text-anchor="end" fill="#211c16">3,284,104</text></g>
<text x="280.0" y="900" text-anchor="middle" font-size="13" fill="#211c16" xml:space="preserve">━━━━━━━━━━━━━━━━━━━━━━━━━━━━━━━━━━━</text>
<g font-size="13" font-weight="700"><text x="42" y="919" fill="#211c16">LIST VALUE</text><text x="518" y="919" text-anchor="end" fill="#211c16">$99,718.76</text></g>
<g font-size="13"><text x="42" y="943" fill="#211c16">AVG / MONTH</text><text x="518" y="943" text-anchor="end" fill="#211c16">$6,232.42</text></g>
<text x="280.0" y="963" text-anchor="middle" font-size="13" fill="#6b6256" xml:space="preserve">───────────────────────────────────</text>
<text x="280.0" y="982" text-anchor="middle" font-size="12" fill="#211c16">109,575,999,264 TOKENS.</text>
<text x="280.0" y="1001" text-anchor="middle" font-size="12" fill="#211c16">ZERO REGRETS.</text>
<text x="280.0" y="1023" text-anchor="middle" font-size="14" fill="#211c16"> ||| ||||| |||| || |||  |||||||| || ||</text>
<text x="280.0" y="1039" text-anchor="middle" font-size="10" fill="#6b6256">MMC_20261006_22948D</text>
<text x="280.0" y="1059" text-anchor="middle" font-size="12" fill="#211c16" font-weight="700">★ PAID IN FULL · NO REFUNDS ★</text>
</g><g transform="translate(588,0)">
<defs>
  <linearGradient id="bg" x1="0" y1="0" x2="0" y2="1">
    <stop offset="0" stop-color="#0d1117"/><stop offset="1" stop-color="#10151d"/>
  </linearGradient>
  <pattern id="scan" width="4" height="4" patternUnits="userSpaceOnUse">
    <rect width="4" height="2" fill="#000" opacity="0.14"/>
  </pattern>
</defs>
<rect width="560" height="1103" rx="14" fill="url(#bg)" stroke="#30363d"/>
<circle cx="24" cy="24" r="6" fill="#ff5f56"/><circle cx="44" cy="24" r="6" fill="#ffbd2e"/><circle cx="64" cy="24" r="6" fill="#27c93f"/>
<text x="280.0" y="28" text-anchor="middle" font-size="12" fill="#8b949e">token-ops</text>
<line x1="0" y1="42" x2="560" y2="42" stroke="#30363d"/>
<text x="46" y="70" font-size="12" fill="#8b949e">~ <tspan fill="#53fca1">❯</tspan> <tspan fill="#c9d1d9">ccusage monthly --json | jq .monthly</tspan></text>
<rect x="46.0" y="272.0" width="39.8" height="1.5" rx="2" fill="#d97757"/><rect x="46.0" y="270.3" width="39.8" height="1.7" rx="2" fill="#19c37d"/><rect x="46.0" y="269.2" width="39.8" height="1.5" rx="2" fill="#a371f7"/><rect x="46.0" y="269.1" width="39.8" height="1.5" rx="2" fill="#58a6ff"/><rect x="46.0" y="269.0" width="39.8" height="1.5" rx="2" fill="#8b949e"/><text x="65.9" y="262.0" text-anchor="middle" font-size="9" fill="#53fca1">646.3M</text><text x="65.9" y="288" text-anchor="middle" font-size="10" fill="#8b949e">Feb</text><rect x="99.8" y="270.2" width="39.8" height="1.8" rx="2" fill="#d97757"/><rect x="99.8" y="263.4" width="39.8" height="6.7" rx="2" fill="#19c37d"/><rect x="99.8" y="263.3" width="39.8" height="1.5" rx="2" fill="#a371f7"/><text x="119.7" y="256.3" text-anchor="middle" font-size="9" fill="#53fca1">1.86B</text><text x="119.7" y="288" text-anchor="middle" font-size="10" fill="#8b949e">Mar</text><rect x="153.6" y="270.4" width="39.8" height="1.6" rx="2" fill="#d97757"/><rect x="153.6" y="267.2" width="39.8" height="3.2" rx="2" fill="#19c37d"/><text x="173.4" y="260.2" text-anchor="middle" font-size="9" fill="#53fca1">1.09B</text><text x="173.4" y="288" text-anchor="middle" font-size="10" fill="#8b949e">Apr</text><rect x="207.3" y="237.5" width="39.8" height="34.5" rx="2" fill="#d97757"/><rect x="207.3" y="225.5" width="39.8" height="11.9" rx="2" fill="#19c37d"/><rect x="207.3" y="224.7" width="39.8" height="1.5" rx="2" fill="#a371f7"/><rect x="207.3" y="224.7" width="39.8" height="1.5" rx="2" fill="#8b949e"/><text x="227.2" y="217.7" text-anchor="middle" font-size="9" fill="#53fca1">10.0B</text><text x="227.2" y="288" text-anchor="middle" font-size="10" fill="#8b949e">May</text><rect x="261.1" y="187.7" width="39.8" height="84.3" rx="2" fill="#d97757"/><rect x="261.1" y="174.1" width="39.8" height="13.7" rx="2" fill="#19c37d"/><rect x="261.1" y="173.9" width="39.8" height="1.5" rx="2" fill="#a371f7"/><text x="281.0" y="166.9" text-anchor="middle" font-size="9" fill="#53fca1">20.9B</text><text x="281.0" y="288" text-anchor="middle" font-size="10" fill="#8b949e">Jun</text><rect x="314.9" y="245.7" width="39.8" height="26.3" rx="2" fill="#d97757"/><rect x="314.9" y="188.9" width="39.8" height="56.8" rx="2" fill="#19c37d"/><rect x="314.9" y="186.2" width="39.8" height="2.7" rx="2" fill="#a371f7"/><rect x="314.9" y="183.2" width="39.8" height="2.9" rx="2" fill="#8b949e"/><text x="334.8" y="176.2" text-anchor="middle" font-size="9" fill="#53fca1">18.9B</text><text x="334.8" y="288" text-anchor="middle" font-size="10" fill="#8b949e">Jul</text><rect x="368.7" y="232.6" width="39.8" height="39.4" rx="2" fill="#d97757"/><rect x="368.7" y="205.5" width="39.8" height="27.2" rx="2" fill="#19c37d"/><rect x="368.7" y="196.6" width="39.8" height="8.9" rx="2" fill="#8b949e"/><text x="388.6" y="189.6" text-anchor="middle" font-size="9" fill="#53fca1">16.0B</text><text x="388.6" y="288" text-anchor="middle" font-size="10" fill="#8b949e">Aug</text><rect x="422.4" y="183.2" width="39.8" height="88.8" rx="2" fill="#d97757"/><rect x="422.4" y="140.3" width="39.8" height="42.9" rx="2" fill="#19c37d"/><rect x="422.4" y="92.1" width="39.8" height="48.2" rx="2" fill="#8b949e"/><text x="442.3" y="85.1" text-anchor="middle" font-size="9" fill="#53fca1">38.3B</text><text x="442.3" y="288" text-anchor="middle" font-size="10" fill="#8b949e">Sep</text><rect x="476.2" y="264.8" width="39.8" height="7.2" rx="2" fill="#19c37d"/><rect x="476.2" y="264.8" width="39.8" height="1.5" rx="2" fill="#8b949e"/><text x="496.1" y="257.8" text-anchor="middle" font-size="9" fill="#53fca1">1.53B</text><text x="496.1" y="288" text-anchor="middle" font-size="10" fill="#8b949e">Oct</text><rect x="46" y="302" width="9" height="9" rx="2" fill="#d97757"/><text x="60" y="310" font-size="10" fill="#c9d1d9">Claude</text><rect x="124" y="302" width="9" height="9" rx="2" fill="#19c37d"/><text x="138" y="310" font-size="10" fill="#c9d1d9">GPT</text><rect x="181" y="302" width="9" height="9" rx="2" fill="#a371f7"/><text x="195" y="310" font-size="10" fill="#c9d1d9">Kimi</text><rect x="245" y="302" width="9" height="9" rx="2" fill="#58a6ff"/><text x="259" y="310" font-size="10" fill="#c9d1d9">GLM</text><rect x="302" y="302" width="9" height="9" rx="2" fill="#8b949e"/><text x="316" y="310" font-size="10" fill="#c9d1d9">Other</text><text x="46" y="336" font-size="11" letter-spacing="2" fill="#8b949e">TOP MODELS · GENERATED OUTPUT</text><text x="46" y="359" font-size="11" fill="#c9d1d9">claude-opus-4-8</text><rect x="218" y="350" width="150.0" height="11" rx="3" fill="#d97757" opacity="0.9"/><text x="376.0" y="359" font-size="10" fill="#8b949e">62.6M out · 19.2B traffic</text><text x="46" y="383" font-size="11" fill="#c9d1d9">gpt-5.6-sol</text><rect x="218" y="374" width="117.4" height="11" rx="3" fill="#19c37d" opacity="0.9"/><text x="343.4" y="383" font-size="10" fill="#8b949e">49.0M out · 16.9B traffic</text><text x="46" y="407" font-size="11" fill="#c9d1d9">claude-opus-5-5</text><rect x="218" y="398" width="76.9" height="11" rx="3" fill="#d97757" opacity="0.9"/><text x="302.9" y="407" font-size="10" fill="#8b949e">32.1M out · 10.9B traffic</text><text x="46" y="431" font-size="11" fill="#c9d1d9">claude-opus-5</text><rect x="218" y="422" width="50.8" height="11" rx="3" fill="#d97757" opacity="0.9"/><text x="276.8" y="431" font-size="10" fill="#8b949e">21.2M out · 10.6B traffic</text><text x="46" y="455" font-size="11" fill="#c9d1d9">gpt-6-astra</text><rect x="218" y="446" width="74.1" height="11" rx="3" fill="#19c37d" opacity="0.9"/><text x="300.1" y="455" font-size="10" fill="#8b949e">30.9M out · 8.31B traffic</text><text x="46" y="479" font-size="11" fill="#c9d1d9">claude-opus-4-7</text><rect x="218" y="470" width="49.5" height="11" rx="3" fill="#d97757" opacity="0.9"/><text x="275.5" y="479" font-size="10" fill="#8b949e">20.6M out · 7.36B traffic</text><text x="46" y="503" font-size="11" fill="#c9d1d9">gpt-5.5</text><rect x="218" y="494" width="46.7" height="11" rx="3" fill="#19c37d" opacity="0.9"/><text x="272.7" y="503" font-size="10" fill="#8b949e">19.5M out · 6.93B traffic</text><text x="46" y="527" font-size="11" fill="#c9d1d9">claude-fable-5</text><rect x="218" y="518" width="38.5" height="11" rx="3" fill="#d97757" opacity="0.9"/><text x="264.5" y="527" font-size="10" fill="#8b949e">16.0M out · 6.50B traffic</text><text x="46" y="568" font-size="11" letter-spacing="2" fill="#8b949e">OPENCODE LAB · 66.0M TOK · MODEL SPLIT UNAVAILABLE</text><text x="46" y="635" font-size="11" letter-spacing="2" fill="#8b949e">LAST 30 DAYS · TOKENS/DAY</text><rect x="46.0" y="673.3" width="12.7" height="31.7" rx="2" fill="#53fca1" opacity="0.69"/><rect x="61.7" y="703.0" width="12.7" height="2.0" rx="2" fill="#53fca1" opacity="0.35"/><rect x="77.3" y="691.6" width="12.7" height="13.4" rx="2" fill="#53fca1" opacity="0.49"/><rect x="93.0" y="702.8" width="12.7" height="2.2" rx="2" fill="#53fca1" opacity="0.37"/><rect x="108.7" y="689.7" width="12.7" height="15.3" rx="2" fill="#53fca1" opacity="0.52"/><rect x="124.3" y="703.0" width="12.7" height="2.0" rx="2" fill="#53fca1" opacity="0.36"/><rect x="140.0" y="702.9" width="12.7" height="2.1" rx="2" fill="#53fca1" opacity="0.37"/><rect x="155.7" y="693.4" width="12.7" height="11.6" rx="2" fill="#53fca1" opacity="0.48"/><rect x="171.3" y="703.0" width="12.7" height="2.0" rx="2" fill="#53fca1" opacity="0.35"/><rect x="187.0" y="701.9" width="12.7" height="3.1" rx="2" fill="#53fca1" opacity="0.38"/><rect x="202.7" y="701.3" width="12.7" height="3.7" rx="2" fill="#53fca1" opacity="0.39"/><rect x="218.3" y="695.9" width="12.7" height="9.1" rx="2" fill="#53fca1" opacity="0.45"/><rect x="234.0" y="703.0" width="12.7" height="2.0" rx="2" fill="#53fca1" opacity="0.35"/><rect x="249.7" y="703.0" width="12.7" height="2.0" rx="2" fill="#53fca1" opacity="0.37"/><rect x="265.3" y="692.4" width="12.7" height="12.6" rx="2" fill="#53fca1" opacity="0.49"/><rect x="281.0" y="687.9" width="12.7" height="17.1" rx="2" fill="#53fca1" opacity="0.54"/><rect x="296.7" y="696.3" width="12.7" height="8.7" rx="2" fill="#53fca1" opacity="0.44"/><rect x="312.3" y="680.3" width="12.7" height="24.7" rx="2" fill="#53fca1" opacity="0.62"/><rect x="328.0" y="666.4" width="12.7" height="38.6" rx="2" fill="#53fca1" opacity="0.77"/><rect x="343.7" y="685.7" width="12.7" height="19.3" rx="2" fill="#53fca1" opacity="0.56"/><rect x="359.3" y="691.7" width="12.7" height="13.3" rx="2" fill="#53fca1" opacity="0.49"/><rect x="375.0" y="645.0" width="12.7" height="60.0" rx="2" fill="#53fca1" opacity="1.00"/><rect x="390.7" y="684.7" width="12.7" height="20.3" rx="2" fill="#53fca1" opacity="0.57"/><rect x="406.3" y="665.3" width="12.7" height="39.7" rx="2" fill="#53fca1" opacity="0.78"/><rect x="422.0" y="681.0" width="12.7" height="24.0" rx="2" fill="#53fca1" opacity="0.61"/><rect x="437.7" y="693.1" width="12.7" height="11.9" rx="2" fill="#53fca1" opacity="0.48"/><rect x="453.3" y="702.3" width="12.7" height="2.7" rx="2" fill="#53fca1" opacity="0.38"/><rect x="469.0" y="703.0" width="12.7" height="2.0" rx="2" fill="#53fca1" opacity="0.35"/><rect x="484.7" y="703.0" width="12.7" height="2.0" rx="2" fill="#53fca1" opacity="0.35"/><rect x="500.3" y="697.1" width="12.7" height="7.9" rx="2" fill="#ffb454" opacity="1.00"/><text x="46" y="1077" font-size="10.5" fill="#8b949e">Σ <tspan fill="#53fca1" font-weight="700">109,575,999,264</tspan> tok · cache <tspan fill="#53fca1">96.7%</tspan> · peak <tspan fill="#ffb454">4.05B</tspan> · <tspan fill="#a5d6ff">22</tspan> output-significant models</text>
<rect width="560" height="1103" rx="14" fill="url(#scan)"/>
</g></svg>