<svg xmlns="http://www.w3.org/2000/svg" viewBox="0 0 560 2086" width="560" font-family="ui-monospace,'JetBrains Mono','SF Mono',Menlo,Consolas,monospace"><g>
<defs>
  <filter id="drop" x="-20%" y="-20%" width="140%" height="140%">
    <feDropShadow dx="0" dy="5" stdDeviation="7" flood-color="#000" flood-opacity="0.45"/>
  </filter>
</defs>
<polygon points="2,13 16,6 30,13 44,6 58,13 72,6 86,13 100,6 114,13 128,6 142,13 156,6 170,13 184,6 198,13 212,6 226,13 240,6 254,13 268,6 282,13 296,6 310,13 324,6 338,13 352,6 366,13 380,6 394,13 408,6 422,13 436,6 450,13 464,6 478,13 492,6 506,13 520,6 534,13 548,6 548,1016 534,1023 520,1016 506,1023 492,1016 478,1023 464,1016 450,1023 436,1016 422,1023 408,1016 394,1023 380,1016 366,1023 352,1016 338,1023 324,1016 310,1023 296,1016 282,1023 268,1016 254,1023 240,1016 226,1023 212,1016 198,1023 184,1016 170,1023 156,1016 142,1023 128,1016 114,1023 100,1016 86,1023 72,1016 58,1023 44,1016 30,1023 16,1016 2,1023" fill="#f7f3e9" filter="url(#drop)"/>
<text x="280.0" y="78" text-anchor="middle" font-size="17" fill="#211c16" font-weight="700">MAXMONEYCASH</text>
<text x="280.0" y="102" text-anchor="middle" font-size="11" fill="#6b6256">AI COMPUTE STATEMENT</text>
<text x="280.0" y="120" text-anchor="middle" font-size="11" fill="#6b6256">BILLING PERIOD: JUL 2025 — JUN 2026</text>
<text x="280.0" y="140" text-anchor="middle" font-size="13" fill="#6b6256" xml:space="preserve">───────────────────────────────────</text>
<g font-size="13"><text x="42" y="159" fill="#211c16">STATEMENT #</text><text x="518" y="159" text-anchor="end" fill="#211c16">MMC_20260621_3D2D4B</text></g>
<g font-size="13"><text x="42" y="178" fill="#211c16">ISSUED</text><text x="518" y="178" text-anchor="end" fill="#211c16">2026-06-21 15:31 UTC</text></g>
<g font-size="13"><text x="42" y="197" fill="#211c16">BILLED TO</text><text x="518" y="197" text-anchor="end" fill="#211c16">MAX @MAXMONEYCASH</text></g>
<g font-size="13"><text x="42" y="216" fill="#211c16">SERVED BY</text><text x="518" y="216" text-anchor="end" fill="#211c16">7 CODING AGENTS</text></g>
<text x="280.0" y="235" text-anchor="middle" font-size="13" fill="#211c16" xml:space="preserve">━━━━━━━━━━━━━━━━━━━━━━━━━━━━━━━━━━━</text>
<g font-size="13" font-weight="700"><text x="42" y="254" fill="#211c16">ITEM</text><text x="518" y="254" text-anchor="end" fill="#211c16">TOKENS</text></g>
<text x="280.0" y="273" text-anchor="middle" font-size="13" fill="#6b6256" xml:space="preserve">───────────────────────────────────</text>
<g font-size="13"><text x="42" y="292" fill="#211c16">CLAUDE CODE</text><text x="518" y="292" text-anchor="end" fill="#211c16">11,112,145,628</text></g>
<g font-size="13"><text x="42" y="311" fill="#211c16">  · OPUS 4.7</text><text x="518" y="311" text-anchor="end" fill="#211c16">7,360,341,247</text></g>
<g font-size="13"><text x="42" y="328" fill="#211c16">  · OPUS 4.8</text><text x="518" y="328" text-anchor="end" fill="#211c16">2,666,304,097</text></g>
<g font-size="13"><text x="42" y="345" fill="#211c16">  · FABLE 5</text><text x="518" y="345" text-anchor="end" fill="#211c16">1,069,240,697</text></g>
<g font-size="13"><text x="42" y="362" fill="#211c16">CODEX</text><text x="518" y="362" text-anchor="end" fill="#211c16">5,222,146,790</text></g>
<g font-size="13"><text x="42" y="381" fill="#211c16">DROID</text><text x="518" y="381" text-anchor="end" fill="#211c16">1,012,880,228</text></g>
<g font-size="13"><text x="42" y="400" fill="#211c16">KIMI CODE</text><text x="518" y="400" text-anchor="end" fill="#211c16">419,632,660</text></g>
<g font-size="13"><text x="42" y="419" fill="#211c16">CURSOR</text><text x="518" y="419" text-anchor="end" fill="#211c16">189,060,383</text></g>
<g font-size="13"><text x="42" y="438" fill="#211c16">GROK BUILD</text><text x="518" y="438" text-anchor="end" fill="#211c16">22,208,924</text></g>
<g font-size="13"><text x="42" y="457" fill="#211c16">OPENCODE</text><text x="518" y="457" text-anchor="end" fill="#211c16">0</text></g>
<text x="280.0" y="476" text-anchor="middle" font-size="13" fill="#6b6256" xml:space="preserve">───────────────────────────────────</text>
<g font-size="13" font-weight="700"><text x="42" y="495" fill="#211c16">SUBTOTAL</text><text x="518" y="495" text-anchor="end" fill="#211c16">21,451,882,400 TOK</text></g>
<text x="280.0" y="514" text-anchor="middle" font-size="13" fill="#211c16" xml:space="preserve">━━━━━━━━━━━━━━━━━━━━━━━━━━━━━━━━━━━</text>
<g font-size="13" font-weight="700"><text x="42" y="533" fill="#211c16">LEDGER</text><text x="518" y="533" text-anchor="end" fill="#211c16">READ vs WRITTEN</text></g>
<text x="280.0" y="552" text-anchor="middle" font-size="13" fill="#6b6256" xml:space="preserve">───────────────────────────────────</text>
<g font-size="13" font-weight="700"><text x="42" y="571" fill="#211c16">OUTPUT (WRITTEN)</text><text x="518" y="571" text-anchor="end" fill="#211c16">68,349,233</text></g>
<g font-size="13"><text x="42" y="590" fill="#211c16">  · CLAUDE CODE</text><text x="518" y="590" text-anchor="end" fill="#211c16">33,137,124 (48%)</text></g>
<g font-size="13"><text x="42" y="607" fill="#211c16">  · CODEX</text><text x="518" y="607" text-anchor="end" fill="#211c16">16,047,281 (23%)</text></g>
<g font-size="13"><text x="42" y="624" fill="#211c16">  · DROID</text><text x="518" y="624" text-anchor="end" fill="#211c16">5,780,580 (8%)</text></g>
<g font-size="13"><text x="42" y="641" fill="#211c16">  · KIMI CODE</text><text x="518" y="641" text-anchor="end" fill="#211c16">3,399,207 (5%)</text></g>
<g font-size="13"><text x="42" y="658" fill="#211c16">  · CURSOR</text><text x="518" y="658" text-anchor="end" fill="#211c16">1,132,228 (2%)</text></g>
<g font-size="13"><text x="42" y="675" fill="#211c16">  · GROK BUILD</text><text x="518" y="675" text-anchor="end" fill="#211c16">141,433 (0%)</text></g>
<g font-size="13"><text x="42" y="692" fill="#211c16">  · OPENCODE</text><text x="518" y="692" text-anchor="end" fill="#211c16">0 (0%)</text></g>
<g font-size="13"><text x="42" y="709" fill="#6b6256">  ≈ NOVELS WRITTEN</text><text x="518" y="709" text-anchor="end" fill="#6b6256">570</text></g>
<g font-size="13"><text x="42" y="729" fill="#211c16">FRESH INPUT (READ)</text><text x="518" y="729" text-anchor="end" fill="#211c16">456,305,988</text></g>
<g font-size="13"><text x="42" y="748" fill="#211c16">CACHE WRITES</text><text x="518" y="748" text-anchor="end" fill="#211c16">316,676,744</text></g>
<g font-size="13"><text x="42" y="767" fill="#211c16">CACHE READS</text><text x="518" y="767" text-anchor="end" fill="#211c16">20,609,116,836</text></g>
<g font-size="13"><text x="42" y="786" fill="#6b6256">  · CONTEXT RE-READ</text><text x="518" y="786" text-anchor="end" fill="#6b6256">96.1% OF ALL TOK</text></g>
<g font-size="13"><text x="42" y="806" fill="#211c16">REASONING (DROID)</text><text x="518" y="806" text-anchor="end" fill="#211c16">1,433,599</text></g>
<text x="280.0" y="826" text-anchor="middle" font-size="13" fill="#211c16" xml:space="preserve">━━━━━━━━━━━━━━━━━━━━━━━━━━━━━━━━━━━</text>
<g font-size="13" font-weight="700"><text x="42" y="845" fill="#211c16">TOTAL USD</text><text x="518" y="845" text-anchor="end" fill="#211c16">$16,308.04</text></g>
<g font-size="13"><text x="42" y="869" fill="#211c16">AVG / MONTH</text><text x="518" y="869" text-anchor="end" fill="#211c16">$1,359.00</text></g>
<text x="280.0" y="889" text-anchor="middle" font-size="13" fill="#6b6256" xml:space="preserve">───────────────────────────────────</text>
<text x="280.0" y="908" text-anchor="middle" font-size="12" fill="#211c16">21,451,882,400 TOKENS.</text>
<text x="280.0" y="927" text-anchor="middle" font-size="12" fill="#211c16">ZERO REGRETS.</text>
<text x="280.0" y="949" text-anchor="middle" font-size="14" fill="#211c16">||||| || ||||||  || |||| | || ||||||| </text>
<text x="280.0" y="965" text-anchor="middle" font-size="10" fill="#6b6256">MMC_20260621_3D2D4B</text>
<text x="280.0" y="985" text-anchor="middle" font-size="12" fill="#211c16" font-weight="700">★ PAID IN FULL · NO REFUNDS ★</text>
</g><g transform="translate(0,1057)">
<defs>
  <linearGradient id="bg" x1="0" y1="0" x2="0" y2="1">
    <stop offset="0" stop-color="#0d1117"/><stop offset="1" stop-color="#10151d"/>
  </linearGradient>
  <pattern id="scan" width="4" height="4" patternUnits="userSpaceOnUse">
    <rect width="4" height="2" fill="#000" opacity="0.14"/>
  </pattern>
</defs>
<rect width="560" height="1029" rx="14" fill="url(#bg)" stroke="#30363d"/>
<circle cx="24" cy="24" r="6" fill="#ff5f56"/><circle cx="44" cy="24" r="6" fill="#ffbd2e"/><circle cx="64" cy="24" r="6" fill="#27c93f"/>
<text x="280.0" y="28" text-anchor="middle" font-size="12" fill="#8b949e">token-ops</text>
<line x1="0" y1="42" x2="560" y2="42" stroke="#30363d"/>
<text x="46" y="70" font-size="12" fill="#8b949e">~ <tspan fill="#53fca1">❯</tspan> <tspan fill="#c9d1d9">ccusage monthly --json | jq .monthly</tspan></text>
<rect x="46.0" y="271.1" width="39.8" height="1.5" rx="2" fill="#d97757"/><rect x="46.0" y="268.9" width="39.8" height="2.2" rx="2" fill="#19c37d"/><text x="65.9" y="261.9" text-anchor="middle" font-size="9" fill="#53fca1">218.5M</text><text x="65.9" y="288" text-anchor="middle" font-size="10" fill="#8b949e">Oct</text><rect x="99.8" y="272.0" width="39.8" height="1.5" rx="2" fill="#19c37d"/><text x="119.7" y="265.0" text-anchor="middle" font-size="9" fill="#53fca1">2.93M</text><text x="119.7" y="288" text-anchor="middle" font-size="10" fill="#8b949e">Nov</text><rect x="153.6" y="271.8" width="39.8" height="1.5" rx="2" fill="#19c37d"/><text x="173.4" y="264.8" text-anchor="middle" font-size="9" fill="#53fca1">13.4M</text><text x="173.4" y="288" text-anchor="middle" font-size="10" fill="#8b949e">Dec</text><rect x="207.3" y="272.0" width="39.8" height="1.5" rx="2" fill="#d97757"/><rect x="207.3" y="271.5" width="39.8" height="1.5" rx="2" fill="#19c37d"/><rect x="207.3" y="271.5" width="39.8" height="1.5" rx="2" fill="#8b949e"/><text x="227.2" y="264.5" text-anchor="middle" font-size="9" fill="#53fca1">33.3M</text><text x="227.2" y="288" text-anchor="middle" font-size="10" fill="#8b949e">Jan</text><rect x="261.1" y="272.0" width="39.8" height="1.5" rx="2" fill="#d97757"/><rect x="261.1" y="261.9" width="39.8" height="10.1" rx="2" fill="#19c37d"/><rect x="261.1" y="258.8" width="39.8" height="3.1" rx="2" fill="#a371f7"/><rect x="261.1" y="258.4" width="39.8" height="1.5" rx="2" fill="#8b949e"/><text x="281.0" y="251.4" text-anchor="middle" font-size="9" fill="#53fca1">955.3M</text><text x="281.0" y="288" text-anchor="middle" font-size="10" fill="#8b949e">Feb</text><rect x="314.9" y="266.4" width="39.8" height="5.6" rx="2" fill="#d97757"/><rect x="314.9" y="241.1" width="39.8" height="25.3" rx="2" fill="#19c37d"/><rect x="314.9" y="240.6" width="39.8" height="1.5" rx="2" fill="#a371f7"/><text x="334.8" y="233.6" text-anchor="middle" font-size="9" fill="#53fca1">2.20B</text><text x="334.8" y="288" text-anchor="middle" font-size="10" fill="#8b949e">Mar</text><rect x="368.7" y="267.2" width="39.8" height="4.8" rx="2" fill="#d97757"/><rect x="368.7" y="255.9" width="39.8" height="11.3" rx="2" fill="#19c37d"/><text x="388.6" y="248.9" text-anchor="middle" font-size="9" fill="#53fca1">1.13B</text><text x="388.6" y="288" text-anchor="middle" font-size="10" fill="#8b949e">Apr</text><rect x="422.4" y="167.1" width="39.8" height="104.9" rx="2" fill="#d97757"/><rect x="422.4" y="94.4" width="39.8" height="72.8" rx="2" fill="#19c37d"/><rect x="422.4" y="92.0" width="39.8" height="2.4" rx="2" fill="#a371f7"/><text x="442.3" y="85.0" text-anchor="middle" font-size="9" fill="#53fca1">12.6B</text><text x="442.3" y="288" text-anchor="middle" font-size="10" fill="#8b949e">May</text><rect x="476.2" y="218.7" width="39.8" height="53.3" rx="2" fill="#d97757"/><rect x="476.2" y="212.7" width="39.8" height="6.0" rx="2" fill="#19c37d"/><rect x="476.2" y="212.7" width="39.8" height="1.5" rx="2" fill="#a371f7"/><rect x="476.2" y="212.4" width="39.8" height="1.5" rx="2" fill="#8b949e"/><text x="496.1" y="205.4" text-anchor="middle" font-size="9" fill="#53fca1">4.17B</text><text x="496.1" y="288" text-anchor="middle" font-size="10" fill="#8b949e">Jun</text><rect x="46" y="302" width="9" height="9" rx="2" fill="#d97757"/><text x="60" y="310" font-size="10" fill="#c9d1d9">Claude</text><rect x="124" y="302" width="9" height="9" rx="2" fill="#19c37d"/><text x="138" y="310" font-size="10" fill="#c9d1d9">GPT</text><rect x="181" y="302" width="9" height="9" rx="2" fill="#a371f7"/><text x="195" y="310" font-size="10" fill="#c9d1d9">Kimi</text><rect x="245" y="302" width="9" height="9" rx="2" fill="#58a6ff"/><text x="259" y="310" font-size="10" fill="#c9d1d9">GLM</text><rect x="302" y="302" width="9" height="9" rx="2" fill="#8b949e"/><text x="316" y="310" font-size="10" fill="#c9d1d9">Other</text><text x="46" y="336" font-size="11" letter-spacing="2" fill="#8b949e">TOP MODELS · ALL-TIME</text><text x="46" y="359" font-size="11" fill="#c9d1d9">claude-opus-4-7</text><rect x="218" y="350" width="150.0" height="11" rx="3" fill="#d97757" opacity="0.9"/><text x="376.0" y="359" font-size="10" fill="#8b949e">7.36B · $5,608</text><text x="46" y="383" font-size="11" fill="#c9d1d9">gpt-5.5</text><rect x="218" y="374" width="122.9" height="11" rx="3" fill="#19c37d" opacity="0.9"/><text x="348.9" y="383" font-size="10" fill="#8b949e">6.03B · $4,676</text><text x="46" y="407" font-size="11" fill="#c9d1d9">claude-opus-4-8</text><rect x="218" y="398" width="54.3" height="11" rx="3" fill="#d97757" opacity="0.9"/><text x="280.3" y="407" font-size="10" fill="#8b949e">2.67B · $2,177</text><text x="46" y="431" font-size="11" fill="#c9d1d9">gpt-5.3-codex</text><rect x="218" y="422" width="33.6" height="11" rx="3" fill="#19c37d" opacity="0.9"/><text x="259.6" y="431" font-size="10" fill="#8b949e">1.65B · $506</text><text x="46" y="455" font-size="11" fill="#c9d1d9">gpt-5.4</text><rect x="218" y="446" width="22.5" height="11" rx="3" fill="#19c37d" opacity="0.9"/><text x="248.5" y="455" font-size="10" fill="#8b949e">1.10B · $489</text><text x="46" y="479" font-size="11" fill="#c9d1d9">claude-fable-5</text><rect x="218" y="470" width="21.8" height="11" rx="3" fill="#d97757" opacity="0.9"/><text x="247.8" y="479" font-size="10" fill="#8b949e">1.07B · $1,597</text><text x="46" y="503" font-size="11" fill="#c9d1d9">claude-opus-4-6</text><rect x="218" y="494" width="14.0" height="11" rx="3" fill="#d97757" opacity="0.9"/><text x="240.0" y="503" font-size="10" fill="#8b949e">686.2M · $704</text><text x="46" y="527" font-size="11" fill="#c9d1d9">kimi-for-coding</text><rect x="218" y="518" width="8.6" height="11" rx="3" fill="#a371f7" opacity="0.9"/><text x="234.6" y="527" font-size="10" fill="#8b949e">419.6M · $74</text><text x="46" y="568" font-size="11" letter-spacing="2" fill="#8b949e">OPENCODE LAB · 0 MODELS TESTED</text><text x="46" y="635" font-size="11" letter-spacing="2" fill="#8b949e">LAST 30 DAYS · TOKENS/DAY</text><rect x="46.0" y="702.2" width="13.2" height="2.8" rx="2" fill="#53fca1" opacity="0.38"/><rect x="62.2" y="690.5" width="13.2" height="14.5" rx="2" fill="#53fca1" opacity="0.51"/><rect x="78.4" y="677.3" width="13.2" height="27.7" rx="2" fill="#53fca1" opacity="0.65"/><rect x="94.6" y="692.6" width="13.2" height="12.4" rx="2" fill="#53fca1" opacity="0.48"/><rect x="110.8" y="693.7" width="13.2" height="11.3" rx="2" fill="#53fca1" opacity="0.47"/><rect x="127.0" y="679.3" width="13.2" height="25.7" rx="2" fill="#53fca1" opacity="0.63"/><rect x="143.2" y="688.9" width="13.2" height="16.1" rx="2" fill="#53fca1" opacity="0.52"/><rect x="159.4" y="686.1" width="13.2" height="18.9" rx="2" fill="#53fca1" opacity="0.55"/><rect x="175.7" y="693.7" width="13.2" height="11.3" rx="2" fill="#53fca1" opacity="0.47"/><rect x="191.9" y="700.5" width="13.2" height="4.5" rx="2" fill="#53fca1" opacity="0.40"/><rect x="208.1" y="692.8" width="13.2" height="12.2" rx="2" fill="#53fca1" opacity="0.48"/><rect x="224.3" y="691.3" width="13.2" height="13.7" rx="2" fill="#53fca1" opacity="0.50"/><rect x="240.5" y="645.0" width="13.2" height="60.0" rx="2" fill="#53fca1" opacity="1.00"/><rect x="256.7" y="700.3" width="13.2" height="4.7" rx="2" fill="#53fca1" opacity="0.40"/><rect x="272.9" y="701.8" width="13.2" height="3.2" rx="2" fill="#53fca1" opacity="0.38"/><rect x="289.1" y="697.2" width="13.2" height="7.8" rx="2" fill="#53fca1" opacity="0.43"/><rect x="305.3" y="703.0" width="13.2" height="2.0" rx="2" fill="#53fca1" opacity="0.36"/><rect x="321.5" y="703.0" width="13.2" height="2.0" rx="2" fill="#53fca1" opacity="0.36"/><rect x="337.7" y="703.0" width="13.2" height="2.0" rx="2" fill="#53fca1" opacity="0.37"/><rect x="353.9" y="703.0" width="13.2" height="2.0" rx="2" fill="#53fca1" opacity="0.37"/><rect x="370.1" y="689.0" width="13.2" height="16.0" rx="2" fill="#53fca1" opacity="0.52"/><rect x="386.3" y="692.0" width="13.2" height="13.0" rx="2" fill="#53fca1" opacity="0.49"/><rect x="402.6" y="694.2" width="13.2" height="10.8" rx="2" fill="#53fca1" opacity="0.47"/><rect x="418.8" y="703.0" width="13.2" height="2.0" rx="2" fill="#53fca1" opacity="0.36"/><rect x="435.0" y="698.0" width="13.2" height="7.0" rx="2" fill="#53fca1" opacity="0.43"/><rect x="451.2" y="696.5" width="13.2" height="8.5" rx="2" fill="#53fca1" opacity="0.44"/><rect x="467.4" y="690.8" width="13.2" height="14.2" rx="2" fill="#53fca1" opacity="0.50"/><rect x="483.6" y="700.0" width="13.2" height="5.0" rx="2" fill="#53fca1" opacity="0.40"/><rect x="499.8" y="699.4" width="13.2" height="5.6" rx="2" fill="#ffb454" opacity="1.00"/><text x="46" y="1003" font-size="10.5" fill="#8b949e">Σ <tspan fill="#53fca1" font-weight="700">21,451,882,400</tspan> tok · cache <tspan fill="#53fca1">96.1%</tspan> · peak <tspan fill="#ffb454">2.42B</tspan> · <tspan fill="#a5d6ff">25</tspan> models</text>
<rect width="560" height="1029" rx="14" fill="url(#scan)"/>
</g></svg>