<svg xmlns="http://www.w3.org/2000/svg" viewBox="0 0 1148 1067" width="1148" font-family="ui-monospace,'JetBrains Mono','SF Mono',Menlo,Consolas,monospace"><g>
<defs>
  <filter id="drop" x="-20%" y="-20%" width="140%" height="140%">
    <feDropShadow dx="0" dy="5" stdDeviation="7" flood-color="#000" flood-opacity="0.45"/>
  </filter>
</defs>
<polygon points="2,13 16,6 30,13 44,6 58,13 72,6 86,13 100,6 114,13 128,6 142,13 156,6 170,13 184,6 198,13 212,6 226,13 240,6 254,13 268,6 282,13 296,6 310,13 324,6 338,13 352,6 366,13 380,6 394,13 408,6 422,13 436,6 450,13 464,6 478,13 492,6 506,13 520,6 534,13 548,6 548,1054 534,1061 520,1054 506,1061 492,1054 478,1061 464,1054 450,1061 436,1054 422,1061 408,1054 394,1061 380,1054 366,1061 352,1054 338,1061 324,1054 310,1061 296,1054 282,1061 268,1054 254,1061 240,1054 226,1061 212,1054 198,1061 184,1054 170,1061 156,1054 142,1061 128,1054 114,1061 100,1054 86,1061 72,1054 58,1061 44,1054 30,1061 16,1054 2,1061" fill="#f7f3e9" filter="url(#drop)"/>
<text x="280.0" y="78" text-anchor="middle" font-size="17" fill="#211c16" font-weight="700">MAXMONEYCASH</text>
<text x="280.0" y="102" text-anchor="middle" font-size="11" fill="#6b6256">AI COMPUTE STATEMENT</text>
<text x="280.0" y="120" text-anchor="middle" font-size="11" fill="#6b6256">BILLING PERIOD: JUL 2025 — JUL 2026</text>
<text x="280.0" y="140" text-anchor="middle" font-size="13" fill="#6b6256" xml:space="preserve">───────────────────────────────────</text>
<g font-size="13"><text x="42" y="159" fill="#211c16">STATEMENT #</text><text x="518" y="159" text-anchor="end" fill="#211c16">MMC_20260701_86AB1C</text></g>
<g font-size="13"><text x="42" y="178" fill="#211c16">ISSUED</text><text x="518" y="178" text-anchor="end" fill="#211c16">2026-07-01 13:26 UTC</text></g>
<g font-size="13"><text x="42" y="197" fill="#211c16">DATA AS OF</text><text x="518" y="197" text-anchor="end" fill="#211c16">2026-07-01 13:15:39 UTC</text></g>
<g font-size="13"><text x="42" y="216" fill="#211c16">BILLED TO</text><text x="518" y="216" text-anchor="end" fill="#211c16">MAX @MAXMONEYCASH</text></g>
<g font-size="13"><text x="42" y="235" fill="#211c16">SERVED BY</text><text x="518" y="235" text-anchor="end" fill="#211c16">7 AGENTS + 8-HEAD CLOUD SWARM</text></g>
<g font-size="13"><text x="42" y="254" fill="#211c16">FLEET</text><text x="518" y="254" text-anchor="end" fill="#211c16">local 22.6B · cloud 15.9B</text></g>
<text x="280.0" y="273" text-anchor="middle" font-size="13" fill="#211c16" xml:space="preserve">━━━━━━━━━━━━━━━━━━━━━━━━━━━━━━━━━━━</text>
<g font-size="13" font-weight="700"><text x="42" y="292" fill="#211c16">ITEM</text><text x="518" y="292" text-anchor="end" fill="#211c16">TOKENS</text></g>
<text x="280.0" y="311" text-anchor="middle" font-size="13" fill="#6b6256" xml:space="preserve">───────────────────────────────────</text>
<g font-size="13"><text x="42" y="330" fill="#211c16">CLAUDE CODE</text><text x="518" y="330" text-anchor="end" fill="#211c16">25,736,473,972</text></g>
<g font-size="13"><text x="42" y="349" fill="#211c16">  · OPUS 4.7</text><text x="518" y="349" text-anchor="end" fill="#211c16">7,360,341,247</text></g>
<g font-size="13"><text x="42" y="366" fill="#211c16">  · OPUS 4.8</text><text x="518" y="366" text-anchor="end" fill="#211c16">17,156,783,410</text></g>
<g font-size="13"><text x="42" y="383" fill="#211c16">  · FABLE 5</text><text x="518" y="383" text-anchor="end" fill="#211c16">1,069,240,697</text></g>
<g font-size="13"><text x="42" y="400" fill="#211c16">CODEX</text><text x="518" y="400" text-anchor="end" fill="#211c16">11,196,869,054</text></g>
<g font-size="13"><text x="42" y="419" fill="#211c16">DROID</text><text x="518" y="419" text-anchor="end" fill="#211c16">1,012,880,228</text></g>
<g font-size="13"><text x="42" y="438" fill="#211c16">KIMI CODE</text><text x="518" y="438" text-anchor="end" fill="#211c16">452,044,388</text></g>
<g font-size="13"><text x="42" y="457" fill="#211c16">CURSOR</text><text x="518" y="457" text-anchor="end" fill="#211c16">229,750,568</text></g>
<g font-size="13"><text x="42" y="476" fill="#211c16">OPENCODE</text><text x="518" y="476" text-anchor="end" fill="#211c16">65,964,739</text></g>
<g font-size="13"><text x="42" y="495" fill="#211c16">GROK BUILD</text><text x="518" y="495" text-anchor="end" fill="#211c16">0</text></g>
<text x="280.0" y="514" text-anchor="middle" font-size="13" fill="#6b6256" xml:space="preserve">───────────────────────────────────</text>
<g font-size="13" font-weight="700"><text x="42" y="533" fill="#211c16">SUBTOTAL</text><text x="518" y="533" text-anchor="end" fill="#211c16">38,693,982,949 TOK</text></g>
<text x="280.0" y="552" text-anchor="middle" font-size="13" fill="#211c16" xml:space="preserve">━━━━━━━━━━━━━━━━━━━━━━━━━━━━━━━━━━━</text>
<g font-size="13" font-weight="700"><text x="42" y="571" fill="#211c16">LEDGER</text><text x="518" y="571" text-anchor="end" fill="#211c16">READ vs WRITTEN</text></g>
<text x="280.0" y="590" text-anchor="middle" font-size="13" fill="#6b6256" xml:space="preserve">───────────────────────────────────</text>
<g font-size="13" font-weight="700"><text x="42" y="609" fill="#211c16">OUTPUT (WRITTEN)</text><text x="518" y="609" text-anchor="end" fill="#211c16">116,297,275</text></g>
<g font-size="13"><text x="42" y="628" fill="#211c16">  · CLAUDE CODE</text><text x="518" y="628" text-anchor="end" fill="#211c16">73,599,671 (63%)</text></g>
<g font-size="13"><text x="42" y="645" fill="#211c16">  · CODEX</text><text x="518" y="645" text-anchor="end" fill="#211c16">31,261,475 (27%)</text></g>
<g font-size="13"><text x="42" y="662" fill="#211c16">  · DROID</text><text x="518" y="662" text-anchor="end" fill="#211c16">5,780,580 (5%)</text></g>
<g font-size="13"><text x="42" y="679" fill="#211c16">  · KIMI CODE</text><text x="518" y="679" text-anchor="end" fill="#211c16">3,649,690 (3%)</text></g>
<g font-size="13"><text x="42" y="696" fill="#211c16">  · CURSOR</text><text x="518" y="696" text-anchor="end" fill="#211c16">1,425,306 (1%)</text></g>
<g font-size="13"><text x="42" y="713" fill="#211c16">  · OPENCODE</text><text x="518" y="713" text-anchor="end" fill="#211c16">580,553 (0%)</text></g>
<g font-size="13"><text x="42" y="730" fill="#211c16">  · GROK BUILD</text><text x="518" y="730" text-anchor="end" fill="#211c16">0 (0%)</text></g>
<g font-size="13"><text x="42" y="747" fill="#6b6256">  ≈ NOVELS WRITTEN</text><text x="518" y="747" text-anchor="end" fill="#6b6256">969</text></g>
<g font-size="13"><text x="42" y="767" fill="#211c16">FRESH INPUT (READ)</text><text x="518" y="767" text-anchor="end" fill="#211c16">599,899,458</text></g>
<g font-size="13"><text x="42" y="786" fill="#211c16">CACHE WRITES</text><text x="518" y="786" text-anchor="end" fill="#211c16">441,163,137</text></g>
<g font-size="13"><text x="42" y="805" fill="#211c16">CACHE READS</text><text x="518" y="805" text-anchor="end" fill="#211c16">37,535,189,480</text></g>
<g font-size="13"><text x="42" y="824" fill="#6b6256">  · CONTEXT RE-READ</text><text x="518" y="824" text-anchor="end" fill="#6b6256">97.0% OF ALL TOK</text></g>
<g font-size="13"><text x="42" y="844" fill="#211c16">REASONING (DROID)</text><text x="518" y="844" text-anchor="end" fill="#211c16">1,433,599</text></g>
<text x="280.0" y="864" text-anchor="middle" font-size="13" fill="#211c16" xml:space="preserve">━━━━━━━━━━━━━━━━━━━━━━━━━━━━━━━━━━━</text>
<g font-size="13" font-weight="700"><text x="42" y="883" fill="#211c16">TOTAL USD</text><text x="518" y="883" text-anchor="end" fill="#211c16">$27,673.25</text></g>
<g font-size="13"><text x="42" y="907" fill="#211c16">AVG / MONTH</text><text x="518" y="907" text-anchor="end" fill="#211c16">$2,128.71</text></g>
<text x="280.0" y="927" text-anchor="middle" font-size="13" fill="#6b6256" xml:space="preserve">───────────────────────────────────</text>
<text x="280.0" y="946" text-anchor="middle" font-size="12" fill="#211c16">38,693,982,949 TOKENS.</text>
<text x="280.0" y="965" text-anchor="middle" font-size="12" fill="#211c16">ZERO REGRETS.</text>
<text x="280.0" y="987" text-anchor="middle" font-size="14" fill="#211c16"> || | ||| ||||| || ||| | | ||||||||  |</text>
<text x="280.0" y="1003" text-anchor="middle" font-size="10" fill="#6b6256">MMC_20260701_86AB1C</text>
<text x="280.0" y="1023" text-anchor="middle" font-size="12" fill="#211c16" font-weight="700">★ PAID IN FULL · NO REFUNDS ★</text>
</g><g transform="translate(588,0)">
<defs>
  <linearGradient id="bg" x1="0" y1="0" x2="0" y2="1">
    <stop offset="0" stop-color="#0d1117"/><stop offset="1" stop-color="#10151d"/>
  </linearGradient>
  <pattern id="scan" width="4" height="4" patternUnits="userSpaceOnUse">
    <rect width="4" height="2" fill="#000" opacity="0.14"/>
  </pattern>
</defs>
<rect width="560" height="1067" rx="14" fill="url(#bg)" stroke="#30363d"/>
<circle cx="24" cy="24" r="6" fill="#ff5f56"/><circle cx="44" cy="24" r="6" fill="#ffbd2e"/><circle cx="64" cy="24" r="6" fill="#27c93f"/>
<text x="280.0" y="28" text-anchor="middle" font-size="12" fill="#8b949e">token-ops</text>
<line x1="0" y1="42" x2="560" y2="42" stroke="#30363d"/>
<text x="46" y="70" font-size="12" fill="#8b949e">~ <tspan fill="#53fca1">❯</tspan> <tspan fill="#c9d1d9">ccusage monthly --json | jq .monthly</tspan></text>
<rect x="46.0" y="272.0" width="39.8" height="1.5" rx="2" fill="#d97757"/><rect x="46.0" y="272.0" width="39.8" height="1.5" rx="2" fill="#19c37d"/><rect x="46.0" y="272.0" width="39.8" height="1.5" rx="2" fill="#8b949e"/><text x="65.9" y="265.0" text-anchor="middle" font-size="9" fill="#53fca1">23.2M</text><text x="65.9" y="288" text-anchor="middle" font-size="10" fill="#8b949e">Nov</text><rect x="99.8" y="271.9" width="39.8" height="1.5" rx="2" fill="#19c37d"/><rect x="99.8" y="271.9" width="39.8" height="1.5" rx="2" fill="#8b949e"/><text x="119.7" y="264.9" text-anchor="middle" font-size="9" fill="#53fca1">19.7M</text><text x="119.7" y="288" text-anchor="middle" font-size="10" fill="#8b949e">Dec</text><rect x="153.6" y="272.0" width="39.8" height="1.5" rx="2" fill="#d97757"/><rect x="153.6" y="271.7" width="39.8" height="1.5" rx="2" fill="#19c37d"/><rect x="153.6" y="271.7" width="39.8" height="1.5" rx="2" fill="#8b949e"/><text x="173.4" y="264.7" text-anchor="middle" font-size="9" fill="#53fca1">38.3M</text><text x="173.4" y="288" text-anchor="middle" font-size="10" fill="#8b949e">Jan</text><rect x="207.3" y="272.0" width="39.8" height="1.5" rx="2" fill="#d97757"/><rect x="207.3" y="265.9" width="39.8" height="6.1" rx="2" fill="#19c37d"/><rect x="207.3" y="264.0" width="39.8" height="1.9" rx="2" fill="#a371f7"/><rect x="207.3" y="263.7" width="39.8" height="1.5" rx="2" fill="#58a6ff"/><rect x="207.3" y="263.5" width="39.8" height="1.5" rx="2" fill="#8b949e"/><text x="227.2" y="256.5" text-anchor="middle" font-size="9" fill="#53fca1">998.0M</text><text x="227.2" y="288" text-anchor="middle" font-size="10" fill="#8b949e">Feb</text><rect x="261.1" y="268.6" width="39.8" height="3.4" rx="2" fill="#d97757"/><rect x="261.1" y="253.4" width="39.8" height="15.3" rx="2" fill="#19c37d"/><rect x="261.1" y="253.1" width="39.8" height="1.5" rx="2" fill="#a371f7"/><rect x="261.1" y="253.1" width="39.8" height="1.5" rx="2" fill="#8b949e"/><text x="281.0" y="246.1" text-anchor="middle" font-size="9" fill="#53fca1">2.20B</text><text x="281.0" y="288" text-anchor="middle" font-size="10" fill="#8b949e">Mar</text><rect x="314.9" y="269.1" width="39.8" height="2.9" rx="2" fill="#d97757"/><rect x="314.9" y="262.3" width="39.8" height="6.8" rx="2" fill="#19c37d"/><text x="334.8" y="255.3" text-anchor="middle" font-size="9" fill="#53fca1">1.13B</text><text x="334.8" y="288" text-anchor="middle" font-size="10" fill="#8b949e">Apr</text><rect x="368.7" y="208.8" width="39.8" height="63.2" rx="2" fill="#d97757"/><rect x="368.7" y="164.9" width="39.8" height="43.9" rx="2" fill="#19c37d"/><rect x="368.7" y="163.4" width="39.8" height="1.5" rx="2" fill="#a371f7"/><rect x="368.7" y="163.4" width="39.8" height="1.5" rx="2" fill="#8b949e"/><text x="388.6" y="156.4" text-anchor="middle" font-size="9" fill="#53fca1">12.6B</text><text x="388.6" y="288" text-anchor="middle" font-size="10" fill="#8b949e">May</text><rect x="422.4" y="117.7" width="39.8" height="154.3" rx="2" fill="#d97757"/><rect x="422.4" y="92.2" width="39.8" height="25.4" rx="2" fill="#19c37d"/><rect x="422.4" y="92.0" width="39.8" height="1.5" rx="2" fill="#a371f7"/><text x="442.3" y="85.0" text-anchor="middle" font-size="9" fill="#53fca1">20.9B</text><text x="442.3" y="288" text-anchor="middle" font-size="10" fill="#8b949e">Jun</text><rect x="476.2" y="268.2" width="39.8" height="3.8" rx="2" fill="#d97757"/><text x="496.1" y="261.2" text-anchor="middle" font-size="9" fill="#53fca1">438.9M</text><text x="496.1" y="288" text-anchor="middle" font-size="10" fill="#8b949e">Jul</text><rect x="46" y="302" width="9" height="9" rx="2" fill="#d97757"/><text x="60" y="310" font-size="10" fill="#c9d1d9">Claude</text><rect x="124" y="302" width="9" height="9" rx="2" fill="#19c37d"/><text x="138" y="310" font-size="10" fill="#c9d1d9">GPT</text><rect x="181" y="302" width="9" height="9" rx="2" fill="#a371f7"/><text x="195" y="310" font-size="10" fill="#c9d1d9">Kimi</text><rect x="245" y="302" width="9" height="9" rx="2" fill="#58a6ff"/><text x="259" y="310" font-size="10" fill="#c9d1d9">GLM</text><rect x="302" y="302" width="9" height="9" rx="2" fill="#8b949e"/><text x="316" y="310" font-size="10" fill="#c9d1d9">Other</text><text x="46" y="336" font-size="11" letter-spacing="2" fill="#8b949e">TOP MODELS · ALL-TIME</text><text x="46" y="359" font-size="11" fill="#c9d1d9">claude-opus-4-8</text><rect x="218" y="350" width="150.0" height="11" rx="3" fill="#d97757" opacity="0.9"/><text x="376.0" y="359" font-size="10" fill="#8b949e">17.2B · $11,495</text><text x="46" y="383" font-size="11" fill="#c9d1d9">gpt-5.5</text><rect x="218" y="374" width="74.9" height="11" rx="3" fill="#19c37d" opacity="0.9"/><text x="300.9" y="383" font-size="10" fill="#8b949e">8.56B · $6,641</text><text x="46" y="407" font-size="11" fill="#c9d1d9">claude-opus-4-7</text><rect x="218" y="398" width="64.4" height="11" rx="3" fill="#d97757" opacity="0.9"/><text x="290.4" y="407" font-size="10" fill="#8b949e">7.36B · $5,608</text><text x="46" y="431" font-size="11" fill="#c9d1d9">gpt-5.3-codex</text><rect x="218" y="422" width="14.4" height="11" rx="3" fill="#19c37d" opacity="0.9"/><text x="240.4" y="431" font-size="10" fill="#8b949e">1.65B · $506</text><text x="46" y="455" font-size="11" fill="#c9d1d9">gpt-5.4</text><rect x="218" y="446" width="9.7" height="11" rx="3" fill="#19c37d" opacity="0.9"/><text x="235.7" y="455" font-size="10" fill="#8b949e">1.10B · $489</text><text x="46" y="479" font-size="11" fill="#c9d1d9">claude-fable-5</text><rect x="218" y="470" width="9.3" height="11" rx="3" fill="#d97757" opacity="0.9"/><text x="235.3" y="479" font-size="10" fill="#8b949e">1.07B · $1,597</text><text x="46" y="503" font-size="11" fill="#c9d1d9">claude-opus-4-6</text><rect x="218" y="494" width="6.0" height="11" rx="3" fill="#d97757" opacity="0.9"/><text x="232.0" y="503" font-size="10" fill="#8b949e">686.2M · $704</text><text x="46" y="527" font-size="11" fill="#c9d1d9">kimi-for-coding</text><rect x="218" y="518" width="3.9" height="11" rx="3" fill="#a371f7" opacity="0.9"/><text x="229.9" y="527" font-size="10" fill="#8b949e">446.3M · $80</text><text x="46" y="568" font-size="11" letter-spacing="2" fill="#8b949e">OPENCODE LAB · 0 MODELS TESTED</text><text x="46" y="635" font-size="11" letter-spacing="2" fill="#8b949e">LAST 30 DAYS · TOKENS/DAY</text><rect x="46.0" y="703.0" width="12.7" height="2.0" rx="2" fill="#53fca1" opacity="0.37"/><rect x="61.7" y="699.7" width="12.7" height="5.3" rx="2" fill="#53fca1" opacity="0.41"/><rect x="77.3" y="699.0" width="12.7" height="6.0" rx="2" fill="#53fca1" opacity="0.41"/><rect x="93.0" y="678.8" width="12.7" height="26.2" rx="2" fill="#53fca1" opacity="0.63"/><rect x="108.7" y="702.9" width="12.7" height="2.1" rx="2" fill="#53fca1" opacity="0.37"/><rect x="124.3" y="703.0" width="12.7" height="2.0" rx="2" fill="#53fca1" opacity="0.37"/><rect x="140.0" y="701.6" width="12.7" height="3.4" rx="2" fill="#53fca1" opacity="0.39"/><rect x="155.7" y="703.0" width="12.7" height="2.0" rx="2" fill="#53fca1" opacity="0.36"/><rect x="171.3" y="703.0" width="12.7" height="2.0" rx="2" fill="#53fca1" opacity="0.35"/><rect x="187.0" y="703.0" width="12.7" height="2.0" rx="2" fill="#53fca1" opacity="0.36"/><rect x="202.7" y="703.0" width="12.7" height="2.0" rx="2" fill="#53fca1" opacity="0.36"/><rect x="218.3" y="698.0" width="12.7" height="7.0" rx="2" fill="#53fca1" opacity="0.43"/><rect x="234.0" y="699.3" width="12.7" height="5.7" rx="2" fill="#53fca1" opacity="0.41"/><rect x="249.7" y="700.3" width="12.7" height="4.7" rx="2" fill="#53fca1" opacity="0.40"/><rect x="265.3" y="703.0" width="12.7" height="2.0" rx="2" fill="#53fca1" opacity="0.36"/><rect x="281.0" y="701.9" width="12.7" height="3.1" rx="2" fill="#53fca1" opacity="0.38"/><rect x="296.7" y="701.3" width="12.7" height="3.7" rx="2" fill="#53fca1" opacity="0.39"/><rect x="312.3" y="698.8" width="12.7" height="6.2" rx="2" fill="#53fca1" opacity="0.42"/><rect x="328.0" y="702.8" width="12.7" height="2.2" rx="2" fill="#53fca1" opacity="0.37"/><rect x="343.7" y="652.7" width="12.7" height="52.3" rx="2" fill="#53fca1" opacity="0.92"/><rect x="359.3" y="645.0" width="12.7" height="60.0" rx="2" fill="#53fca1" opacity="1.00"/><rect x="375.0" y="678.4" width="12.7" height="26.6" rx="2" fill="#53fca1" opacity="0.64"/><rect x="390.7" y="697.9" width="12.7" height="7.1" rx="2" fill="#53fca1" opacity="0.43"/><rect x="406.3" y="698.5" width="12.7" height="6.5" rx="2" fill="#53fca1" opacity="0.42"/><rect x="422.0" y="703.0" width="12.7" height="2.0" rx="2" fill="#53fca1" opacity="0.36"/><rect x="437.7" y="682.3" width="12.7" height="22.7" rx="2" fill="#53fca1" opacity="0.60"/><rect x="453.3" y="703.0" width="12.7" height="2.0" rx="2" fill="#53fca1" opacity="0.35"/><rect x="469.0" y="701.3" width="12.7" height="3.7" rx="2" fill="#53fca1" opacity="0.39"/><rect x="484.7" y="701.8" width="12.7" height="3.2" rx="2" fill="#53fca1" opacity="0.38"/><rect x="500.3" y="700.3" width="12.7" height="4.7" rx="2" fill="#ffb454" opacity="1.00"/><text x="46" y="1041" font-size="10.5" fill="#8b949e">Σ <tspan fill="#53fca1" font-weight="700">38,693,982,949</tspan> tok · cache <tspan fill="#53fca1">97.0%</tspan> · peak <tspan fill="#ffb454">5.55B</tspan> · <tspan fill="#a5d6ff">43</tspan> models</text>
<rect width="560" height="1067" rx="14" fill="url(#scan)"/>
</g></svg>