<svg xmlns="http://www.w3.org/2000/svg" viewBox="0 0 560 1083" width="560" font-family="ui-monospace,'JetBrains Mono','SF Mono',Menlo,Consolas,monospace">
<defs>
  <linearGradient id="bg" x1="0" y1="0" x2="0" y2="1">
    <stop offset="0" stop-color="#0d1117"/><stop offset="1" stop-color="#10151d"/>
  </linearGradient>
  <pattern id="scan" width="4" height="4" patternUnits="userSpaceOnUse">
    <rect width="4" height="2" fill="#000" opacity="0.14"/>
  </pattern>
</defs>
<rect width="560" height="1083" rx="14" fill="url(#bg)" stroke="#30363d"/>
<circle cx="24" cy="24" r="6" fill="#ff5f56"/><circle cx="44" cy="24" r="6" fill="#ffbd2e"/><circle cx="64" cy="24" r="6" fill="#27c93f"/>
<text x="280.0" y="28" text-anchor="middle" font-size="12" fill="#8b949e">token-ops</text>
<line x1="0" y1="42" x2="560" y2="42" stroke="#30363d"/>
<text x="46" y="70" font-size="12" fill="#8b949e">~ <tspan fill="#53fca1">❯</tspan> <tspan fill="#c9d1d9">ccusage monthly --json | jq .monthly</tspan></text>
<rect x="46.0" y="271.9" width="39.8" height="1.5" rx="2" fill="#d97757"/><rect x="46.0" y="271.8" width="39.8" height="1.5" rx="2" fill="#19c37d"/><rect x="46.0" y="271.8" width="39.8" height="1.5" rx="2" fill="#8b949e"/><text x="65.9" y="264.8" text-anchor="middle" font-size="9" fill="#53fca1">21.7M</text><text x="65.9" y="288" text-anchor="middle" font-size="10" fill="#8b949e">Nov</text><rect x="99.8" y="271.9" width="39.8" height="1.5" rx="2" fill="#19c37d"/><rect x="99.8" y="271.9" width="39.8" height="1.5" rx="2" fill="#8b949e"/><text x="119.7" y="264.9" text-anchor="middle" font-size="9" fill="#53fca1">13.0M</text><text x="119.7" y="288" text-anchor="middle" font-size="10" fill="#8b949e">Dec</text><rect x="153.6" y="272.0" width="39.8" height="1.5" rx="2" fill="#d97757"/><rect x="153.6" y="271.8" width="39.8" height="1.5" rx="2" fill="#19c37d"/><rect x="153.6" y="271.8" width="39.8" height="1.5" rx="2" fill="#8b949e"/><text x="173.4" y="264.8" text-anchor="middle" font-size="9" fill="#53fca1">22.6M</text><text x="173.4" y="288" text-anchor="middle" font-size="10" fill="#8b949e">Jan</text><rect x="207.3" y="272.0" width="39.8" height="1.5" rx="2" fill="#d97757"/><rect x="207.3" y="268.8" width="39.8" height="3.1" rx="2" fill="#19c37d"/><rect x="207.3" y="267.0" width="39.8" height="1.9" rx="2" fill="#a371f7"/><rect x="207.3" y="266.7" width="39.8" height="1.5" rx="2" fill="#58a6ff"/><rect x="207.3" y="266.4" width="39.8" height="1.5" rx="2" fill="#8b949e"/><text x="227.2" y="259.4" text-anchor="middle" font-size="9" fill="#53fca1">646.3M</text><text x="227.2" y="288" text-anchor="middle" font-size="10" fill="#8b949e">Feb</text><rect x="261.1" y="268.6" width="39.8" height="3.4" rx="2" fill="#d97757"/><rect x="261.1" y="256.3" width="39.8" height="12.3" rx="2" fill="#19c37d"/><rect x="261.1" y="256.0" width="39.8" height="1.5" rx="2" fill="#a371f7"/><text x="281.0" y="249.0" text-anchor="middle" font-size="9" fill="#53fca1">1.86B</text><text x="281.0" y="288" text-anchor="middle" font-size="10" fill="#8b949e">Mar</text><rect x="314.9" y="269.1" width="39.8" height="2.9" rx="2" fill="#d97757"/><rect x="314.9" y="264.1" width="39.8" height="5.0" rx="2" fill="#19c37d"/><text x="334.8" y="257.1" text-anchor="middle" font-size="9" fill="#53fca1">929.9M</text><text x="334.8" y="288" text-anchor="middle" font-size="10" fill="#8b949e">Apr</text><rect x="368.7" y="208.8" width="39.8" height="63.2" rx="2" fill="#d97757"/><rect x="368.7" y="185.6" width="39.8" height="23.2" rx="2" fill="#19c37d"/><rect x="368.7" y="184.2" width="39.8" height="1.5" rx="2" fill="#a371f7"/><rect x="368.7" y="184.2" width="39.8" height="1.5" rx="2" fill="#8b949e"/><text x="388.6" y="177.2" text-anchor="middle" font-size="9" fill="#53fca1">10.2B</text><text x="388.6" y="288" text-anchor="middle" font-size="10" fill="#8b949e">May</text><rect x="422.4" y="117.8" width="39.8" height="154.2" rx="2" fill="#d97757"/><rect x="422.4" y="92.8" width="39.8" height="25.0" rx="2" fill="#19c37d"/><rect x="422.4" y="92.5" width="39.8" height="1.5" rx="2" fill="#a371f7"/><rect x="422.4" y="92.0" width="39.8" height="1.5" rx="2" fill="#8b949e"/><text x="442.3" y="85.0" text-anchor="middle" font-size="9" fill="#53fca1">20.9B</text><text x="442.3" y="288" text-anchor="middle" font-size="10" fill="#8b949e">Jun</text><rect x="476.2" y="238.4" width="39.8" height="33.6" rx="2" fill="#d97757"/><rect x="476.2" y="183.8" width="39.8" height="54.6" rx="2" fill="#19c37d"/><rect x="476.2" y="183.7" width="39.8" height="1.5" rx="2" fill="#a371f7"/><rect x="476.2" y="183.0" width="39.8" height="1.5" rx="2" fill="#8b949e"/><text x="496.1" y="176.0" text-anchor="middle" font-size="9" fill="#53fca1">10.3B</text><text x="496.1" y="288" text-anchor="middle" font-size="10" fill="#8b949e">Jul</text><rect x="46" y="302" width="9" height="9" rx="2" fill="#d97757"/><text x="60" y="310" font-size="10" fill="#c9d1d9">Claude</text><rect x="124" y="302" width="9" height="9" rx="2" fill="#19c37d"/><text x="138" y="310" font-size="10" fill="#c9d1d9">GPT</text><rect x="181" y="302" width="9" height="9" rx="2" fill="#a371f7"/><text x="195" y="310" font-size="10" fill="#c9d1d9">Kimi</text><rect x="245" y="302" width="9" height="9" rx="2" fill="#58a6ff"/><text x="259" y="310" font-size="10" fill="#c9d1d9">GLM</text><rect x="302" y="302" width="9" height="9" rx="2" fill="#8b949e"/><text x="316" y="310" font-size="10" fill="#c9d1d9">Other</text><text x="46" y="336" font-size="11" letter-spacing="2" fill="#8b949e">TOP MODELS · GENERATED OUTPUT</text><text x="46" y="359" font-size="11" fill="#c9d1d9">claude-opus-4-8</text><rect x="218" y="350" width="150.0" height="11" rx="3" fill="#d97757" opacity="0.9"/><text x="376.0" y="359" font-size="10" fill="#8b949e">61.3M out · 18.9B traffic</text><text x="46" y="383" font-size="11" fill="#c9d1d9">claude-opus-4-7</text><rect x="218" y="374" width="50.5" height="11" rx="3" fill="#d97757" opacity="0.9"/><text x="276.5" y="383" font-size="10" fill="#8b949e">20.6M out · 7.36B traffic</text><text x="46" y="407" font-size="11" fill="#c9d1d9">gpt-5.5</text><rect x="218" y="398" width="46.6" height="11" rx="3" fill="#19c37d" opacity="0.9"/><text x="272.6" y="407" font-size="10" fill="#8b949e">19.1M out · 6.84B traffic</text><text x="46" y="431" font-size="11" fill="#c9d1d9">gpt-5.6-sol</text><rect x="218" y="422" width="31.3" height="11" rx="3" fill="#19c37d" opacity="0.9"/><text x="257.3" y="431" font-size="10" fill="#8b949e">12.8M out · 5.54B traffic</text><text x="46" y="455" font-size="11" fill="#c9d1d9">claude-fable-5</text><rect x="218" y="446" width="14.8" height="11" rx="3" fill="#d97757" opacity="0.9"/><text x="240.8" y="455" font-size="10" fill="#8b949e">6.05M out · 2.62B traffic</text><text x="46" y="479" font-size="11" fill="#c9d1d9">gpt-5.3-codex</text><rect x="218" y="470" width="9.2" height="11" rx="3" fill="#19c37d" opacity="0.9"/><text x="235.2" y="479" font-size="10" fill="#8b949e">3.75M out · 844.0M traffic</text><text x="46" y="503" font-size="11" fill="#c9d1d9">gpt-5.4</text><rect x="218" y="494" width="8.8" height="11" rx="3" fill="#19c37d" opacity="0.9"/><text x="234.8" y="503" font-size="10" fill="#8b949e">3.59M out · 1.05B traffic</text><text x="46" y="527" font-size="11" fill="#c9d1d9">kimi-for-coding</text><rect x="218" y="518" width="8.7" height="11" rx="3" fill="#a371f7" opacity="0.9"/><text x="234.7" y="527" font-size="10" fill="#8b949e">3.54M out · 447.7M traffic</text><text x="46" y="568" font-size="11" letter-spacing="2" fill="#8b949e">OPENCODE LAB · 0 MODELS TESTED</text><text x="46" y="635" font-size="11" letter-spacing="2" fill="#8b949e">LAST 30 DAYS · TOKENS/DAY</text><rect x="46.0" y="703.0" width="12.7" height="2.0" rx="2" fill="#53fca1" opacity="0.36"/><rect x="61.7" y="701.9" width="12.7" height="3.1" rx="2" fill="#53fca1" opacity="0.38"/><rect x="77.3" y="701.3" width="12.7" height="3.7" rx="2" fill="#53fca1" opacity="0.39"/><rect x="93.0" y="698.8" width="12.7" height="6.2" rx="2" fill="#53fca1" opacity="0.42"/><rect x="108.7" y="702.8" width="12.7" height="2.2" rx="2" fill="#53fca1" opacity="0.37"/><rect x="124.3" y="652.7" width="12.7" height="52.3" rx="2" fill="#53fca1" opacity="0.92"/><rect x="140.0" y="645.0" width="12.7" height="60.0" rx="2" fill="#53fca1" opacity="1.00"/><rect x="155.7" y="678.4" width="12.7" height="26.6" rx="2" fill="#53fca1" opacity="0.64"/><rect x="171.3" y="697.9" width="12.7" height="7.1" rx="2" fill="#53fca1" opacity="0.43"/><rect x="187.0" y="698.5" width="12.7" height="6.5" rx="2" fill="#53fca1" opacity="0.42"/><rect x="202.7" y="703.0" width="12.7" height="2.0" rx="2" fill="#53fca1" opacity="0.36"/><rect x="218.3" y="682.3" width="12.7" height="22.7" rx="2" fill="#53fca1" opacity="0.60"/><rect x="234.0" y="703.0" width="12.7" height="2.0" rx="2" fill="#53fca1" opacity="0.35"/><rect x="249.7" y="701.3" width="12.7" height="3.7" rx="2" fill="#53fca1" opacity="0.39"/><rect x="265.3" y="701.8" width="12.7" height="3.2" rx="2" fill="#53fca1" opacity="0.38"/><rect x="281.0" y="696.3" width="12.7" height="8.7" rx="2" fill="#53fca1" opacity="0.44"/><rect x="296.7" y="695.4" width="12.7" height="9.6" rx="2" fill="#53fca1" opacity="0.45"/><rect x="312.3" y="702.1" width="12.7" height="2.9" rx="2" fill="#53fca1" opacity="0.38"/><rect x="328.0" y="701.5" width="12.7" height="3.5" rx="2" fill="#53fca1" opacity="0.39"/><rect x="343.7" y="702.9" width="12.7" height="2.1" rx="2" fill="#53fca1" opacity="0.37"/><rect x="359.3" y="699.4" width="12.7" height="5.6" rx="2" fill="#53fca1" opacity="0.41"/><rect x="375.0" y="701.2" width="12.7" height="3.8" rx="2" fill="#53fca1" opacity="0.39"/><rect x="390.7" y="677.6" width="12.7" height="27.4" rx="2" fill="#53fca1" opacity="0.65"/><rect x="406.3" y="680.7" width="12.7" height="24.3" rx="2" fill="#53fca1" opacity="0.61"/><rect x="422.0" y="653.8" width="12.7" height="51.2" rx="2" fill="#53fca1" opacity="0.90"/><rect x="437.7" y="690.5" width="12.7" height="14.5" rx="2" fill="#53fca1" opacity="0.51"/><rect x="453.3" y="698.6" width="12.7" height="6.4" rx="2" fill="#53fca1" opacity="0.42"/><rect x="469.0" y="702.5" width="12.7" height="2.5" rx="2" fill="#53fca1" opacity="0.38"/><rect x="484.7" y="702.9" width="12.7" height="2.1" rx="2" fill="#53fca1" opacity="0.37"/><rect x="500.3" y="703.0" width="12.7" height="2.0" rx="2" fill="#ffb454" opacity="1.00"/><text x="46" y="1057" font-size="10.5" fill="#8b949e">Σ <tspan fill="#53fca1" font-weight="700">45,208,775,540</tspan> tok · cache <tspan fill="#53fca1">97.0%</tspan> · peak <tspan fill="#ffb454">5.55B</tspan> · <tspan fill="#a5d6ff">11</tspan> output-significant models</text>
<rect width="560" height="1083" rx="14" fill="url(#scan)"/>
</svg>