<svg xmlns="http://www.w3.org/2000/svg" viewBox="0 0 560 1083" width="560" font-family="ui-monospace,'JetBrains Mono','SF Mono',Menlo,Consolas,monospace">
<defs>
  <linearGradient id="bg" x1="0" y1="0" x2="0" y2="1">
    <stop offset="0" stop-color="#0d1117"/><stop offset="1" stop-color="#10151d"/>
  </linearGradient>
  <pattern id="scan" width="4" height="4" patternUnits="userSpaceOnUse">
    <rect width="4" height="2" fill="#000" opacity="0.14"/>
  </pattern>
</defs>
<rect width="560" height="1083" rx="14" fill="url(#bg)" stroke="#30363d"/>
<circle cx="24" cy="24" r="6" fill="#ff5f56"/><circle cx="44" cy="24" r="6" fill="#ffbd2e"/><circle cx="64" cy="24" r="6" fill="#27c93f"/>
<text x="280.0" y="28" text-anchor="middle" font-size="12" fill="#8b949e">token-ops</text>
<line x1="0" y1="42" x2="560" y2="42" stroke="#30363d"/>
<text x="46" y="70" font-size="12" fill="#8b949e">~ <tspan fill="#53fca1">❯</tspan> <tspan fill="#c9d1d9">ccusage monthly --json | jq .monthly</tspan></text>
<rect x="46.0" y="272.0" width="39.8" height="1.5" rx="2" fill="#d97757"/><rect x="46.0" y="272.0" width="39.8" height="1.5" rx="2" fill="#19c37d"/><rect x="46.0" y="272.0" width="39.8" height="1.5" rx="2" fill="#8b949e"/><text x="65.9" y="265.0" text-anchor="middle" font-size="9" fill="#53fca1">23.2M</text><text x="65.9" y="288" text-anchor="middle" font-size="10" fill="#8b949e">Nov</text><rect x="99.8" y="271.9" width="39.8" height="1.5" rx="2" fill="#19c37d"/><rect x="99.8" y="271.9" width="39.8" height="1.5" rx="2" fill="#8b949e"/><text x="119.7" y="264.9" text-anchor="middle" font-size="9" fill="#53fca1">19.7M</text><text x="119.7" y="288" text-anchor="middle" font-size="10" fill="#8b949e">Dec</text><rect x="153.6" y="272.0" width="39.8" height="1.5" rx="2" fill="#d97757"/><rect x="153.6" y="271.7" width="39.8" height="1.5" rx="2" fill="#19c37d"/><rect x="153.6" y="271.7" width="39.8" height="1.5" rx="2" fill="#8b949e"/><text x="173.4" y="264.7" text-anchor="middle" font-size="9" fill="#53fca1">38.3M</text><text x="173.4" y="288" text-anchor="middle" font-size="10" fill="#8b949e">Jan</text><rect x="207.3" y="272.0" width="39.8" height="1.5" rx="2" fill="#d97757"/><rect x="207.3" y="265.9" width="39.8" height="6.1" rx="2" fill="#19c37d"/><rect x="207.3" y="264.0" width="39.8" height="1.9" rx="2" fill="#a371f7"/><rect x="207.3" y="263.8" width="39.8" height="1.5" rx="2" fill="#58a6ff"/><rect x="207.3" y="263.5" width="39.8" height="1.5" rx="2" fill="#8b949e"/><text x="227.2" y="256.5" text-anchor="middle" font-size="9" fill="#53fca1">998.0M</text><text x="227.2" y="288" text-anchor="middle" font-size="10" fill="#8b949e">Feb</text><rect x="261.1" y="268.6" width="39.8" height="3.4" rx="2" fill="#d97757"/><rect x="261.1" y="253.4" width="39.8" height="15.2" rx="2" fill="#19c37d"/><rect x="261.1" y="253.1" width="39.8" height="1.5" rx="2" fill="#a371f7"/><rect x="261.1" y="253.1" width="39.8" height="1.5" rx="2" fill="#8b949e"/><text x="281.0" y="246.1" text-anchor="middle" font-size="9" fill="#53fca1">2.20B</text><text x="281.0" y="288" text-anchor="middle" font-size="10" fill="#8b949e">Mar</text><rect x="314.9" y="269.1" width="39.8" height="2.9" rx="2" fill="#d97757"/><rect x="314.9" y="262.3" width="39.8" height="6.8" rx="2" fill="#19c37d"/><text x="334.8" y="255.3" text-anchor="middle" font-size="9" fill="#53fca1">1.13B</text><text x="334.8" y="288" text-anchor="middle" font-size="10" fill="#8b949e">Apr</text><rect x="368.7" y="208.9" width="39.8" height="63.1" rx="2" fill="#d97757"/><rect x="368.7" y="165.2" width="39.8" height="43.8" rx="2" fill="#19c37d"/><rect x="368.7" y="163.7" width="39.8" height="1.5" rx="2" fill="#a371f7"/><rect x="368.7" y="163.7" width="39.8" height="1.5" rx="2" fill="#8b949e"/><text x="388.6" y="156.7" text-anchor="middle" font-size="9" fill="#53fca1">12.6B</text><text x="388.6" y="288" text-anchor="middle" font-size="10" fill="#8b949e">May</text><rect x="422.4" y="118.1" width="39.8" height="153.9" rx="2" fill="#d97757"/><rect x="422.4" y="92.8" width="39.8" height="25.3" rx="2" fill="#19c37d"/><rect x="422.4" y="92.5" width="39.8" height="1.5" rx="2" fill="#a371f7"/><rect x="422.4" y="92.5" width="39.8" height="1.5" rx="2" fill="#8b949e"/><text x="442.3" y="85.5" text-anchor="middle" font-size="9" fill="#53fca1">21.0B</text><text x="442.3" y="288" text-anchor="middle" font-size="10" fill="#8b949e">Jun</text><rect x="476.2" y="253.4" width="39.8" height="18.6" rx="2" fill="#d97757"/><rect x="476.2" y="247.9" width="39.8" height="5.4" rx="2" fill="#19c37d"/><rect x="476.2" y="247.9" width="39.8" height="1.5" rx="2" fill="#8b949e"/><text x="496.1" y="240.9" text-anchor="middle" font-size="9" fill="#53fca1">2.51B</text><text x="496.1" y="288" text-anchor="middle" font-size="10" fill="#8b949e">Jul</text><rect x="46" y="302" width="9" height="9" rx="2" fill="#d97757"/><text x="60" y="310" font-size="10" fill="#c9d1d9">Claude</text><rect x="124" y="302" width="9" height="9" rx="2" fill="#19c37d"/><text x="138" y="310" font-size="10" fill="#c9d1d9">GPT</text><rect x="181" y="302" width="9" height="9" rx="2" fill="#a371f7"/><text x="195" y="310" font-size="10" fill="#c9d1d9">Kimi</text><rect x="245" y="302" width="9" height="9" rx="2" fill="#58a6ff"/><text x="259" y="310" font-size="10" fill="#c9d1d9">GLM</text><rect x="302" y="302" width="9" height="9" rx="2" fill="#8b949e"/><text x="316" y="310" font-size="10" fill="#c9d1d9">Other</text><text x="46" y="336" font-size="11" letter-spacing="2" fill="#8b949e">TOP MODELS · ALL-TIME</text><text x="46" y="359" font-size="11" fill="#c9d1d9">claude-opus-4-8</text><rect x="218" y="350" width="150.0" height="11" rx="3" fill="#d97757" opacity="0.9"/><text x="376.0" y="359" font-size="10" fill="#8b949e">18.1B · $12,566</text><text x="46" y="383" font-size="11" fill="#c9d1d9">gpt-5.5</text><rect x="218" y="374" width="76.1" height="11" rx="3" fill="#19c37d" opacity="0.9"/><text x="302.1" y="383" font-size="10" fill="#8b949e">9.18B · $7,120</text><text x="46" y="407" font-size="11" fill="#c9d1d9">claude-opus-4-7</text><rect x="218" y="398" width="61.0" height="11" rx="3" fill="#d97757" opacity="0.9"/><text x="287.0" y="407" font-size="10" fill="#8b949e">7.36B · $5,608</text><text x="46" y="431" font-size="11" fill="#c9d1d9">gpt-5.3-codex</text><rect x="218" y="422" width="13.7" height="11" rx="3" fill="#19c37d" opacity="0.9"/><text x="239.7" y="431" font-size="10" fill="#8b949e">1.65B · $506</text><text x="46" y="455" font-size="11" fill="#c9d1d9">claude-fable-5</text><rect x="218" y="446" width="13.6" height="11" rx="3" fill="#d97757" opacity="0.9"/><text x="239.6" y="455" font-size="10" fill="#8b949e">1.64B · $2,573</text><text x="46" y="479" font-size="11" fill="#c9d1d9">gpt-5.4</text><rect x="218" y="470" width="9.2" height="11" rx="3" fill="#19c37d" opacity="0.9"/><text x="235.2" y="479" font-size="10" fill="#8b949e">1.10B · $489</text><text x="46" y="503" font-size="11" fill="#c9d1d9">claude-opus-4-6</text><rect x="218" y="494" width="5.7" height="11" rx="3" fill="#d97757" opacity="0.9"/><text x="231.7" y="503" font-size="10" fill="#8b949e">686.2M · $704</text><text x="46" y="527" font-size="11" fill="#c9d1d9">kimi-for-coding</text><rect x="218" y="518" width="3.7" height="11" rx="3" fill="#a371f7" opacity="0.9"/><text x="229.7" y="527" font-size="10" fill="#8b949e">446.3M · $80</text><text x="46" y="568" font-size="11" letter-spacing="2" fill="#8b949e">OPENCODE LAB · 0 MODELS TESTED</text><text x="46" y="635" font-size="11" letter-spacing="2" fill="#8b949e">LAST 30 DAYS · TOKENS/DAY</text><text x="46" y="1057" font-size="10.5" fill="#8b949e">Σ <tspan fill="#53fca1" font-weight="700">40,831,377,527</tspan> tok · cache <tspan fill="#53fca1">96.9%</tspan> · peak <tspan fill="#ffb454">-</tspan> · <tspan fill="#a5d6ff">45</tspan> models</text>
<rect width="560" height="1083" rx="14" fill="url(#scan)"/>
</svg>