<svg xmlns="http://www.w3.org/2000/svg" width="560" font-family="ui-monospace,'JetBrains Mono','SF Mono',Menlo,Consolas,monospace" viewBox="0 0 560 1103"><defs><linearGradient id="bg" x1="0" x2="0" y1="0" y2="1"><stop offset="0" stop-color="#0d1117"/><stop offset="1" stop-color="#10151d"/></linearGradient><pattern id="scan" width="4" height="4" patternUnits="userSpaceOnUse"><rect width="4" height="2" fill="#000" opacity=".14"/></pattern></defs><rect width="560" height="1103" fill="url(#bg)" stroke="#30363d" rx="14"/><circle cx="24" cy="24" r="6" fill="#ff5f56"/><circle cx="44" cy="24" r="6" fill="#ffbd2e"/><circle cx="64" cy="24" r="6" fill="#27c93f"/><text x="280" y="28" fill="#8b949e" font-size="12" text-anchor="middle">token-ops</text><line x1="0" x2="560" y1="42" y2="42" stroke="#30363d"/><text x="46" y="70" fill="#8b949e" font-size="12">~ <tspan fill="#53fca1">❯</tspan> <tspan fill="#c9d1d9">ccusage monthly --json | jq .monthly</tspan></text><rect width="39.8" height="1.5" x="46" y="272" fill="#d97757" rx="2"/><rect width="39.8" height="1.5" x="46" y="271.9" fill="#19c37d" rx="2"/><rect width="39.8" height="1.5" x="46" y="271.9" fill="#8b949e" rx="2"/><text x="65.9" y="264.9" fill="#53fca1" font-size="9" text-anchor="middle">22.6M</text><text x="65.9" y="288" fill="#8b949e" font-size="10" text-anchor="middle">Jan</text><rect width="39.8" height="1.5" x="99.8" y="272" fill="#d97757" rx="2"/><rect width="39.8" height="2.3" x="99.8" y="269.7" fill="#19c37d" rx="2"/><rect width="39.8" height="1.5" x="99.8" y="268.3" fill="#a371f7" rx="2"/><rect width="39.8" height="1.5" x="99.8" y="268.1" fill="#58a6ff" rx="2"/><rect width="39.8" height="1.5" x="99.8" y="267.9" fill="#8b949e" rx="2"/><text x="119.7" y="260.9" fill="#53fca1" font-size="9" text-anchor="middle">646.3M</text><text x="119.7" y="288" fill="#8b949e" font-size="10" text-anchor="middle">Feb</text><rect width="39.8" height="2.5" x="153.6" y="269.5" fill="#d97757" rx="2"/><rect width="39.8" height="9.1" x="153.6" y="260.4" fill="#19c37d" rx="2"/><rect width="39.8" height="1.5" x="153.6" y="260.2" fill="#a371f7" rx="2"/><text x="173.4" y="253.2" fill="#53fca1" font-size="9" text-anchor="middle">1.86B</text><text x="173.4" y="288" fill="#8b949e" font-size="10" text-anchor="middle">Mar</text><rect width="39.8" height="2.1" x="207.3" y="269.9" fill="#d97757" rx="2"/><rect width="39.8" height="4.3" x="207.3" y="265.6" fill="#19c37d" rx="2"/><text x="227.2" y="258.6" fill="#53fca1" font-size="9" text-anchor="middle">1.09B</text><text x="227.2" y="288" fill="#8b949e" font-size="10" text-anchor="middle">Apr</text><rect width="39.8" height="46.7" x="261.1" y="225.3" fill="#d97757" rx="2"/><rect width="39.8" height="16.1" x="261.1" y="209.2" fill="#19c37d" rx="2"/><rect width="39.8" height="1.5" x="261.1" y="208.1" fill="#a371f7" rx="2"/><rect width="39.8" height="1.5" x="261.1" y="208.1" fill="#8b949e" rx="2"/><text x="281" y="201.1" fill="#53fca1" font-size="9" text-anchor="middle">10.0B</text><text x="281" y="288" fill="#8b949e" font-size="10" text-anchor="middle">May</text><rect width="39.8" height="114" x="314.9" y="158" fill="#d97757" rx="2"/><rect width="39.8" height="18.5" x="314.9" y="139.6" fill="#19c37d" rx="2"/><rect width="39.8" height="1.5" x="314.9" y="139.4" fill="#a371f7" rx="2"/><text x="334.8" y="132.4" fill="#53fca1" font-size="9" text-anchor="middle">20.9B</text><text x="334.8" y="288" fill="#8b949e" font-size="10" text-anchor="middle">Jun</text><rect width="39.8" height="35.6" x="368.7" y="236.4" fill="#d97757" rx="2"/><rect width="39.8" height="76.8" x="368.7" y="159.6" fill="#19c37d" rx="2"/><rect width="39.8" height="3.7" x="368.7" y="156" fill="#a371f7" rx="2"/><rect width="39.8" height="4" x="368.7" y="152" fill="#8b949e" rx="2"/><text x="388.6" y="145" fill="#53fca1" font-size="9" text-anchor="middle">18.9B</text><text x="388.6" y="288" fill="#8b949e" font-size="10" text-anchor="middle">Jul</text><rect width="39.8" height="53.2" x="422.4" y="218.8" fill="#d97757" rx="2"/><rect width="39.8" height="36.7" x="422.4" y="182" fill="#19c37d" rx="2"/><rect width="39.8" height="12" x="422.4" y="170" fill="#8b949e" rx="2"/><text x="442.3" y="163" fill="#53fca1" font-size="9" text-anchor="middle">16.0B</text><text x="442.3" y="288" fill="#8b949e" font-size="10" text-anchor="middle">Aug</text><rect width="39.8" height="78.7" x="476.2" y="193.3" fill="#d97757" rx="2"/><rect width="39.8" height="33.6" x="476.2" y="159.7" fill="#19c37d" rx="2"/><rect width="39.8" height="66.6" x="476.2" y="93.1" fill="#8b949e" rx="2"/><text x="496.1" y="86.1" fill="#53fca1" font-size="9" text-anchor="middle">28.3B</text><text x="496.1" y="288" fill="#8b949e" font-size="10" text-anchor="middle">Sep</text><rect width="9" height="9" x="46" y="302" fill="#d97757" rx="2"/><text x="60" y="310" fill="#c9d1d9" font-size="10">Claude</text><rect width="9" height="9" x="124" y="302" fill="#19c37d" rx="2"/><text x="138" y="310" fill="#c9d1d9" font-size="10">GPT</text><rect width="9" height="9" x="181" y="302" fill="#a371f7" rx="2"/><text x="195" y="310" fill="#c9d1d9" font-size="10">Kimi</text><rect width="9" height="9" x="245" y="302" fill="#58a6ff" rx="2"/><text x="259" y="310" fill="#c9d1d9" font-size="10">GLM</text><rect width="9" height="9" x="302" y="302" fill="#8b949e" rx="2"/><text x="316" y="310" fill="#c9d1d9" font-size="10">Other</text><text x="46" y="336" fill="#8b949e" font-size="11" letter-spacing="2">TOP MODELS · GENERATED OUTPUT</text><text x="46" y="359" fill="#c9d1d9" font-size="11">claude-opus-4-8</text><rect width="150" height="11" x="218" y="350" fill="#d97757" opacity=".9" rx="3"/><text x="376" y="359" fill="#8b949e" font-size="10">62.5M out · 19.2B traffic</text><text x="46" y="383" fill="#c9d1d9" font-size="11">gpt-5.6-sol</text><rect width="117.5" height="11" x="218" y="374" fill="#19c37d" opacity=".9" rx="3"/><text x="343.5" y="383" fill="#8b949e" font-size="10">49.0M out · 16.9B traffic</text><text x="46" y="407" fill="#c9d1d9" font-size="11">claude-opus-5</text><rect width="50.8" height="11" x="218" y="398" fill="#d97757" opacity=".9" rx="3"/><text x="276.8" y="407" fill="#8b949e" font-size="10">21.2M out · 10.6B traffic</text><text x="46" y="431" fill="#c9d1d9" font-size="11">claude-opus-4-7</text><rect width="49.5" height="11" x="218" y="422" fill="#d97757" opacity=".9" rx="3"/><text x="275.5" y="431" fill="#8b949e" font-size="10">20.6M out · 7.36B traffic</text><text x="46" y="455" fill="#c9d1d9" font-size="11">gpt-5.5</text><rect width="45.9" height="11" x="218" y="446" fill="#19c37d" opacity=".9" rx="3"/><text x="271.9" y="455" fill="#8b949e" font-size="10">19.1M out · 6.88B traffic</text><text x="46" y="479" fill="#c9d1d9" font-size="11">claude-fable-5</text><rect width="38.5" height="11" x="218" y="470" fill="#d97757" opacity=".9" rx="3"/><text x="264.5" y="479" fill="#8b949e" font-size="10">16.0M out · 6.51B traffic</text><text x="46" y="503" fill="#c9d1d9" font-size="11">claude-opus-5-5</text><rect width="33.6" height="11" x="218" y="494" fill="#d97757" opacity=".9" rx="3"/><text x="259.6" y="503" fill="#8b949e" font-size="10">14.0M out · 4.63B traffic</text><text x="46" y="527" fill="#c9d1d9" font-size="11">cursor-grok-4.6-xhigh-f</text><rect width="59.6" height="11" x="218" y="518" fill="#8b949e" opacity=".9" rx="3"/><text x="285.6" y="527" fill="#8b949e" font-size="10">24.9M out · 4.54B traffic</text><text x="46" y="568" fill="#8b949e" font-size="11" letter-spacing="2">OPENCODE LAB · 66.0M TOK · MODEL SPLIT UNAVAILABLE</text><text x="46" y="635" fill="#8b949e" font-size="11" letter-spacing="2">LAST 30 DAYS · TOKENS/DAY</text><rect width="12.7" height="5.7" x="46" y="699.3" fill="#53fca1" opacity=".41" rx="2"/><rect width="12.7" height="6.2" x="61.7" y="698.8" fill="#53fca1" opacity=".42" rx="2"/><rect width="12.7" height="2" x="77.3" y="703" fill="#53fca1" opacity=".35" rx="2"/><rect width="12.7" height="7.5" x="93" y="697.5" fill="#53fca1" opacity=".43" rx="2"/><rect width="12.7" height="2" x="108.7" y="703" fill="#53fca1" opacity=".37" rx="2"/><rect width="12.7" height="10.2" x="124.3" y="694.8" fill="#53fca1" opacity=".46" rx="2"/><rect width="12.7" height="29.2" x="140" y="675.8" fill="#53fca1" opacity=".67" rx="2"/><rect width="12.7" height="18.6" x="155.7" y="686.4" fill="#53fca1" opacity=".55" rx="2"/><rect width="12.7" height="50.7" x="171.3" y="654.3" fill="#53fca1" opacity=".9" rx="2"/><rect width="12.7" height="49.3" x="187" y="655.7" fill="#53fca1" opacity=".88" rx="2"/><rect width="12.7" height="2" x="202.7" y="703" fill="#53fca1" opacity=".35" rx="2"/><rect width="12.7" height="20.8" x="218.3" y="684.2" fill="#53fca1" opacity=".57" rx="2"/><rect width="12.7" height="3.5" x="234" y="701.5" fill="#53fca1" opacity=".39" rx="2"/><rect width="12.7" height="23.8" x="249.7" y="681.2" fill="#53fca1" opacity=".61" rx="2"/><rect width="12.7" height="2" x="265.3" y="703" fill="#53fca1" opacity=".36" rx="2"/><rect width="12.7" height="3.2" x="281" y="701.8" fill="#53fca1" opacity=".38" rx="2"/><rect width="12.7" height="18.1" x="296.7" y="686.9" fill="#53fca1" opacity=".55" rx="2"/><rect width="12.7" height="2" x="312.3" y="703" fill="#53fca1" opacity=".35" rx="2"/><rect width="12.7" height="4.8" x="328" y="700.2" fill="#53fca1" opacity=".4" rx="2"/><rect width="12.7" height="5.8" x="343.7" y="699.2" fill="#53fca1" opacity=".41" rx="2"/><rect width="12.7" height="14.2" x="359.3" y="690.8" fill="#53fca1" opacity=".5" rx="2"/><rect width="12.7" height="2" x="375" y="703" fill="#53fca1" opacity=".35" rx="2"/><rect width="12.7" height="3" x="390.7" y="702" fill="#53fca1" opacity=".38" rx="2"/><rect width="12.7" height="19.6" x="406.3" y="685.4" fill="#53fca1" opacity=".56" rx="2"/><rect width="12.7" height="26.6" x="422" y="678.4" fill="#53fca1" opacity=".64" rx="2"/><rect width="12.7" height="13.6" x="437.7" y="691.4" fill="#53fca1" opacity=".5" rx="2"/><rect width="12.7" height="38.4" x="453.3" y="666.6" fill="#53fca1" opacity=".77" rx="2"/><rect width="12.7" height="60" x="469" y="645" fill="#53fca1" opacity="1" rx="2"/><rect width="12.7" height="33.3" x="484.7" y="671.7" fill="#53fca1" opacity=".71" rx="2"/><rect width="12.7" height="11.7" x="500.3" y="693.3" fill="#ffb454" opacity="1" rx="2"/><text x="46" y="1077" fill="#8b949e" font-size="10.5">Σ <tspan fill="#53fca1" font-weight="700">98,078,160,620</tspan> tok · cache <tspan fill="#53fca1">96.6%</tspan> · peak <tspan fill="#ffb454">2.60B</tspan> · <tspan fill="#a5d6ff">21</tspan> output-significant models</text><rect width="560" height="1103" fill="url(#scan)" rx="14"/></svg>