<svg xmlns="http://www.w3.org/2000/svg" width="560" font-family="ui-monospace,'JetBrains Mono','SF Mono',Menlo,Consolas,monospace" viewBox="0 0 560 1012"><defs><linearGradient id="bg" x1="0" x2="0" y1="0" y2="1"><stop offset="0" stop-color="#0d1117"/><stop offset="1" stop-color="#10151d"/></linearGradient><pattern id="scan" width="4" height="4" patternUnits="userSpaceOnUse"><rect width="4" height="2" fill="#000" opacity=".14"/></pattern></defs><rect width="560" height="1012" fill="url(#bg)" stroke="#30363d" rx="14"/><circle cx="24" cy="24" r="6" fill="#ff5f56"/><circle cx="44" cy="24" r="6" fill="#ffbd2e"/><circle cx="64" cy="24" r="6" fill="#27c93f"/><text x="280" y="28" fill="#8b949e" font-size="12" text-anchor="middle">token-ops</text><line x1="0" x2="560" y1="42" y2="42" stroke="#30363d"/><text x="46" y="70" fill="#8b949e" font-size="12">~ <tspan fill="#53fca1">❯</tspan> <tspan fill="#c9d1d9">ccusage monthly --json | jq .monthly</tspan></text><rect width="39.8" height="1.5" x="46" y="270.9" fill="#d97757" rx="2"/><rect width="39.8" height="1.5" x="46" y="269.5" fill="#19c37d" rx="2"/><text x="65.9" y="262.5" fill="#53fca1" font-size="9" text-anchor="middle">141.2M</text><text x="65.9" y="288" fill="#8b949e" font-size="10" text-anchor="middle">Oct</text><rect width="39.8" height="1.5" x="99.8" y="272" fill="#19c37d" rx="2"/><text x="119.7" y="265" fill="#53fca1" font-size="9" text-anchor="middle">1.49M</text><text x="119.7" y="288" fill="#8b949e" font-size="10" text-anchor="middle">Nov</text><rect width="39.8" height="1.5" x="153.6" y="271.9" fill="#19c37d" rx="2"/><text x="173.4" y="264.9" fill="#53fca1" font-size="9" text-anchor="middle">6.71M</text><text x="173.4" y="288" fill="#8b949e" font-size="10" text-anchor="middle">Dec</text><rect width="39.8" height="1.5" x="207.3" y="272" fill="#d97757" rx="2"/><rect width="39.8" height="1.5" x="207.3" y="271.7" fill="#19c37d" rx="2"/><rect width="39.8" height="1.5" x="207.3" y="271.7" fill="#8b949e" rx="2"/><text x="227.2" y="264.7" fill="#53fca1" font-size="9" text-anchor="middle">17.7M</text><text x="227.2" y="288" fill="#8b949e" font-size="10" text-anchor="middle">Jan</text><rect width="39.8" height="1.5" x="261.1" y="271.9" fill="#d97757" rx="2"/><rect width="39.8" height="6.3" x="261.1" y="265.7" fill="#19c37d" rx="2"/><rect width="39.8" height="3.9" x="261.1" y="261.8" fill="#a371f7" rx="2"/><rect width="39.8" height="1.5" x="261.1" y="261.3" fill="#58a6ff" rx="2"/><rect width="39.8" height="1.5" x="261.1" y="260.8" fill="#8b949e" rx="2"/><text x="281" y="253.8" fill="#53fca1" font-size="9" text-anchor="middle">637.3M</text><text x="281" y="288" fill="#8b949e" font-size="10" text-anchor="middle">Feb</text><rect width="39.8" height="6.9" x="314.9" y="265.1" fill="#d97757" rx="2"/><rect width="39.8" height="25.3" x="314.9" y="239.8" fill="#19c37d" rx="2"/><rect width="39.8" height="1.5" x="314.9" y="239.2" fill="#a371f7" rx="2"/><text x="334.8" y="232.2" fill="#53fca1" font-size="9" text-anchor="middle">1.86B</text><text x="334.8" y="288" fill="#8b949e" font-size="10" text-anchor="middle">Mar</text><rect width="39.8" height="5.9" x="368.7" y="266.1" fill="#d97757" rx="2"/><rect width="39.8" height="11.2" x="368.7" y="254.9" fill="#19c37d" rx="2"/><text x="388.6" y="247.9" fill="#53fca1" font-size="9" text-anchor="middle">929.9M</text><text x="388.6" y="288" fill="#8b949e" font-size="10" text-anchor="middle">Apr</text><rect width="39.8" height="129.6" x="422.4" y="142.4" fill="#d97757" rx="2"/><rect width="39.8" height="46.1" x="422.4" y="96.3" fill="#19c37d" rx="2"/><rect width="39.8" height="2.9" x="422.4" y="93.4" fill="#a371f7" rx="2"/><rect width="39.8" height="1.5" x="422.4" y="93.4" fill="#8b949e" rx="2"/><text x="442.3" y="86.4" fill="#53fca1" font-size="9" text-anchor="middle">10.2B</text><text x="442.3" y="288" fill="#8b949e" font-size="10" text-anchor="middle">May</text><rect width="39.8" height="13.5" x="476.2" y="258.5" fill="#d97757" rx="2"/><rect width="39.8" height="5.6" x="476.2" y="252.9" fill="#19c37d" rx="2"/><text x="496.1" y="245.9" fill="#53fca1" font-size="9" text-anchor="middle">1.08B</text><text x="496.1" y="288" fill="#8b949e" font-size="10" text-anchor="middle">Jun</text><rect width="9" height="9" x="46" y="302" fill="#d97757" rx="2"/><text x="60" y="310" fill="#c9d1d9" font-size="10">Claude</text><rect width="9" height="9" x="124" y="302" fill="#19c37d" rx="2"/><text x="138" y="310" fill="#c9d1d9" font-size="10">GPT</text><rect width="9" height="9" x="181" y="302" fill="#a371f7" rx="2"/><text x="195" y="310" fill="#c9d1d9" font-size="10">Kimi</text><rect width="9" height="9" x="245" y="302" fill="#58a6ff" rx="2"/><text x="259" y="310" fill="#c9d1d9" font-size="10">GLM</text><rect width="9" height="9" x="302" y="302" fill="#8b949e" rx="2"/><text x="316" y="310" fill="#c9d1d9" font-size="10">Other</text><text x="46" y="336" fill="#8b949e" font-size="11" letter-spacing="2">TOP MODELS · ALL-TIME</text><text x="46" y="359" fill="#c9d1d9" font-size="11">claude-opus-4-7</text><rect width="150" height="11" x="218" y="350" fill="#d97757" opacity=".9" rx="3"/><text x="376" y="359" fill="#8b949e" font-size="10">7.36B · $5,608</text><text x="46" y="383" fill="#c9d1d9" font-size="11">gpt-5.5</text><rect width="67.6" height="11" x="218" y="374" fill="#19c37d" opacity=".9" rx="3"/><text x="293.6" y="383" fill="#8b949e" font-size="10">3.32B · $2,572</text><text x="46" y="407" fill="#c9d1d9" font-size="11">gpt-5.3-codex</text><rect width="23.8" height="11" x="218" y="398" fill="#19c37d" opacity=".9" rx="3"/><text x="249.8" y="407" fill="#8b949e" font-size="10">1.17B · $370</text><text x="46" y="431" fill="#c9d1d9" font-size="11">gpt-5.4</text><rect width="17.7" height="11" x="218" y="422" fill="#19c37d" opacity=".9" rx="3"/><text x="243.7" y="431" fill="#8b949e" font-size="10">868.0M · $384</text><text x="46" y="455" fill="#c9d1d9" font-size="11">claude-opus-4-8</text><rect width="14.1" height="11" x="218" y="446" fill="#d97757" opacity=".9" rx="3"/><text x="240.1" y="455" fill="#8b949e" font-size="10">689.6M · $564</text><text x="46" y="479" fill="#c9d1d9" font-size="11">claude-opus-4-6</text><rect width="14" height="11" x="218" y="470" fill="#d97757" opacity=".9" rx="3"/><text x="240" y="479" fill="#8b949e" font-size="10">686.2M · $704</text><text x="46" y="503" fill="#c9d1d9" font-size="11">kimi-for-coding</text><rect width="8.5" height="11" x="218" y="494" fill="#a371f7" opacity=".9" rx="3"/><text x="234.5" y="503" fill="#8b949e" font-size="10">419.0M · $74</text><text x="46" y="527" fill="#c9d1d9" font-size="11">claude-4.1-opus-thinkin</text><rect width="2" height="11" x="218" y="518" fill="#d97757" opacity=".9" rx="3"/><text x="228" y="527" fill="#8b949e" font-size="10">97.0M · $388</text><text x="46" y="568" fill="#8b949e" font-size="11" letter-spacing="2">OPENCODE LAB · 12 MODELS TESTED</text><rect width="100" height="21" x="46" y="580" fill="#161b22" stroke="#58a6ff" stroke-opacity=".55" rx="10.5"/><text x="96" y="594" fill="#c9d1d9" font-size="10" text-anchor="middle">glm-5 · 28.7M</text><rect width="131" height="21" x="153" y="580" fill="#161b22" stroke="#8b949e" stroke-opacity=".55" rx="10.5"/><text x="218.5" y="594" fill="#c9d1d9" font-size="10" text-anchor="middle">pony-alpha · 26.4M</text><rect width="131" height="21" x="291" y="580" fill="#161b22" stroke="#8b949e" stroke-opacity=".55" rx="10.5"/><text x="356.5" y="594" fill="#c9d1d9" font-size="10" text-anchor="middle">big-pickle · 5.02M</text><rect width="163" height="21" x="46" y="608" fill="#161b22" stroke="#d97757" stroke-opacity=".55" rx="10.5"/><text x="127.5" y="622" fill="#c9d1d9" font-size="10" text-anchor="middle">claude-opus-4-5 · 4.29M</text><rect width="245" height="21" x="216" y="608" fill="#161b22" stroke="#8b949e" stroke-opacity=".55" rx="10.5"/><text x="338.5" y="622" fill="#c9d1d9" font-size="10" text-anchor="middle">nemotron-3-nano-30b-a3b:free · 1.22M</text><rect width="251" height="21" x="46" y="636" fill="#161b22" stroke="#8b949e" stroke-opacity=".55" rx="10.5"/><text x="171.5" y="650" fill="#c9d1d9" font-size="10" text-anchor="middle">nemotron-nano-12b-v2-vl:free · 148.9K</text><rect width="182" height="21" x="304" y="636" fill="#161b22" stroke="#8b949e" stroke-opacity=".55" rx="10.5"/><text x="395" y="650" fill="#c9d1d9" font-size="10" text-anchor="middle">qwen3.5-plus-02-15 · 60.1K</text><rect width="213" height="21" x="46" y="664" fill="#161b22" stroke="#8b949e" stroke-opacity=".55" rx="10.5"/><text x="152.5" y="678" fill="#c9d1d9" font-size="10" text-anchor="middle">gemma-4-e4b-obliterated · 46.6K</text><rect width="201" height="21" x="266" y="664" fill="#161b22" stroke="#8b949e" stroke-opacity=".55" rx="10.5"/><text x="366.5" y="678" fill="#c9d1d9" font-size="10" text-anchor="middle">deepseek-chat-v3-0324 · 25.4K</text><rect width="163" height="21" x="46" y="692" fill="#161b22" stroke="#8b949e" stroke-opacity=".55" rx="10.5"/><text x="127.5" y="706" fill="#c9d1d9" font-size="10" text-anchor="middle">deepseek-v4-pro · 23.7K</text><rect width="131" height="21" x="216" y="692" fill="#161b22" stroke="#58a6ff" stroke-opacity=".55" rx="10.5"/><text x="281.5" y="706" fill="#c9d1d9" font-size="10" text-anchor="middle">glm-5-free · 13.9K</text><rect width="207" height="21" x="46" y="720" fill="#161b22" stroke="#8b949e" stroke-opacity=".55" rx="10.5"/><text x="149.5" y="734" fill="#c9d1d9" font-size="10" text-anchor="middle">deepseek-v3.1-terminus · 10.8K</text><text x="46" y="775" fill="#8b949e" font-size="11" letter-spacing="2">LAST 30 DAYS · TOKENS/DAY</text><rect width="13.2" height="2.8" x="46" y="842.2" fill="#53fca1" opacity=".38" rx="2"/><rect width="13.2" height="12.9" x="62.2" y="832.1" fill="#53fca1" opacity=".49" rx="2"/><rect width="13.2" height="4.5" x="78.4" y="840.5" fill="#53fca1" opacity=".4" rx="2"/><rect width="13.2" height="8.9" x="94.6" y="836.1" fill="#53fca1" opacity=".45" rx="2"/><rect width="13.2" height="10.1" x="110.8" y="834.9" fill="#53fca1" opacity=".46" rx="2"/><rect width="13.2" height="17.8" x="127" y="827.2" fill="#53fca1" opacity=".54" rx="2"/><rect width="13.2" height="2" x="143.2" y="843" fill="#53fca1" opacity=".35" rx="2"/><rect width="13.2" height="6.9" x="159.4" y="838.1" fill="#53fca1" opacity=".43" rx="2"/><rect width="13.2" height="2.8" x="175.7" y="842.2" fill="#53fca1" opacity=".38" rx="2"/><rect width="13.2" height="14.5" x="191.9" y="830.5" fill="#53fca1" opacity=".51" rx="2"/><rect width="13.2" height="27.7" x="208.1" y="817.3" fill="#53fca1" opacity=".65" rx="2"/><rect width="13.2" height="12.4" x="224.3" y="832.6" fill="#53fca1" opacity=".48" rx="2"/><rect width="13.2" height="11.3" x="240.5" y="833.7" fill="#53fca1" opacity=".47" rx="2"/><rect width="13.2" height="25.7" x="256.7" y="819.3" fill="#53fca1" opacity=".63" rx="2"/><rect width="13.2" height="16.1" x="272.9" y="828.9" fill="#53fca1" opacity=".52" rx="2"/><rect width="13.2" height="18.9" x="289.1" y="826.1" fill="#53fca1" opacity=".55" rx="2"/><rect width="13.2" height="11.3" x="305.3" y="833.7" fill="#53fca1" opacity=".47" rx="2"/><rect width="13.2" height="4.5" x="321.5" y="840.5" fill="#53fca1" opacity=".4" rx="2"/><rect width="13.2" height="12.2" x="337.7" y="832.8" fill="#53fca1" opacity=".48" rx="2"/><rect width="13.2" height="13.7" x="353.9" y="831.3" fill="#53fca1" opacity=".5" rx="2"/><rect width="13.2" height="60" x="370.1" y="785" fill="#53fca1" opacity="1" rx="2"/><rect width="13.2" height="4.7" x="386.3" y="840.3" fill="#53fca1" opacity=".4" rx="2"/><rect width="13.2" height="3.2" x="402.6" y="841.8" fill="#53fca1" opacity=".38" rx="2"/><rect width="13.2" height="7.8" x="418.8" y="837.2" fill="#53fca1" opacity=".43" rx="2"/><rect width="13.2" height="2" x="435" y="843" fill="#53fca1" opacity=".36" rx="2"/><rect width="13.2" height="2" x="451.2" y="843" fill="#53fca1" opacity=".36" rx="2"/><rect width="13.2" height="2" x="467.4" y="843" fill="#53fca1" opacity=".37" rx="2"/><rect width="13.2" height="2" x="483.6" y="843" fill="#53fca1" opacity=".37" rx="2"/><rect width="13.2" height="6.4" x="499.8" y="838.6" fill="#ffb454" opacity="1" rx="2"/><text x="46" y="986" fill="#8b949e" font-size="10.5">Σ <tspan fill="#53fca1" font-weight="700">15,000,983,105</tspan> tok · cache <tspan fill="#53fca1">95.8%</tspan> · peak <tspan fill="#ffb454">2.42B</tspan> · <tspan fill="#a5d6ff">33</tspan> models</text><rect width="560" height="1012" fill="url(#scan)" rx="14"/></svg>