<svg xmlns="http://www.w3.org/2000/svg" viewBox="0 0 560 901" width="560" font-family="ui-monospace,'JetBrains Mono','SF Mono',Menlo,Consolas,monospace">
<defs>
  <linearGradient id="bg" x1="0" y1="0" x2="0" y2="1">
    <stop offset="0" stop-color="#0d1117"/><stop offset="1" stop-color="#10151d"/>
  </linearGradient>
  <pattern id="scan" width="4" height="4" patternUnits="userSpaceOnUse">
    <rect width="4" height="2" fill="#000" opacity="0.14"/>
  </pattern>
</defs>
<rect width="560" height="901" rx="14" fill="url(#bg)" stroke="#30363d"/>
<circle cx="24" cy="24" r="6" fill="#ff5f56"/><circle cx="44" cy="24" r="6" fill="#ffbd2e"/><circle cx="64" cy="24" r="6" fill="#27c93f"/>
<text x="280.0" y="28" text-anchor="middle" font-size="12" fill="#8b949e">token-ops</text>
<line x1="0" y1="42" x2="560" y2="42" stroke="#30363d"/>
<text x="46" y="70" font-size="12" fill="#8b949e">~ <tspan fill="#53fca1">❯</tspan> <tspan fill="#c9d1d9">ccusage monthly --json | jq .monthly</tspan></text>
<rect x="46.0" y="269.8" width="39.8" height="2.2" rx="2" fill="#19c37d"/><text x="65.9" y="262.8" text-anchor="middle" font-size="9" fill="#53fca1">157.5M</text><text x="65.9" y="288" text-anchor="middle" font-size="10" fill="#8b949e">Oct</text><rect x="99.8" y="272.0" width="39.8" height="1.5" rx="2" fill="#19c37d"/><text x="119.7" y="265.0" text-anchor="middle" font-size="9" fill="#53fca1">2.93M</text><text x="119.7" y="288" text-anchor="middle" font-size="10" fill="#8b949e">Nov</text><rect x="153.6" y="271.8" width="39.8" height="1.5" rx="2" fill="#19c37d"/><text x="173.4" y="264.8" text-anchor="middle" font-size="9" fill="#53fca1">13.4M</text><text x="173.4" y="288" text-anchor="middle" font-size="10" fill="#8b949e">Dec</text><rect x="207.3" y="272.0" width="39.8" height="1.5" rx="2" fill="#d97757"/><rect x="207.3" y="271.5" width="39.8" height="1.5" rx="2" fill="#19c37d"/><rect x="207.3" y="271.5" width="39.8" height="1.5" rx="2" fill="#8b949e"/><text x="227.2" y="264.5" text-anchor="middle" font-size="9" fill="#53fca1">33.3M</text><text x="227.2" y="288" text-anchor="middle" font-size="10" fill="#8b949e">Jan</text><rect x="261.1" y="271.9" width="39.8" height="1.5" rx="2" fill="#d97757"/><rect x="261.1" y="261.9" width="39.8" height="10.1" rx="2" fill="#19c37d"/><rect x="261.1" y="258.7" width="39.8" height="3.1" rx="2" fill="#a371f7"/><rect x="261.1" y="258.3" width="39.8" height="1.5" rx="2" fill="#58a6ff"/><rect x="261.1" y="257.9" width="39.8" height="1.5" rx="2" fill="#8b949e"/><text x="281.0" y="250.9" text-anchor="middle" font-size="9" fill="#53fca1">989.0M</text><text x="281.0" y="288" text-anchor="middle" font-size="10" fill="#8b949e">Feb</text><rect x="314.9" y="266.4" width="39.8" height="5.6" rx="2" fill="#d97757"/><rect x="314.9" y="241.1" width="39.8" height="25.3" rx="2" fill="#19c37d"/><rect x="314.9" y="240.6" width="39.8" height="1.5" rx="2" fill="#a371f7"/><text x="334.8" y="233.6" text-anchor="middle" font-size="9" fill="#53fca1">2.20B</text><text x="334.8" y="288" text-anchor="middle" font-size="10" fill="#8b949e">Mar</text><rect x="368.7" y="267.2" width="39.8" height="4.8" rx="2" fill="#d97757"/><rect x="368.7" y="255.9" width="39.8" height="11.3" rx="2" fill="#19c37d"/><text x="388.6" y="248.9" text-anchor="middle" font-size="9" fill="#53fca1">1.13B</text><text x="388.6" y="288" text-anchor="middle" font-size="10" fill="#8b949e">Apr</text><rect x="422.4" y="167.2" width="39.8" height="104.8" rx="2" fill="#d97757"/><rect x="422.4" y="94.4" width="39.8" height="72.8" rx="2" fill="#19c37d"/><rect x="422.4" y="92.0" width="39.8" height="2.4" rx="2" fill="#a371f7"/><rect x="422.4" y="92.0" width="39.8" height="1.5" rx="2" fill="#8b949e"/><text x="442.3" y="85.0" text-anchor="middle" font-size="9" fill="#53fca1">12.6B</text><text x="442.3" y="288" text-anchor="middle" font-size="10" fill="#8b949e">May</text><rect x="476.2" y="265.1" width="39.8" height="6.9" rx="2" fill="#d97757"/><rect x="476.2" y="260.3" width="39.8" height="4.8" rx="2" fill="#19c37d"/><text x="496.1" y="253.3" text-anchor="middle" font-size="9" fill="#53fca1">816.5M</text><text x="496.1" y="288" text-anchor="middle" font-size="10" fill="#8b949e">Jun</text><rect x="46" y="302" width="9" height="9" rx="2" fill="#d97757"/><text x="60" y="310" font-size="10" fill="#c9d1d9">Claude</text><rect x="124" y="302" width="9" height="9" rx="2" fill="#19c37d"/><text x="138" y="310" font-size="10" fill="#c9d1d9">GPT</text><rect x="181" y="302" width="9" height="9" rx="2" fill="#a371f7"/><text x="195" y="310" font-size="10" fill="#c9d1d9">Kimi</text><rect x="245" y="302" width="9" height="9" rx="2" fill="#58a6ff"/><text x="259" y="310" font-size="10" fill="#c9d1d9">GLM</text><rect x="302" y="302" width="9" height="9" rx="2" fill="#8b949e"/><text x="316" y="310" font-size="10" fill="#c9d1d9">Other</text><text x="46" y="336" font-size="11" letter-spacing="2" fill="#8b949e">TOP MODELS · ALL-TIME</text><text x="46" y="359" font-size="11" fill="#c9d1d9">claude-opus-4-7</text><rect x="218" y="350" width="150.0" height="11" rx="3" fill="#d97757" opacity="0.9"/><text x="376.0" y="359" font-size="10" fill="#8b949e">7.36B · $5,608</text><text x="46" y="383" font-size="11" fill="#c9d1d9">gpt-5.5</text><rect x="218" y="374" width="121.2" height="11" rx="3" fill="#19c37d" opacity="0.9"/><text x="347.2" y="383" font-size="10" fill="#8b949e">5.95B · $4,587</text><text x="46" y="407" font-size="11" fill="#c9d1d9">gpt-5.3-codex</text><rect x="218" y="398" width="33.6" height="11" rx="3" fill="#19c37d" opacity="0.9"/><text x="259.6" y="407" font-size="10" fill="#8b949e">1.65B · $506</text><text x="46" y="431" font-size="11" fill="#c9d1d9">gpt-5.4</text><rect x="218" y="422" width="22.5" height="11" rx="3" fill="#19c37d" opacity="0.9"/><text x="248.5" y="431" font-size="10" fill="#8b949e">1.10B · $489</text><text x="46" y="455" font-size="11" fill="#c9d1d9">claude-opus-4-6</text><rect x="218" y="446" width="14.0" height="11" rx="3" fill="#d97757" opacity="0.9"/><text x="240.0" y="455" font-size="10" fill="#8b949e">686.2M · $704</text><text x="46" y="479" font-size="11" fill="#c9d1d9">claude-opus-4-8</text><rect x="218" y="470" width="9.9" height="11" rx="3" fill="#d97757" opacity="0.9"/><text x="235.9" y="479" font-size="10" fill="#8b949e">487.3M · $428</text><text x="46" y="503" font-size="11" fill="#c9d1d9">kimi-for-coding</text><rect x="218" y="494" width="8.5" height="11" rx="3" fill="#a371f7" opacity="0.9"/><text x="234.5" y="503" font-size="10" fill="#8b949e">419.0M · $74</text><text x="46" y="527" font-size="11" fill="#c9d1d9">gpt-5-codex</text><rect x="218" y="518" width="3.3" height="11" rx="3" fill="#19c37d" opacity="0.9"/><text x="229.3" y="527" font-size="10" fill="#8b949e">160.4M · $34</text><text x="46" y="568" font-size="11" letter-spacing="2" fill="#8b949e">OPENCODE LAB · 12 MODELS TESTED</text><rect x="46" y="580" width="100" height="21" rx="10.5" fill="#161b22" stroke="#58a6ff" stroke-opacity="0.55"/><text x="96.0" y="594" text-anchor="middle" font-size="10" fill="#c9d1d9">glm-5 · 28.7M</text><rect x="153" y="580" width="131" height="21" rx="10.5" fill="#161b22" stroke="#8b949e" stroke-opacity="0.55"/><text x="218.5" y="594" text-anchor="middle" font-size="10" fill="#c9d1d9">pony-alpha · 26.4M</text><rect x="291" y="580" width="131" height="21" rx="10.5" fill="#161b22" stroke="#8b949e" stroke-opacity="0.55"/><text x="356.5" y="594" text-anchor="middle" font-size="10" fill="#c9d1d9">big-pickle · 5.02M</text><rect x="46" y="608" width="163" height="21" rx="10.5" fill="#161b22" stroke="#d97757" stroke-opacity="0.55"/><text x="127.5" y="622" text-anchor="middle" font-size="10" fill="#c9d1d9">claude-opus-4-5 · 4.29M</text><rect x="216" y="608" width="245" height="21" rx="10.5" fill="#161b22" stroke="#8b949e" stroke-opacity="0.55"/><text x="338.5" y="622" text-anchor="middle" font-size="10" fill="#c9d1d9">nemotron-3-nano-30b-a3b:free · 1.22M</text><rect x="46" y="636" width="251" height="21" rx="10.5" fill="#161b22" stroke="#8b949e" stroke-opacity="0.55"/><text x="171.5" y="650" text-anchor="middle" font-size="10" fill="#c9d1d9">nemotron-nano-12b-v2-vl:free · 148.9K</text><rect x="304" y="636" width="182" height="21" rx="10.5" fill="#161b22" stroke="#8b949e" stroke-opacity="0.55"/><text x="395.0" y="650" text-anchor="middle" font-size="10" fill="#c9d1d9">qwen3.5-plus-02-15 · 60.1K</text><rect x="46" y="664" width="213" height="21" rx="10.5" fill="#161b22" stroke="#8b949e" stroke-opacity="0.55"/><text x="152.5" y="678" text-anchor="middle" font-size="10" fill="#c9d1d9">gemma-4-e4b-obliterated · 46.6K</text><rect x="266" y="664" width="201" height="21" rx="10.5" fill="#161b22" stroke="#8b949e" stroke-opacity="0.55"/><text x="366.5" y="678" text-anchor="middle" font-size="10" fill="#c9d1d9">deepseek-chat-v3-0324 · 25.4K</text><rect x="46" y="692" width="163" height="21" rx="10.5" fill="#161b22" stroke="#8b949e" stroke-opacity="0.55"/><text x="127.5" y="706" text-anchor="middle" font-size="10" fill="#c9d1d9">deepseek-v4-pro · 23.7K</text><rect x="216" y="692" width="131" height="21" rx="10.5" fill="#161b22" stroke="#58a6ff" stroke-opacity="0.55"/><text x="281.5" y="706" text-anchor="middle" font-size="10" fill="#c9d1d9">glm-5-free · 13.9K</text><rect x="46" y="720" width="207" height="21" rx="10.5" fill="#161b22" stroke="#8b949e" stroke-opacity="0.55"/><text x="149.5" y="734" text-anchor="middle" font-size="10" fill="#c9d1d9">deepseek-v3.1-terminus · 10.8K</text><text x="46" y="775" font-size="11" letter-spacing="2" fill="#8b949e">LAST 30 DAYS · TOKENS/DAY</text><rect x="46.0" y="835.8" width="13.2" height="9.2" rx="2" fill="#53fca1" opacity="0.45"/><rect x="62.2" y="842.2" width="13.2" height="2.8" rx="2" fill="#53fca1" opacity="0.38"/><rect x="78.4" y="832.1" width="13.2" height="12.9" rx="2" fill="#53fca1" opacity="0.49"/><rect x="94.6" y="840.5" width="13.2" height="4.5" rx="2" fill="#53fca1" opacity="0.40"/><rect x="110.8" y="836.1" width="13.2" height="8.9" rx="2" fill="#53fca1" opacity="0.45"/><rect x="127.0" y="834.9" width="13.2" height="10.1" rx="2" fill="#53fca1" opacity="0.46"/><rect x="143.2" y="827.2" width="13.2" height="17.8" rx="2" fill="#53fca1" opacity="0.54"/><rect x="159.4" y="843.0" width="13.2" height="2.0" rx="2" fill="#53fca1" opacity="0.35"/><rect x="175.7" y="838.1" width="13.2" height="6.9" rx="2" fill="#53fca1" opacity="0.43"/><rect x="191.9" y="842.2" width="13.2" height="2.8" rx="2" fill="#53fca1" opacity="0.38"/><rect x="208.1" y="830.5" width="13.2" height="14.5" rx="2" fill="#53fca1" opacity="0.51"/><rect x="224.3" y="817.3" width="13.2" height="27.7" rx="2" fill="#53fca1" opacity="0.65"/><rect x="240.5" y="832.6" width="13.2" height="12.4" rx="2" fill="#53fca1" opacity="0.48"/><rect x="256.7" y="833.7" width="13.2" height="11.3" rx="2" fill="#53fca1" opacity="0.47"/><rect x="272.9" y="819.3" width="13.2" height="25.7" rx="2" fill="#53fca1" opacity="0.63"/><rect x="289.1" y="828.9" width="13.2" height="16.1" rx="2" fill="#53fca1" opacity="0.52"/><rect x="305.3" y="826.1" width="13.2" height="18.9" rx="2" fill="#53fca1" opacity="0.55"/><rect x="321.5" y="833.7" width="13.2" height="11.3" rx="2" fill="#53fca1" opacity="0.47"/><rect x="337.7" y="840.5" width="13.2" height="4.5" rx="2" fill="#53fca1" opacity="0.40"/><rect x="353.9" y="832.8" width="13.2" height="12.2" rx="2" fill="#53fca1" opacity="0.48"/><rect x="370.1" y="831.3" width="13.2" height="13.7" rx="2" fill="#53fca1" opacity="0.50"/><rect x="386.3" y="785.0" width="13.2" height="60.0" rx="2" fill="#53fca1" opacity="1.00"/><rect x="402.6" y="840.3" width="13.2" height="4.7" rx="2" fill="#53fca1" opacity="0.40"/><rect x="418.8" y="841.8" width="13.2" height="3.2" rx="2" fill="#53fca1" opacity="0.38"/><rect x="435.0" y="837.2" width="13.2" height="7.8" rx="2" fill="#53fca1" opacity="0.43"/><rect x="451.2" y="843.0" width="13.2" height="2.0" rx="2" fill="#53fca1" opacity="0.36"/><rect x="467.4" y="843.0" width="13.2" height="2.0" rx="2" fill="#53fca1" opacity="0.36"/><rect x="483.6" y="843.0" width="13.2" height="2.0" rx="2" fill="#53fca1" opacity="0.37"/><rect x="499.8" y="843.0" width="13.2" height="2.0" rx="2" fill="#ffb454" opacity="1.00"/><text x="46" y="875" font-size="11" fill="#8b949e">cache hit <tspan fill="#53fca1">95.9%</tspan> · peak day <tspan fill="#ffb454">2.42B</tspan> · models all-time <tspan fill="#a5d6ff">24</tspan></text>
<rect width="560" height="901" rx="14" fill="url(#scan)"/>
</svg>