<svg xmlns="http://www.w3.org/2000/svg" width="560" font-family="ui-monospace,'JetBrains Mono','SF Mono',Menlo,Consolas,monospace" viewBox="0 0 560 1067"><defs><linearGradient id="bg" x1="0" x2="0" y1="0" y2="1"><stop offset="0" stop-color="#0d1117"/><stop offset="1" stop-color="#10151d"/></linearGradient><pattern id="scan" width="4" height="4" patternUnits="userSpaceOnUse"><rect width="4" height="2" fill="#000" opacity=".14"/></pattern></defs><rect width="560" height="1067" fill="url(#bg)" stroke="#30363d" rx="14"/><circle cx="24" cy="24" r="6" fill="#ff5f56"/><circle cx="44" cy="24" r="6" fill="#ffbd2e"/><circle cx="64" cy="24" r="6" fill="#27c93f"/><text x="280" y="28" fill="#8b949e" font-size="12" text-anchor="middle">token-ops</text><line x1="0" x2="560" y1="42" y2="42" stroke="#30363d"/><text x="46" y="70" fill="#8b949e" font-size="12">~ <tspan fill="#53fca1">❯</tspan> <tspan fill="#c9d1d9">ccusage monthly --json | jq .monthly</tspan></text><rect width="39.8" height="1.5" x="46" y="272" fill="#d97757" rx="2"/><rect width="39.8" height="1.5" x="46" y="272" fill="#19c37d" rx="2"/><rect width="39.8" height="1.5" x="46" y="272" fill="#8b949e" rx="2"/><text x="65.9" y="265" fill="#53fca1" font-size="9" text-anchor="middle">23.2M</text><text x="65.9" y="288" fill="#8b949e" font-size="10" text-anchor="middle">Nov</text><rect width="39.8" height="1.5" x="99.8" y="271.9" fill="#19c37d" rx="2"/><rect width="39.8" height="1.5" x="99.8" y="271.9" fill="#8b949e" rx="2"/><text x="119.7" y="264.9" fill="#53fca1" font-size="9" text-anchor="middle">19.7M</text><text x="119.7" y="288" fill="#8b949e" font-size="10" text-anchor="middle">Dec</text><rect width="39.8" height="1.5" x="153.6" y="272" fill="#d97757" rx="2"/><rect width="39.8" height="1.5" x="153.6" y="271.7" fill="#19c37d" rx="2"/><rect width="39.8" height="1.5" x="153.6" y="271.7" fill="#8b949e" rx="2"/><text x="173.4" y="264.7" fill="#53fca1" font-size="9" text-anchor="middle">38.3M</text><text x="173.4" y="288" fill="#8b949e" font-size="10" text-anchor="middle">Jan</text><rect width="39.8" height="1.5" x="207.3" y="272" fill="#d97757" rx="2"/><rect width="39.8" height="6.1" x="207.3" y="265.9" fill="#19c37d" rx="2"/><rect width="39.8" height="1.9" x="207.3" y="264" fill="#a371f7" rx="2"/><rect width="39.8" height="1.5" x="207.3" y="263.7" fill="#58a6ff" rx="2"/><rect width="39.8" height="1.5" x="207.3" y="263.5" fill="#8b949e" rx="2"/><text x="227.2" y="256.5" fill="#53fca1" font-size="9" text-anchor="middle">998.0M</text><text x="227.2" y="288" fill="#8b949e" font-size="10" text-anchor="middle">Feb</text><rect width="39.8" height="3.4" x="261.1" y="268.6" fill="#d97757" rx="2"/><rect width="39.8" height="15.3" x="261.1" y="253.4" fill="#19c37d" rx="2"/><rect width="39.8" height="1.5" x="261.1" y="253.1" fill="#a371f7" rx="2"/><rect width="39.8" height="1.5" x="261.1" y="253.1" fill="#8b949e" rx="2"/><text x="281" y="246.1" fill="#53fca1" font-size="9" text-anchor="middle">2.20B</text><text x="281" y="288" fill="#8b949e" font-size="10" text-anchor="middle">Mar</text><rect width="39.8" height="2.9" x="314.9" y="269.1" fill="#d97757" rx="2"/><rect width="39.8" height="6.8" x="314.9" y="262.3" fill="#19c37d" rx="2"/><text x="334.8" y="255.3" fill="#53fca1" font-size="9" text-anchor="middle">1.13B</text><text x="334.8" y="288" fill="#8b949e" font-size="10" text-anchor="middle">Apr</text><rect width="39.8" height="63.2" x="368.7" y="208.8" fill="#d97757" rx="2"/><rect width="39.8" height="43.9" x="368.7" y="164.9" fill="#19c37d" rx="2"/><rect width="39.8" height="1.5" x="368.7" y="163.4" fill="#a371f7" rx="2"/><rect width="39.8" height="1.5" x="368.7" y="163.4" fill="#8b949e" rx="2"/><text x="388.6" y="156.4" fill="#53fca1" font-size="9" text-anchor="middle">12.6B</text><text x="388.6" y="288" fill="#8b949e" font-size="10" text-anchor="middle">May</text><rect width="39.8" height="154.3" x="422.4" y="117.7" fill="#d97757" rx="2"/><rect width="39.8" height="25.4" x="422.4" y="92.2" fill="#19c37d" rx="2"/><rect width="39.8" height="1.5" x="422.4" y="92" fill="#a371f7" rx="2"/><text x="442.3" y="85" fill="#53fca1" font-size="9" text-anchor="middle">20.9B</text><text x="442.3" y="288" fill="#8b949e" font-size="10" text-anchor="middle">Jun</text><rect width="39.8" height="10.1" x="476.2" y="261.9" fill="#d97757" rx="2"/><text x="496.1" y="254.9" fill="#53fca1" font-size="9" text-anchor="middle">1.17B</text><text x="496.1" y="288" fill="#8b949e" font-size="10" text-anchor="middle">Jul</text><rect width="9" height="9" x="46" y="302" fill="#d97757" rx="2"/><text x="60" y="310" fill="#c9d1d9" font-size="10">Claude</text><rect width="9" height="9" x="124" y="302" fill="#19c37d" rx="2"/><text x="138" y="310" fill="#c9d1d9" font-size="10">GPT</text><rect width="9" height="9" x="181" y="302" fill="#a371f7" rx="2"/><text x="195" y="310" fill="#c9d1d9" font-size="10">Kimi</text><rect width="9" height="9" x="245" y="302" fill="#58a6ff" rx="2"/><text x="259" y="310" fill="#c9d1d9" font-size="10">GLM</text><rect width="9" height="9" x="302" y="302" fill="#8b949e" rx="2"/><text x="316" y="310" fill="#c9d1d9" font-size="10">Other</text><text x="46" y="336" fill="#8b949e" font-size="11" letter-spacing="2">TOP MODELS · ALL-TIME</text><text x="46" y="359" fill="#c9d1d9" font-size="11">claude-opus-4-8</text><rect width="150" height="11" x="218" y="350" fill="#d97757" opacity=".9" rx="3"/><text x="376" y="359" fill="#8b949e" font-size="10">17.6B · $12,037</text><text x="46" y="383" fill="#c9d1d9" font-size="11">gpt-5.5</text><rect width="73" height="11" x="218" y="374" fill="#19c37d" opacity=".9" rx="3"/><text x="299" y="383" fill="#8b949e" font-size="10">8.56B · $6,641</text><text x="46" y="407" fill="#c9d1d9" font-size="11">claude-opus-4-7</text><rect width="62.7" height="11" x="218" y="398" fill="#d97757" opacity=".9" rx="3"/><text x="288.7" y="407" fill="#8b949e" font-size="10">7.36B · $5,608</text><text x="46" y="431" fill="#c9d1d9" font-size="11">gpt-5.3-codex</text><rect width="14" height="11" x="218" y="422" fill="#19c37d" opacity=".9" rx="3"/><text x="240" y="431" fill="#8b949e" font-size="10">1.65B · $506</text><text x="46" y="455" fill="#c9d1d9" font-size="11">claude-fable-5</text><rect width="9.7" height="11" x="218" y="446" fill="#d97757" opacity=".9" rx="3"/><text x="235.7" y="455" fill="#8b949e" font-size="10">1.14B · $1,723</text><text x="46" y="479" fill="#c9d1d9" font-size="11">gpt-5.4</text><rect width="9.4" height="11" x="218" y="470" fill="#19c37d" opacity=".9" rx="3"/><text x="235.4" y="479" fill="#8b949e" font-size="10">1.10B · $489</text><text x="46" y="503" fill="#c9d1d9" font-size="11">claude-opus-4-6</text><rect width="5.8" height="11" x="218" y="494" fill="#d97757" opacity=".9" rx="3"/><text x="231.8" y="503" fill="#8b949e" font-size="10">686.2M · $704</text><text x="46" y="527" fill="#c9d1d9" font-size="11">kimi-for-coding</text><rect width="3.8" height="11" x="218" y="518" fill="#a371f7" opacity=".9" rx="3"/><text x="229.8" y="527" fill="#8b949e" font-size="10">446.3M · $80</text><text x="46" y="568" fill="#8b949e" font-size="11" letter-spacing="2">OPENCODE LAB · 0 MODELS TESTED</text><text x="46" y="635" fill="#8b949e" font-size="11" letter-spacing="2">LAST 30 DAYS · TOKENS/DAY</text><rect width="12.7" height="5.3" x="46" y="699.7" fill="#53fca1" opacity=".41" rx="2"/><rect width="12.7" height="6" x="61.7" y="699" fill="#53fca1" opacity=".41" rx="2"/><rect width="12.7" height="26.2" x="77.3" y="678.8" fill="#53fca1" opacity=".63" rx="2"/><rect width="12.7" height="2.1" x="93" y="702.9" fill="#53fca1" opacity=".37" rx="2"/><rect width="12.7" height="2" x="108.7" y="703" fill="#53fca1" opacity=".37" rx="2"/><rect width="12.7" height="3.4" x="124.3" y="701.6" fill="#53fca1" opacity=".39" rx="2"/><rect width="12.7" height="2" x="140" y="703" fill="#53fca1" opacity=".36" rx="2"/><rect width="12.7" height="2" x="155.7" y="703" fill="#53fca1" opacity=".35" rx="2"/><rect width="12.7" height="2" x="171.3" y="703" fill="#53fca1" opacity=".36" rx="2"/><rect width="12.7" height="2" x="187" y="703" fill="#53fca1" opacity=".36" rx="2"/><rect width="12.7" height="7" x="202.7" y="698" fill="#53fca1" opacity=".43" rx="2"/><rect width="12.7" height="5.7" x="218.3" y="699.3" fill="#53fca1" opacity=".41" rx="2"/><rect width="12.7" height="4.7" x="234" y="700.3" fill="#53fca1" opacity=".4" rx="2"/><rect width="12.7" height="2" x="249.7" y="703" fill="#53fca1" opacity=".36" rx="2"/><rect width="12.7" height="3.1" x="265.3" y="701.9" fill="#53fca1" opacity=".38" rx="2"/><rect width="12.7" height="3.7" x="281" y="701.3" fill="#53fca1" opacity=".39" rx="2"/><rect width="12.7" height="6.2" x="296.7" y="698.8" fill="#53fca1" opacity=".42" rx="2"/><rect width="12.7" height="2.2" x="312.3" y="702.8" fill="#53fca1" opacity=".37" rx="2"/><rect width="12.7" height="52.3" x="328" y="652.7" fill="#53fca1" opacity=".92" rx="2"/><rect width="12.7" height="60" x="343.7" y="645" fill="#53fca1" opacity="1" rx="2"/><rect width="12.7" height="26.6" x="359.3" y="678.4" fill="#53fca1" opacity=".64" rx="2"/><rect width="12.7" height="7.1" x="375" y="697.9" fill="#53fca1" opacity=".43" rx="2"/><rect width="12.7" height="6.5" x="390.7" y="698.5" fill="#53fca1" opacity=".42" rx="2"/><rect width="12.7" height="2" x="406.3" y="703" fill="#53fca1" opacity=".36" rx="2"/><rect width="12.7" height="22.7" x="422" y="682.3" fill="#53fca1" opacity=".6" rx="2"/><rect width="12.7" height="2" x="437.7" y="703" fill="#53fca1" opacity=".35" rx="2"/><rect width="12.7" height="3.7" x="453.3" y="701.3" fill="#53fca1" opacity=".39" rx="2"/><rect width="12.7" height="3.2" x="469" y="701.8" fill="#53fca1" opacity=".38" rx="2"/><rect width="12.7" height="8.7" x="484.7" y="696.3" fill="#53fca1" opacity=".44" rx="2"/><rect width="12.7" height="3.9" x="500.3" y="701.1" fill="#ffb454" opacity="1" rx="2"/><text x="46" y="1041" fill="#8b949e" font-size="10.5">Σ <tspan fill="#53fca1" font-weight="700">39,422,247,751</tspan> tok · cache <tspan fill="#53fca1">97.0%</tspan> · peak <tspan fill="#ffb454">5.55B</tspan> · <tspan fill="#a5d6ff">43</tspan> models</text><rect width="560" height="1067" fill="url(#scan)" rx="14"/></svg>