<svg xmlns="http://www.w3.org/2000/svg" width="1200" font-family="ui-monospace,'JetBrains Mono','SF Mono',Menlo,Consolas,monospace" viewBox="0 0 1200 630"><defs><linearGradient id="wbg" x1="0" x2="0" y1="0" y2="1"><stop offset="0" stop-color="#0a0f17"/><stop offset="1" stop-color="#070b10"/></linearGradient><pattern id="wdots" width="26" height="26" patternUnits="userSpaceOnUse"><circle cx="2" cy="2" r="1" fill="#16202c"/></pattern></defs><rect width="1200" height="630" fill="url(#wbg)"/><rect width="1200" height="630" fill="url(#wdots)"/><rect width="1172" height="602" x="14" y="14" fill="none" stroke="#30363d" stroke-width="1.5"/><text x="70" y="84" fill="#8b949e" font-size="15" letter-spacing="6">MAXMONEYCASH · ANNUAL COMPUTE REPORT</text><text x="70" y="146" fill="#c9d1d9" font-size="44" font-weight="700">YEAR IN <tspan fill="#53fca1">TOKENS</tspan></text><text x="1130" y="84" fill="#ffb454" font-size="13" text-anchor="end">JUL 2025 — JUL 2026</text><text x="600" y="276" fill="#53fca1" font-size="96" font-weight="700" text-anchor="middle">39,422,247,751</text><text x="600" y="316" fill="#8b949e" font-size="15" letter-spacing="4" text-anchor="middle">TOKENS ACROSS SIX CODING AGENTS · $28,380 BURNED</text><rect width="709.6" height="30" x="70" y="366" fill="#d97757" rx="4"/><text x="78" y="386" fill="#070b10" font-size="11" font-weight="700">CLAUDE CODE 26.5B</text><rect width="299.1" height="30" x="781.6" y="366" fill="#19c37d" rx="4"/><text x="789.6" y="386" fill="#070b10" font-size="11" font-weight="700">CODEX 11.2B</text><rect width="25.2" height="30" x="1082.7" y="366" fill="#58a6ff" rx="4"/><rect width="10.2" height="30" x="1109.9" y="366" fill="#a371f7" rx="4"/><rect width="4.2" height="30" x="1122" y="366" fill="#e3e9f0" rx="4"/><rect width="1" height="30" x="1128.2" y="366" fill="#f2cc60" rx="4"/><circle cx="75" cy="418" r="5" fill="#d97757"/><text x="86" y="422" fill="#c9d1d9" font-size="11">CLAUDE CODE 67%</text><circle cx="222" cy="418" r="5" fill="#19c37d"/><text x="233" y="422" fill="#c9d1d9" font-size="11">CODEX 28%</text><circle cx="327" cy="418" r="5" fill="#58a6ff"/><text x="338" y="422" fill="#c9d1d9" font-size="11">DROID 3%</text><circle cx="425" cy="418" r="5" fill="#a371f7"/><text x="436" y="422" fill="#c9d1d9" font-size="11">KIMI CODE 1%</text><circle cx="551" cy="418" r="5" fill="#e3e9f0"/><text x="562" y="422" fill="#c9d1d9" font-size="11">CURSOR 1%</text><circle cx="656" cy="418" r="5" fill="#f2cc60"/><text x="667" y="422" fill="#c9d1d9" font-size="11">OPENCODE 0%</text><text x="202.5" y="510" fill="#53fca1" font-size="34" font-weight="700" text-anchor="middle">122.3M</text><text x="202.5" y="533" fill="#8b949e" font-size="10" letter-spacing="2" text-anchor="middle">OUTPUT WRITTEN</text><text x="202.5" y="550" fill="#c9d1d9" font-size="10" opacity=".75" text-anchor="middle">≈ 1,020 novels</text><text x="467.5" y="510" fill="#ffb454" font-size="34" font-weight="700" text-anchor="middle">97.0%</text><text x="467.5" y="533" fill="#8b949e" font-size="10" letter-spacing="2" text-anchor="middle">CACHE HIT RATE</text><text x="467.5" y="550" fill="#c9d1d9" font-size="10" opacity=".75" text-anchor="middle">context re-reads</text><line x1="335" x2="335" y1="478" y2="552" stroke="#30363d"/><text x="732.5" y="510" fill="#53fca1" font-size="34" font-weight="700" text-anchor="middle">45</text><text x="732.5" y="533" fill="#8b949e" font-size="10" letter-spacing="2" text-anchor="middle">MODELS USED</text><text x="732.5" y="550" fill="#c9d1d9" font-size="10" opacity=".75" text-anchor="middle">claude · fable · gpt · kimi +</text><line x1="600" x2="600" y1="478" y2="552" stroke="#30363d"/><text x="997.5" y="510" fill="#ffb454" font-size="34" font-weight="700" text-anchor="middle">$2,183</text><text x="997.5" y="533" fill="#8b949e" font-size="10" letter-spacing="2" text-anchor="middle">AVG / MONTH</text><text x="997.5" y="550" fill="#c9d1d9" font-size="10" opacity=".75" text-anchor="middle">every month, all year</text><line x1="865" x2="865" y1="478" y2="552" stroke="#30363d"/><line x1="70" x2="1130" y1="582" y2="582" stroke="#30363d"/><text x="70" y="606" fill="#8b949e" font-size="11">github.com/maxmoneycash</text><text x="1130" y="606" fill="#8b949e" font-size="11" text-anchor="end">audited from raw agent logs · rendered 2026-07-02</text></svg>